<svg xmlns="http://www.w3.org/2000/svg" viewBox="0 0 287.36 272.65"><defs><style>.cls-1{fill:#ff0098;}.cls-2{fill:#00efdd;}.cls-3{fill:none;stroke:#ff0098;stroke-miterlimit:10;}</style></defs><title>Fichier 7</title><g id="Calque_2" data-name="Calque 2"><g id="contact"><g id="tableau"><rect x="0.97" y="2.85" width="285.43" height="268.83"/><path class="cls-1" d="M286.9,272.18H.47V2.35H286.9Zm-285.43-1H285.9V3.35H1.47Z"/><path d="M286.86,272.15H.5V2.39H286.86ZM1.43,271.22h284.5V3.32H1.43Z"/><path class="cls-1" d="M287.36,272.65H0V1.89H287.36ZM1.93,270.72h283.5V3.82H1.93Z"/><rect class="cls-1" x="0.5" width="286.02" height="13.36"/><rect class="cls-2" x="277.43" y="3.6" width="6.26" height="6.26"/><rect class="cls-2" x="268.48" y="3.6" width="6.26" height="6.26"/><rect class="cls-2" x="259.53" y="3.6" width="6.26" height="6.26"/><rect class="cls-3" x="16.32" y="25.3" width="254.73" height="18.42"/><path class="cls-3" d="M271.28,44H16.08V25.07h255.2ZM16.55,43.49H270.81v-18H16.55Z"/><rect class="cls-3" x="16.35" y="88.11" width="254.66" height="171.34"/><path class="cls-3" d="M271.25,259.68H16.12V87.87H271.25Zm-254.67-.47h254.2V88.34H16.58Z"/><rect class="cls-3" x="16.32" y="55.37" width="254.73" height="18.39"/><path class="cls-3" d="M271.28,74H16.08V55.13h255.2ZM16.55,73.53H270.81V55.6H16.55Z"/></g></g></g></svg>