<svg xmlns="http://www.w3.org/2000/svg" xmlns:xlink="http://www.w3.org/1999/xlink" viewBox="0 0 1027.35 888.4"><defs><style>.cls-1{isolation:isolate;}.cls-2{fill:#b7a78b;}.cls-3{fill:#d8cbbb;}.cls-4{fill:#891dfc;}.cls-5{fill:url(#Dégradé_sans_nom_12);}.cls-6{fill:url(#Dégradé_sans_nom_22);}.cls-7{fill:url(#Dégradé_sans_nom_24);}.cls-12,.cls-8,.cls-9{opacity:0.35;}.cls-8{fill:url(#Dégradé_sans_nom_75);}.cls-9{fill:url(#Dégradé_sans_nom_75-2);}.cls-10{fill:url(#Dégradé_sans_nom_12-2);}.cls-11{fill:url(#Dégradé_sans_nom_31);}.cls-12{fill:url(#Dégradé_sans_nom_75-3);}.cls-13{fill:#e0ceb1;}.cls-14{fill:#15121e;opacity:0.28;}.cls-15{fill:#7f6e57;}.cls-16{fill:#a89476;}.cls-17{fill:#e8d5ba;}.cls-18{mix-blend-mode:overlay;fill:url(#Dégradé_sans_nom_400);}</style><linearGradient id="Dégradé_sans_nom_12" x1="724.07" y1="832.85" x2="724.07" y2="761.3" gradientUnits="userSpaceOnUse"><stop offset="0" stop-color="#e0ceb1"/><stop offset="1" stop-color="#7f6e57"/></linearGradient><linearGradient id="Dégradé_sans_nom_22" x1="897.47" y1="764.17" x2="897.47" y2="756.06" gradientTransform="translate(1794.94 1518.42) rotate(180)" gradientUnits="userSpaceOnUse"><stop offset="0" stop-color="#685947"/><stop offset="1" stop-color="#7f6e57"/></linearGradient><linearGradient id="Dégradé_sans_nom_24" x1="661.03" y1="784.85" x2="661.03" y2="772.43" gradientUnits="userSpaceOnUse"><stop offset="0" stop-color="#b29d8f" stop-opacity="0.35"/><stop offset="1" stop-color="#7f6e57"/></linearGradient><linearGradient id="Dégradé_sans_nom_75" x1="897.47" y1="823.97" x2="897.47" y2="816.94" gradientUnits="userSpaceOnUse"><stop offset="0" stop-color="#fff"/><stop offset="1" stop-color="#5e20b7" stop-opacity="0"/></linearGradient><linearGradient id="Dégradé_sans_nom_75-2" x1="661.03" y1="806.86" x2="661.03" y2="800.29" xlink:href="#Dégradé_sans_nom_75"/><linearGradient id="Dégradé_sans_nom_12-2" x1="155.66" y1="831.83" x2="155.66" y2="696.71" xlink:href="#Dégradé_sans_nom_12"/><linearGradient id="Dégradé_sans_nom_31" x1="155.66" y1="784.85" x2="155.66" y2="727.43" gradientUnits="userSpaceOnUse"><stop offset="0" stop-color="#c6b499"/><stop offset="1" stop-color="#7f6e57"/></linearGradient><linearGradient id="Dégradé_sans_nom_75-3" x1="155.66" y1="811.74" x2="155.66" y2="804.17" xlink:href="#Dégradé_sans_nom_75"/><linearGradient id="Dégradé_sans_nom_400" y1="444.2" x2="1027.35" y2="444.2" gradientUnits="userSpaceOnUse"><stop offset="0" stop-color="#0400e9"/><stop offset="1" stop-color="#7400d4"/></linearGradient></defs><title>Fichier 5</title><g class="cls-1"><g id="Calque_2" data-name="Calque 2"><g id="écran"><rect x="39.88" y="99.57" width="930.64" height="641.87"/></g><g id="ordinateur"><path class="cls-2" d="M1026.69,41c-3.58-21.29-21.24-37.45-42.5-37.45H44.3C20.47,3.57,1.14,23.9,1.14,49V878.24a11.22,11.22,0,0,0,3.17,7.82h8.08v-.21h1015V49A48.52,48.52,0,0,0,1026.69,41ZM85.46,185.81c0-24.9,19.74-45.36,44.18-46.11l34.51.05,54.72.09,680.2,1.08a46.2,46.2,0,0,1,35.07,44.89V659.23a46.35,46.35,0,0,1-22.74,39.88,44.84,44.84,0,0,1-22.85,6.25H131.05A44.74,44.74,0,0,1,109.73,700a46.32,46.32,0,0,1-24.27-40.74Zm96.7,626.4h-53v-53h53ZM960.51,824.4H834.43V807.24H487.63V770h346.8V754.24H960.51Z"/><path class="cls-3" d="M32.24,0h964a31.1,31.1,0,0,1,31.1,31.1V54.64a0,0,0,0,1,0,0H1.14a0,0,0,0,1,0,0V31.1A31.1,31.1,0,0,1,32.24,0Z"/><path id="ordi" class="cls-4" d="M834.43,754.24V770H487.63v37.22h346.8V824.4H960.51V754.24Zm-705.27,5v53h53v-53Z"/><polygon class="cls-5" points="960.51 754.24 960.51 824.4 834.43 824.4 834.43 807.24 487.63 807.24 487.63 770.02 834.43 770.02 834.43 754.24 960.51 754.24"/><rect class="cls-6" x="834.43" y="754.24" width="126.08" height="9.93"/><rect class="cls-7" x="487.63" y="770.24" width="346.8" height="11.66"/><rect class="cls-8" x="834.43" y="814.47" width="126.08" height="9.94"/><rect class="cls-9" x="487.63" y="794.57" width="346.8" height="12.66"/><rect class="cls-10" x="129.16" y="759.21" width="53" height="53"/><rect class="cls-11" x="129.16" y="759.21" width="53" height="9.93"/><rect class="cls-12" x="129.16" y="801.51" width="53" height="10.7"/><g id="Calque_10" data-name="Calque 10"><path class="cls-13" d="M145.08,769.16h10.28a19,19,0,0,1,4.48.52,12.08,12.08,0,0,1,3.86,1.65,8.37,8.37,0,0,1,3.78,7.36,8.48,8.48,0,0,1-1,4.3,9.22,9.22,0,0,1-2.7,3,11.47,11.47,0,0,1-3.72,1.69,16,16,0,0,1-4.07.54h-3.09v10.2h-7.78Zm9.45,13.5a12,12,0,0,0,2.07-.17,4.35,4.35,0,0,0,1.63-.61,3,3,0,0,0,1.08-1.21,4.23,4.23,0,0,0,.4-2,4.39,4.39,0,0,0-.4-2,3,3,0,0,0-1.08-1.21,4.33,4.33,0,0,0-1.63-.59,14.65,14.65,0,0,0-2.07-.14H152.9v7.94Z"/><path class="cls-14" d="M165.18,852.61h0a9.52,9.52,0,0,1,9.52,9.52V886.4a0,0,0,0,1,0,0h-19a0,0,0,0,1,0,0V862.12A9.52,9.52,0,0,1,165.18,852.61Z"/><path class="cls-14" d="M194.59,852.61h0a9.52,9.52,0,0,1,9.52,9.52V886.4a0,0,0,0,1,0,0h-19a0,0,0,0,1,0,0V862.12a9.52,9.52,0,0,1,9.52-9.52Z"/><path class="cls-14" d="M224,852.61h0a9.52,9.52,0,0,1,9.52,9.52V886.4a0,0,0,0,1,0,0h-19a0,0,0,0,1,0,0V862.12A9.52,9.52,0,0,1,224,852.61Z"/><path class="cls-14" d="M253.43,852.61h0a9.52,9.52,0,0,1,9.52,9.52V886.4a0,0,0,0,1,0,0h-19a0,0,0,0,1,0,0V862.12A9.52,9.52,0,0,1,253.43,852.61Z"/><path class="cls-14" d="M282.84,852.61h0a9.52,9.52,0,0,1,9.52,9.52V886.4a0,0,0,0,1,0,0h-19a0,0,0,0,1,0,0V862.12A9.52,9.52,0,0,1,282.84,852.61Z"/><path class="cls-14" d="M312.26,852.61h0a9.52,9.52,0,0,1,9.52,9.52V886.4a0,0,0,0,1,0,0h-19a0,0,0,0,1,0,0V862.12A9.52,9.52,0,0,1,312.26,852.61Z"/><path class="cls-14" d="M341.67,852.61h0a9.52,9.52,0,0,1,9.52,9.52V886.4a0,0,0,0,1,0,0h-19a0,0,0,0,1,0,0V862.12A9.52,9.52,0,0,1,341.67,852.61Z"/><path class="cls-14" d="M371.09,852.61h0a9.52,9.52,0,0,1,9.52,9.52V886.4a0,0,0,0,1,0,0h-19a0,0,0,0,1,0,0V862.12A9.52,9.52,0,0,1,371.09,852.61Z"/><path class="cls-14" d="M400.5,852.61h0a9.52,9.52,0,0,1,9.52,9.52V886.4a0,0,0,0,1,0,0H391a0,0,0,0,1,0,0V862.12A9.52,9.52,0,0,1,400.5,852.61Z"/><path class="cls-14" d="M429.92,852.61h0a9.52,9.52,0,0,1,9.52,9.52V886.4a0,0,0,0,1,0,0h-19a0,0,0,0,1,0,0V862.12A9.52,9.52,0,0,1,429.92,852.61Z"/><path class="cls-14" d="M459.33,852.61h0a9.52,9.52,0,0,1,9.52,9.52V886.4a0,0,0,0,1,0,0h-19a0,0,0,0,1,0,0V862.12A9.52,9.52,0,0,1,459.33,852.61Z"/><path class="cls-14" d="M488.75,852.61h0a9.52,9.52,0,0,1,9.52,9.52V886.4a0,0,0,0,1,0,0h-19a0,0,0,0,1,0,0V862.12A9.52,9.52,0,0,1,488.75,852.61Z"/><path class="cls-14" d="M518.16,852.61h0a9.52,9.52,0,0,1,9.52,9.52V886.4a0,0,0,0,1,0,0h-19a0,0,0,0,1,0,0V862.12A9.52,9.52,0,0,1,518.16,852.61Z"/><path class="cls-14" d="M547.58,852.61h0a9.52,9.52,0,0,1,9.52,9.52V886.4a0,0,0,0,1,0,0h-19a0,0,0,0,1,0,0V862.12A9.52,9.52,0,0,1,547.58,852.61Z"/><path class="cls-14" d="M577,852.61h0a9.52,9.52,0,0,1,9.52,9.52V886.4a0,0,0,0,1,0,0h-19a0,0,0,0,1,0,0V862.12A9.52,9.52,0,0,1,577,852.61Z"/><path class="cls-14" d="M606.41,852.61h0a9.52,9.52,0,0,1,9.52,9.52V886.4a0,0,0,0,1,0,0h-19a0,0,0,0,1,0,0V862.12a9.52,9.52,0,0,1,9.52-9.52Z"/><path class="cls-14" d="M635.82,852.61h0a9.52,9.52,0,0,1,9.52,9.52V886.4a0,0,0,0,1,0,0h-19a0,0,0,0,1,0,0V862.12A9.52,9.52,0,0,1,635.82,852.61Z"/><path class="cls-14" d="M665.24,852.61h0a9.52,9.52,0,0,1,9.52,9.52V886.4a0,0,0,0,1,0,0h-19a0,0,0,0,1,0,0V862.12A9.52,9.52,0,0,1,665.24,852.61Z"/><path class="cls-14" d="M694.66,852.61h0a9.52,9.52,0,0,1,9.52,9.52V886.4a0,0,0,0,1,0,0h-19a0,0,0,0,1,0,0V862.12a9.52,9.52,0,0,1,9.52-9.52Z"/><path class="cls-14" d="M724.07,852.61h0a9.52,9.52,0,0,1,9.52,9.52V886.4a0,0,0,0,1,0,0h-19a0,0,0,0,1,0,0V862.12A9.52,9.52,0,0,1,724.07,852.61Z"/><path class="cls-14" d="M753.49,852.61h0a9.52,9.52,0,0,1,9.52,9.52V886.4a0,0,0,0,1,0,0H744a0,0,0,0,1,0,0V862.12a9.52,9.52,0,0,1,9.52-9.52Z"/><path class="cls-14" d="M782.9,852.61h0a9.52,9.52,0,0,1,9.52,9.52V886.4a0,0,0,0,1,0,0h-19a0,0,0,0,1,0,0V862.12a9.52,9.52,0,0,1,9.52-9.52Z"/><path class="cls-14" d="M812.32,852.61h0a9.52,9.52,0,0,1,9.52,9.52V886.4a0,0,0,0,1,0,0h-19a0,0,0,0,1,0,0V862.12A9.52,9.52,0,0,1,812.32,852.61Z"/><path class="cls-14" d="M841.73,852.61h0a9.52,9.52,0,0,1,9.52,9.52V886.4a0,0,0,0,1,0,0h-19a0,0,0,0,1,0,0V862.12A9.52,9.52,0,0,1,841.73,852.61Z"/></g><path class="cls-15" d="M960.51,131.84V713.2a17.9,17.9,0,0,1-17.79,18h-8.34l-26.54-24.64-739.31-1.12,0-.08h720a44.84,44.84,0,0,0,22.85-6.25,46.35,46.35,0,0,0,22.74-39.88V185.81a46.2,46.2,0,0,0-35.07-44.89h4.8l.69-.62,29.58-26.47h8.58a17.64,17.64,0,0,1,13.13,5.86A18,18,0,0,1,960.51,131.84Z"/><path class="cls-13" d="M131.05,705.36v0l-15.09,0L85.69,731.2H79a17.9,17.9,0,0,1-17.79-18V131.84a18,18,0,0,1,4.66-12.14A17.64,17.64,0,0,1,79,113.84h6.5l6,5.86,20.51,20,15.58,0a45.44,45.44,0,0,0-43.9,45.4V659.94a45.18,45.18,0,0,0,6.26,23l.06.1a44.26,44.26,0,0,0,3.4,5c.21.28.43.55.66.82s.56.68.85,1l.49.55c.23.26.46.51.7.75.67.72,1.38,1.41,2.1,2.08.4.38.81.74,1.22,1.09s.81.7,1.23,1a.18.18,0,0,0,.09.08c.39.32.8.64,1.21.93a.1.1,0,0,0,.06,0c.39.3.78.58,1.18.85l.19.13c.42.3.85.59,1.29.86s.93.59,1.4.86.94.55,1.43.81,1,.52,1.47.76c.76.38,1.53.74,2.31,1.06a8.93,8.93,0,0,0,.85.35c.52.22,1,.43,1.59.61.38.15.76.28,1.15.4s.75.25,1.13.36c1.27.38,2.56.71,3.87,1l.63.12c.32.07.64.13,1,.18s.92.15,1.39.21l.35.05.83.1,1,.1,1.27.1,1.2.05c.51,0,1,0,1.55,0Z"/><polygon class="cls-16" points="934.14 113.84 904.56 140.31 903.87 140.93 899.07 140.92 218.87 139.84 164.15 139.75 129.64 139.7 127.57 139.69 111.99 139.67 85.46 113.84 934.14 113.84"/><polygon class="cls-17" points="934.38 731.2 85.69 731.2 115.96 705.36 131.05 705.38 168.53 705.44 907.84 706.56 934.38 731.2"/><polygon points="555.68 781.9 555.68 795.1 867.63 795.1 867.63 807.24 938.89 807.24 938.89 795.1 938.89 788.24 938.89 781.9 555.68 781.9"/><path class="cls-18" d="M1027.35,888.4V31.19A31.16,31.16,0,0,0,996.22,0H31.13A31.13,31.13,0,0,0,1,23.54s0,0,0,0A31.23,31.23,0,0,0,0,31.19V884.31a11.31,11.31,0,0,0,.77,4.09Zm-942.28-702c0-25,19.77-45.48,44.23-46.23l34.55,0,54.78.09,681,1.09a46.29,46.29,0,0,1,35.11,45V661a46.46,46.46,0,0,1-22.77,40,44.8,44.8,0,0,1-22.87,6.27H130.72a44.86,44.86,0,0,1-21.35-5.4A46.46,46.46,0,0,1,85.07,661Z"/></g></g></g></svg>