<svg xmlns="http://www.w3.org/2000/svg" viewBox="0 0 287.36 270.78"><defs><style>.cls-1{fill:#ff0098;}.cls-2{fill:#00efdd;}.cls-3{fill:none;stroke:#ff0098;stroke-miterlimit:10;}</style></defs><title>Fichier 2</title><g id="Calque_2" data-name="Calque 2"><g id="contact"><g id="tableau"><rect x="0.97" y="0.98" width="285.43" height="268.83"/><path class="cls-1" d="M286.9,270.31H.47V.48H286.9Zm-285.43-1H285.9V1.48H1.47Z"/><path d="M286.86,270.28H.5V.51H286.86ZM1.43,269.35h284.5V1.45H1.43Z"/><path class="cls-1" d="M287.36,270.78H0V0H287.36ZM1.93,268.84h283.5V2H1.93Z"/><rect class="cls-1" x="0.16" width="286.02" height="13.36"/><rect class="cls-2" x="277.43" y="1.72" width="6.26" height="6.26"/><rect class="cls-2" x="268.48" y="1.72" width="6.26" height="6.26"/><rect class="cls-2" x="259.53" y="1.72" width="6.26" height="6.26"/><rect class="cls-3" x="16.32" y="23.43" width="254.73" height="18.42"/><path class="cls-3" d="M271.28,42.09H16.08V23.2h255.2ZM16.55,41.62H270.81v-18H16.55Z"/><rect class="cls-3" x="16.35" y="86.23" width="254.66" height="171.34"/><path class="cls-3" d="M271.25,257.81H16.12V86H271.25Zm-254.67-.47h254.2V86.47H16.58Z"/><rect class="cls-3" x="16.32" y="53.49" width="254.73" height="18.39"/><path class="cls-3" d="M271.28,72.12H16.08V53.26h255.2ZM16.55,71.65H270.81V53.73H16.55Z"/></g></g></g></svg>