<svg id="fond" xmlns="http://www.w3.org/2000/svg" xmlns:xlink="http://www.w3.org/1999/xlink" viewBox="0 0 1920 1080"><defs><style>.cls-1{fill:none;}.cls-2{clip-path:url(#clip-path);}.cls-3{fill:#00efdd;}</style><clipPath id="clip-path"><rect class="cls-1" y="120.84" width="1920" height="963.55"/></clipPath></defs><title>Plan de travail 1</title><g id="scanline"><g class="cls-2"><path class="cls-3" d="M3858.07,1205.79H-1908.08l9.42-2.36,1913.51-480H1935Zm-5746.72-2.4h5727.3L1934.71,725.75l-1919.56,0Z"/><rect class="cls-3" x="-1079.43" y="997.95" width="4108.86" height="2.4"/><rect class="cls-3" x="-823.18" y="933.66" width="3596.36" height="2.4"/><rect class="cls-3" x="-623.77" y="883.64" width="3197.54" height="2.4"/><rect class="cls-3" x="-464.17" y="843.6" width="2878.34" height="2.4"/><rect class="cls-3" x="-333.54" y="810.83" width="2617.08" height="2.4"/><rect class="cls-3" x="-224.65" y="783.51" width="2399.31" height="2.4"/><rect class="cls-3" x="-132.49" y="760.39" width="2214.99" height="2.4"/><rect class="cls-3" x="-53.49" y="740.57" width="2056.97" height="2.4"/><polygon class="cls-3" points="3574.39 1205.75 1843.25 725.75 1843.89 723.43 3575.03 1203.43 3574.39 1205.75"/><rect class="cls-3" x="2525.4" y="153.8" width="2.4" height="1621.58" transform="translate(857.35 3092.43) rotate(-72.78)"/><rect class="cls-3" x="2342.86" y="240.33" width="2.4" height="1448.53" transform="translate(657.22 2856.57) rotate(-70.65)"/><rect class="cls-3" x="2160.32" y="325.58" width="2.4" height="1278.02" transform="translate(455.72 2605.58) rotate(-67.94)"/><polygon class="cls-3" points="2479.57 1205.67 1477.34 725.67 1478.38 723.51 2480.62 1203.51 2479.57 1205.67"/><polygon class="cls-3" points="2205.83 1205.63 1385.82 725.63 1387.03 723.55 2207.04 1203.55 2205.83 1205.63"/><rect class="cls-3" x="1612.69" y="565.47" width="2.4" height="798.23" transform="translate(-127.3 1674.05) rotate(-53.03)"/><polygon class="cls-3" points="1658.26 1205.41 1202.7 725.41 1204.44 723.76 1660.01 1203.76 1658.26 1205.41"/><polygon class="cls-3" points="1384.44 1205.18 1111.1 725.18 1113.18 723.99 1386.52 1203.99 1384.44 1205.18"/><rect class="cls-3" x="1065.07" y="720.3" width="2.4" height="488.57" transform="translate(-161.18 215.78) rotate(-10.75)"/><polygon class="cls-3" points="839.35 1204.81 837 1204.36 928.11 724.36 930.46 724.81 839.35 1204.81"/><polygon class="cls-3" points="565.56 1205.18 563.48 1203.99 836.82 723.99 838.9 725.18 565.56 1205.18"/><rect class="cls-3" x="187.76" y="963.39" width="661.77" height="2.4" transform="matrix(0.69, -0.73, 0.73, 0.69, -538.08, 676.91)"/><rect class="cls-3" x="-63.01" y="963.39" width="798.23" height="2.4" transform="translate(-511.97 395.23) rotate(-36.91)"/><rect class="cls-3" x="-321.52" y="963.39" width="950.17" height="2.4" transform="translate(-466.6 210) rotate(-30.37)"/><rect class="cls-3" x="-584.6" y="963.39" width="1111.25" height="2.4" transform="translate(-419.08 81.93) rotate(-25.56)"/><rect class="cls-3" x="-850.53" y="963.39" width="1278.02" height="2.4" transform="translate(-377.62 -8.85) rotate(-22.05)"/><rect class="cls-3" x="-1118.32" y="963.39" width="1448.53" height="2.4" transform="matrix(0.94, -0.33, 0.33, 0.94, -341.93, -76.08)"/><rect class="cls-3" x="-1387.39" y="963.39" width="1621.58" height="2.4" transform="translate(-311.66 -127.52) rotate(-17.23)"/><rect class="cls-3" x="-1657.37" y="963.39" width="1796.45" height="2.4" transform="matrix(0.96, -0.27, 0.27, 0.96, -285.39, -167.79)"/></g></g></svg>