<svg xmlns="http://www.w3.org/2000/svg" viewBox="0 0 173.22 173.19"><defs><style>.cls-1{fill:#2de2e6;}.cls-2{fill:#ff0074;}</style></defs><title>Fichier 4</title><g id="Calque_2" data-name="Calque 2"><g id="cadrilage"><path class="cls-1" d="M169.72,3.5V3H3V4H3V169.69h.5v.5h166.2v-.5h.5V3.5ZM44.57,169.19H4V128.65H44.57Zm0-41.54H4V87.1H44.57Zm0-41.55H4V45.55H44.57Zm0-41.55H4V4H44.57ZM86.12,169.19H45.57V128.65H86.12Zm0-41.54H45.57V87.1H86.12Zm0-41.55H45.57V45.55H86.12Zm0-41.55H45.57V4H86.12Zm41.55,124.64H87.12V128.65h40.55Zm0-41.54H87.12V87.1h40.55Zm0-41.55H87.12V45.55h40.55Zm0-41.55H87.12V4h40.55Zm41.55,124.64H128.67V128.65h40.55Zm0-41.54H128.67V87.1h40.55Zm0-41.55H128.67V45.55h40.55Zm0-41.55H128.67V4h40.55Z"/></g><g id="cadr_epais" data-name="cadr epais"><g id="_1" data-name="1"><path class="cls-1" d="M169.72,3.5V3H3V4H3V169.69h.5v.5h166.2v-.5h.5V3.5ZM44.57,169.19H4V128.65H44.57Zm0-41.54H4V87.1H44.57Zm0-41.55H4V45.55H44.57Zm0-41.55H4V4H44.57ZM86.12,169.19H45.57V128.65H86.12Zm0-41.54H45.57V87.1H86.12Zm0-41.55H45.57V45.55H86.12Zm0-41.55H45.57V4H86.12Zm41.55,124.64H87.12V128.65h40.55Zm0-41.54H87.12V87.1h40.55Zm0-41.55H87.12V45.55h40.55Zm0-41.55H87.12V4h40.55Zm41.55,124.64H128.67V128.65h40.55Zm0-41.54H128.67V87.1h40.55Zm0-41.55H128.67V45.55h40.55Zm0-41.55H128.67V4h40.55Z"/><path class="cls-1" d="M172.72,173.19H.52v-.5H0L0,0H172.72V.5h.5V172.69h-.5Zm-41.05-7h34.55V131.65H131.67Zm-41.55,0h34.55V131.65H90.12Zm-41.55,0H83.12V131.65H48.57ZM7,166.19H41.57V131.65H7Zm124.65-41.54h34.55V90.1H131.67Zm-41.55,0h34.55V90.1H90.12Zm-41.55,0H83.12V90.1H48.57ZM7,124.65H41.57V90.1H7ZM131.67,83.1h34.55V48.55H131.67Zm-41.55,0h34.55V48.55H90.12Zm-41.55,0H83.12V48.55H48.57ZM7,83.1H41.57V48.55H7ZM131.67,41.55h34.55V7H131.67Zm-41.55,0h34.55V7H90.12Zm-41.55,0H83.12V7H48.57ZM7,41.55H41.57V7H7Z"/></g></g><g id="Neon_pic" data-name="Neon pic"><path class="cls-2" d="M64.45,113H115V66H115v-4.6H98.85v.09H63.46V86.07h-.18V112.8h1.17Zm5-35V67.48H109V83.27L108.7,83a27.37,27.37,0,0,0-18.94-8.07h-.55A27.46,27.46,0,0,0,69.7,83l-.24.26Zm30.1,5.62a22,22,0,0,1,4.87,3.66,21.75,21.75,0,0,1-4.88,3.65,10.87,10.87,0,0,0,.64-3.66A11.06,11.06,0,0,0,99.56,83.57Zm-5.37,3.65a5,5,0,0,1-4.81,5H89.2a5,5,0,0,1,0-10h.32A5,5,0,0,1,94.19,87.22ZM78.85,90.88A21.52,21.52,0,0,1,74,87.23a21.28,21.28,0,0,1,4.88-3.66,10.92,10.92,0,0,0,0,7.31ZM69.46,98V91.18l.24.26a27.39,27.39,0,0,0,19.51,8.07h.55a27.21,27.21,0,0,0,18.91-8c.1-.09.18-.19.28-.29V107H69.46Z"/><path class="cls-2" d="M15.75,39.58V135.9H157.5V39.58ZM28.48,55.31h7.45v.4H28.48ZM31.8,81.52V80.7h.81v.82Zm.81,9.33v.82H31.8v-.82ZM31.8,71.37v-.82h.81v.82Zm0-8.84v-.82h.81v.82ZM28.48,97.67h7.45v17.56H28.48Zm123,32.23H21.75V50.68h.73v70.55H41.93V50.68H151.5Z"/><path class="cls-2" d="M133.75,54.47H42.68v66.76h91.07Zm-6,60.76H48.68V60.47h79.07Z"/></g></g></svg>