<svg xmlns="http://www.w3.org/2000/svg" viewBox="0 0 167.94 167.44"><defs><style>.cls-1{fill:#2de2e6;}.cls-2{fill:#12f9e3;}.cls-3{fill:#0c0c0c;}.cls-4,.cls-5,.cls-6{fill:none;stroke-miterlimit:10;}.cls-4,.cls-5{stroke:#ff0074;}.cls-4{stroke-dasharray:5;}.cls-6{stroke:#fc0681;}</style></defs><title>Fichier 11</title><g id="Calque_2" data-name="Calque 2"><g id="Pictogramme"><rect class="cls-1" x="0.38" y="0.38" width="1" height="166.19"/><rect class="cls-1" x="83.47" y="0.38" width="1" height="166.19"/><rect class="cls-1" x="125.02" y="0.38" width="1" height="166.19"/><rect class="cls-1" x="166.57" y="0.38" width="1" height="166.19"/><rect class="cls-1" x="41.92" y="0.38" width="1" height="166.19"/><rect class="cls-1" x="0.88" y="82.97" width="166.19" height="1"/><rect class="cls-1" x="0.88" y="124.52" width="166.19" height="1"/><rect class="cls-1" x="0.88" y="166.07" width="166.19" height="1"/><rect class="cls-1" x="0.88" y="41.42" width="166.19" height="1"/><rect class="cls-1" x="0.38" y="0.38" width="1" height="166.19"/><path class="cls-2" d="M1.75,166.94H0V0H1.75Zm-1-.75H1V.75H.75Z"/><rect class="cls-1" x="83.47" y="0.38" width="1" height="166.19"/><path class="cls-2" d="M84.85,166.94H83.1V0h1.75Zm-1-.75h.25V.75h-.25Z"/><rect class="cls-1" x="125.02" y="0.38" width="1" height="166.19"/><path class="cls-2" d="M126.4,166.94h-1.75V0h1.75Zm-1-.75h.25V.75h-.25Z"/><rect class="cls-1" x="166.57" y="0.38" width="1" height="166.19"/><path class="cls-2" d="M167.94,166.94h-1.75V0h1.75Zm-1-.75h.25V.75h-.25Z"/><rect class="cls-1" x="41.92" y="0.38" width="1" height="166.19"/><path class="cls-2" d="M43.3,166.94H41.55V0H43.3Zm-1-.75h.25V.75H42.3Z"/><rect class="cls-1" x="0.88" y="82.97" width="166.19" height="1"/><path class="cls-2" d="M167.44,84.35H.5V82.6H167.44ZM1.25,83.6H166.69v-.25H1.25Z"/><rect class="cls-1" x="0.88" y="124.52" width="166.19" height="1"/><path class="cls-2" d="M167.44,125.9H.5v-1.75H167.44ZM1.25,125.15H166.69v-.25H1.25Z"/><rect class="cls-1" x="0.88" y="166.07" width="166.19" height="1"/><path class="cls-2" d="M167.44,167.44H.5v-1.75H167.44ZM1.25,166.69H166.69v-.25H1.25Z"/><rect class="cls-1" x="0.88" y="41.42" width="166.19" height="1"/><path class="cls-2" d="M167.44,42.8H.5V41.05H167.44ZM1.25,42.05H166.69V41.8H1.25Z"/><path class="cls-3" d="M151.61,43.49V128.7H15.85V43.49ZM127.86,114V53.28H42.79V114ZM36,114V48.12H22.59V114Z"/><rect class="cls-3" x="15.85" y="38.39" width="135.77" height="5.11"/><path class="cls-3" d="M127.86,53.28V114H42.79V53.28Zm-18.81,52.49V60.29H63.57v45.48Z"/><path class="cls-3" d="M109.05,60.29v45.48H63.57V60.29ZM105.56,83a23.42,23.42,0,0,0-1.88-2.11,24.4,24.4,0,0,0-16.92-7.18h-.44a24.48,24.48,0,0,0-17.38,7.19A25.06,25.06,0,0,0,67.06,83a25,25,0,0,0,1.88,2.09,24.48,24.48,0,0,0,17.38,7.19h.44a24.37,24.37,0,0,0,16.92-7.19A21.9,21.9,0,0,0,105.56,83Z"/><path class="cls-3" d="M103.68,80.93A23.42,23.42,0,0,1,105.56,83a21.9,21.9,0,0,1-1.88,2.09,24.37,24.37,0,0,1-16.92,7.19l0-1.31a8,8,0,0,0,0-16l0-1.3A24.4,24.4,0,0,1,103.68,80.93Z"/><path class="cls-3" d="M86.73,75.05a8,8,0,0,1,0,16h-.42a8,8,0,0,1,0-16Z"/><path class="cls-3" d="M86.73,91l0,1.31h-.44a24.48,24.48,0,0,1-17.38-7.19A25,25,0,0,1,67.06,83a25.06,25.06,0,0,1,1.88-2.11,24.48,24.48,0,0,1,17.38-7.19h.44l0,1.3h-.42a8,8,0,0,0,0,16Z"/><path class="cls-3" d="M36,48.12V114H22.59V48.12Zm-3.3,52.5V93.81H25.91v6.81Zm0-10.14V83.66H25.91v6.82Zm0-10.15V73.51H25.91v6.82Zm0-10.15V63.36H25.91v6.82Zm0-8.84V54.52H25.91v6.82Z"/><rect class="cls-3" x="25.91" y="93.81" width="6.82" height="6.82"/><rect class="cls-3" x="25.91" y="83.66" width="6.82" height="6.82"/><rect class="cls-3" x="25.91" y="73.51" width="6.82" height="6.82"/><rect class="cls-3" x="25.91" y="63.36" width="6.82" height="6.82"/><rect class="cls-3" x="25.91" y="54.52" width="6.82" height="6.82"/><rect class="cls-4" x="63.57" y="60.29" width="45.48" height="45.49"/><path class="cls-5" d="M86.76,73.75a24.4,24.4,0,0,1,16.92,7.18A23.42,23.42,0,0,1,105.56,83a21.9,21.9,0,0,1-1.88,2.09,24.37,24.37,0,0,1-16.92,7.19h-.44a24.48,24.48,0,0,1-17.38-7.19A25,25,0,0,1,67.06,83a25.06,25.06,0,0,1,1.88-2.11,24.48,24.48,0,0,1,17.38-7.19Z"/><path class="cls-5" d="M86.73,75.05a8,8,0,0,1,0,16h-.42a8,8,0,0,1,0-16Z"/><polygon class="cls-6" points="151.62 43.49 151.62 128.71 15.85 128.71 15.85 43.49 15.85 38.39 151.62 38.39 151.62 43.49"/><rect class="cls-6" x="22.59" y="48.12" width="13.44" height="65.92"/><rect class="cls-6" x="25.91" y="93.81" width="6.82" height="6.82"/><rect class="cls-6" x="42.79" y="53.28" width="85.07" height="60.76"/><rect class="cls-6" x="25.91" y="83.66" width="6.82" height="6.82"/><rect class="cls-6" x="25.91" y="73.51" width="6.82" height="6.82"/><rect class="cls-6" x="25.91" y="63.36" width="6.82" height="6.82"/><rect class="cls-6" x="25.91" y="54.52" width="6.82" height="6.82"/><line class="cls-5" x1="15.85" y1="43.49" x2="151.61" y2="43.49"/></g></g></svg>