<svg xmlns="http://www.w3.org/2000/svg" viewBox="0 0 167.94 167.44"><defs><style>.cls-1{fill:#2de2e6;}.cls-2{fill:#12f9e3;}.cls-3{fill:#0c0c0c;}.cls-4{fill:none;stroke:#ff0074;stroke-miterlimit:10;}</style></defs><title>Fichier 10</title><g id="Calque_2" data-name="Calque 2"><g id="Pictogramme"><rect class="cls-1" x="0.38" y="0.38" width="1" height="166.19"/><rect class="cls-1" x="83.47" y="0.38" width="1" height="166.19"/><rect class="cls-1" x="125.02" y="0.38" width="1" height="166.19"/><rect class="cls-1" x="166.57" y="0.38" width="1" height="166.19"/><rect class="cls-1" x="41.92" y="0.38" width="1" height="166.19"/><rect class="cls-1" x="0.88" y="82.97" width="166.19" height="1"/><rect class="cls-1" x="0.88" y="124.52" width="166.19" height="1"/><rect class="cls-1" x="0.88" y="166.07" width="166.19" height="1"/><rect class="cls-1" x="0.88" y="41.42" width="166.19" height="1"/><rect class="cls-1" x="0.38" y="0.38" width="1" height="166.19"/><path class="cls-2" d="M1.75,166.94H0V0H1.75Zm-1-.75H1V.75H.75Z"/><rect class="cls-1" x="83.47" y="0.38" width="1" height="166.19"/><path class="cls-2" d="M84.85,166.94H83.1V0h1.75Zm-1-.75h.25V.75h-.25Z"/><rect class="cls-1" x="125.02" y="0.38" width="1" height="166.19"/><path class="cls-2" d="M126.4,166.94h-1.75V0h1.75Zm-1-.75h.25V.75h-.25Z"/><rect class="cls-1" x="166.57" y="0.38" width="1" height="166.19"/><path class="cls-2" d="M167.94,166.94h-1.75V0h1.75Zm-1-.75h.25V.75h-.25Z"/><rect class="cls-1" x="41.92" y="0.38" width="1" height="166.19"/><path class="cls-2" d="M43.3,166.94H41.55V0H43.3Zm-1-.75h.25V.75H42.3Z"/><rect class="cls-1" x="0.88" y="82.97" width="166.19" height="1"/><path class="cls-2" d="M167.44,84.35H.5V82.6H167.44ZM1.25,83.6H166.69v-.25H1.25Z"/><rect class="cls-1" x="0.88" y="124.52" width="166.19" height="1"/><path class="cls-2" d="M167.44,125.9H.5v-1.75H167.44ZM1.25,125.15H166.69v-.25H1.25Z"/><rect class="cls-1" x="0.88" y="166.07" width="166.19" height="1"/><path class="cls-2" d="M167.44,167.44H.5v-1.75H167.44ZM1.25,166.69H166.69v-.25H1.25Z"/><rect class="cls-1" x="0.88" y="41.42" width="166.19" height="1"/><path class="cls-2" d="M167.44,42.8H.5V41.05H167.44ZM1.25,42.05H166.69V41.8H1.25Z"/><path class="cls-3" d="M64.56,109.18a57.08,57.08,0,0,0,4.15,8.32v21.23H33.58a5.67,5.67,0,0,1-5.67-5.67V30.1a5.67,5.67,0,0,1,5.67-5.67h101a5.67,5.67,0,0,1,5.67,5.67v103a5.67,5.67,0,0,1-5.67,5.67H102v-23.9a54.24,54.24,0,0,0,2.64-5.65c1.95-.08,7.21-1,9.36-8.83,9.66-6.68,13.59-25.5,13.59-25.5a36.89,36.89,0,0,0-11.81-3.24,29.33,29.33,0,0,0-3.07-.15h-.49c-.55,0-1.08,0-1.6.06l0-.42c.32-1.93,4.19-26-3.66-33.26-8.18-7.5-23.18-8.18-23.18-8.18s-15,.68-23.19,8.18C52.84,45,57.75,69,58.15,71.46a6.33,6.33,0,0,1,1.41.13A23.66,23.66,0,0,0,57,71.46h-.53a28.82,28.82,0,0,0-3,.15,36.74,36.74,0,0,0-11.82,3.24s3.83,18.34,13.22,25.24C57.06,108.59,62.89,109.2,64.56,109.18Z"/><path class="cls-3" d="M110.64,71.1l0,.42h-.09c-.34,0-.68,0-1,.07v0c-1.11-8.23-4.28-24.77-11.93-20.47-10.21,5.73-13,4.65-13,4.65s-2.77,1.08-13-4.65C64,46.78,60.81,63.4,59.71,71.6h-.15a6.33,6.33,0,0,0-1.41-.13C57.75,69,52.84,45,60.61,37.84c8.18-7.5,23.19-8.18,23.19-8.18s15,.68,23.18,8.18C114.83,45.06,111,69.17,110.64,71.1Z"/><path class="cls-3" d="M109.54,71.56v0c-13.92,1.28-23,10.87-23,10.87a2.67,2.67,0,0,1-3.91,0s-9-9.58-22.95-10.87c1.1-8.2,4.27-24.82,11.92-20.51,10.22,5.73,13,4.65,13,4.65s2.78,1.08,13-4.65C105.26,46.79,108.43,63.33,109.54,71.56Z"/><path class="cls-3" d="M106.85,102.67a11.92,11.92,0,0,0,2.43-.24,12.75,12.75,0,0,0,4.76-2.08c-2.15,7.8-7.41,8.75-9.36,8.83A59.14,59.14,0,0,0,106.85,102.67Z"/><path class="cls-3" d="M109.54,71.6c0,.05,0,.09,0,0,.34,0,.68-.06,1-.07h.09c.52,0,1-.06,1.6-.06h.49a29.33,29.33,0,0,1,3.07.15,36.89,36.89,0,0,1,11.81,3.24S123.7,93.67,114,100.35a12.75,12.75,0,0,1-4.76,2.08,11.92,11.92,0,0,1-2.43.24,13,13,0,0,1-2.5-.28A21.58,21.58,0,0,1,92,95.33a23.42,23.42,0,0,1-4.56-8.54c-.05-.17-.09-.33-.14-.48a4.49,4.49,0,0,1-2.74,1,3.81,3.81,0,0,1-2.6-1c-1.4,5.06-5.45,13.64-17.06,16.08a12.84,12.84,0,0,1-2.49.28,12.16,12.16,0,0,1-2.44-.24,13.08,13.08,0,0,1-5.13-2.34c-9.39-6.9-13.22-25.24-13.22-25.24a36.74,36.74,0,0,1,11.82-3.24,28.82,28.82,0,0,1,3-.15H57a23.66,23.66,0,0,1,2.55.13h.15c13.91,1.29,22.95,10.87,22.95,10.87a2.67,2.67,0,0,0,3.91,0S95.62,72.88,109.54,71.6Zm.55,13.21a11,11,0,0,0-.78-.89,10.3,10.3,0,0,0-14.53,0,9.48,9.48,0,0,0-.79.89,9.37,9.37,0,0,0,.79.88,10.3,10.3,0,0,0,14.53,0A10.89,10.89,0,0,0,110.09,84.81Zm-35.58,0a11,11,0,0,0-.78-.89,10.3,10.3,0,0,0-14.53,0,9.48,9.48,0,0,0-.79.89,9.37,9.37,0,0,0,.79.88,10.3,10.3,0,0,0,14.53,0A10.89,10.89,0,0,0,74.51,84.81Z"/><path class="cls-3" d="M107.54,84.81a2.51,2.51,0,1,1-2.5-2.5A2.5,2.5,0,0,1,107.54,84.81Z"/><path class="cls-3" d="M105,87.3a2.5,2.5,0,1,0-2.51-2.49A2.5,2.5,0,0,0,105,87.3Zm-3-6.38a10.24,10.24,0,0,1,7.27,3,11,11,0,0,1,.78.89,10.89,10.89,0,0,1-.78.88,10.3,10.3,0,0,1-14.53,0,9.37,9.37,0,0,1-.79-.88,9.48,9.48,0,0,1,.79-.89A10.23,10.23,0,0,1,102,80.92Z"/><path class="cls-3" d="M82,109.9V86.31a3.81,3.81,0,0,0,2.6,1,4.49,4.49,0,0,0,2.74-1c0,.15.09.31.14.48V109.9Z"/><path class="cls-3" d="M68.71,117.5a57.08,57.08,0,0,1-4.15-8.32,60.53,60.53,0,0,1-2.16-6.51,12.84,12.84,0,0,0,2.49-.28C76.5,100,80.55,91.37,82,86.31V109.9h5.48V86.79A23.42,23.42,0,0,0,92,95.33a21.58,21.58,0,0,0,12.36,7.06,13,13,0,0,0,2.5.28,59.14,59.14,0,0,1-2.17,6.51,54.24,54.24,0,0,1-2.64,5.65,79.22,79.22,0,0,1-11.63,16,7.63,7.63,0,0,1-11.58,0A84.77,84.77,0,0,1,68.71,117.5Z"/><path class="cls-3" d="M102,114.83v23.9H68.71V117.5a84.77,84.77,0,0,0,10.12,13.33,7.63,7.63,0,0,0,11.58,0A79.22,79.22,0,0,0,102,114.83Z"/><path class="cls-3" d="M72,84.81a2.51,2.51,0,1,1-2.5-2.5A2.51,2.51,0,0,1,72,84.81Z"/><path class="cls-3" d="M73.73,85.69a10.3,10.3,0,0,1-14.53,0,9.37,9.37,0,0,1-.79-.88,9.48,9.48,0,0,1,.79-.89,10.3,10.3,0,0,1,14.53,0,11,11,0,0,1,.78.89A10.89,10.89,0,0,1,73.73,85.69Zm-4.27-3.38a2.5,2.5,0,1,0,2.5,2.5A2.5,2.5,0,0,0,69.46,82.31Z"/><path class="cls-3" d="M62.4,102.67a60.53,60.53,0,0,0,2.16,6.51c-1.67,0-7.5-.59-9.73-9.09A13.08,13.08,0,0,0,60,102.43,12.16,12.16,0,0,0,62.4,102.67Z"/><path class="cls-4" d="M68.71,138.73H33.58a5.67,5.67,0,0,1-5.67-5.67V30.1a5.67,5.67,0,0,1,5.67-5.67h101a5.67,5.67,0,0,1,5.67,5.67v103a5.67,5.67,0,0,1-5.67,5.67H68.71Z"/><path class="cls-4" d="M59.56,71.59a6.33,6.33,0,0,0-1.41-.13C57.75,69,52.84,45,60.61,37.84c8.18-7.5,23.19-8.18,23.19-8.18s15,.68,23.18,8.18c7.85,7.22,4,31.33,3.66,33.26"/><path class="cls-4" d="M109.54,71.56v0c0,.05,0,.09,0,0"/><path class="cls-4" d="M109.55,71.6v0c-1.11-8.23-4.28-24.77-11.93-20.47-10.21,5.73-13,4.65-13,4.65s-2.77,1.08-13-4.65C64,46.78,60.81,63.4,59.71,71.6"/><path class="cls-4" d="M114,100.35c-2.15,7.8-7.41,8.75-9.36,8.83"/><path class="cls-4" d="M64.56,109.18c-1.67,0-7.5-.59-9.73-9.09"/><path class="cls-4" d="M106.85,102.67a59.14,59.14,0,0,1-2.17,6.51,54.24,54.24,0,0,1-2.64,5.65,79.22,79.22,0,0,1-11.63,16,7.63,7.63,0,0,1-11.58,0A84.77,84.77,0,0,1,68.71,117.5a57.08,57.08,0,0,1-4.15-8.32,60.53,60.53,0,0,1-2.16-6.51"/><path class="cls-4" d="M114,100.35c9.66-6.68,13.59-25.5,13.59-25.5a36.89,36.89,0,0,0-11.81-3.24,29.33,29.33,0,0,0-3.07-.15h-.49c-.55,0-1.08,0-1.6.06h-.09c-.34,0-.68,0-1,.07h0c-13.92,1.28-23,10.87-23,10.87a2.67,2.67,0,0,1-3.91,0s-9-9.58-22.95-10.87h-.15A23.66,23.66,0,0,0,57,71.46h-.53a28.82,28.82,0,0,0-3,.15,36.74,36.74,0,0,0-11.82,3.24s3.83,18.34,13.22,25.24A13.08,13.08,0,0,0,60,102.43a12.16,12.16,0,0,0,2.44.24,12.84,12.84,0,0,0,2.49-.28C76.5,100,80.55,91.37,82,86.31a3.81,3.81,0,0,0,2.6,1,4.49,4.49,0,0,0,2.74-1c0,.15.09.31.14.48A23.42,23.42,0,0,0,92,95.33a21.58,21.58,0,0,0,12.36,7.06,13,13,0,0,0,2.5.28,11.92,11.92,0,0,0,2.43-.24A12.75,12.75,0,0,0,114,100.35Z"/><line class="cls-4" x1="68.71" y1="117.5" x2="68.71" y2="138.73"/><polyline class="cls-4" points="102.04 138.73 102.04 114.83 102.04 114.54"/><path class="cls-4" d="M74.51,84.81a10.89,10.89,0,0,1-.78.88,10.3,10.3,0,0,1-14.53,0,9.37,9.37,0,0,1-.79-.88,9.48,9.48,0,0,1,.79-.89,10.3,10.3,0,0,1,14.53,0A11,11,0,0,1,74.51,84.81Z"/><path class="cls-4" d="M72,84.81a2.51,2.51,0,1,1-2.5-2.5A2.51,2.51,0,0,1,72,84.81Z"/><path class="cls-4" d="M110.09,84.81a10.89,10.89,0,0,1-.78.88,10.3,10.3,0,0,1-14.53,0,9.37,9.37,0,0,1-.79-.88,9.48,9.48,0,0,1,.79-.89,10.3,10.3,0,0,1,14.53,0A11,11,0,0,1,110.09,84.81Z"/><path class="cls-4" d="M107.54,84.81a2.51,2.51,0,1,1-2.5-2.5A2.5,2.5,0,0,1,107.54,84.81Z"/><polyline class="cls-4" points="81.95 86.31 81.95 109.9 87.43 109.9 87.43 86.79 87.43 86.31"/><path class="cls-3" d="M64.56,109.18a57.08,57.08,0,0,0,4.15,8.32v21.23H33.58a5.67,5.67,0,0,1-5.67-5.67V30.1a5.67,5.67,0,0,1,5.67-5.67h101a5.67,5.67,0,0,1,5.67,5.67v103a5.67,5.67,0,0,1-5.67,5.67H102v-23.9a54.24,54.24,0,0,0,2.64-5.65c1.95-.08,7.21-1,9.36-8.83,9.66-6.68,13.59-25.5,13.59-25.5a36.89,36.89,0,0,0-11.81-3.24,29.33,29.33,0,0,0-3.07-.15h-.49c-.55,0-1.08,0-1.6.06l0-.42c.32-1.93,4.19-26-3.66-33.26-8.18-7.5-23.18-8.18-23.18-8.18s-15,.68-23.19,8.18C52.84,45,57.75,69,58.15,71.46a6.33,6.33,0,0,1,1.41.13A23.66,23.66,0,0,0,57,71.46h-.53a28.82,28.82,0,0,0-3,.15,36.74,36.74,0,0,0-11.82,3.24s3.83,18.34,13.22,25.24C57.06,108.59,62.89,109.2,64.56,109.18Z"/><path class="cls-3" d="M110.64,71.1l0,.42h-.09c-.34,0-.68,0-1,.07v0c-1.11-8.23-4.28-24.77-11.93-20.47-10.21,5.73-13,4.65-13,4.65s-2.77,1.08-13-4.65C64,46.78,60.81,63.4,59.71,71.6h-.15a6.33,6.33,0,0,0-1.41-.13C57.75,69,52.84,45,60.61,37.84c8.18-7.5,23.19-8.18,23.19-8.18s15,.68,23.18,8.18C114.83,45.06,111,69.17,110.64,71.1Z"/><path class="cls-3" d="M109.54,71.56v0c-13.92,1.28-23,10.87-23,10.87a2.67,2.67,0,0,1-3.91,0s-9-9.58-22.95-10.87c1.1-8.2,4.27-24.82,11.92-20.51,10.22,5.73,13,4.65,13,4.65s2.78,1.08,13-4.65C105.26,46.79,108.43,63.33,109.54,71.56Z"/><path class="cls-3" d="M106.85,102.67a11.92,11.92,0,0,0,2.43-.24,12.75,12.75,0,0,0,4.76-2.08c-2.15,7.8-7.41,8.75-9.36,8.83A59.14,59.14,0,0,0,106.85,102.67Z"/><path class="cls-3" d="M109.54,71.6c0,.05,0,.09,0,0,.34,0,.68-.06,1-.07h.09c.52,0,1-.06,1.6-.06h.49a29.33,29.33,0,0,1,3.07.15,36.89,36.89,0,0,1,11.81,3.24S123.7,93.67,114,100.35a12.75,12.75,0,0,1-4.76,2.08,11.92,11.92,0,0,1-2.43.24,13,13,0,0,1-2.5-.28A21.58,21.58,0,0,1,92,95.33a23.42,23.42,0,0,1-4.56-8.54c-.05-.17-.09-.33-.14-.48a4.49,4.49,0,0,1-2.74,1,3.81,3.81,0,0,1-2.6-1c-1.4,5.06-5.45,13.64-17.06,16.08a12.84,12.84,0,0,1-2.49.28,12.16,12.16,0,0,1-2.44-.24,13.08,13.08,0,0,1-5.13-2.34c-9.39-6.9-13.22-25.24-13.22-25.24a36.74,36.74,0,0,1,11.82-3.24,28.82,28.82,0,0,1,3-.15H57a23.66,23.66,0,0,1,2.55.13h.15c13.91,1.29,22.95,10.87,22.95,10.87a2.67,2.67,0,0,0,3.91,0S95.62,72.88,109.54,71.6Zm.55,13.21a11,11,0,0,0-.78-.89,10.3,10.3,0,0,0-14.53,0,9.48,9.48,0,0,0-.79.89,9.37,9.37,0,0,0,.79.88,10.3,10.3,0,0,0,14.53,0A10.89,10.89,0,0,0,110.09,84.81Zm-35.58,0a11,11,0,0,0-.78-.89,10.3,10.3,0,0,0-14.53,0,9.48,9.48,0,0,0-.79.89,9.37,9.37,0,0,0,.79.88,10.3,10.3,0,0,0,14.53,0A10.89,10.89,0,0,0,74.51,84.81Z"/><path class="cls-3" d="M107.54,84.81a2.51,2.51,0,1,1-2.5-2.5A2.5,2.5,0,0,1,107.54,84.81Z"/><path class="cls-3" d="M105,87.3a2.5,2.5,0,1,0-2.51-2.49A2.5,2.5,0,0,0,105,87.3Zm-3-6.38a10.24,10.24,0,0,1,7.27,3,11,11,0,0,1,.78.89,10.89,10.89,0,0,1-.78.88,10.3,10.3,0,0,1-14.53,0,9.37,9.37,0,0,1-.79-.88,9.48,9.48,0,0,1,.79-.89A10.23,10.23,0,0,1,102,80.92Z"/><path class="cls-3" d="M82,109.9V86.31a3.81,3.81,0,0,0,2.6,1,4.49,4.49,0,0,0,2.74-1c0,.15.09.31.14.48V109.9Z"/><path class="cls-3" d="M68.71,117.5a57.08,57.08,0,0,1-4.15-8.32,60.53,60.53,0,0,1-2.16-6.51,12.84,12.84,0,0,0,2.49-.28C76.5,100,80.55,91.37,82,86.31V109.9h5.48V86.79A23.42,23.42,0,0,0,92,95.33a21.58,21.58,0,0,0,12.36,7.06,13,13,0,0,0,2.5.28,59.14,59.14,0,0,1-2.17,6.51,54.24,54.24,0,0,1-2.64,5.65,79.22,79.22,0,0,1-11.63,16,7.63,7.63,0,0,1-11.58,0A84.77,84.77,0,0,1,68.71,117.5Z"/><path class="cls-3" d="M102,114.83v23.9H68.71V117.5a84.77,84.77,0,0,0,10.12,13.33,7.63,7.63,0,0,0,11.58,0A79.22,79.22,0,0,0,102,114.83Z"/><path class="cls-3" d="M72,84.81a2.51,2.51,0,1,1-2.5-2.5A2.51,2.51,0,0,1,72,84.81Z"/><path class="cls-3" d="M73.73,85.69a10.3,10.3,0,0,1-14.53,0,9.37,9.37,0,0,1-.79-.88,9.48,9.48,0,0,1,.79-.89,10.3,10.3,0,0,1,14.53,0,11,11,0,0,1,.78.89A10.89,10.89,0,0,1,73.73,85.69Zm-4.27-3.38a2.5,2.5,0,1,0,2.5,2.5A2.5,2.5,0,0,0,69.46,82.31Z"/><path class="cls-3" d="M62.4,102.67a60.53,60.53,0,0,0,2.16,6.51c-1.67,0-7.5-.59-9.73-9.09A13.08,13.08,0,0,0,60,102.43,12.16,12.16,0,0,0,62.4,102.67Z"/><path class="cls-4" d="M68.71,138.73H33.58a5.67,5.67,0,0,1-5.67-5.67V30.1a5.67,5.67,0,0,1,5.67-5.67h101a5.67,5.67,0,0,1,5.67,5.67v103a5.67,5.67,0,0,1-5.67,5.67H68.71Z"/><path class="cls-4" d="M59.56,71.59a6.33,6.33,0,0,0-1.41-.13C57.75,69,52.84,45,60.61,37.84c8.18-7.5,23.19-8.18,23.19-8.18s15,.68,23.18,8.18c7.85,7.22,4,31.33,3.66,33.26"/><path class="cls-4" d="M109.54,71.56v0c0,.05,0,.09,0,0"/><path class="cls-4" d="M109.55,71.6v0c-1.11-8.23-4.28-24.77-11.93-20.47-10.21,5.73-13,4.65-13,4.65s-2.77,1.08-13-4.65C64,46.78,60.81,63.4,59.71,71.6"/><path class="cls-4" d="M114,100.35c-2.15,7.8-7.41,8.75-9.36,8.83"/><path class="cls-4" d="M64.56,109.18c-1.67,0-7.5-.59-9.73-9.09"/><path class="cls-4" d="M106.85,102.67a59.14,59.14,0,0,1-2.17,6.51,54.24,54.24,0,0,1-2.64,5.65,79.22,79.22,0,0,1-11.63,16,7.63,7.63,0,0,1-11.58,0A84.77,84.77,0,0,1,68.71,117.5a57.08,57.08,0,0,1-4.15-8.32,60.53,60.53,0,0,1-2.16-6.51"/><path class="cls-4" d="M114,100.35c9.66-6.68,13.59-25.5,13.59-25.5a36.89,36.89,0,0,0-11.81-3.24,29.33,29.33,0,0,0-3.07-.15h-.49c-.55,0-1.08,0-1.6.06h-.09c-.34,0-.68,0-1,.07h0c-13.92,1.28-23,10.87-23,10.87a2.67,2.67,0,0,1-3.91,0s-9-9.58-22.95-10.87h-.15A23.66,23.66,0,0,0,57,71.46h-.53a28.82,28.82,0,0,0-3,.15,36.74,36.74,0,0,0-11.82,3.24s3.83,18.34,13.22,25.24A13.08,13.08,0,0,0,60,102.43a12.16,12.16,0,0,0,2.44.24,12.84,12.84,0,0,0,2.49-.28C76.5,100,80.55,91.37,82,86.31a3.81,3.81,0,0,0,2.6,1,4.49,4.49,0,0,0,2.74-1c0,.15.09.31.14.48A23.42,23.42,0,0,0,92,95.33a21.58,21.58,0,0,0,12.36,7.06,13,13,0,0,0,2.5.28,11.92,11.92,0,0,0,2.43-.24A12.75,12.75,0,0,0,114,100.35Z"/><line class="cls-4" x1="68.71" y1="117.5" x2="68.71" y2="138.73"/><polyline class="cls-4" points="102.04 138.73 102.04 114.83 102.04 114.54"/><path class="cls-4" d="M74.51,84.81a10.89,10.89,0,0,1-.78.88,10.3,10.3,0,0,1-14.53,0,9.37,9.37,0,0,1-.79-.88,9.48,9.48,0,0,1,.79-.89,10.3,10.3,0,0,1,14.53,0A11,11,0,0,1,74.51,84.81Z"/><path class="cls-4" d="M72,84.81a2.51,2.51,0,1,1-2.5-2.5A2.51,2.51,0,0,1,72,84.81Z"/><path class="cls-4" d="M110.09,84.81a10.89,10.89,0,0,1-.78.88,10.3,10.3,0,0,1-14.53,0,9.37,9.37,0,0,1-.79-.88,9.48,9.48,0,0,1,.79-.89,10.3,10.3,0,0,1,14.53,0A11,11,0,0,1,110.09,84.81Z"/><path class="cls-4" d="M107.54,84.81a2.51,2.51,0,1,1-2.5-2.5A2.5,2.5,0,0,1,107.54,84.81Z"/><polyline class="cls-4" points="81.95 86.31 81.95 109.9 87.43 109.9 87.43 86.79 87.43 86.31"/></g></g></svg>