<svg xmlns="http://www.w3.org/2000/svg" viewBox="0 0 173.19 173.19"><defs><style>.cls-1,.cls-2{fill:#2de2e6;}.cls-2{stroke:#2de2e6;stroke-miterlimit:10;stroke-width:6px;}.cls-3{fill:#ff0074;}</style></defs><title>Fichier 1</title><g id="Calque_2" data-name="Calque 2"><g id="cadrilage"><path class="cls-1" d="M169.69,3.5V3H3V169.69h.5v.5H169.69v-.5h.5V3.5ZM44.54,169.19H4V128.64H44.54Zm0-41.55H4V87.1H44.54Zm0-41.54H4V45.55H44.54Zm0-41.55H4V4H44.54ZM86.09,169.19H45.54V128.64H86.09Zm0-41.55H45.54V87.1H86.09Zm0-41.54H45.54V45.55H86.09Zm0-41.55H45.54V4H86.09Zm41.55,124.64H87.09V128.64h40.55Zm0-41.55H87.09V87.1h40.55Zm0-41.54H87.09V45.55h40.55Zm0-41.55H87.09V4h40.55Zm41.55,124.64H128.64V128.64h40.55Zm0-41.55H128.64V87.1h40.55Zm0-41.54H128.64V45.55h40.55Zm0-41.55H128.64V4h40.55Z"/><path class="cls-1" d="M169.69,3.5V3H3V169.69h.5v.5H169.69v-.5h.5V3.5ZM44.54,169.19H4V128.64H44.54Zm0-41.55H4V87.1H44.54Zm0-41.54H4V45.55H44.54Zm0-41.55H4V4H44.54ZM86.09,169.19H45.54V128.64H86.09Zm0-41.55H45.54V87.1H86.09Zm0-41.54H45.54V45.55H86.09Zm0-41.55H45.54V4H86.09Zm41.55,124.64H87.09V128.64h40.55Zm0-41.55H87.09V87.1h40.55Zm0-41.54H87.09V45.55h40.55Zm0-41.55H87.09V4h40.55Zm41.55,124.64H128.64V128.64h40.55Zm0-41.55H128.64V87.1h40.55Zm0-41.54H128.64V45.55h40.55Zm0-41.55H128.64V4h40.55Z"/></g><g id="cadr_epais" data-name="cadr epais"><path id="_4" data-name="4" class="cls-2" d="M169.69,3.5V3H3V169.69h.5v.5H169.69v-.5h.5V3.5ZM44.54,169.19H4V128.64H44.54Zm0-41.55H4V87.1H44.54Zm0-41.54H4V45.55H44.54Zm0-41.55H4V4H44.54ZM86.09,169.19H45.54V128.64H86.09Zm0-41.55H45.54V87.1H86.09Zm0-41.54H45.54V45.55H86.09Zm0-41.55H45.54V4H86.09Zm41.55,124.64H87.09V128.64h40.55Zm0-41.55H87.09V87.1h40.55Zm0-41.54H87.09V45.55h40.55Zm0-41.55H87.09V4h40.55Zm41.55,124.64H128.64V128.64h40.55Zm0-41.55H128.64V87.1h40.55Zm0-41.54H128.64V45.55h40.55Zm0-41.55H128.64V4h40.55Z"/></g><g id="Neon_pic" data-name="Neon pic"><path class="cls-3" d="M131.53,76.76a39.62,39.62,0,0,0-12.6-3.45l-.8-.07-.81,0q-.46,0-1,0h-1.81c-.06-.41-.13-.82-.2-1.22l-.18-1.06L114,69.73c-.08-.38-.15-.75-.23-1.11-.22-1.1-.46-2.14-.72-3.13-.08-.33-.17-.65-.26-1q-.25-.94-.54-1.83s0,0,0,0a27.3,27.3,0,0,0-2.8-6.3c-.11-.17-.22-.33-.34-.49a11.21,11.21,0,0,0-1.42-1.71,7.54,7.54,0,0,0-.75-.66,6,6,0,0,0-.52-.36,5.07,5.07,0,0,0-.67-.39,6.6,6.6,0,0,0-6.46.34c-7.55,4.24-10.55,4.41-11.1,4.41l-.67-.26-.67.26c-.53,0-3.54-.18-11.09-4.41a6.63,6.63,0,0,0-6.46-.35,7.37,7.37,0,0,0-1.83,1.31c-.12.11-.24.23-.35.35s-.23.24-.34.37-.41.49-.62.77a2.75,2.75,0,0,0-.23.33,3.16,3.16,0,0,0-.18.27c-.11.16-.22.33-.32.5s-.22.36-.33.56a25.35,25.35,0,0,0-1.65,3.6c-.09.22-.17.44-.24.67s-.11.28-.16.43l-.24.75c-.09.27-.18.55-.26.83-.17.56-.33,1.14-.49,1.75h0q-.69,2.63-1.24,5.76c-.12.67-.24,1.36-.35,2.07a.19.19,0,0,1,0,.08H59.34q-.66,0-1.29,0c-.35,0-.69,0-1,0l-1,.08a39.34,39.34,0,0,0-12.63,3.46l-1.81.82.4,2s0,.11,0,.22,0,.14,0,.23,0,.18.07.29a.5.5,0,0,0,0,.12A76.49,76.49,0,0,0,44.49,88l.18.49c.61,1.64,1.32,3.4,2.15,5.17q.23.49.48,1c.47,1,1,1.92,1.53,2.86.14.25.28.49.43.73s.34.56.52.83.44.68.67,1l0,.06c.23.33.46.65.7,1s.37.5.56.74.25.31.39.47A21.2,21.2,0,0,0,53.62,104a6.62,6.62,0,0,0,.53.53c.41.4.82.77,1.25,1.12l.11.09q.15.51.33,1c.1.29.2.56.32.83.19.47.39.91.61,1.33.09.18.19.35.28.52a14,14,0,0,0,1.27,1.9c.11.14.22.28.34.41s.38.43.58.63l.3.29.3.28a4.82,4.82,0,0,0,.43.36c.14.12.29.23.43.33l.42.29.36.23c.36.22.71.41,1.06.58l.35.16a12.42,12.42,0,0,0,1.42.52l.44.12.1,0a7.64,7.64,0,0,0,.85.18,57,57,0,0,0,3.37,6.66v-9.73L71,115.83h.13l-1.35-3.38h0c-.08-.2-.16-.39-.22-.59l-.41-1-1.72,0a4.69,4.69,0,0,1-.92-.06c.29.86.61,1.72,1,2.56-1.39,0-5.62-.4-8.29-5.35a14.37,14.37,0,0,0,3.19,1c.28.06.57.11.85.15A9.24,9.24,0,0,1,61,106.07a15.8,15.8,0,0,1-.84-2.42l-.23-.86-.71-.52-.21-.16-.13-.1c-.18-.13-.35-.28-.52-.43s-.37-.32-.56-.5-.39-.37-.58-.56a24.38,24.38,0,0,1-2.64-3.26q-.26-.36-.48-.72c-.16-.24-.31-.49-.46-.74A59.29,59.29,0,0,1,47.81,82c-.16-.56-.29-1.06-.41-1.5a33.48,33.48,0,0,1,9.15-2.22,24.32,24.32,0,0,1,2.79-.14h.5l1,0,.43,0,.4,0,.28,0,.19,0,.29-2.48h.15c.84.08,1.67.19,2.48.33.12-.86.24-1.69.36-2.48q.11-.65.21-1.26c.06-.39.13-.76.2-1.13.29-1.55.59-3,.91-4.22.07-.29.14-.58.22-.86l.24-.86a23.07,23.07,0,0,1,2.71-6.49l.18-.26.21-.27a3.86,3.86,0,0,1,1.2-1.06c.24-.12.73-.36,1.78.23,8.25,4.63,12.32,5.27,14.25,5,1.85.2,5.91-.37,14.18-5,1-.59,1.54-.35,1.78-.23a4.19,4.19,0,0,1,1.4,1.32q.11.14.21.3c.14.21.29.44.43.69l.18.32a19.82,19.82,0,0,1,.9,1.93c.11.27.22.55.32.85s.13.35.19.53c.19.53.37,1.11.55,1.72l.21.72c.14.49.27,1,.4,1.55a.14.14,0,0,1,0,.06,1.83,1.83,0,0,1,.06.25,3.81,3.81,0,0,1,.12.51c0,.14.07.29.1.43.1.43.2.87.29,1.34s.22,1.11.33,1.7c.06.29.11.59.16.9l.15.94.06.35c.12.74.23,1.5.34,2.3v.11l.52,2.49.56-.06.15,0h.07l1.18-.14.25,0,.47,0h.33l.37,0c.44,0,.89,0,1.32,0h.49a24.68,24.68,0,0,1,2.81.14h0a33.94,33.94,0,0,1,9.11,2.22c-1,3.69-3.44,11.73-7.66,17.48-.26.37-.54.73-.83,1.09a19.14,19.14,0,0,1-2.33,2.42,14,14,0,0,1-1.16.91l5.57-3.88-1.84,6.68c-.08.28-.16.56-.25.83v0s0,0,.07-.06a.39.39,0,0,0,.1-.08c.25-.19.5-.39.73-.6s.52-.45.77-.7.42-.4.62-.61.3-.3.44-.46.42-.45.62-.69l.08-.1c.16-.17.31-.35.46-.54l.55-.71c.19-.24.37-.49.54-.73l.64-.9c.21-.31.42-.63.62-1,.73-1.15,1.4-2.34,2-3.53l.4-.82c.18-.36.35-.72.51-1.07s.35-.75.52-1.13.3-.69.44-1c.32-.76.61-1.52.89-2.25.11-.29.22-.58.32-.86.72-2,1.28-3.82,1.68-5.27,0-.12.07-.23.1-.35.1-.35.18-.67.26-1s.09-.34.13-.49l.18-.76c0-.12.06-.23.08-.33.06-.27.1-.45.11-.51l.41-2Zm0,0a39.62,39.62,0,0,0-12.6-3.45l-.8-.07-.81,0q-.46,0-1,0h-1.81c-.06-.41-.13-.82-.2-1.22l-.18-1.06L114,69.73c-.08-.38-.15-.75-.23-1.11-.22-1.1-.46-2.14-.72-3.13-.08-.33-.17-.65-.26-1q-.25-.94-.54-1.83s0,0,0,0a27.3,27.3,0,0,0-2.8-6.3c-.11-.17-.22-.33-.34-.49a11.21,11.21,0,0,0-1.42-1.71,7.54,7.54,0,0,0-.75-.66,6,6,0,0,0-.52-.36,5.07,5.07,0,0,0-.67-.39,6.6,6.6,0,0,0-6.46.34c-7.55,4.24-10.55,4.41-11.1,4.41l-.67-.26-.67.26c-.53,0-3.54-.18-11.09-4.41a6.63,6.63,0,0,0-6.46-.35,7.37,7.37,0,0,0-1.83,1.31c-.12.11-.24.23-.35.35s-.23.24-.34.37-.41.49-.62.77a2.75,2.75,0,0,0-.23.33,3.16,3.16,0,0,0-.18.27c-.11.16-.22.33-.32.5s-.22.36-.33.56a25.35,25.35,0,0,0-1.65,3.6c-.09.22-.17.44-.24.67s-.11.28-.16.43l-.24.75c-.09.27-.18.55-.26.83-.17.56-.33,1.14-.49,1.75h0q-.69,2.63-1.24,5.76c-.12.67-.24,1.36-.35,2.07a.19.19,0,0,1,0,.08H59.34q-.66,0-1.29,0c-.35,0-.69,0-1,0l-1,.08a39.34,39.34,0,0,0-12.63,3.46l-1.81.82.4,2s0,.11,0,.22,0,.14,0,.23,0,.18.07.29a.5.5,0,0,0,0,.12A76.49,76.49,0,0,0,44.49,88l.18.49c.61,1.64,1.32,3.4,2.15,5.17q.23.49.48,1c.47,1,1,1.92,1.53,2.86.14.25.28.49.43.73s.34.56.52.83.44.68.67,1l0,.06c.23.33.46.65.7,1s.37.5.56.74.25.31.39.47A21.2,21.2,0,0,0,53.62,104a6.62,6.62,0,0,0,.53.53c.41.4.82.77,1.25,1.12l.11.09q.15.51.33,1c.1.29.2.56.32.83.19.47.39.91.61,1.33.09.18.19.35.28.52a14,14,0,0,0,1.27,1.9c.11.14.22.28.34.41s.38.43.58.63l.3.29.3.28a4.82,4.82,0,0,0,.43.36c.14.12.29.23.43.33l.42.29.36.23c.36.22.71.41,1.06.58l.35.16a12.42,12.42,0,0,0,1.42.52l.44.12.1,0a7.64,7.64,0,0,0,.85.18,57,57,0,0,0,3.37,6.66v-9.73L71,115.83h.13l-1.35-3.38h0c-.08-.2-.16-.39-.22-.59l-.41-1-1.72,0a4.69,4.69,0,0,1-.92-.06c.29.86.61,1.72,1,2.56-1.39,0-5.62-.4-8.29-5.35a14.37,14.37,0,0,0,3.19,1c.28.06.57.11.85.15A9.24,9.24,0,0,1,61,106.07a15.8,15.8,0,0,1-.84-2.42l-.23-.86-.71-.52-.21-.16-.13-.1c-.18-.13-.35-.28-.52-.43s-.37-.32-.56-.5-.39-.37-.58-.56a24.38,24.38,0,0,1-2.64-3.26q-.26-.36-.48-.72c-.16-.24-.31-.49-.46-.74A59.29,59.29,0,0,1,47.81,82c-.16-.56-.29-1.06-.41-1.5a33.48,33.48,0,0,1,9.15-2.22,24.32,24.32,0,0,1,2.79-.14h.5l1,0,.43,0,.4,0,.28,0,.19,0,.29-2.48h.15c.84.08,1.67.19,2.48.33.12-.86.24-1.69.36-2.48q.11-.65.21-1.26c.06-.39.13-.76.2-1.13.29-1.55.59-3,.91-4.22.07-.29.14-.58.22-.86l.24-.86a23.07,23.07,0,0,1,2.71-6.49l.18-.26.21-.27a3.86,3.86,0,0,1,1.2-1.06c.24-.12.73-.36,1.78.23,8.25,4.63,12.32,5.27,14.25,5,1.85.2,5.91-.37,14.18-5,1-.59,1.54-.35,1.78-.23a4.19,4.19,0,0,1,1.4,1.32q.11.14.21.3c.14.21.29.44.43.69l.18.32a19.82,19.82,0,0,1,.9,1.93c.11.27.22.55.32.85s.13.35.19.53c.19.53.37,1.11.55,1.72l.21.72c.14.49.27,1,.4,1.55a.14.14,0,0,1,0,.06,1.83,1.83,0,0,1,.06.25,3.81,3.81,0,0,1,.12.51c0,.14.07.29.1.43.1.43.2.87.29,1.34s.22,1.11.33,1.7c.06.29.11.59.16.9l.15.94.06.35c.12.74.23,1.5.34,2.3v.11l.52,2.49.56-.06.15,0h.07l1.18-.14.25,0,.47,0h.33l.37,0c.44,0,.89,0,1.32,0h.49a24.68,24.68,0,0,1,2.81.14h0a33.94,33.94,0,0,1,9.11,2.22c-1,3.69-3.44,11.73-7.66,17.48-.26.37-.54.73-.83,1.09a19.14,19.14,0,0,1-2.33,2.42,14,14,0,0,1-1.16.91l5.57-3.88-1.84,6.68c-.08.28-.16.56-.25.83v0s0,0,.07-.06a.39.39,0,0,0,.1-.08c.25-.19.5-.39.73-.6s.52-.45.77-.7.42-.4.62-.61.3-.3.44-.46.42-.45.62-.69l.08-.1c.16-.17.31-.35.46-.54l.55-.71c.19-.24.37-.49.54-.73l.64-.9c.21-.31.42-.63.62-1,.73-1.15,1.4-2.34,2-3.53l.4-.82c.18-.36.35-.72.51-1.07s.35-.75.52-1.13.3-.69.44-1c.32-.76.61-1.52.89-2.25.11-.29.22-.58.32-.86.72-2,1.28-3.82,1.68-5.27,0-.12.07-.23.1-.35.1-.35.18-.67.26-1s.09-.34.13-.49l.18-.76c0-.12.06-.23.08-.33.06-.27.1-.45.11-.51l.41-2Zm5.87-50.64h-101a8.19,8.19,0,0,0-8.17,8.17v103a8.18,8.18,0,0,0,8.17,8.17H74.07V121l-.35-.58-.59-1a51.92,51.92,0,0,1-3.37-7h0c-.08-.2-.16-.39-.22-.59l-.41-1-1.72,0a4.69,4.69,0,0,1-.92-.06c.29.86.61,1.72,1,2.56-1.39,0-5.62-.4-8.29-5.35a14.37,14.37,0,0,0,3.19,1c.28.06.57.11.85.15A9.24,9.24,0,0,1,61,106.07a15.8,15.8,0,0,1-.84-2.42l-.23-.86-.71-.52-.21-.16-.13-.1c-.18-.13-.35-.28-.52-.43s-.37-.32-.56-.5-.39-.37-.58-.56a24.38,24.38,0,0,1-2.64-3.26q-.26-.36-.48-.72c-.16-.24-.31-.49-.46-.74A59.29,59.29,0,0,1,47.81,82c-.16-.56-.29-1.06-.41-1.5a33.48,33.48,0,0,1,9.15-2.22,24.32,24.32,0,0,1,2.79-.14h.5l1,0,.43,0,.4,0h.14l.11,0,.24,0,2.54.51,0-.18.34-2.48c.12-.86.24-1.69.36-2.48q.11-.65.21-1.26c.06-.39.13-.76.2-1.13.29-1.55.59-3,.91-4.22.07-.29.14-.58.22-.86l.24-.86a23.07,23.07,0,0,1,2.71-6.49l.18-.26.21-.27a3.86,3.86,0,0,1,1.2-1.06c.24-.12.73-.36,1.78.23,8.25,4.63,12.32,5.27,14.25,5,1.85.2,5.91-.37,14.18-5,1-.59,1.54-.35,1.78-.23a4.19,4.19,0,0,1,1.4,1.32q.11.14.21.3c.14.21.29.44.43.69l.18.32a19.82,19.82,0,0,1,.9,1.93c.11.27.22.55.32.85s.13.35.19.53c.19.53.37,1.11.55,1.72l.21.72c.14.49.27,1,.4,1.55a.14.14,0,0,1,0,.06,1.83,1.83,0,0,1,.06.25,3.81,3.81,0,0,1,.12.51c0,.14.07.29.1.43.1.43.2.87.29,1.34s.22,1.11.33,1.7c.06.29.11.59.16.9l.15.94.06.35c.12.74.23,1.5.34,2.3V78.6l.51-.06.56-.06.15,0h.07l1.18-.14.25,0,.47,0h.33l.37,0c.44,0,.89,0,1.32,0h.49a24.68,24.68,0,0,1,2.81.14h0a33.94,33.94,0,0,1,9.11,2.22c-1,3.69-3.44,11.73-7.66,17.48-.26.37-.54.73-.83,1.09a19.14,19.14,0,0,1-2.33,2.42,14,14,0,0,1-1.16.91l-.11.08-.46.31-.28.2-.24.88a14.9,14.9,0,0,1-.84,2.33,9,9,0,0,1-2.22,3.05c.41-.05.82-.11,1.21-.19a14.07,14.07,0,0,0,2.79-.87,9.44,9.44,0,0,1-7.89,5.17c.35-.87.68-1.75,1-2.64a5.62,5.62,0,0,1-1.08.14h0l-1,0-.56,0-.6,1.49-.12.29a49.82,49.82,0,0,1-2.4,5.11v0l-.29.54v27h35a8.18,8.18,0,0,0,8.18-8.17v-103A8.19,8.19,0,0,0,137.4,26.12Zm3.18,111.13a3.18,3.18,0,0,1-3.18,3.17h-30V119.65c.68-1.3,1.31-2.62,1.9-4l.31-.07.74-.2.39-.12a12,12,0,0,0,3-1.48c.15-.1.29-.2.44-.32s.49-.38.73-.6.25-.23.37-.35.34-.33.51-.52l.29-.33a13.56,13.56,0,0,0,1.24-1.7c.1-.15.19-.31.28-.47s.19-.33.28-.51c.18-.34.36-.7.52-1.09.08-.18.16-.36.23-.55.17-.41.32-.84.47-1.3,0,0,0,0,.07-.06a.39.39,0,0,0,.1-.08c.25-.19.5-.39.73-.6s.52-.45.77-.7.42-.4.62-.61.3-.3.44-.46.42-.45.62-.69l.08-.1c.16-.17.31-.35.46-.54l.55-.71c.19-.24.37-.49.54-.73l.64-.9c.21-.31.42-.63.62-1,.73-1.15,1.4-2.34,2-3.53l.4-.82c.18-.36.35-.72.51-1.07s.35-.75.52-1.13.3-.69.44-1c.32-.76.61-1.52.89-2.25.11-.29.22-.58.32-.86.72-2,1.28-3.82,1.68-5.27,0-.12.07-.23.1-.35.1-.35.18-.67.26-1s.09-.34.13-.49l.18-.76c0-.12.06-.23.08-.33.06-.27.1-.45.11-.51l.41-2-1.82-.83a39.62,39.62,0,0,0-12.6-3.45l-.8-.07-.81,0q-.46,0-1,0h-1.81c-.06-.41-.13-.82-.2-1.22l-.18-1.06L114,69.73c-.08-.38-.15-.75-.23-1.11-.22-1.1-.46-2.14-.72-3.13-.08-.33-.17-.65-.26-1q-.25-.94-.54-1.83s0,0,0,0a27.3,27.3,0,0,0-2.8-6.3c-.11-.17-.22-.33-.34-.49a11.21,11.21,0,0,0-1.42-1.71,7.54,7.54,0,0,0-.75-.66,6,6,0,0,0-.52-.36,5.07,5.07,0,0,0-.67-.39,6.6,6.6,0,0,0-6.46.34c-7.55,4.24-10.55,4.41-11.1,4.41l-.67-.26-.67.26c-.53,0-3.54-.18-11.09-4.41a6.63,6.63,0,0,0-6.46-.35,7.37,7.37,0,0,0-1.83,1.31c-.12.11-.24.23-.35.35s-.23.24-.34.37-.41.49-.62.77a2.75,2.75,0,0,0-.23.33,3.16,3.16,0,0,0-.18.27c-.11.16-.22.33-.32.5s-.22.36-.33.56a25.35,25.35,0,0,0-1.65,3.6c-.09.22-.17.44-.24.67s-.11.28-.16.43l-.24.75c-.09.27-.18.55-.26.83-.17.56-.33,1.14-.49,1.75h0q-.69,2.63-1.24,5.76c-.12.67-.24,1.36-.35,2.07a.19.19,0,0,1,0,.08H59.34q-.66,0-1.29,0c-.35,0-.69,0-1,0l-1,.08a39.34,39.34,0,0,0-12.63,3.46l-1.81.82.4,2s0,.11,0,.22,0,.14,0,.23,0,.18.07.29a.5.5,0,0,0,0,.12A76.49,76.49,0,0,0,44.49,88l.18.49c.61,1.64,1.32,3.4,2.15,5.17q.23.49.48,1c.47,1,1,1.92,1.53,2.86.14.25.28.49.43.73s.34.56.52.83.44.68.67,1l0,.06c.23.33.46.65.7,1s.37.5.56.74.25.31.39.47A21.2,21.2,0,0,0,53.62,104a6.62,6.62,0,0,0,.53.53c.41.4.82.77,1.25,1.12l.11.09q.15.51.33,1c.1.29.2.56.32.83.19.47.39.91.61,1.33.09.18.19.35.28.52a14,14,0,0,0,1.27,1.9c.11.14.22.28.34.41s.38.43.58.63l.3.29.3.28a4.82,4.82,0,0,0,.43.36c.14.12.29.23.43.33l.42.29.36.23c.36.22.71.41,1.06.58l.35.16a12.42,12.42,0,0,0,1.42.52l.44.12.1,0a7.64,7.64,0,0,0,.85.18,57,57,0,0,0,3.37,6.66v18H36.44a3.17,3.17,0,0,1-3.17-3.17v-103a3.17,3.17,0,0,1,3.17-3.17h101a3.18,3.18,0,0,1,3.18,3.17Zm-9.05-60.49a39.62,39.62,0,0,0-12.6-3.45l-.8-.07-.81,0q-.46,0-1,0h-1.81c-.06-.41-.13-.82-.2-1.22l-.18-1.06L114,69.73c-.08-.38-.15-.75-.23-1.11-.22-1.1-.46-2.14-.72-3.13-.08-.33-.17-.65-.26-1q-.25-.94-.54-1.83s0,0,0,0a27.3,27.3,0,0,0-2.8-6.3c-.11-.17-.22-.33-.34-.49a11.21,11.21,0,0,0-1.42-1.71,7.54,7.54,0,0,0-.75-.66,6,6,0,0,0-.52-.36,5.07,5.07,0,0,0-.67-.39,6.6,6.6,0,0,0-6.46.34c-7.55,4.24-10.55,4.41-11.1,4.41l-.67-.26-.67.26c-.53,0-3.54-.18-11.09-4.41a6.63,6.63,0,0,0-6.46-.35,7.37,7.37,0,0,0-1.83,1.31c-.12.11-.24.23-.35.35s-.23.24-.34.37-.41.49-.62.77a2.75,2.75,0,0,0-.23.33,3.16,3.16,0,0,0-.18.27c-.11.16-.22.33-.32.5s-.22.36-.33.56a25.35,25.35,0,0,0-1.65,3.6c-.09.22-.17.44-.24.67s-.11.28-.16.43l-.24.75c-.09.27-.18.55-.26.83-.17.56-.33,1.14-.49,1.75h0q-.69,2.63-1.24,5.76c-.12.67-.24,1.36-.35,2.07a.19.19,0,0,1,0,.08H59.34q-.66,0-1.29,0c-.35,0-.69,0-1,0l-1,.08a39.34,39.34,0,0,0-12.63,3.46l-1.81.82.4,2s0,.11,0,.22,0,.14,0,.23,0,.18.07.29a.5.5,0,0,0,0,.12A76.49,76.49,0,0,0,44.49,88l.18.49c.61,1.64,1.32,3.4,2.15,5.17q.23.49.48,1c.47,1,1,1.92,1.53,2.86.14.25.28.49.43.73s.34.56.52.83.44.68.67,1l0,.06c.23.33.46.65.7,1s.37.5.56.74.25.31.39.47A21.2,21.2,0,0,0,53.62,104a6.62,6.62,0,0,0,.53.53c.41.4.82.77,1.25,1.12l.11.09q.15.51.33,1c.1.29.2.56.32.83.19.47.39.91.61,1.33.09.18.19.35.28.52a14,14,0,0,0,1.27,1.9c.11.14.22.28.34.41s.38.43.58.63l.3.29.3.28a4.82,4.82,0,0,0,.43.36c.14.12.29.23.43.33l.42.29.36.23c.36.22.71.41,1.06.58l.35.16a12.42,12.42,0,0,0,1.42.52l.44.12.1,0a7.64,7.64,0,0,0,.85.18,57,57,0,0,0,3.37,6.66v-9.73L71,115.83h.13l-1.35-3.38h0c-.08-.2-.16-.39-.22-.59l-.41-1-1.72,0a4.69,4.69,0,0,1-.92-.06c.29.86.61,1.72,1,2.56-1.39,0-5.62-.4-8.29-5.35a14.37,14.37,0,0,0,3.19,1c.28.06.57.11.85.15A9.24,9.24,0,0,1,61,106.07a15.8,15.8,0,0,1-.84-2.42l-.23-.86-.71-.52-.21-.16-.13-.1c-.18-.13-.35-.28-.52-.43s-.37-.32-.56-.5-.39-.37-.58-.56a24.38,24.38,0,0,1-2.64-3.26q-.26-.36-.48-.72c-.16-.24-.31-.49-.46-.74A59.29,59.29,0,0,1,47.81,82c-.16-.56-.29-1.06-.41-1.5a33.48,33.48,0,0,1,9.15-2.22,24.32,24.32,0,0,1,2.79-.14h.5l1,0,.43,0,.4,0,.28,0,.19,0,.29-2.48h.15c.84.08,1.67.19,2.48.33.12-.86.24-1.69.36-2.48q.11-.65.21-1.26c.06-.39.13-.76.2-1.13.29-1.55.59-3,.91-4.22.07-.29.14-.58.22-.86l.24-.86a23.07,23.07,0,0,1,2.71-6.49l.18-.26.21-.27a3.86,3.86,0,0,1,1.2-1.06c.24-.12.73-.36,1.78.23,8.25,4.63,12.32,5.27,14.25,5,1.85.2,5.91-.37,14.18-5,1-.59,1.54-.35,1.78-.23a4.19,4.19,0,0,1,1.4,1.32q.11.14.21.3c.14.21.29.44.43.69l.18.32a19.82,19.82,0,0,1,.9,1.93c.11.27.22.55.32.85s.13.35.19.53c.19.53.37,1.11.55,1.72l.21.72c.14.49.27,1,.4,1.55a.14.14,0,0,1,0,.06,1.83,1.83,0,0,1,.06.25,3.81,3.81,0,0,1,.12.51c0,.14.07.29.1.43.1.43.2.87.29,1.34s.22,1.11.33,1.7c.06.29.11.59.16.9l.15.94.06.35c.12.74.23,1.5.34,2.3v.11l.52,2.49.56-.06.15,0h.07l1.18-.14.25,0,.47,0h.33l.37,0c.44,0,.89,0,1.32,0h.49a24.68,24.68,0,0,1,2.81.14h0a33.94,33.94,0,0,1,9.11,2.22c-1,3.69-3.44,11.73-7.66,17.48-.26.37-.54.73-.83,1.09a19.14,19.14,0,0,1-2.33,2.42,14,14,0,0,1-1.16.91l5.57-3.88-1.84,6.68c-.08.28-.16.56-.25.83v0s0,0,.07-.06a.39.39,0,0,0,.1-.08c.25-.19.5-.39.73-.6s.52-.45.77-.7.42-.4.62-.61.3-.3.44-.46.42-.45.62-.69l.08-.1c.16-.17.31-.35.46-.54l.55-.71c.19-.24.37-.49.54-.73l.64-.9c.21-.31.42-.63.62-1,.73-1.15,1.4-2.34,2-3.53l.4-.82c.18-.36.35-.72.51-1.07s.35-.75.52-1.13.3-.69.44-1c.32-.76.61-1.52.89-2.25.11-.29.22-.58.32-.86.72-2,1.28-3.82,1.68-5.27,0-.12.07-.23.1-.35.1-.35.18-.67.26-1s.09-.34.13-.49l.18-.76c0-.12.06-.23.08-.33.06-.27.1-.45.11-.51l.41-2Z"/><path class="cls-3" d="M87.47,90h-.2a5.45,5.45,0,0,1-3.59-1.67c-.05-.06-8.59-8.89-21.34-10.07L59.75,78l.34-2.58c1.73-12.9,4.82-20.54,9.17-22.71a6.63,6.63,0,0,1,6.46.35c7.55,4.23,10.56,4.44,11.09,4.41l.67-.26.67.26c.55,0,3.55-.17,11.1-4.41a6.6,6.6,0,0,1,6.46-.34c4.35,2.16,7.43,9.79,9.17,22.66l0,.37v2.28l-2.27.21c-12.83,1.18-21.3,10-21.38,10.1l-.13.12A5.32,5.32,0,0,1,87.47,90ZM65.41,73.64a42,42,0,0,1,21.94,11.3.54.54,0,0,0,.15.09s.06,0,.19-.17a42,42,0,0,1,21.88-11.22c-1.69-10.65-4.21-15.47-6.09-16.41-.24-.12-.73-.36-1.78.23-8.27,4.64-12.33,5.21-14.18,5-1.93.26-6-.38-14.25-5-1-.59-1.54-.35-1.78-.23C69.61,58.17,67.09,63,65.41,73.64Z"/><polygon class="cls-3" points="110.45 78.68 109.9 76.05 109.9 75.75 112.39 75.75 112.03 73.37 112.4 75.75 114.77 74.96 114.91 75.35 114.91 75.64 115.16 77.89 112.8 78.31 110.45 78.68"/><path class="cls-3" d="M69.76,112.45h0c-.08-.2-.16-.39-.22-.59-.38-.94-.72-1.9-1-2.87s-.58-1.84-.83-2.77l-.49-1.85H65.26a9.53,9.53,0,0,1-1.94-.19,9.64,9.64,0,0,1-2.11-.69q-.51-.24-1-.54c-.34-.21-.68-.43-1-.68l-.21-.15-.13-.1-5.34-3.9,1.78,6.8c.07.28.15.56.24.83h0q.15.51.33,1c.1.29.2.56.32.83.19.47.39.91.61,1.33.09.18.19.35.28.52a14,14,0,0,0,1.27,1.9c.11.14.22.28.34.41s.38.43.58.63l.3.29.3.28a4.82,4.82,0,0,0,.43.36c.14.12.29.23.43.33l.42.29.36.23a8.6,8.6,0,0,0,1.06.58l.35.16a10,10,0,0,0,1.86.64l.1,0a7.64,7.64,0,0,0,.85.18,9.71,9.71,0,0,0,1.68.15h.08l1.61,0,1.91,0h.13ZM59.14,108a14.37,14.37,0,0,0,3.19,1c.28.06.57.11.85.15h0l.14,0a15.35,15.35,0,0,0,2,.12c.23,0,.47,0,.7,0,.15.5.32,1,.49,1.48.29.86.61,1.72,1,2.56C66,113.39,61.81,113,59.14,108Z"/><path d="M65.29,109.36a15.35,15.35,0,0,1-2-.12.74.74,0,0,1,0,.14l-.18-.16h0c-.28,0-.57-.09-.85-.15a14.37,14.37,0,0,1-3.19-1,16.59,16.59,0,0,1-1.45-3.74A13.32,13.32,0,0,0,61,106.07a10.86,10.86,0,0,0,1.87.55,12.16,12.16,0,0,0,2.44.24c.22.83.47,1.65.73,2.47C65.76,109.35,65.52,109.36,65.29,109.36Z"/><path class="cls-3" d="M92.79,116.59H82.31V84.93l4.16,3.7a1.35,1.35,0,0,0,.94.42,2,2,0,0,0,1.1-.43L91.4,86l1.14,3.75c0,.13.07.25.11.37l.14.5Zm-5.48-5h.48V94h-.48Z"/><path class="cls-3" d="M106.38,110.92l-2.27,4.26-1.41,2.65v0l-.29.54a79.3,79.3,0,0,1-11,15,5.14,5.14,0,0,1-7.88,0,81.86,81.86,0,0,1-9.82-12.93l-.59-1L71,115.83l-1.91-3.18v32.77H107.4V109Zm-4,29.5H74.07V129.8c1.72,2.26,3.63,4.55,5.77,6.9a10.13,10.13,0,0,0,15.28,0,97.54,97.54,0,0,0,7.28-8.95Z"/><path class="cls-3" d="M115.58,102.41l-.11.08-.46.31a9.86,9.86,0,0,1-3.36,1.37,9.3,9.3,0,0,1-1.91.19H107.8l-.5,1.85c-.26,1-.53,1.88-.83,2.77-.38,1.19-.8,2.33-1.25,3.45l-.12.29-1,2.44v0l-.34.85,3.63-.15h.24a11.93,11.93,0,0,0,2-.27l.74-.2.39-.12a12,12,0,0,0,3-1.48c.15-.1.29-.2.44-.32s.49-.38.73-.6.25-.23.37-.35.34-.33.51-.52l.29-.33a13.56,13.56,0,0,0,1.24-1.7c.1-.15.19-.31.28-.47s.19-.33.28-.51c.18-.34.36-.7.52-1.09.08-.18.16-.36.23-.55.17-.41.32-.84.47-1.3v0c.09-.27.17-.55.25-.83l1.84-6.68Zm-8,11c.35-.87.68-1.75,1-2.64.17-.46.32-.93.46-1.4l.73,0a13.94,13.94,0,0,0,1.72-.1c.41-.05.82-.11,1.21-.19a14.07,14.07,0,0,0,2.79-.87A9.44,9.44,0,0,1,107.54,113.37Z"/><path d="M116.9,104.54a16.3,16.3,0,0,1-1.47,3.66,14.07,14.07,0,0,1-2.79.87c-.39.08-.8.14-1.21.19a13.94,13.94,0,0,1-1.72.1l-.73,0c.26-.81.5-1.64.73-2.47a12.09,12.09,0,0,0,2.44-.24,11.09,11.09,0,0,0,1.5-.41A13,13,0,0,0,116.9,104.54Z"/><path class="cls-3" d="M62.13,78.26l-.59-.08a2.47,2.47,0,0,0-.55,0l-2.09,0-.45-2.64c-2.29-12.61-3.57-29,3.33-35.3,8.75-8,24.12-8.8,24.77-8.83h.22c.65,0,16,.81,24.76,8.83,8.59,7.89,5.2,31,4.44,35.52L111,74.88c1.44-8.49,2.68-25.9-2.88-31-7-6.46-20.12-7.44-21.49-7.52-1.37.08-14.46,1.06-21.5,7.52-4,3.68-4.67,14.88-1.79,30.71l.11.64-1,.17Z"/><path class="cls-3" d="M113.1,78.24l-.47,0-.25,0-1.18.14h-.07l-.15,0a4.85,4.85,0,0,0-.55.09h0l0,.11,2.35-.37.44-.08Zm-12.18,3.4c.53-.26,1.09-.51,1.66-.75-.33.14-.66.27-1,.42Zm1.66-.75.14-.07Zm.14-.07c.59-.25,1.21-.49,1.84-.72C103.92,80.33,103.31,80.57,102.72,80.82Zm-1.8.82c-.68.33-1.32.67-1.94,1C99.6,82.32,100.24,82,100.92,81.64Zm-3.76,2.1c-.47.3-.91.6-1.32.88l-.15.11c1-.66,2.06-1.37,3.29-2.07l-.77.43Zm-2.49,1.72.61-.44c-.14.09-.27.19-.39.28Zm-1.17.91,1-.79-.69.53ZM61.94,78.24l-.28,0,.25,0,.24,0h.19l-.21,0Zm69.59-1.48a39.62,39.62,0,0,0-12.6-3.45l-.8-.07-.81,0q-.46,0-1,0h-1.29l-.52,0h-.14V73.1l-1.76.16-.33,0h-.14l-.91.1q-.49,0-1,.12l-.64.08v0l-.09,0h0l-.15,0h0l-1.23.23c-.88.18-1.74.38-2.57.61l-1,.29c-.44.13-.88.27-1.31.42l-.89.32c-.39.14-.78.29-1.16.45l-.9.38-1,.44-1,.45-.91.47a43.37,43.37,0,0,0-4,2.39c-.61.41-1.18.81-1.7,1.19s-.84.64-1.21.94-.62.5-.9.73h0l-.58.5-.31.29c-.17.14-.32.28-.45.4l-.23.23c-.22.2-.37.36-.46.45s-.19.15-.19.17a.54.54,0,0,1-.15-.09l-.06-.06-.12-.12L87,84.59l-.56-.53-.24-.22A42.42,42.42,0,0,0,82,80.49l-.08-.06c-.45-.3-.92-.62-1.42-.94s-.76-.47-1.16-.7l-1-.55Q77.22,77.61,76,77l-1-.47q-.49-.23-1-.42l-.63-.26-1-.4-1.07-.37c-.37-.13-.73-.24-1.11-.35l-.85-.25h0c-.26-.08-.53-.14-.8-.21l-.84-.2L67,73.93l-.62-.12-.18,0-.74-.13c-.74-.12-1.49-.23-2.26-.3l-.27,0-.3,0c-.76-.08-1.5-.11-2.16-.12H59.34q-.66,0-1.29,0c-.35,0-.69,0-1,0l-1,.08a39.34,39.34,0,0,0-12.63,3.46l-1.81.82.4,2s0,.11,0,.22,0,.14,0,.23,0,.18.07.29a.5.5,0,0,0,0,.12A76.49,76.49,0,0,0,44.49,88l.18.49c.61,1.64,1.32,3.4,2.15,5.17q.23.49.48,1c.47,1,1,1.92,1.53,2.86.14.25.28.49.43.73s.34.56.52.83.44.68.67,1l0,.06c.23.33.46.65.7,1s.37.5.56.74.25.31.39.47A21.2,21.2,0,0,0,53.62,104a6.62,6.62,0,0,0,.53.53c.41.4.82.77,1.25,1.12l.11.08h0c.23.19.47.37.71.55A16.18,16.18,0,0,0,59.14,108a14.37,14.37,0,0,0,3.19,1c.28.06.57.11.85.15h0l.14,0a15.35,15.35,0,0,0,2,.12c.23,0,.47,0,.7,0a14.84,14.84,0,0,0,2.28-.3l.23,0a23.83,23.83,0,0,0,13.81-8.18,25.42,25.42,0,0,0,4-6.85,5.78,5.78,0,0,0,1,.1h.22a5.83,5.83,0,0,0,1.13-.13,25.32,25.32,0,0,0,4.13,7l.16.2A24.06,24.06,0,0,0,106.47,109l.23,0,.63.12h.07a14.12,14.12,0,0,0,1.58.17l.73,0a13.94,13.94,0,0,0,1.72-.1c.41-.05.82-.11,1.21-.19a14.07,14.07,0,0,0,2.79-.87,15.84,15.84,0,0,0,2.89-1.6c.25-.17.5-.35.74-.55h0l.07,0a.39.39,0,0,0,.1-.08c.25-.19.5-.39.73-.6s.52-.45.77-.7.42-.4.62-.61.3-.3.44-.46.42-.45.62-.69l.08-.1c.16-.17.31-.35.46-.54l.55-.71c.19-.24.37-.49.54-.73l.64-.9c.21-.31.42-.63.62-1,.73-1.15,1.4-2.34,2-3.53l.4-.82c.18-.36.35-.72.51-1.07s.35-.75.52-1.13.3-.69.44-1c.32-.76.61-1.52.89-2.25.11-.29.22-.58.32-.86.72-2,1.28-3.82,1.68-5.27,0-.12.07-.23.1-.35.1-.35.18-.67.26-1s.09-.34.13-.49l.18-.76c0-.12.06-.23.08-.33.06-.27.1-.45.11-.51l.41-2ZM82.4,89.83l-.09.31a19,19,0,0,1-15.08,14,9.78,9.78,0,0,1-2,.23,9.53,9.53,0,0,1-1.94-.19,9.64,9.64,0,0,1-2.11-.69q-.51-.24-1-.54c-.17-.1-.34-.2-.51-.32s-.34-.22-.51-.35l-.21-.16-.13-.1c-.18-.13-.35-.28-.52-.43s-.37-.32-.56-.5a7.6,7.6,0,0,1-.58-.56,24.38,24.38,0,0,1-2.64-3.26q-.26-.36-.48-.72c-.16-.25-.32-.49-.46-.74A59.29,59.29,0,0,1,47.81,82c-.16-.56-.29-1.06-.41-1.5a33.48,33.48,0,0,1,9.15-2.22,24.32,24.32,0,0,1,2.79-.14h.5l1,0,.43,0,.4,0,.25,0,.24,0h.19l1,.11.44.06.43.07h.11l.28,0,.12,0,.14,0,.68.13.66.14c.31.06.62.14.92.21.61.15,1.2.32,1.78.5l.85.28.84.29c.55.21,1.09.42,1.61.64s.77.33,1.15.51l1.09.53.7.36c.23.12.46.24.68.37l.65.37a38.49,38.49,0,0,1,3.85,2.53l.48.37c.59.45,1.1.87,1.52,1.23.13.12.26.22.37.33l.32.28ZM119.9,98c-.26.37-.54.73-.83,1.09a19.14,19.14,0,0,1-2.33,2.42,14,14,0,0,1-1.16.91l-.11.08-.46.31a9.86,9.86,0,0,1-3.36,1.37,9.3,9.3,0,0,1-1.91.19h0a9.63,9.63,0,0,1-2-.23,19.21,19.21,0,0,1-11-6.24,20.75,20.75,0,0,1-4-7.27h0a.61.61,0,0,1,0-.11c0-.08-.05-.15-.07-.22l0-.16c0-.12-.07-.24-.11-.37l-.62-2h0c.26-.25.6-.54,1-.89.17-.15.36-.31.57-.47l1-.79.16-.12L95,85.2c.21-.16.43-.32.66-.47,1-.66,2.06-1.37,3.29-2.07.62-.34,1.26-.69,1.94-1,.53-.26,1.09-.51,1.66-.75l.14-.07c.59-.25,1.21-.49,1.84-.72l.78-.27.81-.26,1-.3,1.06-.27.87-.19.07,0,1.11-.2.14,0h0l0,.11,2.35-.37.44-.08h.19l.37,0c.44,0,.89,0,1.32,0h.49a24.68,24.68,0,0,1,2.81.14h0a33.94,33.94,0,0,1,9.11,2.22C126.58,84.2,124.12,92.24,119.9,98Zm-25-12.69-.22.16.61-.44C95.14,85.11,95,85.21,94.89,85.3ZM93.5,86.37l1-.79-.69.53Zm4.71-3.28-1,.65c-.47.3-.91.6-1.32.88l-.15.11c1-.66,2.06-1.37,3.29-2.07Zm4.51-2.27c.59-.25,1.21-.49,1.84-.72C103.92,80.33,103.31,80.57,102.72,80.82Zm-.14.07.14-.07Zm-1,.42-.69.33c.53-.26,1.09-.51,1.66-.75C102.25,81,101.92,81.16,101.61,81.31Zm-.69.33c-.68.33-1.32.67-1.94,1C99.6,82.32,100.24,82,100.92,81.64Zm12.18-3.4-.47,0-.25,0-1.18.14h-.07l-.15,0a4.85,4.85,0,0,0-.55.09h0l0,.11,2.35-.37.44-.08Zm-51,0-.19,0-.28,0,.25,0,.24,0h.19Z"/><path class="cls-3" d="M69.32,95.39a12.71,12.71,0,0,1-9-3.74c-.33-.35-.67-.7-1-1.12L58.11,89l1.18-1.53a11.41,11.41,0,0,1,1-1.13,12.8,12.8,0,0,1,18.06,0,11,11,0,0,1,1,1.13L80.53,89l-1.18,1.53a11.35,11.35,0,0,1-1,1.12A12.72,12.72,0,0,1,69.32,95.39ZM64.88,89a7.8,7.8,0,0,0,8.89,0,7.8,7.8,0,0,0-8.89,0Z"/><path class="cls-3" d="M104.9,95.39a12.71,12.71,0,0,1-9-3.74,11.93,11.93,0,0,1-1-1.12L93.69,89l1.18-1.53a11.41,11.41,0,0,1,1-1.13,12.8,12.8,0,0,1,18.06,0,11.55,11.55,0,0,1,1,1.09L116.16,89l-1.26,1.57a13.71,13.71,0,0,1-1,1.08A12.72,12.72,0,0,1,104.9,95.39ZM100.46,89a7.8,7.8,0,0,0,8.89,0,7.8,7.8,0,0,0-8.89,0Z"/><polygon class="cls-3" points="110.45 78.68 109.33 73.29 114.66 73.29 115.16 77.89 112.8 78.31 110.45 78.68"/><rect class="cls-3" x="102.4" y="118.73" width="5" height="0.29"/><path d="M74.82,89a2.51,2.51,0,1,1-2.5-2.5A2.5,2.5,0,0,1,74.82,89Z"/><path class="cls-3" d="M72.32,94a5,5,0,1,1,5-5A5,5,0,0,1,72.32,94Zm0-5h0Z"/><path d="M110.4,89a2.51,2.51,0,1,1-2.5-2.5A2.49,2.49,0,0,1,110.4,89Z"/><path class="cls-3" d="M107.9,94a5,5,0,1,1,5-5A5,5,0,0,1,107.9,94Zm0-5Z"/><rect class="cls-3" x="87.79" y="90.5" width="5" height="0.48"/></g></g></svg>