<svg xmlns="http://www.w3.org/2000/svg" viewBox="0 0 294.05 426.33"><defs><style>.cls-1{fill:#ff0074;}.cls-2{fill:none;stroke:#2de2e6;stroke-miterlimit:10;}</style></defs><title>Fichier 4</title><g id="Calque_2" data-name="Calque 2"><g id="Personnage"><polygon class="cls-1" points="197.06 364.6 197.07 364.59 197.06 364.58 197.06 364.6"/><path class="cls-1" d="M199,379a2.8,2.8,0,1,0,2.8-2.8A2.8,2.8,0,0,0,199,379Zm4.58,0a1.79,1.79,0,1,1-1.78-1.78A1.79,1.79,0,0,1,203.55,379Z"/><path class="cls-1" d="M70.7,377.37A3.29,3.29,0,1,0,74,380.65,3.29,3.29,0,0,0,70.7,377.37Zm0,5.56A2.28,2.28,0,1,1,73,380.65,2.28,2.28,0,0,1,70.7,382.93Z"/><path class="cls-1" d="M273.74,148.63c-4-24.17-17.29-40.65-22.31-46.86-17-21.07-40.57-36.24-70.09-45.09a147.89,147.89,0,0,0-70.68-3.78c-18.6,3.53-33.17,10.07-40.61,15-3.4,2.25-12.41,8.23-16.82,19.76-1.39,3.61-4.64,12.07-.68,21.66,2.33,5.6,6.6,10.19,12.7,13.65a4.37,4.37,0,0,0,2.49,4.86l1.28.57A4.34,4.34,0,0,0,74.3,127c3.42,2.44,9.23,6.35,12.8,7.55a7,7,0,0,0,2.22.4,4.4,4.4,0,0,0,2.21-.56,5,5,0,0,0,2.12-2.79c1.67-.11,3.49-2.19,4.12-3,.84.13,3.12.34,4.47-1.06s-1.14-6.23-2.6-8.7c4.32.77,16,2.79,17.19,2.51a2.87,2.87,0,0,0,1.63-.92,4.2,4.2,0,0,0,.7-1.44.77.77,0,0,0-.08-.61c-.68-1.14-6.29-2.26-8.61-2.68l-12.21-3.82a9.5,9.5,0,0,0,3.3-6.77A2,2,0,0,0,99.68,103a2.06,2.06,0,0,0-2.12,2c0,.76-1.54,2.7-3.68,4.27-1.42,1-2.73,1.58-3.33,1.41-2.2-.65-8.3.45-10.33,1.62a3.56,3.56,0,0,1-.71.29,4.35,4.35,0,0,0-2.33-2.52l-1.28-.57a4.32,4.32,0,0,0-4.66.74A13.67,13.67,0,0,1,65.39,104c-1.79-4.31-.15-8.58.82-11.12,2.85-7.41,9.19-11.61,11.58-13.19,11.39-7.55,51.5-24,99.71-9.52,26.74,8,48,21.62,63.18,40.44,4.78,5.92,16,19.8,19.32,40.19,1.05,6.39,2.81,17.09-1.88,29l.47.19-.51-.12c-1.94,4.91-6,15.11-16.94,20.77a33.68,33.68,0,0,1-5.7,2.32h0c-.39-2.3-.88-4.67-1.47-7.09a96.88,96.88,0,0,0-3.6-11.49c-8.9-23.32-27.09-41.81-51.23-52.14a41.85,41.85,0,0,0,1.79-5.79.54.54,0,0,0-.29-.57A21.07,21.07,0,0,0,173.9,124c-.56,0-1.15-.08-1.75-.09h-.42c.56-4,1.6-14.52-2.32-18.11-4.63-4.25-12.87-4.67-13.27-4.68s-8.58.43-13.21,4.68c-3.92,3.59-2.88,14.13-2.32,18.11-.51,0-1,0-1.5.08a20.54,20.54,0,0,0-5.83,1.46,114,114,0,0,0-14.52,2.76l-.11,0c-4.71,1.17-21.26,5.73-36.31,15.13-16.08,10-24.3,21.8-24.4,35-.11,12.18,7.29,24.82,18,30.73,9.3,5.14,21.34,4.87,33.05-.75,1-.51,1.84-.92,2.58-1.32a60.88,60.88,0,0,0,8.75-5.91A38.64,38.64,0,0,1,114.54,220a.52.52,0,0,0-.07.42c.77,2.88,2.21,4.86,4.26,5.9a8,8,0,0,0,3.59.81,10.86,10.86,0,0,0,2.94-.43h0c1.11,4.78,4.5,11.73,13.94,19.33a2.62,2.62,0,0,0-.95,2.94l.35,1.08a2.61,2.61,0,0,0,1,1.32,129.83,129.83,0,0,0-27.54,18.22c-2.85,2.51-5.35,4.84-7.61,7.1a84.16,84.16,0,0,1-9.27-10.25l-.49-.65a4.2,4.2,0,0,0,1.09-2.59l.11-1.41a4.26,4.26,0,0,0-.13-1.29h0a44.05,44.05,0,0,0,8.25-5.21,5.24,5.24,0,0,0,2-3.93,5,5,0,0,0-1.4-3.22c.72-1.5-.2-4.11-.56-5,.53-.67,1.83-2.56,1.26-4.42s-6-2.06-8.86-2c1.39-1.7,4-4.86,6.21-7.72A47.38,47.38,0,0,0,107,222.9a2.9,2.9,0,0,0-.92-3.18.78.78,0,0,0-.58-.23c-1.31,0-5,4.39-6.53,6.21l-9.31,8.79a9.43,9.43,0,0,0-4.3-6.19,1.93,1.93,0,0,0-2.8.58,2.07,2.07,0,0,0,.75,2.86c.66.38,1.61,2.66,1.93,5.31.21,1.74.06,3.13-.39,3.57-1.63,1.6-3.66,7.46-3.63,9.8,0,1.14-1,3.7-2.58,6.88h0a4.28,4.28,0,0,0-1.77,3.21l-.1,1.39a4.37,4.37,0,0,0,4,4.63l1,.07h0c.12.5.25,1,.43,1.66a28.3,28.3,0,0,0,4.07,8.81c.65.82,1.31,1.62,2,2.39.19.21.38.41.56.65,2.07,2.39,4.21,4.64,6.38,6.7h0l-.07.09c-.36.43-.72.87-1.09,1.34l-2.27,2.93,0,.06a150,150,0,0,0-8.63,12.87c-2.72,4.63-5.21,9.38-7.4,14.12a160.26,160.26,0,0,0-5.92,15.22,152.46,152.46,0,0,0-4.27,16.15L65.31,351c-.54,2.54-.9,4.25-1.2,6.32a4,4,0,0,0-.86,2.25l-.1,1.54a4.11,4.11,0,0,0,2.25,3.92l-.25,1.54h-.52a1.87,1.87,0,0,0-1.87,1.87v.59a1.86,1.86,0,0,0,1.68,1.85L64.26,372a1.88,1.88,0,0,0-1.5,1.83v.59a.62.62,0,0,0,0,.19,133.35,133.35,0,0,0-17.89,1.81h0c-3.91-1.43-6.87-1.32-8.79.33-2.63,2.26-2.56,6.79-2.28,9.32a1.62,1.62,0,0,0-1,1.46V388a1.59,1.59,0,0,0,1.59,1.59H47.16l.14,0,27,0h3.52A1.59,1.59,0,0,0,79.4,388v-.47A1.59,1.59,0,0,0,78.06,386a56,56,0,0,0-3-20.19,4.07,4.07,0,0,0,3.08-3.71l.09-1.54a4.09,4.09,0,0,0-1-3,4,4,0,0,0-.9-.76A14.59,14.59,0,0,1,77,354a129.37,129.37,0,0,1,4.43-13.72,133,133,0,0,1,5.84-12.8,130.54,130.54,0,0,1,7.07-11.74,124.17,124.17,0,0,1,8.06-10.51l2.18-2.47,1.38-1.47.09-.08.5-.54.71-.75.62-.64,1.13-1.1.37-.36h0l1.17.72a80.59,80.59,0,0,0,10,5.11c2,.84,4,1.62,6,2.31a85.57,85.57,0,0,0,27.22,4.46,83.51,83.51,0,0,0,9.75-.58l.31,1a.58.58,0,0,0,.18.26c1.12,3.15,2.26,6.06,3.46,8.88.4.95.79,1.81,1.12,2.54.21.43.41.87.62,1.34l.86,1.9c.2.41.4.81.6,1.23l.44.88.22.42.31.61c.42.86.82,1.67,1.28,2.52l2,3.69a146.13,146.13,0,0,0,9,14.07c2.47,3.34,5,6.51,7.6,9.48a4.13,4.13,0,0,0-.6,3.5l.42,1.48a4.11,4.11,0,0,0,3.94,3,3.62,3.62,0,0,0,.92-.11l-.06.38h-.35a1.63,1.63,0,0,0-1.63,1.63V369a1.64,1.64,0,0,0,1.37,1.62l-.12.75a1.63,1.63,0,0,0-1.25,1.59v.48a.17.17,0,0,0,0,.07,108.77,108.77,0,0,0-15,1.56.49.49,0,0,0-.27.15c-3.34-.88-5.81-.61-7.35.84-2.05,1.94-1.79,5.37-1.52,7a1.59,1.59,0,0,0-.9,1.43V385a1.6,1.6,0,0,0,1.6,1.59H208a1.59,1.59,0,0,0,1.59-1.59v-.47a1.6,1.6,0,0,0-1.59-1.6h-1a47.11,47.11,0,0,0-3.19-18.63,4,4,0,0,0,1.69-1.64,3.89,3.89,0,0,0,.33-.76l.06-.2a4.17,4.17,0,0,0,0-2.16l-.42-1.48a4,4,0,0,0-2-2.46,3.32,3.32,0,0,0-.51-.23l-.15-.19a130.41,130.41,0,0,1-9-12.5,137.2,137.2,0,0,1-7.39-13.41l-1.61-3.48c-.34-.78-.66-1.53-1-2.27l-.94-2.27c-.11-.26-.22-.51-.32-.77l-.81-2.15c-.07-.2-.14-.4-.21-.58l-.23-.61c-.26-.67-.5-1.32-.74-2-.79-2.23-1.55-4.63-2.33-7.32l-.23-1h0a78.58,78.58,0,0,0,38-25.84c13.8-17,21.14-40.21,20.16-63.65h0a47.14,47.14,0,0,0,11.41-4.15c15.53-8,21.07-22,23.44-28a.14.14,0,0,0,0-.06v0C277.17,169.61,274.94,156,273.74,148.63Zm-194-34.54c0-.15,0-.3,0-.45a5,5,0,0,0,1-.41c1.8-1,7.61-2.09,9.53-1.53,1.29.38,3.19-.81,4.22-1.56,2-1.47,4.06-3.68,4.09-5.07a1.05,1.05,0,0,1,1.08-1h0c.56,0,.88.43.87,1.13a8.23,8.23,0,0,1-3.69,6.52.53.53,0,0,0-.25.5.51.51,0,0,0,.35.43l13.28,4.15c3.36.61,7.23,1.58,7.91,2.14-.29.88-.56,1.3-1.54,1.53s-11.49-1.57-17.9-2.72a.52.52,0,0,0-.51.22.54.54,0,0,0,0,.56c2.19,3.47,4,7.68,3.33,8.42-1.24,1.29-3.81.71-3.84.7a.52.52,0,0,0-.52.19c-.9,1.18-2.72,3-3.79,2.79a.51.51,0,0,0-.59.4A4.17,4.17,0,0,1,91,133.52a4.3,4.3,0,0,1-3.58.08c-3.49-1.17-9.27-5.08-12.63-7.47l4.58-10.27A4.33,4.33,0,0,0,79.76,114.09Zm-5.62-3.9a3.32,3.32,0,0,1,1.34.28l1.29.58a3.26,3.26,0,0,1,1.74,1.85,2.44,2.44,0,0,1,.15.48,3,3,0,0,1,.07.51,1.48,1.48,0,0,1,0,.21,3.15,3.15,0,0,1-.06.61l-.23.73L74,125.52l-.14-.1-.26-.19-.2-.15-.37-.27v-.51l-.18,1,.45.33.46.33s0,0,0,0,0,0,0,0h0s0,0,0,0a2.64,2.64,0,0,1-.23.35h0a3.33,3.33,0,0,1-4,1.06l-1.28-.57a3.3,3.3,0,0,1-1.94-3.4,2,2,0,0,1,.1-.53.43.43,0,0,1,0-.11,2.6,2.6,0,0,1,.13-.36h0l4.61-10.34a4.31,4.31,0,0,1,.26-.47l.08-.1a2.51,2.51,0,0,1,.25-.32l0,0,.06-.06a2.36,2.36,0,0,1,.42-.36A3.31,3.31,0,0,1,74.14,110.19ZM229.41,184.7A97.29,97.29,0,0,1,233,196.07c.6,2.43,1.1,4.83,1.49,7.14l-.76.2c-.8.21-1.62.38-2.45.53-.37.07-.74.11-1.11.16s-.93.15-1.4.2-.89.07-1.34.1-.81.07-1.21.08-1.09,0-1.64,0H223.4c-.48-2.65-1.08-5.27-1.78-7.81s-1.53-5-2.45-7.4c-7.89-20.72-24.47-36.95-46.72-45.77l0,0a7.36,7.36,0,0,0,.53-1.05,2,2,0,0,0,.1-.26,10.6,10.6,0,0,0,.42-1.24c0-.12.06-.23.08-.34l.39-.33.28-.24.5-.5.22-.23c.24-.26.47-.53.7-.82a.44.44,0,0,0,.08-.11q.32-.39.6-.81l.24-.37c.14-.21.28-.42.41-.65l.27-.46.36-.65.27-.53c.11-.23.23-.45.34-.68s.17-.39.26-.59.15-.3.22-.47C202.63,143.35,220.61,161.65,229.41,184.7Zm-56.64-21.16c-.38-3.24-3.69-4.19-5-4.44l.06-12.14.26-.62a5.64,5.64,0,0,0,3.68-2c22.11,8.69,38.59,24.76,46.41,45.28.91,2.39,1.73,4.85,2.42,7.32s1.24,4.94,1.7,7.48q-.41,0-.81-.06a38.29,38.29,0,0,1-4.05-.52,36.69,36.69,0,0,1-12.37-4.62c-.17-.08-17.28-8.85-17.66-25.34a3.88,3.88,0,0,0-.31-1.27c0-.09-.07-.18-.09-.26-.11-.34-.23-.66-.36-1a.49.49,0,0,0-.08-.18,12,12,0,0,0-10.79-7.67Zm-4.72,22.24c-.24-.94-.55-2.09-.91-3.32a48.12,48.12,0,0,0-2.61-7.38,4.33,4.33,0,0,0-1-1.4,1.27,1.27,0,0,0-.52-.26h-.08l-.26,0h0l-.43,0h0a4.53,4.53,0,0,0-.49.08l-.54.12-.41.12-.16,0h0l-.3.1a38,38,0,0,0-5.21,2.3.5.5,0,0,0-.27.45,5.59,5.59,0,0,0,1.4,3.49l-1.42,1-5.22,3.69v0c0-.05.05-.1.07-.16.27-.55.69-1.39,1.23-2.37.46-.82.95-1.64,1.46-2.44a51.83,51.83,0,0,1,4-5.54l0,0h0l.2-.22.05-.06.27-.31.05-.06c1.09-1.21,2.21-2.36,3.33-3.42a53.92,53.92,0,0,1,6-4.86h0a1.77,1.77,0,0,1,.24-.17l.19-.13h0l.19-.13,0,0,.11-.07.08-.06.18-.12,0,0,0,0,.05,0,0,0h0l.05,0a.1.1,0,0,0,0,0h0l0,0h0a.36.36,0,0,0,.11-.16h0a.65.65,0,0,0,0-.2l0-3.91c1.23.27,3.93,1.16,4,3.92h0a27.85,27.85,0,0,1-.39,3.86C170.64,173.23,168.88,181.8,168.05,185.78ZM161,166.19l-.92.32c-.73.25-1.48.47-2.21.66-.42.12-.83.22-1.24.31h-.06c-.31.07-.62.14-.92.19l-.37,0-.82.12-.48,0-.62,0h-.77l-.2,0-.59-.07-.3-.07-.5-.13-.1,0a3.69,3.69,0,0,1-.63-.31,2.53,2.53,0,0,1-1-1.12,4,4,0,0,1-.32-1.7h0l.27-.41a26.69,26.69,0,0,0,2.34-4.1,10.13,10.13,0,0,0,.73-2.58c.2.24.42.49.65.73l.12.15a4.85,4.85,0,0,0,3.6,1.65h0a4.85,4.85,0,0,0,3.6-1.65c.41-.46.8-.9,1.18-1.35.12-.13.23-.26.34-.4l.77-.93.36-.44.68-.89.32-.43c.25-.34.5-.68.73-1l.17-.24c.29-.43.57-.85.83-1.27l.19-.32.56-.94.24-.44c.08-.14.17-.29.24-.43l-.05,10.26a.77.77,0,0,0,0,.15v4.19h0c-.41.21-.87.42-1.33.63l-.8.36-.53.23-.82.34-.49.21C162.19,165.73,161.58,166,161,166.19Zm-23.25,9.46a14.66,14.66,0,0,0,.72-1.83,8.53,8.53,0,0,0,.37-1.82.65.65,0,0,0-.33-.61c-.34-.19-.79-.43-5.46,2.84,1.91-1.82,3.82-3.66,5.47-5.26l.8-.78,1.42-1.4h0c1.08-1.08,1.91-1.94,2.49-2.57h0a11.74,11.74,0,0,0,.76-.91c1.25-1.68,4.57-2.55,6.24-2.89v0l-.29.52-.1.16-.28.48-.15.24-.32.53-.16.26-.55.87-.38.59h0l-.73,1.13h0s0,0,0,0h0l0,0h0l0,0,0,.05-.21.32c-.26.41-.54.83-.83,1.26s-.53.81-.82,1.23c-1.22,1.83-2.66,4-4.34,6.42l-2.19,3.18-.13.18a1.4,1.4,0,0,0-.1.16l-.25.35h0l-.08.13-.1.15,0,0,0,0h0l-.09.13-.12.17-.06.08c-.19.26-.39.53-.55.79h0s0,0,0,0l-.76,1.1-.18.27-.66,1,0,0-.62.95-.13.19-.5.76h0l-1-6.21,4.2-2.25A.49.49,0,0,0,137.7,175.65Zm.31-36.38a11.89,11.89,0,0,0,1.49,1.38l.06.25c1.21,4.65,4.26,5.37,5.58,5.46a37.17,37.17,0,0,0,6.18,9.89,8.69,8.69,0,0,1-.63,3c-1.42.24-5.88,1.16-7.56,3.42a6.56,6.56,0,0,1-.5.6c-4.54-1.18-9.48.7-12.65,4.87a14.33,14.33,0,0,0-1.48,2.4l0,.05c-.3.51-.63,1-1,1.5-.23.34-.45.67-.67,1-6.38,10.29-14.76,18.22-23.6,22.32-8,3.72-15.8,4.06-21.44.95-5.25-2.9-10.79-10.13-10.73-17.8.15-17.43,31.16-31.64,50.66-36.5a96.34,96.34,0,0,1,14.8-2.71Zm3.53,2.53.27.11c.29.09.58.18.87.24a7.42,7.42,0,0,0,1.08.13,30,30,0,0,0,1,3c-1.12-.2-2.93-1-3.93-3.8l.15.07A6.14,6.14,0,0,0,141.54,141.8Zm27.79,1.07,1.37.49.15.07.32.12a4.7,4.7,0,0,1-2.62,1.69C168.84,144.46,169.11,143.67,169.33,142.87Zm-1.32-.64-1.12,3.46a.56.56,0,0,0,0,.22.54.54,0,0,0,.08.21.57.57,0,0,0,.13.14c-.06.13-.11.26-.17.38l0,.1c-.1.22-.21.44-.31.67l-.31.64c-.11.23-.24.45-.36.68s-.22.43-.34.64-.27.46-.41.69-.24.42-.38.64-.28.44-.42.65-.29.46-.45.68-.3.42-.45.63-.33.48-.51.72l-.49.64-.56.73-.62.74-.53.64c-.4.47-.82.94-1.26,1.42a3.72,3.72,0,0,1-5.68,0c-.29-.32-.57-.62-.83-.92l-.73-.87h0a37.11,37.11,0,0,1-6.08-9.63v0a.52.52,0,0,0,.06-.42l-1.13-3.47.55-.1a12.45,12.45,0,0,0,9.67-8.63,2.79,2.79,0,0,0,2.4,0,13.29,13.29,0,0,0,2.52,4.55,12.5,12.5,0,0,0,7.15,4.09C167.59,142.17,167.8,142.2,168,142.23Zm.94-18-.72.13-.47.1-.78.2-.4.11c-.39.11-.78.24-1.16.37a22.36,22.36,0,0,0-3.6,1.66l-.06,0a21.66,21.66,0,0,0-4.52,3.4,1,1,0,0,1-1.46,0,22.51,22.51,0,0,0-8.69-5.28H147c-.54-.18-1.09-.32-1.64-.45l-.25-.06c-.52-.12-1-.21-1.58-.28l-.15,0c0-.1,0-.2.05-.3s0-.34.08-.51l.09-.54.09-.48c0-.18.07-.35.1-.52l.09-.46c0-.16.07-.33.11-.49s.06-.29.1-.43.07-.31.11-.46.07-.27.1-.41l.12-.43c0-.13.08-.26.11-.38s.09-.27.13-.41.07-.24.11-.35.09-.25.13-.37.08-.23.12-.33.09-.23.13-.34.09-.21.13-.31.09-.2.14-.3.08-.19.13-.28.09-.18.14-.27l.13-.25c.05-.08.1-.16.16-.24a1.48,1.48,0,0,1,.13-.21,1.77,1.77,0,0,1,.16-.22l.13-.18c.06-.07.12-.12.17-.19a1.59,1.59,0,0,0,.13-.13,1.51,1.51,0,0,1,.2-.17A.48.48,0,0,1,147,114a1.44,1.44,0,0,1,.31-.19,1.81,1.81,0,0,1,1.81.15c4.07,2.29,6.13,2.67,7,2.69a2,2,0,0,0,.47,0c.6.12,2.56.1,7.47-2.66a1.81,1.81,0,0,1,1.81-.15,1.79,1.79,0,0,1,.32.19l.1.09a1.51,1.51,0,0,1,.2.17l.12.13.18.19.13.18c0,.07.11.14.16.22a1.48,1.48,0,0,1,.13.21l.15.24.14.25c0,.09.09.17.14.27s.09.18.13.28l.14.3.12.31.14.33.12.33.12.37.12.36.12.4c0,.12.08.25.11.38l.12.43c0,.13.07.27.11.42s.07.29.11.44.06.29.1.44.07.32.1.49l.09.45c0,.17.07.34.1.52l.09.48.09.53c0,.17.06.35.08.52s0,.19.05.29c-.14,0-.27,0-.41.06Zm-25.33-17.62c4.36-4,12.49-4.41,12.52-4.42s8.22.42,12.58,4.42c3.48,3.18,2.53,13.17,2.05,16.85,0-.21-.07-.42-.1-.63a.36.36,0,0,1,0-.11c-.1-.58-.22-1.17-.34-1.76a.43.43,0,0,1,0-.11c-.06-.25-.11-.5-.17-.74s-.05-.18-.07-.27-.09-.38-.14-.57l-.09-.33-.14-.5c0-.11-.07-.22-.11-.33s-.09-.31-.14-.46l-.12-.34c-.05-.14-.1-.29-.16-.43l-.12-.32c-.06-.14-.12-.27-.17-.4s-.09-.21-.14-.31l-.18-.37-.15-.28a3.79,3.79,0,0,0-.2-.34l-.15-.25c-.07-.11-.15-.21-.22-.31l-.16-.22a3.33,3.33,0,0,0-.25-.28s-.1-.12-.16-.17l-.28-.25-.15-.12a2.39,2.39,0,0,0-.45-.28,2.84,2.84,0,0,0-2.77.17c-5.17,2.91-6.77,2.56-6.78,2.56a.4.4,0,0,0-.34,0,1.45,1.45,0,0,1-.3,0c-.62,0-2.49-.3-6.53-2.57a2.83,2.83,0,0,0-2.75-.18,3.31,3.31,0,0,0-.47.29l-.15.13a3.47,3.47,0,0,0-.29.25l-.17.19-.24.28-.17.22-.21.32a2.26,2.26,0,0,0-.16.26l-.2.34-.15.3-.19.37c0,.11-.09.22-.14.33s-.11.26-.16.4-.09.23-.14.34l-.15.43-.12.36c0,.15-.1.3-.14.44l-.12.39-.12.45c0,.13-.07.26-.11.39l-.12.47-.09.4c0,.16-.07.32-.11.48s0,.27-.08.4-.07.32-.1.48-.05.27-.08.4-.05.32-.08.48,0,.26-.07.4,0,.31-.08.47l-.06.4,0,.19-.76,0C141.2,120.83,140,109.91,143.62,106.56ZM139.21,125c.53-.05,1.09-.08,1.65-.08h.33c.52,0,1.05,0,1.59.1h0a19.15,19.15,0,0,1,4,.85h0c.23.07.45.15.67.24l.25.09a22.2,22.2,0,0,1,7.29,4.63l0,0a1.84,1.84,0,0,0,.25.23l.1.07.21.12.14.06.23.08.17,0,.24,0h.35a1.14,1.14,0,0,0,.25-.06l.15,0a1.43,1.43,0,0,0,.28-.13l.13-.07a2.26,2.26,0,0,0,.42-.31,20.68,20.68,0,0,1,4.27-3.22l0,0a22.28,22.28,0,0,1,3.49-1.61,18.67,18.67,0,0,1,4.72-1c.22,0,.44,0,.69-.05s.46,0,.74,0h.23c.57,0,1.13,0,1.66.08a19.89,19.89,0,0,1,6,1.59,39,39,0,0,1-1.83,5.67c-.18.45-.37.88-.56,1.3a16.27,16.27,0,0,1-4.59,6.3,6.73,6.73,0,0,1-2.73,1.28,6.5,6.5,0,0,1-1.06.12h-.12c-.1,0-.2,0-.3,0a7,7,0,0,1-1.06-.14,12.11,12.11,0,0,1-4.5-1.87,10.66,10.66,0,0,1-2.09-1.88,12.7,12.7,0,0,1-2.51-4.82.5.5,0,0,0-.35-.35.32.32,0,0,0-.14,0h-.14a.54.54,0,0,0-.2.1,2,2,0,0,1-1.19.47,1.7,1.7,0,0,1-1.11-.47.49.49,0,0,0-.48-.1.48.48,0,0,0-.34.35,12.22,12.22,0,0,1-3.61,5.93,11.93,11.93,0,0,1-5.5,2.64,5.43,5.43,0,0,1-.94.13h-.12a.79.79,0,0,0-.22-.06h0a.6.6,0,0,0-.23.06h0a7.14,7.14,0,0,1-1-.12,6.7,6.7,0,0,1-2.63-1.2l0,0a11.35,11.35,0,0,1-1.62-1.51c-3.33-3.78-5-10.16-5.42-11.81l.42-.17A19.93,19.93,0,0,1,139.21,125Zm-20,100.37a7.65,7.65,0,0,1-3.67-5A40.25,40.25,0,0,0,121.37,200a.52.52,0,0,0-.29-.47.55.55,0,0,0-.55.07,59.15,59.15,0,0,1-9.46,6.51c-.72.4-1.5.8-2.52,1.3-11.41,5.47-23.11,5.75-32.12.77C66,202.43,58.85,190.16,59,178.33c.11-12.77,8.16-24.25,23.93-34.09,14.92-9.32,31.34-13.84,36-15l.11,0a113,113,0,0,1,13.12-2.58l0,.07c0,.06,0,.12,0,.2s0,.15.05.23.05.17.07.28.07.27.12.43l.06.23c0,.13.07.26.11.41l.09.28c0,.15.08.29.13.45s.07.21.1.32.1.32.16.49.07.23.11.34.13.36.19.55l.12.34.26.69.09.23.39,1a2,2,0,0,1,.1.21c.11.25.22.51.34.76l.16.33.32.64.2.37.33.61c.07.12.14.24.22.36s.24.4.37.6.14.23.22.34.29.42.44.62l.19.27.06.08-.76.07a100,100,0,0,0-15,2.73c-19.8,4.94-51.27,19.48-51.43,37.48-.06,8.07,5.75,15.66,11.26,18.7,11.62,6.42,32.15-.67,46.4-23.63.2-.33.42-.66.64-1s.64-1,.94-1.47a.41.41,0,0,0,.07-.11,13.25,13.25,0,0,1,1.42-2.31,11.3,11.3,0,0,1,11.06-4.64l-.09.09-.67.7-.1.1-.78.79-.15.14-1,1-.22.21-1.12,1.11c-1.88,1.82-4.12,4-6.3,6l-.05,0c-2.71,2.58-5,4.71-5.21,4.91a.51.51,0,0,0,0,.7.52.52,0,0,0,.7.08l.17-.14c.47-.36,1.8-1.36,3.39-2.53,4.72-3.48,6.58-4.56,7.3-4.89,0,.15-.06.31-.1.47a12.55,12.55,0,0,1-.76,2.13l-4.37,2.34a.53.53,0,0,0-.27.53l1.25,7.68h0l0,0c-.24.53-.47,1.05-.68,1.58a2.44,2.44,0,0,0-.1.24c-.23.53-.45,1.06-.67,1.59-.12.29-.24.58-.35.87-.06.13-.1.26-.15.39-.54,1.35-1,2.7-1.5,4l-.06.16c-.14.39-.28.78-.4,1.17v0l-.21.66c-.05.16-.11.32-.16.48-.12.37-.24.74-.34,1.11,0,.06-.05.13-.07.2a.65.65,0,0,0,0,.13.74.74,0,0,0,0,.14l-.09.29c-.09.32-.19.63-.28.95s-.19.67-.28,1-.1.39-.16.58c0,0,0,.06,0,.09h0c0,.14-.07.27-.1.41s-.11.39-.16.58-.12.47-.17.71l-.21.83-.12.5a1.55,1.55,0,0,0,0,.23c-.06.26-.12.52-.17.79,0,0,0,.05,0,.07l-.27,1.32,0,.14a1.29,1.29,0,0,0,0,.19c-.08.38-.15.77-.22,1.15,0,.14,0,.28-.08.42s0,.08,0,.12c-.11.6-.2,1.19-.29,1.78l0,.17c0,.32-.09.64-.13,1,0,.16,0,.32-.07.48l-.09.72c0,.29-.08.59-.11.88v0c-.09.71-.15,1.42-.21,2.12l0,.4c0,.31,0,.63-.07.94s0,.47,0,.7,0,.48,0,.72c0,.06,0,.11,0,.17s0,.2,0,.3c0,.94-.05,1.88-.06,2.81v.6c0,1,0,2.07.08,3.09A8.34,8.34,0,0,1,119.18,225.38Zm6.9.26v-.08c0-.95-.07-1.92-.08-2.88v-.76c0-1,0-2,.07-2.95a0,0,0,0,1,0,0,0,0,0,0,1,0,0h0v-.17s0-.06,0-.09,0-.23,0-.35c0-.57.07-1.13.11-1.7l.06-.77.12-1.17c0-.37.07-.73.11-1.09.08-.65.16-1.3.25-2,0-.12,0-.25,0-.37.23-1.52.5-3,.82-4.59.1-.52.22-1,.33-1.55.07-.28.13-.56.19-.83s.16-.68.25-1c.13-.55.27-1.1.42-1.66.07-.24.14-.48.2-.73l.42-1.47c.11-.39.23-.77.35-1.16s.26-.85.4-1.27l.33-1,.45-1.29c.11-.34.23-.67.35-1l.1-.27c.21-.59.43-1.17.65-1.76.13-.31.25-.63.38-1s.32-.81.49-1.22l.44-1.07c.24-.57.48-1.14.74-1.71l.24-.56h0l0-.05s0,0,0,0v0h0l0,0h0v0h0l.1-.16s0,0,0,0l.6-.83.07-.1,0,0,.7-1,.58-.88c.2-.29.39-.59.57-.88.3-.47.59-.93.88-1.41h0c.1-.16.21-.3.31-.45s.15-.21.22-.31l0,0,0-.07.12-.15h0a8.88,8.88,0,0,0,.68-1h0l0,0,.11-.16c3.11-4.51,5.52-8.06,7.37-10.85.29-.43.56-.86.83-1.27l0-.05.08-.11h.06l.13,0s0,0,0,0l0,0v0h0c0,.07,0,.13.07.19a0,0,0,0,0,0,0s0,0,0,0a3.72,3.72,0,0,0,.92,1.4l0,0,0,0a.93.93,0,0,0,.18.16l.05,0a2.83,2.83,0,0,0,.28.2,6.28,6.28,0,0,0,3.37.79l.84,0h.19l.74-.08.26,0,.16,0,.2,0,.62-.11.11,0,.17,0c.3-.06.6-.12.9-.2h0l1.39-.36.18-.06c.37-.1.74-.21,1.1-.33l.45-.15c.26-.08.51-.17.75-.26l.59-.21.34-.13c.26-.09.52-.18.76-.28h0l-.2.16-.28.23h0l-.21.17c-.11.08-.21.17-.34.28l-.08.07-.6.51c-.58.51-1.1,1-1.58,1.44-1.09,1-2.13,2.13-3.14,3.26l-.27.3-.19.22-.33.39,0,0a46.55,46.55,0,0,0-5.65,8.14h0c-.31.57-.58,1.12-.84,1.65,0,.07-.07.13-.1.2a.14.14,0,0,0,0,.06c-.06.12-.12.23-.17.35l-.08.16s0,0,0,0l-.12.26-.06.14-.17.36-.25.56,0,.08v.07a2.15,2.15,0,0,0-.11.25l0,.05v0h0l0,.06h0A39.61,39.61,0,0,0,145,199.92a33,33,0,0,0,6.72,21.64c.3.43.59.84.84,1.23a4.28,4.28,0,0,0,2.25,2.05s0,0,0,.06h0l0,.1c1,4.64,4.64,10.26,9.76,12.5l-1.09.36h-.08l-2.23.75h0l-5.4,1.78h-.07l-2.27.75h0l-7.68,2.53-.06,0a0,0,0,0,0,0,0h-.05l-1.19.4-1.08.36-3.09,1C130.15,237.56,127,230.33,126.08,225.64Zm50.54-2.16a19.71,19.71,0,0,1-8-15.94,19.94,19.94,0,0,1,7.68-15.67c.42.53.85,1,1.3,1.58l.29.33a77.28,77.28,0,0,0,5.37,5.68c6.43,6.15,16.15,15.44,31.94,18.26a57.66,57.66,0,0,0,6.65.78c.41,0,.82.05,1.22.05.67,19.8-5.35,38.59-17,52.95a64.51,64.51,0,0,1-31.35,21.37l-.08-.33c-.78-4.32-1.38-8.61-1.77-12.74a166.06,166.06,0,0,1-.32-27.71.37.37,0,0,0,0-.18c0-.25,0-.51,0-.77a23.12,23.12,0,0,0-2-9.41,2.64,2.64,0,0,0,.36-2.36l-.35-1.07a2.59,2.59,0,0,0-1.31-1.52,2.63,2.63,0,0,0-2-.16l-1.16.38c-4.86-1.5-8.76-6.69-10.09-11.28a22.52,22.52,0,0,0,9.31,2.15,20.51,20.51,0,0,0,11.24-3.57.53.53,0,0,0,.22-.41A.52.52,0,0,0,176.62,223.48Zm-4.9,70.24c-.38.1-.75.21-1.13.3-1.12.28-2.25.53-3.4.75h0c-1.16.22-2.32.41-3.5.57l-1.2.15c-.7.08-1.41.17-2.12.24-.2-.81-.41-1.63-.59-2.44-1.22-5.11-2.22-10.4-3-15.75-.3-2.18-.57-4.42-.82-6.84l1.62-.44,1.42-.36.2-.05.51-.12,2.34-.55.07,0c.37-.14.74-.31,1.1-.48A14,14,0,0,0,167,265.9c.22-.23.44-.46.65-.71s.42-.49.62-.75h0c.2-.26.39-.52.58-.79s.3-.43.44-.66c0,0,.05-.09.08-.14a.56.56,0,0,0,0-.08s.07-.1.1-.16c.13-.21.26-.43.38-.66s.24-.45.35-.68l.09-.18,0-.07.09-.18c.1-.23.21-.46.3-.69l.06-.15c.12-.28.23-.57.34-.86h0a164.07,164.07,0,0,0,.68,20.76c.39,4.16,1,8.47,1.79,12.84l.09.42C173.08,293.36,172.4,293.54,171.72,293.72ZM155,271c.24,2.36.5,4.57.81,6.71.76,5.37,1.77,10.7,3,15.83.17.77.37,1.53.56,2.29A73.73,73.73,0,0,1,130,292.24c-1.8-.62-3.36-1.21-4.77-1.83s-3.12-1.41-4.65-2.21c.14-.12.27-.22.41-.32l.15-.1.68-.51a109.88,109.88,0,0,1,9.79-6.35,106.39,106.39,0,0,1,21-9.22ZM139.31,247.4a1.61,1.61,0,0,1,1-.82l2.87-.94,1.15,3.5.16.48,0,.14-1.31.43h0l-1.6.53a1.31,1.31,0,0,1-.48.08l-.21,0-.12,0a1.57,1.57,0,0,1-1.22-1.06l-.35-1.08A1.57,1.57,0,0,1,139.31,247.4Zm9.57.92h0l-1.12.36-.13-.4-.16-.49-.2-.62-.17-.51,0-.07-.13-.39-.53-1.64,6.86-2.26.64,2,.32,1h0l.16.47.16.5.07.21-5.31,1.74-.14,0Zm-3.24,1.59,0-.07,0-.14-.08-.26-.08-.22-.16-.49-1.12-3.41,1-.32.34-.11.37,1.13,0,.09.07,0,.28.85a.13.13,0,0,0,0,.08l.07.2.3.93.16.49.11.33,0,.15.08.26v.07l.11.32-1.31.43-.1-.31Zm9.9-8.34.71,2.14.26.79.05.18.11.31.15.48.08.22.15.48h0l.1.32-1.31.43-.1-.32v0h0l-.15-.45-.08-.22-.16-.49-.13-.4,0-.08-.3-.89-.67-2Zm2.26,3.59-.16-.48-.08-.23-.08-.26-.24-.71-.73-2.23,4.5-1.48.45,1.38.56,1.69.16.49,0,.06.14.42,0,.08-4.49,1.48Zm5.67-1.15-.14-.44,0-.06-.41-1.23v0l-.07-.48-.08,0-.24-.74-.08-.23-.46-1.39,1.31-.43.47,1.41,0,.11.16.48.13.38,0,.11.54,1.63.16.48.1.32-1.31.43-.1-.31Zm1.58-2.88.2-.09-.21.06-.15-.46-.16-.48.21-.09.06,0h0l-.26.08-.47-1.43,1.89-.62,1-.34.45-.15a1.61,1.61,0,0,1,1.22.09,1.62,1.62,0,0,1,.8.94l.36,1.07a1.67,1.67,0,0,1,.08.49,1.58,1.58,0,0,1-.05.38,1.42,1.42,0,0,1-.28.58.61.61,0,0,1-.12.16,1.78,1.78,0,0,1-.26.22l-.2.11-.2.08-3.37,1.11Zm-52.32,29.2A129,129,0,0,1,140.53,252l.28-.13.14-.07h.17a2.72,2.72,0,0,0,.79-.13l2.93-1,.11.32a.51.51,0,0,0,.25.29.46.46,0,0,0,.23,0,.41.41,0,0,0,.16,0l2.27-.75a.51.51,0,0,0,.32-.65l-.1-.31,6.86-2.25.1.31a.55.55,0,0,0,.26.3.59.59,0,0,0,.23,0l.16,0,2.27-.75a.55.55,0,0,0,.3-.26.53.53,0,0,0,0-.39l-.1-.31,4.49-1.48.11.32a.39.39,0,0,0,.08.14.38.38,0,0,0,.11.11l.13.07h0l.15,0a.44.44,0,0,0,.16,0l2.28-.75a.51.51,0,0,0,.32-.64l-.11-.32,3.38-1.11.32-.13h0l.17-.09a22.07,22.07,0,0,1,1.74,8.69c0,.3,0,.61,0,.89h0c0,.69-.09,1.38-.17,2s-.21,1.4-.36,2.07a20.25,20.25,0,0,1-2.52,6.26,16.62,16.62,0,0,1-2.18,2.78,13.15,13.15,0,0,1-3.31,2.48h0a12.67,12.67,0,0,1-1.2.54l-2.1.49-.74.17c-1.28.31-2.48.63-3.69,1-1,.28-2,.58-3,.89A107.41,107.41,0,0,0,131.11,280a111.14,111.14,0,0,0-9.88,6.41l-.69.51-.14.11-.8.6h0c-.67-.36-1.33-.74-2-1.12-.48-.28-1-.56-1.42-.86-.75-.46-1.5-.93-2.23-1.42l-.07,0-.09-.06-1.88-1.31-.7-.52c-.53-.39-1-.78-1.57-1.19l-.75-.59c-.59-.48-1.18-1-1.76-1.46l-.42-.36c-.52-.45-1-.91-1.54-1.37C107.43,275.12,109.91,272.81,112.73,270.33Zm-17.57-9.61h0l.14,0h0A.34.34,0,0,1,95.16,260.72Zm-12.88-10.3c0-2.09,1.89-7.67,3.32-9.07,1-.93.84-3.17.69-4.42-.24-2-1.09-5.28-2.42-6.07a1,1,0,0,1-.39-1.47c.28-.48.81-.56,1.42-.21a8.24,8.24,0,0,1,3.88,6.4.51.51,0,0,0,.86.37l10.11-9.56c2.18-2.63,4.91-5.54,5.74-5.85a1.83,1.83,0,0,1,.57,2.08c-.31.94-7,9.26-11.1,14.29a.49.49,0,0,0-.06.55.51.51,0,0,0,.48.28c4.09-.21,8.68.23,9,1.21.52,1.72-1.24,3.68-1.26,3.7a.52.52,0,0,0-.09.55c.6,1.35,1.28,3.83.58,4.67a.51.51,0,0,0,.07.71,4.18,4.18,0,0,1,1.36,2.76,4.28,4.28,0,0,1-1.69,3.17,40.17,40.17,0,0,1-7.91,5c0-.06-.07-.12-.1-.19a4,4,0,0,0-.22-.34L95,258.8a4.14,4.14,0,0,0-1.31-1.12,1.74,1.74,0,0,0-.27-.14l-.17-.07-.23-.09-.3-.1-.27-.06a5.07,5.07,0,0,0-.58-.08l-3-.2-.63,0-.61,0-5.49-.38-.55,0c-.11,0-.21,0-.32,0a4.38,4.38,0,0,0-.51,0l-.15,0c-.1,0-.2,0-.3.06h-.07C81.16,254.55,82.3,251.89,82.28,250.42Zm-3.59,7.52h0a.13.13,0,0,0,.06.07.48.48,0,0,0,.29.13.48.48,0,0,1-.29-.13.23.23,0,0,1-.07-.07Zm-.86,4,.09-1.4a3.34,3.34,0,0,1,1.44-2.52s-.09,0-.13,0,.09,0,.13,0h0l.21-.13a1.67,1.67,0,0,1,.23-.12,2.82,2.82,0,0,1,.45-.18,3.3,3.3,0,0,1,.94-.15h.25l3.64.24,3.39.23h0l3.24.22a3.33,3.33,0,0,1,2.47,1.36c.08.11.15.24.23.36s.16.34.22.51v0a.41.41,0,0,0,0,.09.41.41,0,0,1,0-.09,3.26,3.26,0,0,1,.18,1.29l-.1,1.41a3.32,3.32,0,0,1-1.08,2.24h0a4,4,0,0,1-.42.3,1.64,1.64,0,0,1-.22.14,2.21,2.21,0,0,1-.27.12,2.47,2.47,0,0,1-.52.18l-.23.06a3.49,3.49,0,0,1-.72.05h-.07l-8.89-.59h0l-1.37-.08A3.35,3.35,0,0,1,77.83,262ZM77.14,362a3.07,3.07,0,0,1-1,2.12,2.42,2.42,0,0,1-.61.41,2.74,2.74,0,0,1-.53.23l-.22,0a2.24,2.24,0,0,1-.51.07h-.54l-4.11-.26-2.53-.16a3,3,0,0,1-.52-.08,2.46,2.46,0,0,1-.48-.16,2.69,2.69,0,0,1-.48-.24l0-.11-.24-.05a3.16,3.16,0,0,1-.42-.4,1.86,1.86,0,0,1-.21-.28v-.29l-.17.05a4.91,4.91,0,0,1-.22-.46,3.08,3.08,0,0,1-.18-1v0c.09-1,.18-1.84.27-2.62,0,0,0,0,0,0a3.07,3.07,0,0,1,.65-1.06l.22-.22a3.06,3.06,0,0,1,2-.77h.2l6.83.43a2.86,2.86,0,0,1,1,.22,2.65,2.65,0,0,1,.5.26,2.4,2.4,0,0,1,.47.37l.19.19a3.07,3.07,0,0,1,.76,2.23Zm-13.36,7v-.59a.86.86,0,0,1,.85-.86h3.92a.86.86,0,0,1,.85.86v.59a.85.85,0,0,1-.85.85H64.61A.85.85,0,0,1,63.78,369.07Zm.06,5.53.23-1.38a.85.85,0,0,1,.54-.22h3.94a.86.86,0,0,1,.85.86v.59a.85.85,0,0,1-.85.85H64.63a.85.85,0,0,1-.83-.7Zm14.54,13V388a.57.57,0,0,1-.57.57H34.45a.58.58,0,0,1-.57-.57v-.47a.57.57,0,0,1,.57-.57H77.81A.56.56,0,0,1,78.38,387.56Zm-41.62-10c1.56-1.34,4-1.43,7.36-.29l.72.26s3.16,1.64,3.1,8.45H34.83C34.57,383.63,34.5,379.49,36.76,377.55ZM77,386H49c0-5.21-1.66-7.66-2.78-8.71a139.36,139.36,0,0,1,17-1.63,1.8,1.8,0,0,0,1.43.69h3.92a1.87,1.87,0,0,0,1.87-1.87v-.59A1.87,1.87,0,0,0,68.55,372H65.29l.17-1.05h3.09a1.87,1.87,0,0,0,1.87-1.87v-.59a1.87,1.87,0,0,0-1.87-1.87H66.17l.2-1.2a3.1,3.1,0,0,0,.61.09l6.83.42H74A54.81,54.81,0,0,1,77,386Zm31.27-88.55-1.14,1.12c-.21.21-.43.44-.67.71l-.67.7-.51.53-.07.08c-.48.5-1,1-1.42,1.51l-2.18,2.48a122.43,122.43,0,0,0-8.14,10.6,121.78,121.78,0,0,0-13,24.74A129.12,129.12,0,0,0,76,353.72c-.43,1.62-.6,2.27-.66,2.65a4.21,4.21,0,0,0-.94-.17l-6.83-.42a4,4,0,0,0-2.29.53c.26-1.54.57-3,1-5.05l.31-1.46a149.74,149.74,0,0,1,4.25-16,159.8,159.8,0,0,1,5.88-15.12,156.52,156.52,0,0,1,7.35-14,145.87,145.87,0,0,1,8.6-12.82L95,288.87c.36-.46.72-.9,1.07-1.33l0,0c.39.37.78.73,1.18,1.08l1,.9.94.81c.83.71,1.67,1.4,2.52,2.06l.73.58c.4.32.81.64,1.23.94s1.15.85,1.73,1.26l.47.32c.34.24.68.48,1,.71s.63.43.95.63a.71.71,0,0,0,.14.1l.52.34ZM195.2,369v-.48a.61.61,0,0,1,.61-.61H199a.61.61,0,0,1,.62.61V369a.62.62,0,0,1-.62.62h-3.33A.62.62,0,0,1,195.2,369Zm.61,3.34H199a.62.62,0,0,1,.62.62v.48a.61.61,0,0,1-.62.61h-3.23a.61.61,0,0,1-.61-.61V373A.61.61,0,0,1,195.81,372.35Zm12.77,12.17V385a.58.58,0,0,1-.58.57H170.74a.58.58,0,0,1-.58-.57v-.47a.59.59,0,0,1,.12-.35.58.58,0,0,1,.46-.23H208A.58.58,0,0,1,208.58,384.52Zm-29-8,.09,0c.13.05,2.83,1.24,2.63,6.41H171c-.24-1.48-.46-4.52,1.22-6.11C173.66,375.5,176.12,375.39,179.55,376.48Zm26.4,6.44H183.29c.16-4.51-1.75-6.39-2.74-7.06a114,114,0,0,1,14-1.34h0a1.57,1.57,0,0,0,1.21.56H199a1.63,1.63,0,0,0,1.63-1.63V373a1.64,1.64,0,0,0-1.63-1.64h-2.57l.11-.68H199a1.64,1.64,0,0,0,1.63-1.64v-.48A1.63,1.63,0,0,0,199,366.9h-1.85l.11-.68,5.53-1.57A46.38,46.38,0,0,1,206,382.92Zm-3-26.44a3,3,0,0,1,1.21,1.23,2.6,2.6,0,0,1,.25.62l.43,1.48a3.12,3.12,0,0,1-.27,2.34,2.66,2.66,0,0,1-.39.54,2.89,2.89,0,0,1-.8.64,2.35,2.35,0,0,1-.45.22l-.21.07-.28.08-2,.56-3,.85-.53.15-.55.16-.25.07a3.09,3.09,0,0,1-3.81-2.12l-.42-1.48a3.06,3.06,0,0,1,.32-2.43,3,3,0,0,1,.67-.78,3,3,0,0,1,1.13-.6l6.58-1.87a3.06,3.06,0,0,1,.85-.12,2.68,2.68,0,0,1,.84.13A2.39,2.39,0,0,1,203,356.48Zm-23.35-41c.23.71.48,1.37.74,2.05l.23.61q.1.27.21.57l.81,2.17.33.79.94,2.27c.32.75.63,1.51,1,2.3l1.62,3.5a128.37,128.37,0,0,0,15.92,25.37,4.25,4.25,0,0,0-1.06.16l-6.58,1.87a4.09,4.09,0,0,0-1.53.81c-2.55-2.92-5-6.05-7.47-9.33a144.86,144.86,0,0,1-9-13.95l-2-3.68c-.44-.84-.84-1.64-1.26-2.5l-.32-.62c-.07-.13-.14-.27-.2-.41l-.45-.87-.58-1.21-.86-1.89c-.22-.47-.42-.93-.63-1.35-.32-.71-.71-1.57-1.1-2.51-1.23-2.87-2.38-5.84-3.53-9.07a.57.57,0,0,0-.15-.22l-.18-.59c.58-.07,1.15-.17,1.72-.25l.76-.12c.91-.14,1.81-.3,2.69-.47l1.52-.31.31-.07c.5-.11,1-.22,1.51-.35l.41-.1.23-.05.08,0,1.47-.38h0l1.41-.4.36-.1.22.95C178,310.76,178.81,313.18,179.61,315.44Zm35.61-35.14a77.62,77.62,0,0,1-38,25.67h0a77.9,77.9,0,0,1-7.7,1.9c-1,.19-2,.36-3,.52s-1.77.27-2.65.38h-.07a83.93,83.93,0,0,1-25.25-.77,83,83,0,0,1-11.7-3c-2-.68-4-1.44-5.94-2.27a78.67,78.67,0,0,1-9.83-5.05l-1.49-.93c-1-.66-2.1-1.37-3.13-2.09l-.66-.46a87.78,87.78,0,0,1-9.45-7.77,95.25,95.25,0,0,1-6.63-6.93c-.18-.23-.38-.46-.59-.69-.64-.74-1.29-1.53-1.92-2.32a27.31,27.31,0,0,1-3.9-8.48c-.14-.48-.25-.91-.35-1.31l3.42.23,4.79.31h.29a2.55,2.55,0,0,0,.39,0h.09l.3,0,.42-.09.34-.13.11-.05a4.07,4.07,0,0,0,.55-.28l.12-.06,0,0,.1-.06.44.59a85.36,85.36,0,0,0,9.74,10.72,76,76,0,0,0,9.22,7.31c.72.49,1.45.95,2.19,1.41,1.28.79,2.57,1.56,3.88,2.26h0c1.78,1,3.61,1.84,5.44,2.62,1.43.62,3,1.23,4.84,1.86A75.15,75.15,0,0,0,160,296.8,71.57,71.57,0,0,0,174.46,294h0a65.49,65.49,0,0,0,32.36-21.87c11.79-14.53,17.89-33.53,17.22-53.56h.7l1.16,0c.51,0,1,0,1.55-.05h.06c.46,0,.92,0,1.37-.09h0c.28,0,.56-.06.84-.09l.41,0h.1c.46-.05.92-.1,1.37-.17l.59-.09.48-.07h0l.83-.14.93-.18.11,0,.52-.1C236.09,240.65,228.84,263.51,215.22,280.3Zm54.88-95.56a.19.19,0,0,0,0,.07c-2.33,5.86-7.77,19.58-23,27.43a46.7,46.7,0,0,1-11.27,4.09l-.31.06a50.2,50.2,0,0,1-8.12,1.11c-.87.05-1.75.07-2.64.07-.28,0-.58,0-.9,0h-.32l-1.65-.06a57.82,57.82,0,0,1-6.53-.77c-15.49-2.77-25.07-11.93-31.41-18a75,75,0,0,1-5.3-5.59c-.1-.13-.2-.23-.3-.35-.53-.62-1-1.24-1.55-1.88l0-.05a.52.52,0,0,0-.7-.09,21,21,0,0,0-8.48,16.78,20.71,20.71,0,0,0,7.84,16.31c-.51.33-1.05.63-1.63.93-7.05,3.61-13.67,1.84-18.05-.34a.29.29,0,0,1,0-.09.5.5,0,0,0-.39-.4,3.18,3.18,0,0,1-1.89-1.63.16.16,0,0,1,0-.07l-.87-1.27c-2.74-3.95-6.89-9.93-6.55-21,0-.6.05-1.19.1-1.79a1.48,1.48,0,0,1,0-.21s0-.08,0-.12q.07-.93.21-1.86c0-.39.09-.78.16-1.16s.14-.81.22-1.21l.18-.85c.1-.44.2-.87.31-1.3.23-.93.5-1.85.82-2.77.08-.25.17-.51.26-.76,0-.06,0-.13.07-.19.13-.37.27-.73.42-1.1l4.79-3.4,3.73-2.63a.52.52,0,0,0,.21-.41.41.41,0,0,0,0-.16.51.51,0,0,0-.16-.25,4.22,4.22,0,0,1-1.43-2.52c0-.12,0-.24,0-.33,2.26-1.17,5.77-2.7,7-2.51,0,0,.28.11.81,1.13a25.1,25.1,0,0,1,1.31,3.24c1.39,4,2.65,9.3,2.67,9.37s0,0,0,.05a.37.37,0,0,0,0,.11h0s0,0,0,0a.46.46,0,0,0,.12.12.47.47,0,0,0,.28.09h0a.5.5,0,0,0,.4-.21.56.56,0,0,0,.09-.19c0-.06,0-.21.09-.43l.25-1.15c0-.12,0-.27.08-.4.08-.39.17-.81.27-1.28v-.07c.16-.78.35-1.65.54-2.6.09-.48.19-1,.3-1.47l.09-.45c.17-.89.36-1.82.54-2.77,0-.13.05-.27.08-.4s.09-.49.14-.73.11-.6.17-.9c.16-.86.32-1.71.47-2.55,0-.21.07-.42.11-.63.07-.43.15-.86.22-1.28.21-1.26.41-2.46.55-3.51,0-.26.07-.52.1-.76a.31.31,0,0,0,0-.09c0-.2,0-.39.07-.57s0-.25,0-.36c.05-.45.08-.85.09-1.19h3c4.2,0,8.08,2.79,9.89,7.13a.13.13,0,0,0,0,.05c.11.31.23.61.34.95,0,.1.07.2.11.3a2.9,2.9,0,0,1,.24.94c.4,17.09,18,26.13,18.2,26.2a37.43,37.43,0,0,0,12.67,4.73,40.21,40.21,0,0,0,4.15.54l1.5.1,1,0h1.85l.61,0q.58,0,1.17-.06h.11l.82-.08c.85-.08,1.7-.19,2.53-.33l.46-.07h0c.83-.15,1.66-.33,2.48-.53l1.22-.34h0a35.64,35.64,0,0,0,6.42-2.55C252.9,195.67,257,185.23,259,180.23c0,0,0-.08,0-.09,4.8-12.14,3-23,1.94-29.5C257.61,130,246.3,116,241.47,110c-15.31-19-36.74-32.69-63.68-40.76-48.59-14.57-89.06,2-100.56,9.64-2.46,1.63-9,6-12,13.68-1,2.68-2.75,7.18-.81,11.87a14.66,14.66,0,0,0,6.09,6.67s0,0,0,.06a3.5,3.5,0,0,0-.35.63L65.59,122c-5.82-3.33-9.88-7.72-12.1-13.06-3.81-9.22-.66-17.41.69-20.91C58.48,76.81,67.29,71,70.62,68.75,78,63.87,92.4,57.4,110.85,53.9a146.8,146.8,0,0,1,70.2,3.76c29.32,8.79,52.73,23.84,69.59,44.75,5,6.15,18.17,22.48,22.1,46.42C273.92,156.06,276.12,169.52,270.1,184.74Z"/></g><g id="Cadre_personnage" data-name="Cadre personnage"><rect class="cls-2" x="0.5" y="0.5" width="293.05" height="425.33"/></g></g></svg>