<svg xmlns="http://www.w3.org/2000/svg" viewBox="0 0 294.05 425.31"><defs><style>.cls-1{fill:#ff0074;}.cls-2{fill:none;stroke:#2de2e6;stroke-miterlimit:10;}</style></defs><title>Fichier 14</title><g id="Calque_2" data-name="Calque 2"><g id="CADRES"><polygon class="cls-1" points="197.06 366.24 197.07 366.23 197.06 366.22 197.06 366.24"/><path class="cls-1" d="M199,380.64a2.8,2.8,0,1,0,2.8-2.8A2.8,2.8,0,0,0,199,380.64Zm4.58,0a1.79,1.79,0,1,1-1.78-1.78A1.78,1.78,0,0,1,203.55,380.64Z"/><path class="cls-1" d="M70.7,379A3.29,3.29,0,1,0,74,382.29,3.3,3.3,0,0,0,70.7,379Zm0,5.56A2.27,2.27,0,1,1,73,382.29,2.27,2.27,0,0,1,70.7,384.56Z"/><path class="cls-1" d="M273.74,150.27c-4-24.17-17.29-40.65-22.31-46.86-17-21.07-40.57-36.24-70.09-45.09a147.89,147.89,0,0,0-70.68-3.78c-18.6,3.53-33.17,10.07-40.61,15-3.4,2.25-12.41,8.23-16.82,19.76-1.39,3.61-4.64,12.07-.68,21.66,2.33,5.6,6.6,10.19,12.7,13.65a4.37,4.37,0,0,0,2.49,4.86l1.28.57a4.34,4.34,0,0,0,5.28-1.4c3.42,2.44,9.23,6.35,12.8,7.55a7,7,0,0,0,2.22.4,4.4,4.4,0,0,0,2.21-.56,5,5,0,0,0,2.12-2.79c1.67-.11,3.49-2.19,4.12-2.95.84.13,3.12.34,4.47-1.06s-1.14-6.23-2.6-8.7c4.32.77,16,2.79,17.19,2.51a2.87,2.87,0,0,0,1.63-.92,4.2,4.2,0,0,0,.7-1.44.77.77,0,0,0-.08-.61c-.68-1.14-6.29-2.26-8.61-2.68l-12.21-3.82a9.5,9.5,0,0,0,3.3-6.77,2,2,0,0,0-1.88-2.17,2.06,2.06,0,0,0-2.12,2c0,.76-1.54,2.7-3.68,4.27-1.42,1-2.73,1.58-3.33,1.41-2.2-.65-8.3.45-10.33,1.62a3.56,3.56,0,0,1-.71.29,4.35,4.35,0,0,0-2.33-2.52l-1.28-.57a4.32,4.32,0,0,0-4.66.74,13.67,13.67,0,0,1-5.85-6.29c-1.79-4.31-.15-8.58.82-11.12,2.85-7.41,9.19-11.61,11.58-13.19,11.39-7.55,51.5-24,99.71-9.52,26.74,8,48,21.62,63.18,40.44,4.78,5.92,16,19.8,19.32,40.19,1.05,6.39,2.81,17.09-1.88,29l.47.19-.51-.12c-1.94,4.91-6,15.11-16.94,20.77a33.68,33.68,0,0,1-5.7,2.32h0c-.39-2.3-.88-4.68-1.47-7.09a97,97,0,0,0-3.6-11.5c-8.9-23.31-27.09-41.8-51.23-52.13a41.3,41.3,0,0,0,1.79-5.8.52.52,0,0,0-.29-.56,20.81,20.81,0,0,0-6.73-1.84,16.52,16.52,0,0,0-1.75-.09h-.42c.56-4,1.6-14.52-2.32-18.12-4.63-4.24-12.87-4.66-13.27-4.68s-8.58.44-13.21,4.68c-3.92,3.6-2.88,14.14-2.32,18.12-.51,0-1,0-1.5.08a20.54,20.54,0,0,0-5.83,1.46,110.52,110.52,0,0,0-14.52,2.76l-.11,0c-4.71,1.18-21.26,5.74-36.31,15.13-16.08,10.05-24.3,21.8-24.4,35-.11,12.18,7.29,24.82,18,30.74,9.3,5.14,21.34,4.87,33.05-.75,1-.51,1.84-.92,2.58-1.33a60,60,0,0,0,8.75-5.9,38.58,38.58,0,0,1-5.78,18.88.54.54,0,0,0-.07.43c.77,2.87,2.21,4.86,4.26,5.89a7.87,7.87,0,0,0,3.59.81,10.48,10.48,0,0,0,2.94-.43h0c1.11,4.78,4.5,11.73,13.94,19.33a2.62,2.62,0,0,0-.95,2.94l.35,1.08a2.61,2.61,0,0,0,1,1.32,129.83,129.83,0,0,0-27.54,18.22c-2.85,2.51-5.35,4.83-7.61,7.1a84.16,84.16,0,0,1-9.27-10.25l-.49-.65a4.23,4.23,0,0,0,1.09-2.59l.11-1.41a4.26,4.26,0,0,0-.13-1.29h0A44.05,44.05,0,0,0,104,256.9a5.24,5.24,0,0,0,2-3.93,5,5,0,0,0-1.4-3.22c.72-1.5-.2-4.11-.56-5,.53-.67,1.83-2.56,1.26-4.42s-6-2.06-8.86-2c1.39-1.7,4-4.86,6.21-7.72a47.38,47.38,0,0,0,4.37-6.06,2.9,2.9,0,0,0-.92-3.18.78.78,0,0,0-.58-.23c-1.31,0-5,4.39-6.53,6.21l-9.31,8.79a9.43,9.43,0,0,0-4.3-6.19,1.93,1.93,0,0,0-2.8.58,2.07,2.07,0,0,0,.75,2.86c.66.38,1.61,2.66,1.93,5.31.21,1.74.06,3.13-.39,3.57-1.63,1.6-3.66,7.46-3.63,9.8,0,1.14-1,3.7-2.58,6.87h0a4.26,4.26,0,0,0-1.77,3.2l-.1,1.4a4.37,4.37,0,0,0,4,4.63l1,.07h0c.12.5.25,1,.43,1.65a28.47,28.47,0,0,0,4.07,8.82c.65.82,1.31,1.62,2,2.38.19.21.38.42.56.66,2.07,2.39,4.21,4.63,6.38,6.69h0l-.07.09c-.36.43-.72.87-1.09,1.34l-2.27,2.93,0,.06a150,150,0,0,0-8.63,12.87c-2.72,4.63-5.21,9.38-7.4,14.12a160.26,160.26,0,0,0-5.92,15.22,152.46,152.46,0,0,0-4.27,16.15l-.31,1.45c-.54,2.54-.9,4.25-1.2,6.32a4,4,0,0,0-.86,2.25l-.1,1.54a4.11,4.11,0,0,0,2.25,3.92l-.25,1.54h-.52a1.87,1.87,0,0,0-1.87,1.87v.59a1.86,1.86,0,0,0,1.68,1.85l-.18,1.11a1.88,1.88,0,0,0-1.5,1.83v.59a.62.62,0,0,0,0,.19,133.35,133.35,0,0,0-17.89,1.81h0c-3.91-1.43-6.87-1.32-8.79.33-2.63,2.26-2.56,6.79-2.28,9.32a1.62,1.62,0,0,0-1,1.46v.47a1.59,1.59,0,0,0,1.59,1.59H47.16l.14,0,27,0h3.52a1.59,1.59,0,0,0,1.59-1.59v-.47a1.59,1.59,0,0,0-1.34-1.57,56,56,0,0,0-3-20.19,4.07,4.07,0,0,0,3.08-3.71l.09-1.54a4.09,4.09,0,0,0-1-3,4,4,0,0,0-.9-.76,14.59,14.59,0,0,1,.67-2.84,129.37,129.37,0,0,1,4.43-13.72,133,133,0,0,1,5.84-12.8,130.54,130.54,0,0,1,7.07-11.74,124.17,124.17,0,0,1,8.06-10.51l2.18-2.47q.69-.75,1.38-1.47l.09-.08.5-.54.71-.75.62-.64,1.13-1.1.37-.36h0l1.17.72a79.31,79.31,0,0,0,10,5.12c2,.84,4,1.61,6,2.3A85.57,85.57,0,0,0,153.74,312a83.5,83.5,0,0,0,9.75-.57l.31,1a.58.58,0,0,0,.18.26c1.12,3.15,2.26,6.06,3.46,8.88.4.95.79,1.81,1.12,2.54.21.43.41.87.62,1.34l.86,1.9.6,1.23.44.88.22.42.31.61c.42.86.82,1.67,1.28,2.52l2,3.69a146.13,146.13,0,0,0,9,14.07c2.47,3.34,5,6.51,7.6,9.48a4.13,4.13,0,0,0-.6,3.5l.42,1.48a4.11,4.11,0,0,0,3.94,3,3.62,3.62,0,0,0,.92-.11l-.06.38h-.35a1.63,1.63,0,0,0-1.63,1.63v.48a1.64,1.64,0,0,0,1.37,1.62l-.12.75a1.63,1.63,0,0,0-1.25,1.59v.48a.17.17,0,0,0,0,.07,108.77,108.77,0,0,0-15,1.56.49.49,0,0,0-.27.15c-3.34-.88-5.81-.61-7.35.84-2.05,1.94-1.79,5.37-1.52,7a1.59,1.59,0,0,0-.9,1.43v.47a1.6,1.6,0,0,0,1.6,1.59H208a1.59,1.59,0,0,0,1.59-1.59v-.47a1.6,1.6,0,0,0-1.59-1.6h-1a47.11,47.11,0,0,0-3.19-18.63,4,4,0,0,0,1.69-1.64,3.89,3.89,0,0,0,.33-.76l.06-.2a4.17,4.17,0,0,0,0-2.16l-.42-1.48a4,4,0,0,0-2-2.46,3.32,3.32,0,0,0-.51-.23l-.15-.19a130.41,130.41,0,0,1-9-12.5,137.2,137.2,0,0,1-7.39-13.41l-1.61-3.48c-.34-.78-.66-1.53-1-2.27l-.94-2.27c-.11-.26-.22-.51-.32-.77l-.81-2.15c-.07-.2-.14-.4-.21-.58l-.23-.61c-.26-.67-.5-1.32-.74-2-.79-2.23-1.55-4.63-2.33-7.32l-.23-1h0a78.58,78.58,0,0,0,38-25.84c13.8-17,21.14-40.21,20.16-63.65h0a47.14,47.14,0,0,0,11.41-4.15c15.53-8,21.07-22,23.44-28a.14.14,0,0,0,0-.06v0C277.17,171.25,274.94,157.63,273.74,150.27Zm-194-34.54c0-.15,0-.3,0-.45a5,5,0,0,0,1-.41c1.8-1,7.61-2.09,9.53-1.53,1.29.38,3.19-.81,4.22-1.56,2-1.47,4.06-3.68,4.09-5.07a1.05,1.05,0,0,1,1.08-1h0c.56,0,.88.43.87,1.13a8.23,8.23,0,0,1-3.69,6.52.53.53,0,0,0-.25.5.51.51,0,0,0,.35.43l13.28,4.15c3.36.61,7.23,1.58,7.91,2.14-.29.88-.56,1.3-1.54,1.53s-11.49-1.57-17.9-2.72a.52.52,0,0,0-.51.22.54.54,0,0,0,0,.56c2.19,3.47,4,7.68,3.33,8.42-1.24,1.29-3.81.71-3.84.7a.52.52,0,0,0-.52.19c-.9,1.18-2.72,3-3.79,2.79a.51.51,0,0,0-.59.4A4.17,4.17,0,0,1,91,135.16a4.3,4.3,0,0,1-3.58.08c-3.49-1.17-9.27-5.08-12.63-7.47l4.58-10.27A4.33,4.33,0,0,0,79.76,115.73Zm-5.62-3.9a3.32,3.32,0,0,1,1.34.28l1.29.58a3.26,3.26,0,0,1,1.74,1.85,2.44,2.44,0,0,1,.15.48,3,3,0,0,1,.07.51,1.48,1.48,0,0,1,0,.21,3.15,3.15,0,0,1-.06.61l-.23.73L74,127.16l-.14-.1-.26-.19-.2-.15-.37-.27v-.51l-.18,1,.45.33.46.33s0,0,0,0,0,0,0,0h0s0,0,0,0a2.64,2.64,0,0,1-.23.35h0a3.33,3.33,0,0,1-4,1.06l-1.28-.57a3.3,3.3,0,0,1-1.94-3.4,2,2,0,0,1,.1-.53.43.43,0,0,1,0-.11,2.6,2.6,0,0,1,.13-.36h0l4.61-10.34a4.31,4.31,0,0,1,.26-.47l.08-.1a2.51,2.51,0,0,1,.25-.32l0,0,.06-.06a2.36,2.36,0,0,1,.42-.36A3.31,3.31,0,0,1,74.14,111.83Zm155.27,74.51A96.7,96.7,0,0,1,233,197.71c.6,2.43,1.1,4.83,1.49,7.14l-.76.2c-.8.2-1.62.38-2.45.53l-1.11.16-1.4.2-1.34.1-1.21.08c-.54,0-1.09,0-1.64,0H223.4c-.48-2.65-1.08-5.28-1.78-7.81s-1.53-5-2.45-7.4c-7.89-20.72-24.47-36.95-46.72-45.78l0,0a7.93,7.93,0,0,0,.53-1,2.77,2.77,0,0,0,.1-.26,10.6,10.6,0,0,0,.42-1.24c0-.12.06-.23.08-.34l.39-.34.28-.23c.17-.16.33-.33.5-.51s.15-.14.22-.22c.24-.26.47-.53.7-.82l.08-.11c.21-.26.41-.53.6-.82.08-.11.16-.24.24-.36s.28-.43.41-.65l.27-.46.36-.66.27-.53c.11-.22.23-.44.34-.68s.17-.38.26-.58.15-.31.22-.47C202.63,145,220.61,163.28,229.41,186.34Zm-56.64-21.16c-.38-3.25-3.69-4.2-5-4.44l.06-12.14c.09-.21.17-.42.26-.62a5.62,5.62,0,0,0,3.68-2c22.11,8.7,38.59,24.76,46.41,45.29.91,2.39,1.73,4.85,2.42,7.32s1.24,4.94,1.7,7.48l-.81-.06a38.29,38.29,0,0,1-4.05-.52,36.69,36.69,0,0,1-12.37-4.62c-.17-.08-17.28-8.85-17.66-25.34a3.88,3.88,0,0,0-.31-1.27c0-.09-.07-.18-.09-.26-.11-.34-.23-.66-.36-1a.49.49,0,0,0-.08-.18,12,12,0,0,0-10.79-7.67Zm-4.72,22.23c-.24-.93-.55-2.09-.91-3.32a48,48,0,0,0-2.61-7.37,4.22,4.22,0,0,0-1-1.4,1.06,1.06,0,0,0-.52-.26h-.08l-.26,0h0l-.43,0h0a4.53,4.53,0,0,0-.49.08l-.54.12-.41.12-.16.05h0l-.3.1a39.71,39.71,0,0,0-5.21,2.29.52.52,0,0,0-.27.46,5.6,5.6,0,0,0,1.4,3.49l-1.42,1-5.22,3.69s0,0,0,0,.05-.09.07-.15c.27-.55.69-1.39,1.23-2.37.46-.83.95-1.64,1.46-2.45a51.71,51.71,0,0,1,4-5.53l0,0h0l.2-.22.05-.06.27-.31.05-.07c1.09-1.2,2.21-2.35,3.33-3.41a53.92,53.92,0,0,1,6-4.86h0l0,0,.24-.16.19-.13h0l.19-.12,0,0,.11-.08.08-.05.18-.12,0,0,0,0,.05-.05,0,0h0l.05,0a.1.1,0,0,0,0,0h0l0,0h0a.42.42,0,0,0,.11-.16h0a.65.65,0,0,0,0-.2l0-3.91c1.23.26,3.93,1.16,4,3.92h0a28,28,0,0,1-.39,3.86C170.64,174.87,168.88,183.44,168.05,187.41ZM161,167.83l-.92.32c-.73.25-1.48.47-2.21.66-.42.12-.83.22-1.24.31h-.06l-.92.19-.37.05-.82.11-.48,0-.62,0h-.77l-.2,0-.59-.07-.3-.07-.5-.13-.1,0a3.05,3.05,0,0,1-.63-.3,2.56,2.56,0,0,1-1-1.13,3.89,3.89,0,0,1-.32-1.69h0l.27-.42a25.71,25.71,0,0,0,2.34-4.1,9.94,9.94,0,0,0,.73-2.57c.2.24.42.48.65.73l.12.14a4.82,4.82,0,0,0,3.6,1.65h0a4.82,4.82,0,0,0,3.6-1.65c.41-.45.8-.9,1.18-1.34.12-.13.23-.27.34-.4l.77-.93.36-.45.68-.88.32-.43c.25-.34.5-.69.73-1a2.2,2.2,0,0,0,.17-.25c.29-.42.57-.84.83-1.26l.19-.32.56-.94.24-.44c.08-.15.17-.29.24-.44L166.79,161a.59.59,0,0,0,0,.14v4.2h0c-.41.21-.87.42-1.33.63l-.8.36-.53.23-.82.34-.49.2C162.19,167.37,161.58,167.61,161,167.83Zm-23.25,9.46a14.42,14.42,0,0,0,.72-1.84,8.32,8.32,0,0,0,.37-1.81.65.65,0,0,0-.33-.62c-.34-.18-.79-.42-5.46,2.85,1.91-1.82,3.82-3.66,5.47-5.26l.8-.78,1.42-1.41h0c1.08-1.08,1.91-1.93,2.49-2.56h0c.39-.43.62-.71.76-.9,1.25-1.68,4.57-2.55,6.24-2.9v0c-.08.16-.18.33-.29.53l-.1.16-.28.48-.15.24L149,164a2.13,2.13,0,0,0-.16.25l-.55.88-.38.58h0l-.73,1.12h0l0,0h0l0,0h0l0,0,0,0-.21.32c-.26.41-.54.83-.83,1.26l-.82,1.23c-1.22,1.83-2.66,4-4.34,6.41l-2.19,3.19-.13.18-.1.15-.25.36h0l-.08.13-.1.14,0,0,0,0h0l-.09.13-.12.16-.06.08c-.19.27-.39.53-.55.8a0,0,0,0,0,0,0h0l-.76,1.11-.18.27-.66,1,0,0-.62.94-.13.2-.5.76h0l-1-6.21,4.2-2.24A.49.49,0,0,0,137.7,177.29Zm.31-36.38a12.69,12.69,0,0,0,1.49,1.38l.06.25c1.21,4.65,4.26,5.37,5.58,5.46a37.17,37.17,0,0,0,6.18,9.89,8.63,8.63,0,0,1-.63,3c-1.42.24-5.88,1.17-7.56,3.42a5.43,5.43,0,0,1-.5.61c-4.54-1.18-9.48.7-12.65,4.87a14.65,14.65,0,0,0-1.48,2.39l0,.06c-.3.51-.63,1-1,1.49s-.45.68-.67,1c-6.38,10.29-14.76,18.21-23.6,22.32-8,3.71-15.8,4.06-21.44,1-5.25-2.9-10.79-10.13-10.73-17.81.15-17.42,31.16-31.63,50.66-36.49a96.34,96.34,0,0,1,14.8-2.71Zm3.53,2.53.27.1a5.64,5.64,0,0,0,.87.24,6.26,6.26,0,0,0,1.08.13,30.18,30.18,0,0,0,1,3c-1.12-.2-2.93-1-3.93-3.8l.15.06A6.21,6.21,0,0,0,141.54,143.44Zm27.79,1.07,1.37.49.15.06.32.13a4.67,4.67,0,0,1-2.62,1.68C168.84,146.1,169.11,145.31,169.33,144.51Zm-1.32-.64-1.12,3.46a.53.53,0,0,0,0,.22.6.6,0,0,0,.08.21.4.4,0,0,0,.13.13l-.17.39,0,.09c-.1.23-.21.45-.31.67s-.2.43-.31.64-.24.46-.36.69-.22.43-.34.64-.27.46-.41.68-.24.43-.38.64-.28.44-.42.66-.29.45-.45.68-.3.42-.45.63-.33.48-.51.72-.33.42-.49.64l-.56.72-.62.75-.53.64c-.4.47-.82.94-1.26,1.42a3.72,3.72,0,0,1-5.68,0l-.83-.93-.73-.86h0a36.9,36.9,0,0,1-6.08-9.62v0a.52.52,0,0,0,.06-.42l-1.13-3.47.55-.1a12.45,12.45,0,0,0,9.67-8.63,2.78,2.78,0,0,0,2.4,0,13.23,13.23,0,0,0,2.52,4.56,12.55,12.55,0,0,0,7.15,4.09Zm.94-18.05-.72.13-.47.1-.78.2-.4.1c-.39.12-.78.24-1.16.38a22.36,22.36,0,0,0-3.6,1.66l-.06,0a22.07,22.07,0,0,0-4.52,3.4,1,1,0,0,1-1.46,0,22.6,22.6,0,0,0-8.69-5.29H147c-.54-.18-1.09-.32-1.64-.45a1.83,1.83,0,0,0-.25-.06c-.52-.12-1-.21-1.58-.29l-.15,0c0-.1,0-.2.05-.3s0-.35.08-.52l.09-.53.09-.49c0-.17.07-.34.1-.51l.09-.46c0-.17.07-.33.11-.49s.06-.29.1-.43.07-.31.11-.47.07-.27.1-.4l.12-.44c0-.12.08-.25.11-.37s.09-.28.13-.41.07-.24.11-.35.09-.25.13-.38l.12-.33c0-.11.09-.22.13-.34s.09-.2.13-.3.09-.2.14-.31.08-.18.13-.27a2.44,2.44,0,0,1,.14-.28c.05-.08.09-.16.13-.24a2.13,2.13,0,0,1,.16-.25,2.39,2.39,0,0,1,.13-.21,1.66,1.66,0,0,1,.16-.21l.13-.18.17-.19a1.66,1.66,0,0,0,.13-.14l.2-.17.11-.09a2,2,0,0,1,.31-.19,1.86,1.86,0,0,1,1.81.15c4.07,2.3,6.13,2.68,7,2.7a2.74,2.74,0,0,0,.47,0c.6.12,2.56.1,7.47-2.67a1.86,1.86,0,0,1,1.81-.15,2.8,2.8,0,0,1,.32.2l.1.08.2.17.12.14.18.19.13.17c0,.08.11.14.16.22a2.39,2.39,0,0,1,.13.21l.15.25.14.24.14.28.13.27c.05.1.09.2.14.31s.08.2.12.3.09.22.14.34l.12.33.12.37c0,.11.08.24.12.36l.12.39c0,.13.08.26.11.39l.12.42c0,.14.07.28.11.42s.07.3.11.45.06.29.1.44.07.32.1.48l.09.46c0,.17.07.34.1.51l.09.49.09.53c0,.17.06.35.08.52s0,.19.05.29l-.41,0Zm-25.33-17.63c4.36-4,12.49-4.41,12.52-4.41s8.22.42,12.58,4.41c3.48,3.19,2.53,13.18,2.05,16.86,0-.21-.07-.42-.1-.63a.43.43,0,0,1,0-.11c-.1-.59-.22-1.18-.34-1.76a.43.43,0,0,1,0-.11c-.06-.25-.11-.5-.17-.75,0-.09-.05-.18-.07-.26s-.09-.39-.14-.58l-.09-.32c0-.17-.09-.34-.14-.5s-.07-.23-.11-.34-.09-.31-.14-.46l-.12-.33c-.05-.15-.1-.29-.16-.43l-.12-.32c-.06-.14-.12-.27-.17-.41l-.14-.3-.18-.37-.15-.28a3.79,3.79,0,0,0-.2-.34l-.15-.26c-.07-.1-.15-.2-.22-.31l-.16-.21a3.33,3.33,0,0,0-.25-.28,1.29,1.29,0,0,0-.16-.17A3.15,3.15,0,0,0,167,115a1.58,1.58,0,0,0-.15-.12,3.12,3.12,0,0,0-.45-.29,2.85,2.85,0,0,0-2.77.18c-5.17,2.9-6.77,2.56-6.78,2.55a.5.5,0,0,0-.34,0,.87.87,0,0,1-.3,0c-.62,0-2.49-.3-6.53-2.56a2.78,2.78,0,0,0-2.75-.18,3.31,3.31,0,0,0-.47.29l-.15.13a3.47,3.47,0,0,0-.29.25c-.06,0-.11.12-.17.18l-.24.28c-.06.07-.11.15-.17.23l-.21.31c-.06.09-.11.18-.16.27a3.79,3.79,0,0,0-.2.34l-.15.3c-.06.12-.13.24-.19.37s-.09.22-.14.33-.11.26-.16.4-.09.22-.14.34l-.15.42-.12.37c0,.15-.1.29-.14.44l-.12.38-.12.46c0,.13-.07.26-.11.39l-.12.47-.09.4c0,.16-.07.31-.11.47s0,.27-.08.41-.07.31-.1.47-.05.27-.08.41-.05.32-.08.48,0,.26-.07.39,0,.32-.08.47l-.06.4,0,.2-.76,0C141.2,122.47,140,111.55,143.62,108.19Zm-4.41,18.46c.53-.05,1.09-.08,1.65-.09h.33q.78,0,1.59.09h0a19.82,19.82,0,0,1,4,.85h0l.67.24.25.09a22.15,22.15,0,0,1,7.29,4.64l0,0a1.84,1.84,0,0,0,.25.23l.1.06.21.13.14.06.23.08.17,0,.24,0h.21l.14,0,.25,0,.15,0,.28-.13.13-.07a3.77,3.77,0,0,0,.42-.31,20.28,20.28,0,0,1,4.27-3.22l0,0a21.34,21.34,0,0,1,3.49-1.6,18.69,18.69,0,0,1,4.72-1c.22,0,.44,0,.69,0s.46,0,.74,0h.23c.57,0,1.13,0,1.66.09a19.61,19.61,0,0,1,6,1.59,39,39,0,0,1-1.83,5.67c-.18.45-.37.88-.56,1.29a16.39,16.39,0,0,1-4.59,6.31,6.73,6.73,0,0,1-2.73,1.28,6.5,6.5,0,0,1-1.06.12h-.42a7,7,0,0,1-1.06-.14,12.28,12.28,0,0,1-4.5-1.87A10.66,10.66,0,0,1,161,139a12.7,12.7,0,0,1-2.51-4.82.51.51,0,0,0-.35-.36l-.14,0-.07,0h-.07a.54.54,0,0,0-.2.1,2,2,0,0,1-1.19.46,1.7,1.7,0,0,1-1.11-.47.52.52,0,0,0-.48-.1.5.5,0,0,0-.34.35,12.17,12.17,0,0,1-3.61,5.93,12,12,0,0,1-5.5,2.65,6.61,6.61,0,0,1-.94.13h-.12a.55.55,0,0,0-.22-.06h0a.46.46,0,0,0-.23.06h0a5.87,5.87,0,0,1-1-.11,6.85,6.85,0,0,1-2.63-1.2l0,0a11.35,11.35,0,0,1-1.62-1.51c-3.33-3.79-5-10.17-5.42-11.82l.42-.17A19.91,19.91,0,0,1,139.21,126.65ZM119.18,227a7.6,7.6,0,0,1-3.67-5,40.21,40.21,0,0,0,5.86-20.36.52.52,0,0,0-.29-.46.53.53,0,0,0-.55.07,58.43,58.43,0,0,1-9.46,6.5c-.72.4-1.5.8-2.52,1.31-11.41,5.47-23.11,5.75-32.12.77C66,204.07,58.85,191.8,59,180c.11-12.78,8.16-24.25,23.93-34.09,14.92-9.32,31.34-13.84,36-15l.11,0a115.14,115.14,0,0,1,13.12-2.58l0,.08c0,.06,0,.12,0,.2s0,.14.05.22.05.18.07.28.07.28.12.44l.06.22c0,.14.07.27.11.42l.09.28c0,.15.08.29.13.44s.07.22.1.33.1.32.16.49.07.22.11.34.13.36.19.55l.12.34c.08.22.17.45.26.68l.09.24q.19.47.39,1a2,2,0,0,1,.1.21c.11.25.22.5.34.75s.11.23.16.34.21.43.32.64l.2.37.33.6c.07.13.14.25.22.37s.24.4.37.59l.22.35c.14.21.29.41.44.62l.19.27.06.07-.76.07a99.7,99.7,0,0,0-15,2.74c-19.8,4.93-51.27,19.47-51.43,37.47-.06,8.08,5.75,15.67,11.26,18.71,11.62,6.41,32.15-.67,46.4-23.63.2-.33.42-.66.64-1s.64-1,.94-1.47a.41.41,0,0,0,.07-.11,13.72,13.72,0,0,1,1.42-2.32,11.29,11.29,0,0,1,11.06-4.63l-.09.09-.67.7a.47.47,0,0,0-.1.1l-.78.78-.15.15-1,1-.22.21-1.12,1.1c-1.88,1.83-4.12,4-6.3,6l-.05,0c-2.71,2.58-5,4.71-5.21,4.91a.51.51,0,0,0,0,.7.5.5,0,0,0,.7.08l.17-.13c.47-.36,1.8-1.37,3.39-2.54,4.72-3.47,6.58-4.56,7.3-4.89,0,.16-.06.32-.1.48a12.89,12.89,0,0,1-.76,2.13L132.48,179a.52.52,0,0,0-.27.53l1.25,7.68h0l0,0c-.24.53-.47,1.05-.68,1.58a2.44,2.44,0,0,0-.1.24c-.23.53-.45,1.06-.67,1.59-.12.29-.24.58-.35.87-.06.13-.1.25-.15.38-.54,1.36-1,2.7-1.5,4.05l-.06.16c-.14.39-.28.78-.4,1.17v0l-.21.65c-.05.16-.11.32-.16.49-.12.37-.24.73-.34,1.1,0,.07-.05.14-.07.2a.74.74,0,0,0,0,.14.65.65,0,0,0,0,.13l-.09.3c-.09.31-.19.63-.28,1s-.19.67-.28,1-.1.39-.16.58c0,0,0,.06,0,.09h0c0,.13-.07.27-.1.4s-.11.39-.16.59-.12.47-.17.71l-.21.83-.12.5a1.55,1.55,0,0,0,0,.23c-.06.26-.12.52-.17.79,0,0,0,.05,0,.07l-.27,1.32,0,.14a1.29,1.29,0,0,0,0,.19c-.08.38-.15.76-.22,1.15,0,.14,0,.28-.08.42s0,.08,0,.12c-.11.6-.2,1.19-.29,1.78l0,.17c0,.32-.09.64-.13,1,0,.16,0,.33-.07.49l-.09.72c0,.29-.08.58-.11.88v0c-.09.71-.15,1.41-.21,2.12l0,.4c0,.31,0,.62-.07.94s0,.46,0,.7,0,.48,0,.71c0,.06,0,.12,0,.18s0,.2,0,.3c0,.94-.05,1.88-.06,2.81v.59c0,1,0,2.07.08,3.1A8.3,8.3,0,0,1,119.18,227Zm6.9.27v-.08c0-1-.07-1.92-.08-2.88v-.77c0-1,0-2,.07-2.94a0,0,0,0,1,0,0,0,0,0,0,1,0,0h0v-.17s0,0,0-.08,0-.24,0-.35c0-.57.07-1.14.11-1.71l.06-.77.12-1.17c0-.36.07-.72.11-1.09.08-.64.16-1.29.25-1.94,0-.13,0-.25,0-.38.23-1.52.5-3,.82-4.58.1-.52.22-1,.33-1.55.07-.28.13-.56.19-.84s.16-.68.25-1c.13-.55.27-1.1.42-1.66.07-.24.14-.49.2-.73l.42-1.47c.11-.39.23-.78.35-1.16s.26-.85.4-1.27l.33-1,.45-1.28c.11-.34.23-.68.35-1l.1-.28c.21-.58.43-1.16.65-1.75l.38-.95c.16-.41.32-.81.49-1.22s.29-.71.44-1.07c.24-.57.48-1.14.74-1.71l.24-.56h0l0-.05,0,0v0h0l0,0v0h0l.1-.16v0l.6-.84.07-.09,0,0,.7-1,.58-.88c.2-.29.39-.59.57-.88.3-.47.59-.93.88-1.41h0v0l.31-.44c.08-.1.15-.21.22-.31l0,0,0-.06s.06-.09.12-.16h0a9.07,9.07,0,0,0,.68-1h0l0,0,.11-.16c3.11-4.51,5.52-8.07,7.37-10.86.29-.43.56-.85.83-1.27l0,0,.08-.11,0,0h0a.52.52,0,0,0,.13-.06h0l0,0v0h0l.07.19a0,0,0,0,0,0,0s0,0,0,0a3.64,3.64,0,0,0,.92,1.4l0,0,0,0,.18.15.05.05a2.83,2.83,0,0,0,.28.2,6.28,6.28,0,0,0,3.37.79q.42,0,.84,0h.19l.74-.08.26,0,.16,0,.2,0,.62-.11.11,0,.17,0c.3-.05.6-.12.9-.19h0l1.39-.36.18-.06,1.1-.34.45-.14.75-.26.59-.21.34-.13.76-.28h0l-.2.16-.28.23h0l-.21.17c-.11.08-.21.17-.34.28l-.08.06-.6.51c-.58.51-1.1,1-1.58,1.45-1.09,1-2.13,2.12-3.14,3.26l-.27.3-.19.22-.33.39,0,0a45.81,45.81,0,0,0-5.65,8.14h0c-.31.57-.58,1.11-.84,1.65l-.1.2a.14.14,0,0,0,0,.06,3.78,3.78,0,0,0-.17.35l-.08.16s0,0,0,0l-.12.26-.06.13-.17.37-.25.56,0,.08v0s0,0,0,.05a2.15,2.15,0,0,0-.11.25l0,0v0h0l0,.07h0A39.61,39.61,0,0,0,145,201.56a33,33,0,0,0,6.72,21.64c.3.43.59.84.84,1.23a4.28,4.28,0,0,0,2.25,2s0,0,0,.06h0l0,.1c1,4.64,4.64,10.26,9.76,12.5l-1.09.36h-.08l-2.23.75h0l-5.4,1.78h-.07l-2.27.75h0l-7.68,2.53-.06,0h-.07l-1.19.4-1.08.36-3.09,1C130.15,239.2,127,232,126.08,227.28Zm50.54-2.16a19.71,19.71,0,0,1-8-15.94,19.94,19.94,0,0,1,7.68-15.67c.42.53.85,1.05,1.3,1.58l.29.33a77.28,77.28,0,0,0,5.37,5.68c6.43,6.15,16.15,15.44,31.94,18.26a57.66,57.66,0,0,0,6.65.78c.41,0,.82.05,1.22.05.67,19.8-5.35,38.59-17,52.95a64.42,64.42,0,0,1-31.35,21.36l-.08-.33c-.78-4.32-1.38-8.6-1.77-12.73a166.17,166.17,0,0,1-.32-27.72.32.32,0,0,0,0-.17c0-.25,0-.52,0-.77a23.12,23.12,0,0,0-2-9.41A2.64,2.64,0,0,0,171,241l-.35-1.07a2.59,2.59,0,0,0-1.31-1.52,2.63,2.63,0,0,0-2-.16l-1.16.38c-4.86-1.5-8.76-6.69-10.09-11.28a22.52,22.52,0,0,0,9.31,2.15,20.51,20.51,0,0,0,11.24-3.57.53.53,0,0,0,.22-.41A.52.52,0,0,0,176.62,225.12Zm-4.9,70.24c-.38.1-.75.21-1.13.3-1.12.28-2.25.53-3.4.75h0c-1.16.23-2.32.42-3.5.58-.4.06-.8.09-1.2.14-.7.09-1.41.18-2.12.24-.2-.81-.41-1.62-.59-2.44-1.22-5.1-2.22-10.4-3-15.74-.3-2.18-.57-4.42-.82-6.84l1.62-.45,1.42-.35.2-.05.51-.12,2.34-.55.07,0a11.91,11.91,0,0,0,1.1-.49,13.92,13.92,0,0,0,3.82-2.78c.22-.23.44-.46.65-.71s.42-.49.62-.75h0c.2-.26.39-.52.58-.79s.3-.43.44-.66l.08-.14,0-.08.1-.16c.13-.21.26-.43.38-.66s.24-.45.35-.68l.09-.19,0-.06.09-.18c.1-.23.21-.46.3-.69l.06-.15c.12-.28.23-.57.34-.86h0a164.07,164.07,0,0,0,.68,20.76c.39,4.15,1,8.47,1.79,12.84l.09.42C173.08,295,172.4,295.18,171.72,295.36ZM155,272.63c.24,2.36.5,4.56.81,6.7.76,5.38,1.77,10.71,3,15.84.17.76.37,1.53.56,2.29A73.91,73.91,0,0,1,130,293.88c-1.8-.62-3.36-1.22-4.77-1.83s-3.12-1.42-4.65-2.22l.41-.31.15-.1.68-.51a109.88,109.88,0,0,1,9.79-6.35,106.39,106.39,0,0,1,21-9.22ZM139.31,249a1.61,1.61,0,0,1,1-.82l2.87-.94,1.15,3.5.16.48,0,.14-1.31.43h0l-1.6.53a1.31,1.31,0,0,1-.48.08l-.21,0-.12,0a1.57,1.57,0,0,1-1.22-1.06l-.35-1.08A1.57,1.57,0,0,1,139.31,249Zm9.57.92h0l-1.12.36-.13-.4-.16-.49-.2-.62-.17-.51,0-.07-.13-.39-.53-1.64,6.86-2.26.64,2,.32,1h0l.16.47.16.5.07.21-5.31,1.74-.14.05Zm-3.24,1.59,0-.07,0-.14-.08-.26-.08-.22-.16-.49L144.13,247l1-.32.34-.11.37,1.13,0,.09.07,0,.28.85a.13.13,0,0,0,0,.08l.07.2.3.93.16.49.11.33,0,.15.08.26v.07l.11.32-1.31.43-.1-.31Zm9.9-8.34.71,2.14.26.79.05.18.11.31.15.48.08.22.15.48h0l.1.32-1.31.43-.1-.32s0,0,0,0h0l-.15-.45-.08-.22-.16-.49-.13-.4,0-.08-.3-.89-.67-2Zm2.26,3.59-.16-.48-.08-.23-.08-.26-.24-.71-.73-2.23,4.5-1.48.45,1.38.56,1.69.16.49,0,.06.14.42,0,.08L157.87,247Zm5.67-1.15-.14-.44,0-.06-.41-1.23v0l-.07-.48-.08,0-.24-.74-.08-.23-.46-1.39,1.31-.43.47,1.41,0,.11.16.48.13.38,0,.11.54,1.63.16.48.1.32-1.31.43-.1-.31Zm1.58-2.88.2-.09-.21.06-.15-.46-.16-.48.21-.09.06,0h0l-.26.08-.47-1.43,1.89-.62,1-.34.45-.15a1.61,1.61,0,0,1,1.22.09,1.62,1.62,0,0,1,.8.94l.36,1.07a1.67,1.67,0,0,1,.08.49,1.58,1.58,0,0,1-.05.38,1.42,1.42,0,0,1-.28.58.61.61,0,0,1-.12.16,1.78,1.78,0,0,1-.26.22l-.2.11-.2.08-3.37,1.11ZM112.73,272a129,129,0,0,1,27.8-18.32l.28-.13.14-.07h.17a2.72,2.72,0,0,0,.79-.13l2.93-1,.11.32a.51.51,0,0,0,.25.29.46.46,0,0,0,.23.05.41.41,0,0,0,.16,0l2.27-.75a.51.51,0,0,0,.32-.65l-.1-.31,6.86-2.25.1.31a.55.55,0,0,0,.26.3.59.59,0,0,0,.23.05l.16,0,2.27-.75a.55.55,0,0,0,.3-.26.53.53,0,0,0,0-.39l-.1-.31,4.49-1.48.11.32a.39.39,0,0,0,.08.14.38.38,0,0,0,.11.11l.13.07h0l.15,0a.44.44,0,0,0,.16,0l2.28-.75a.51.51,0,0,0,.32-.64l-.11-.32,3.38-1.11.32-.13h0l.17-.09a22.07,22.07,0,0,1,1.74,8.69c0,.3,0,.6,0,.89h0c0,.69-.09,1.37-.17,2s-.21,1.4-.36,2.07a20.25,20.25,0,0,1-2.52,6.26,16.14,16.14,0,0,1-2.18,2.77,13,13,0,0,1-3.31,2.49h0q-.6.3-1.2.54c-.71.15-1.4.32-2.1.48l-.74.18c-1.28.31-2.48.63-3.69,1-1,.28-2,.58-3,.89a107.41,107.41,0,0,0-21.19,9.31,111.14,111.14,0,0,0-9.88,6.41l-.69.51-.14.11-.8.6h0c-.67-.36-1.33-.74-2-1.13l-1.42-.85c-.75-.46-1.5-.93-2.23-1.42l-.07-.05-.09-.07c-.63-.42-1.25-.86-1.88-1.31-.23-.17-.47-.33-.7-.51-.53-.39-1-.79-1.57-1.19l-.75-.6c-.59-.47-1.18-1-1.76-1.45l-.42-.37c-.52-.45-1-.9-1.54-1.37C107.43,276.76,109.91,274.45,112.73,272Zm-17.57-9.61h0l.14,0h0Zm-12.88-10.3c0-2.09,1.89-7.67,3.32-9.07,1-.93.84-3.17.69-4.42-.24-2-1.09-5.28-2.42-6.07a1,1,0,0,1-.39-1.47c.28-.48.81-.56,1.42-.21a8.24,8.24,0,0,1,3.88,6.4.51.51,0,0,0,.86.37L99.75,228c2.18-2.63,4.91-5.54,5.74-5.85a1.83,1.83,0,0,1,.57,2.08c-.31.94-7,9.26-11.1,14.29a.49.49,0,0,0-.06.55.51.51,0,0,0,.48.28c4.09-.21,8.68.23,9,1.21.52,1.72-1.24,3.68-1.26,3.7a.52.52,0,0,0-.09.55c.6,1.35,1.28,3.83.58,4.67a.51.51,0,0,0,.07.71A4.18,4.18,0,0,1,105,253a4.28,4.28,0,0,1-1.69,3.17,40.17,40.17,0,0,1-7.91,5c0-.06-.07-.12-.1-.19a4,4,0,0,0-.22-.34l-.13-.18a4.14,4.14,0,0,0-1.31-1.12,1.74,1.74,0,0,0-.27-.14l-.17-.07L93,259l-.3-.1-.27-.06a5.07,5.07,0,0,0-.58-.08l-3-.2-.63,0-.61,0-5.49-.38-.55,0c-.11,0-.21,0-.32,0a4.38,4.38,0,0,0-.51,0l-.15,0-.3.06h-.07C81.16,256.19,82.3,253.53,82.28,252.06Zm-3.59,7.52h0a.13.13,0,0,0,.06.07.53.53,0,0,0,.29.12.53.53,0,0,1-.29-.12.23.23,0,0,1-.07-.07Zm-.86,4,.09-1.41a3.32,3.32,0,0,1,1.44-2.51.61.61,0,0,1-.13,0,.61.61,0,0,0,.13,0h0l.21-.13a1.67,1.67,0,0,1,.23-.12,2.82,2.82,0,0,1,.45-.18,3.3,3.3,0,0,1,.94-.15h.25l3.64.24,3.39.22h0l3.24.22a3.33,3.33,0,0,1,2.47,1.36c.08.11.15.24.23.36s.16.34.22.51v0a.22.22,0,0,0,0,.08.26.26,0,0,1,0-.09,3.31,3.31,0,0,1,.18,1.3l-.1,1.41A3.32,3.32,0,0,1,93.69,267h0a3,3,0,0,1-.42.31l-.22.13a2.24,2.24,0,0,1-.27.13,4.56,4.56,0,0,1-.52.18l-.23,0a3.49,3.49,0,0,1-.72.05h-.07l-8.89-.6h0l-1.37-.09A3.34,3.34,0,0,1,77.83,263.61Zm-.69,100.06a3.07,3.07,0,0,1-1,2.12,2.42,2.42,0,0,1-.61.41,2.74,2.74,0,0,1-.53.23l-.22.05a2.24,2.24,0,0,1-.51.07h-.54l-4.11-.26-2.53-.16a3,3,0,0,1-.52-.08,2.46,2.46,0,0,1-.48-.16,2.69,2.69,0,0,1-.48-.24l0-.11-.24,0a3.16,3.16,0,0,1-.42-.4,1.86,1.86,0,0,1-.21-.28v-.29l-.17.05a4.91,4.91,0,0,1-.22-.46,3.08,3.08,0,0,1-.18-1v0c.09-1,.18-1.84.27-2.62,0,0,0,0,0,0a3.07,3.07,0,0,1,.65-1.06,2.28,2.28,0,0,1,.22-.22,3.06,3.06,0,0,1,2-.77h.2l6.83.43a2.86,2.86,0,0,1,1,.22,2.65,2.65,0,0,1,.5.26,2.4,2.4,0,0,1,.47.37l.19.19a3.07,3.07,0,0,1,.76,2.23Zm-13.36,7v-.59a.86.86,0,0,1,.85-.86h3.92a.86.86,0,0,1,.85.86v.59a.85.85,0,0,1-.85.85H64.61A.85.85,0,0,1,63.78,370.71Zm.06,5.53.23-1.38a.85.85,0,0,1,.54-.22h3.94a.86.86,0,0,1,.85.86v.59a.85.85,0,0,1-.85.85H64.63a.85.85,0,0,1-.83-.7Zm14.54,13v.47a.57.57,0,0,1-.57.57H34.45a.58.58,0,0,1-.57-.57v-.47a.57.57,0,0,1,.57-.57H77.81A.56.56,0,0,1,78.38,389.2Zm-41.62-10c1.56-1.34,4-1.43,7.36-.29l.72.26s3.16,1.64,3.1,8.45H34.83C34.57,385.27,34.5,381.13,36.76,379.19ZM77,387.61H49c0-5.21-1.66-7.66-2.78-8.71a139.36,139.36,0,0,1,17-1.63,1.8,1.8,0,0,0,1.43.69h3.92a1.87,1.87,0,0,0,1.87-1.87v-.59a1.87,1.87,0,0,0-1.87-1.87H65.29l.17-1.05h3.09a1.87,1.87,0,0,0,1.87-1.87v-.59a1.87,1.87,0,0,0-1.87-1.87H66.17l.2-1.2a3.1,3.1,0,0,0,.61.09l6.83.42H74A54.81,54.81,0,0,1,77,387.61Zm31.27-88.55-1.14,1.12c-.21.21-.43.44-.67.71l-.67.7-.51.53-.07.08c-.48.5-1,1-1.42,1.51l-2.18,2.48a122.43,122.43,0,0,0-8.14,10.6,121.78,121.78,0,0,0-13,24.74A129.12,129.12,0,0,0,76,355.36c-.43,1.62-.6,2.27-.66,2.65a4.21,4.21,0,0,0-.94-.17l-6.83-.42a4,4,0,0,0-2.29.53c.26-1.54.57-3,1-5.05l.31-1.46a149.74,149.74,0,0,1,4.25-16,159.8,159.8,0,0,1,5.88-15.12,156.52,156.52,0,0,1,7.35-14,145.87,145.87,0,0,1,8.6-12.82L95,290.51c.36-.46.72-.9,1.07-1.33l0,0c.39.37.78.73,1.18,1.08l1,.89.94.82c.83.7,1.67,1.39,2.52,2.06l.73.58c.4.31.81.63,1.23.94s1.15.84,1.73,1.26l.47.32c.34.24.68.48,1,.71s.63.43.95.63a.71.71,0,0,0,.14.1l.52.34Zm86.89,71.59v-.48a.61.61,0,0,1,.61-.61H199a.61.61,0,0,1,.62.61v.48a.62.62,0,0,1-.62.62h-3.33A.62.62,0,0,1,195.2,370.65Zm.61,3.34H199a.62.62,0,0,1,.62.62v.48a.61.61,0,0,1-.62.61h-3.23a.61.61,0,0,1-.61-.61v-.48A.61.61,0,0,1,195.81,374Zm12.77,12.17v.47a.58.58,0,0,1-.58.57H170.74a.58.58,0,0,1-.58-.57v-.47a.59.59,0,0,1,.12-.35.58.58,0,0,1,.46-.23H208A.58.58,0,0,1,208.58,386.16Zm-29-8,.09,0c.13.05,2.83,1.24,2.63,6.41H171c-.24-1.48-.46-4.52,1.22-6.11C173.66,377.14,176.12,377,179.55,378.12Zm26.4,6.44H183.29c.16-4.51-1.75-6.39-2.74-7.06a114,114,0,0,1,14-1.34h0a1.57,1.57,0,0,0,1.21.56H199a1.63,1.63,0,0,0,1.63-1.63v-.48A1.64,1.64,0,0,0,199,373h-2.57l.11-.68H199a1.64,1.64,0,0,0,1.63-1.64v-.48a1.63,1.63,0,0,0-1.63-1.63h-1.85l.11-.68,5.53-1.57A46.38,46.38,0,0,1,206,384.56Zm-3-26.44a3,3,0,0,1,1.21,1.23,2.6,2.6,0,0,1,.25.62l.43,1.48a3.12,3.12,0,0,1-.27,2.34,2.66,2.66,0,0,1-.39.54,2.89,2.89,0,0,1-.8.64,2.35,2.35,0,0,1-.45.22l-.21.07-.28.08-2,.56-3,.85-.53.15-.55.16-.25.07a3.09,3.09,0,0,1-3.81-2.12l-.42-1.48a3.06,3.06,0,0,1,.32-2.43,3,3,0,0,1,.67-.78,3,3,0,0,1,1.13-.6l6.58-1.87a3.06,3.06,0,0,1,.85-.12,2.68,2.68,0,0,1,.84.13A2.39,2.39,0,0,1,203,358.12Zm-23.35-41c.23.71.48,1.37.74,2.05l.23.61.21.57.81,2.17.33.79.94,2.27c.32.75.63,1.51,1,2.3l1.62,3.5a128.37,128.37,0,0,0,15.92,25.37,4.25,4.25,0,0,0-1.06.16l-6.58,1.87a4.09,4.09,0,0,0-1.53.81c-2.55-2.92-5-6.05-7.47-9.33a144.86,144.86,0,0,1-9-14l-2-3.68c-.44-.84-.84-1.64-1.26-2.5l-.32-.62c-.07-.13-.14-.27-.2-.41l-.45-.87L171,327l-.86-1.89c-.22-.47-.42-.93-.63-1.35-.32-.71-.71-1.57-1.1-2.51-1.23-2.87-2.38-5.84-3.53-9.07a.57.57,0,0,0-.15-.22l-.18-.59,1.72-.26L167,311c.91-.15,1.81-.3,2.69-.47l1.52-.31.31-.07c.5-.11,1-.22,1.51-.35l.41-.1.23-.05.08,0,1.47-.38h0l1.41-.4.36-.1.22.95C178,312.4,178.81,314.82,179.61,317.08Zm35.61-35.14a77.62,77.62,0,0,1-38,25.67h0a77.9,77.9,0,0,1-7.7,1.9c-1,.19-2,.36-3,.52s-1.77.26-2.65.37h-.07a84.45,84.45,0,0,1-37-3.8c-2-.68-4-1.45-5.94-2.28a77.35,77.35,0,0,1-9.83-5.05l-1.49-.92c-1-.67-2.1-1.37-3.13-2.09l-.66-.46A89.09,89.09,0,0,1,96.35,288a93.08,93.08,0,0,1-6.63-6.92,7.68,7.68,0,0,0-.59-.69c-.64-.75-1.29-1.54-1.92-2.32a27.31,27.31,0,0,1-3.9-8.48c-.14-.48-.25-.92-.35-1.31l3.42.22,4.79.32h.29l.39,0h.09l.3,0,.42-.1a2.3,2.3,0,0,0,.34-.12l.11-.05a5.68,5.68,0,0,0,.55-.28.45.45,0,0,1,.12-.06l0,0,.1-.06.44.59a86.07,86.07,0,0,0,9.74,10.72,76,76,0,0,0,9.22,7.31c.72.49,1.45.94,2.19,1.4q1.92,1.2,3.88,2.27h0c1.78.95,3.61,1.83,5.44,2.61,1.43.63,3,1.23,4.84,1.86A74.8,74.8,0,0,0,160,298.43a70.87,70.87,0,0,0,14.45-2.77h0l0,0h0a65.4,65.4,0,0,0,32.36-21.86c11.79-14.54,17.89-33.54,17.22-53.56h.7c.38,0,.77,0,1.16,0s1,0,1.55,0h.06c.46,0,.92-.05,1.37-.09h0l.84-.09.41,0h.1c.46,0,.92-.1,1.37-.17l.59-.09.48-.07h0l.83-.14q.46-.07.93-.18l.11,0c.18,0,.35-.05.52-.09C236.09,242.29,228.84,265.14,215.22,281.94Zm54.88-95.56a.19.19,0,0,0,0,.07c-2.33,5.86-7.77,19.58-23,27.43A46.7,46.7,0,0,1,235.85,218l-.31.06a50.2,50.2,0,0,1-8.12,1.11c-.87,0-1.75.07-2.64.07-.28,0-.58,0-.9,0h-.32c-.55,0-1.09,0-1.65-.06a57.82,57.82,0,0,1-6.53-.77c-15.49-2.77-25.07-11.93-31.41-18a75,75,0,0,1-5.3-5.59c-.1-.13-.2-.23-.3-.35-.53-.62-1-1.24-1.55-1.88l0,0a.52.52,0,0,0-.7-.09,21,21,0,0,0-8.48,16.78,20.71,20.71,0,0,0,7.84,16.31c-.51.33-1.05.63-1.63.93-7.05,3.61-13.67,1.84-18.05-.34a.29.29,0,0,1,0-.09.5.5,0,0,0-.39-.4,3.18,3.18,0,0,1-1.89-1.63.16.16,0,0,1,0-.07l-.87-1.27c-2.74-4-6.89-9.93-6.55-21,0-.6.05-1.2.1-1.79a1.48,1.48,0,0,1,0-.21s0-.08,0-.12q.07-.94.21-1.86c0-.39.09-.78.16-1.16s.14-.81.22-1.21l.18-.86c.1-.43.2-.86.31-1.29.23-.93.5-1.85.82-2.77.08-.26.17-.51.26-.76,0-.06,0-.13.07-.19.13-.37.27-.73.42-1.1l4.79-3.4,3.73-2.64a.49.49,0,0,0,.21-.4.41.41,0,0,0,0-.16.47.47,0,0,0-.16-.25,4.22,4.22,0,0,1-1.43-2.52c0-.12,0-.24,0-.33,2.26-1.17,5.77-2.71,7-2.51,0,0,.28.1.81,1.13a24.9,24.9,0,0,1,1.31,3.23c1.39,4.05,2.65,9.31,2.67,9.38a.05.05,0,0,0,0,0,.61.61,0,0,0,0,.12h0l0,0a.46.46,0,0,0,.12.12.55.55,0,0,0,.28.09h0a.53.53,0,0,0,.4-.21.66.66,0,0,0,.09-.19c0-.06,0-.21.09-.43s.14-.66.25-1.15c0-.12,0-.27.08-.41l.27-1.28v-.06c.16-.78.35-1.65.54-2.61.09-.47.19-1,.3-1.46l.09-.45c.17-.89.36-1.83.54-2.77,0-.13.05-.27.08-.41s.09-.48.14-.73.11-.59.17-.89c.16-.86.32-1.72.47-2.55,0-.22.07-.42.11-.63.07-.43.15-.86.22-1.28.21-1.27.41-2.46.55-3.51,0-.26.07-.52.1-.76a.34.34,0,0,0,0-.1c0-.19,0-.38.07-.57s0-.24,0-.35c.05-.45.08-.85.09-1.19h3c4.2,0,8.08,2.79,9.89,7.13a.13.13,0,0,0,0,0c.11.31.23.61.34,1,0,.1.07.2.11.3a2.9,2.9,0,0,1,.24.94c.4,17.09,18,26.13,18.2,26.2a37.43,37.43,0,0,0,12.67,4.73,40.21,40.21,0,0,0,4.15.54l1.5.1h1l.77,0h.39l.69,0,.61,0,1.17-.06h.11l.82-.08c.85-.08,1.7-.19,2.53-.33l.46-.07h0c.83-.15,1.66-.32,2.48-.53l1.22-.33h0a35.64,35.64,0,0,0,6.42-2.55C252.9,197.31,257,186.87,259,181.87l0-.09c4.8-12.14,3-23,1.94-29.5-3.39-20.66-14.7-34.68-19.53-40.68-15.31-19-36.74-32.69-63.68-40.76-48.59-14.57-89.06,2-100.56,9.64-2.46,1.63-9,6-12,13.68-1,2.68-2.75,7.18-.81,11.87a14.66,14.66,0,0,0,6.09,6.67s0,0,0,.06a3.5,3.5,0,0,0-.35.63l-4.57,10.25c-5.82-3.33-9.88-7.72-12.1-13.06-3.81-9.22-.66-17.41.69-20.91,4.3-11.22,13.11-17.07,16.44-19.28C78,65.51,92.4,59,110.85,55.54a146.8,146.8,0,0,1,70.2,3.76c29.32,8.79,52.73,23.84,69.59,44.75,5,6.15,18.17,22.48,22.1,46.42C273.92,157.7,276.12,171.16,270.1,186.38Z"/><rect class="cls-2" x="0.5" y="0.5" width="293.05" height="424.31"/></g></g></svg>