<svg xmlns="http://www.w3.org/2000/svg" viewBox="0 0 1345.33 69.64"><defs><style>.cls-1{stroke:#0ce5d5;stroke-miterlimit:10;stroke-width:2px;}.cls-2{fill:#fc0067;}</style></defs><title>Fichier 7</title><g id="Calque_2" data-name="Calque 2"><g id="bulle_numéro" data-name="bulle numéro"><rect class="cls-1" x="1" y="1" width="67.64" height="67.64"/><path class="cls-2" d="M18.74,42.83V39.91H15.82V37H12.9V28.22h2.92V25.3h2.92V22.38H27.5V25.3h2.93v2.92h2.92V37H30.43v2.92H27.5v2.92Zm2.92-2.92H27.5V28.22H24.58V25.3H18.74V37h2.92Z"/><path class="cls-2" d="M39.19,42.83V39.91H45V28.22H42.11V25.3H45V22.38h5.84V39.91h5.85v2.92Z"/><rect class="cls-1" x="319.64" y="1" width="67.64" height="67.64"/><path class="cls-2" d="M337.38,42.83V39.91h-2.92V37h-2.92V28.22h2.92V25.3h2.92V22.38h8.76V25.3h2.92v2.92H352V37h-2.92v2.92h-2.92v2.92Zm2.92-2.92h5.84V28.22h-2.92V25.3h-5.84V37h2.92Z"/><path class="cls-2" d="M354.9,42.83V37h2.93V34.06h2.92V31.14h5.84V28.22h2.92V25.3h-8.76v2.92H354.9V25.3h2.93V22.38h14.6V25.3h2.92v5.84h-2.92v2.92h-2.92V37h-5.84v2.92h11.68v2.92Z"/><rect class="cls-1" x="956.91" y="1" width="67.64" height="67.64"/><path class="cls-2" d="M974.65,43.27V40.35h-2.92V37.42h-2.92V28.66h2.92V25.74h2.92V22.82h8.76v2.92h2.93v2.92h2.92v8.76h-2.92v2.93h-2.93v2.92Zm2.92-2.92h5.84V28.66h-2.92V25.74h-5.84V37.42h2.92Z"/><path class="cls-2" d="M1003.86,43.27V37.42H992.18V31.58h2.92V28.66H998V25.74h2.92V22.82h8.76V34.5h2.93v2.92h-2.93v5.85ZM998,34.5h5.84V28.66h-2.92v2.92H998Z"/><rect class="cls-1" x="1276.69" y="1" width="67.64" height="67.64"/><path class="cls-2" d="M1294.44,43.27V40.35h-2.93V37.42h-2.92V28.66h2.92V25.74h2.93V22.82h8.76v2.92h2.92v2.92H1309v8.76h-2.92v2.93h-2.92v2.92Zm2.92-2.92h5.84V28.66h-2.92V25.74h-5.84V37.42h2.92Z"/><path class="cls-2" d="M1314.88,43.27V40.35H1312V37.42h5.85v2.93h8.76V31.58H1312V22.82h17.53v2.92h-11.68v2.92h11.68v2.92h2.92v8.77h-2.92v2.92Z"/><rect class="cls-1" x="638.27" y="1" width="67.64" height="67.64"/><path class="cls-2" d="M656,43.27V40.35h-2.92V37.42h-2.92V28.66h2.92V25.74H656V22.82h8.77v2.92h2.92v2.92h2.92v8.76H667.7v2.93h-2.92v2.92Zm2.92-2.92h5.85V28.66h-2.92V25.74H656V37.42h2.92Z"/><path class="cls-2" d="M676.46,43.27V40.35h-2.92V37.42h5.84v2.93h8.77V34.5h-8.77V31.58h2.92V28.66h2.92V25.74h-8.76V22.82H694v2.92h-2.92v2.92h-2.92v2.92h2.92V34.5H694v5.85h-2.92v2.92Z"/></g></g></svg>