<svg xmlns="http://www.w3.org/2000/svg" viewBox="0 0 167.95 167.44"><defs><style>.cls-1{fill:#2de2e6;}.cls-2{fill:#12f9e3;}.cls-3{fill:#0c0c0c;}.cls-4{fill:none;stroke:#ff0074;stroke-miterlimit:10;}.cls-5{fill:#050505;}</style></defs><title>Fichier 12</title><g id="Calque_2" data-name="Calque 2"><g id="cadrilage"><rect class="cls-1" x="166.57" y="0.38" width="1" height="166.19"/><rect class="cls-1" x="83.47" y="0.38" width="1" height="166.19"/><rect class="cls-1" x="41.92" y="0.38" width="1" height="166.19"/><rect class="cls-1" x="0.38" y="0.38" width="1" height="166.19"/><rect class="cls-1" x="125.02" y="0.38" width="1" height="166.19"/><rect class="cls-1" x="0.88" y="82.97" width="166.2" height="1"/><rect class="cls-1" x="0.88" y="124.52" width="166.2" height="1"/><rect class="cls-1" x="0.88" y="166.07" width="166.2" height="1"/><rect class="cls-1" x="0.88" y="41.42" width="166.2" height="1"/></g><g id="neon_CADRILLAGE" data-name="neon CADRILLAGE"><rect class="cls-1" x="166.57" y="0.38" width="1" height="166.19"/><path class="cls-2" d="M168,166.94H166.2V0H168Zm-1-.75h.25V.75H167Z"/><rect class="cls-1" x="83.47" y="0.38" width="1" height="166.19"/><path class="cls-2" d="M84.85,166.94H83.1V0h1.75Zm-1-.75h.25V.75h-.25Z"/><rect class="cls-1" x="41.92" y="0.38" width="1" height="166.19"/><path class="cls-2" d="M43.3,166.94H41.55V0H43.3Zm-1-.75h.25V.75H42.3Z"/><rect class="cls-1" x="0.38" y="0.38" width="1" height="166.19"/><path class="cls-2" d="M1.75,166.94H0V0H1.75Zm-1-.75H1V.75H.75Z"/><rect class="cls-1" x="125.02" y="0.38" width="1" height="166.19"/><path class="cls-2" d="M126.4,166.94h-1.75V0h1.75Zm-1-.75h.25V.75h-.25Z"/><rect class="cls-1" x="0.88" y="82.97" width="166.2" height="1"/><path class="cls-2" d="M167.45,84.35H.5V82.6h167ZM1.25,83.6H166.7v-.25H1.25Z"/><rect class="cls-1" x="0.88" y="124.52" width="166.2" height="1"/><path class="cls-2" d="M167.45,125.9H.5v-1.75h167Zm-166.2-.75H166.7v-.25H1.25Z"/><rect class="cls-1" x="0.88" y="166.07" width="166.2" height="1"/><path class="cls-2" d="M167.45,167.44H.5v-1.75h167Zm-166.2-.75H166.7v-.25H1.25Z"/><rect class="cls-1" x="0.88" y="41.42" width="166.2" height="1"/><path class="cls-2" d="M167.45,42.8H.5V41.05h167ZM1.25,42.05H166.7V41.8H1.25Z"/></g><g id="Pictogramme"><rect x="100.65" y="70.8" width="32.03" height="20.7"/><polygon points="105.73 39.43 111.88 36.43 114.97 31.93 107.45 26.26 94.79 38.38 105.73 39.43"/><rect class="cls-3" x="47.75" y="51.01" width="21.87" height="23.24"/><line class="cls-4" x1="30.71" y1="113.09" x2="54.77" y2="113.09"/><polyline class="cls-4" points="47.75 62.63 47.75 51.27 55.44 51.27"/><path class="cls-3" d="M141.7,67.22v55.42a5.2,5.2,0,0,1-5.21,5.2H115.64V102.11H53.49v25.73H34a5.2,5.2,0,0,1-5.21-5.2V67.22A5.21,5.21,0,0,1,34,62H136.49A5.21,5.21,0,0,1,141.7,67.22ZM129.34,78.55a4.09,4.09,0,1,0-4.09,4.09A4.08,4.08,0,0,0,129.34,78.55Zm-13.7,0a4.1,4.1,0,1,0-4.09,4.09A4.08,4.08,0,0,0,115.64,78.55Z"/><rect x="116.31" y="50.65" width="7.69" height="11.36"/><polygon class="cls-3" points="116.31 50.65 116.31 62.01 54.15 62.01 54.15 26.26 107.45 26.26 107.45 32.94 116.31 32.94 116.31 50.65"/><polygon points="115.64 127.52 115.64 127.84 112.66 127.84 109.62 108.13 84.56 108.13 59.5 108.13 56.46 127.84 53.49 127.84 53.49 127.52 53.49 102.11 115.64 102.11 115.64 127.52"/><polygon points="112.66 127.84 114.97 142.88 84.56 142.88 54.15 142.88 56.46 127.84 112.66 127.84"/><path class="cls-5" d="M111.55,74.46a4.09,4.09,0,1,1-4.1,4.09A4.08,4.08,0,0,1,111.55,74.46Z"/><polygon points="112.66 127.84 56.46 127.84 59.5 108.13 84.56 108.13 109.62 108.13 112.66 127.84"/><path class="cls-4" d="M56.46,127.84H34a5.2,5.2,0,0,1-5.21-5.2V67.22A5.21,5.21,0,0,1,34,62H136.49a5.21,5.21,0,0,1,5.21,5.21v55.42a5.2,5.2,0,0,1-5.21,5.2H112.66"/><polyline class="cls-4" points="53.49 127.52 53.49 102.11 115.64 102.11 115.64 127.52"/><polyline class="cls-4" points="116.31 32.94 116.31 50.65 116.31 62.01"/><polyline class="cls-4" points="54.15 62.01 54.15 26.26 107.45 26.26"/><polygon class="cls-4" points="112.66 127.84 109.62 108.13 84.56 108.13 59.5 108.13 56.46 127.84 54.15 142.88 84.56 142.88 114.97 142.88 112.66 127.84"/><circle class="cls-4" cx="125.25" cy="78.55" r="4.09"/><path class="cls-4" d="M115.64,78.55a4.1,4.1,0,1,1-4.09-4.09A4.09,4.09,0,0,1,115.64,78.55Z"/><polyline class="cls-4" points="123.99 62.01 123.99 50.65 116.31 50.65"/><line class="cls-4" x1="60.84" y1="134.52" x2="107.45" y2="134.52"/><line class="cls-4" x1="64.68" y1="125.5" x2="103.32" y2="125.5"/><line class="cls-4" x1="66.64" y1="116.48" x2="101.64" y2="116.48"/><polygon class="cls-4" points="116.31 32.94 107.45 32.94 107.45 26.26 116.31 32.94"/><line class="cls-4" x1="28.76" y1="113.09" x2="53.49" y2="113.09"/><line class="cls-4" x1="115.64" y1="113.09" x2="141.7" y2="113.09"/></g></g></svg>