<svg xmlns="http://www.w3.org/2000/svg" viewBox="0 0 173.2 173.19"><defs><style>.cls-1{fill:#2de2e6;}.cls-2{fill:#ff0074;}</style></defs><title>Fichier 3</title><g id="Calque_2" data-name="Calque 2"><g id="cadrilage"><path class="cls-1" d="M170.2,3H3.5v.5H3V169.69h.5v.5H169.7v-.5h.5V3ZM44.55,169.19H4V128.65H44.55Zm0-41.54H4V87.1H44.55Zm0-41.55H4V45.55H44.55Zm0-41.55H4V4H44.55ZM86.1,169.19H45.55V128.65H86.1Zm0-41.54H45.55V87.1H86.1Zm0-41.55H45.55V45.55H86.1Zm0-41.55H45.55V4H86.1Zm41.55,124.64H87.1V128.65h40.55Zm0-41.54H87.1V87.1h40.55Zm0-41.55H87.1V45.55h40.55Zm0-41.55H87.1V4h40.55ZM169.2,169.19H128.65V128.65H169.2Zm0-41.54H128.65V87.1H169.2Zm0-41.55H128.65V45.55H169.2Zm0-41.55H128.65V4H169.2Z"/></g><g id="cadr_epais" data-name="cadr epais"><g id="_2" data-name="2"><path class="cls-1" d="M170.2,3H3.5v.5H3V169.69h.5v.5H169.7v-.5h.5V3ZM44.55,169.19H4V128.65H44.55Zm0-41.54H4V87.1H44.55Zm0-41.55H4V45.55H44.55Zm0-41.55H4V4H44.55ZM86.1,169.19H45.55V128.65H86.1Zm0-41.54H45.55V87.1H86.1Zm0-41.55H45.55V45.55H86.1Zm0-41.55H45.55V4H86.1Zm41.55,124.64H87.1V128.65h40.55Zm0-41.54H87.1V87.1h40.55Zm0-41.55H87.1V45.55h40.55Zm0-41.55H87.1V4h40.55ZM169.2,169.19H128.65V128.65H169.2Zm0-41.54H128.65V87.1H169.2Zm0-41.55H128.65V45.55H169.2Zm0-41.55H128.65V4H169.2Z"/><path class="cls-1" d="M172.7,173.19H.5v-.5H0V.5H.5V0H173.2V172.69h-.5Zm-41-7H166.2V131.65H131.65Zm-41.55,0h34.55V131.65H90.1Zm-41.55,0H83.1V131.65H48.55ZM7,166.19H41.55V131.65H7Zm124.65-41.54H166.2V90.1H131.65Zm-41.55,0h34.55V90.1H90.1Zm-41.55,0H83.1V90.1H48.55ZM7,124.65H41.55V90.1H7ZM131.65,83.1H166.2V48.55H131.65Zm-41.55,0h34.55V48.55H90.1Zm-41.55,0H83.1V48.55H48.55ZM7,83.1H41.55V48.55H7ZM131.65,41.55H166.2V7H131.65Zm-41.55,0h34.55V7H90.1Zm-41.55,0H83.1V7H48.55ZM7,41.55H41.55V7H7Z"/></g></g><g id="Neon_pic" data-name="Neon pic"><path class="cls-2" d="M110.32,140.91H63.7a2.5,2.5,0,0,1,0-5h46.62a2.5,2.5,0,0,1,0,5Z"/><path class="cls-2" d="M114.41,89a6.59,6.59,0,1,0-6.6-6.59A6.6,6.6,0,0,0,114.41,89Zm0-8.18A1.56,1.56,0,0,1,116,82.44a1.6,1.6,0,1,1-1.59-1.59Z"/><path class="cls-2" d="M128.11,89a6.59,6.59,0,1,0-6.59-6.59A6.6,6.6,0,0,0,128.11,89Zm0-8.18a1.56,1.56,0,0,1,1.59,1.59,1.59,1.59,0,1,1-3.18,0A1.57,1.57,0,0,1,128.11,80.85Z"/><path class="cls-2" d="M106.19,126.89H67.54a2.5,2.5,0,1,0,0,5h38.65a2.5,2.5,0,1,0,0-5Z"/><path class="cls-2" d="M69.51,122.86h35a2.5,2.5,0,0,0,0-5h-35a2.5,2.5,0,0,0,0,5Z"/><path class="cls-2" d="M147.07,117a.43.43,0,0,0,0,0V71.11a7.72,7.72,0,0,0-7.71-7.71h-10V54.54a2.49,2.49,0,0,0-2.5-2.5h-5.19V36.85h0v0a2.85,2.85,0,0,0,0-.41.83.83,0,0,0,0-.15,2.29,2.29,0,0,0-.08-.28l-.06-.15a2.69,2.69,0,0,0-.16-.29l-.06-.1a2.16,2.16,0,0,0-.27-.33l-.1-.09c-.06-.05-.11-.11-.18-.16l-8.86-6.68,0,0a2.39,2.39,0,0,0-.54-.3l-.12,0a2.4,2.4,0,0,0-.48-.11l-.19,0H57a2.5,2.5,0,0,0-2.5,2.5V52.66h-3.9a2.5,2.5,0,0,0-2.5,2.5V63.4H36.83a7.72,7.72,0,0,0-7.71,7.71v55.42a7.72,7.72,0,0,0,7.71,7.7H56.42l-1.87,12.15A2.52,2.52,0,0,0,57,149.26h60.81a2.48,2.48,0,0,0,1.9-.88,2.43,2.43,0,0,0,.57-2l-1.87-12.15h20.92a7.72,7.72,0,0,0,7.71-7.7V117A.43.43,0,0,1,147.07,117ZM124.36,57V63.4h-2.69V57ZM59.52,32.65h48.29v4.18a2.5,2.5,0,0,0,2.5,2.5h6.36V63.4H59.52V32.65Zm-6.4,25h1.4V63.4h-1.4Zm-19,13.45a2.71,2.71,0,0,1,2.71-2.71H139.35a2.71,2.71,0,0,1,2.71,2.71v43.37H121V106a2.5,2.5,0,0,0-2.5-2.5H56.35a2.5,2.5,0,0,0-2.5,2.5v8.48H34.12Zm78.36,38.41H62.36a2.5,2.5,0,0,0-2.47,2.12l-.54,3.53a2.54,2.54,0,0,0-.5-.36V108.5H116v9.94l-1-6.81A2.49,2.49,0,0,0,112.48,109.52Zm-78.36,17v-7H53.85v9.75h-17A2.71,2.71,0,0,1,34.12,126.53Zm25.82,17.73,4.57-29.74h45.83l4.58,29.74Zm82.12-17.73a2.7,2.7,0,0,1-2.71,2.7H121v-9.75h21.06Z"/></g></g></svg>