<svg id="Calque_4" data-name="Calque 4" xmlns="http://www.w3.org/2000/svg" viewBox="0 0 1920 1080"><defs><style>.cls-1{fill:#fff0f8;}</style></defs><title>Plan de travail 1</title><path class="cls-1" d="M348,517.73a2.36,2.36,0,0,0-2,1.06,5.1,5.1,0,0,0-.73,2.93q0,3.88,3,3.88a6,6,0,0,0,1.74-.25,14.23,14.23,0,0,0,1.69-.6v3.07a9.32,9.32,0,0,1-3.83.75,6.06,6.06,0,0,1-4.69-1.77,7.22,7.22,0,0,1-1.64-5.1,8,8,0,0,1,.8-3.66,5.51,5.51,0,0,1,2.27-2.43,6.89,6.89,0,0,1,3.49-.85,9.72,9.72,0,0,1,4.2.94l-1.12,2.86a13.3,13.3,0,0,0-1.5-.59A5.27,5.27,0,0,0,348,517.73Z"/><path class="cls-1" d="M358.84,523.5v4.88h-3.66V515h4.44q5.5,0,5.51,4a4,4,0,0,1-2.3,3.61l3.95,5.85h-4.15l-2.87-4.88Zm0-2.73h.68c1.28,0,1.92-.56,1.92-1.69,0-.92-.63-1.38-1.88-1.38h-.72Z"/><path class="cls-1" d="M376.91,528.38h-8V515h8v2.91h-4.38V520h4.06v2.91h-4.06v2.53h4.38Zm-6.14-14.51v-.26c1-1,1.55-1.67,1.81-2s.46-.56.63-.79h4v.19q-.74.58-2,1.5c-.86.61-1.51,1.05-2,1.32Z"/><path class="cls-1" d="M388.45,528.38l-.67-2.51h-4.39l-.69,2.51h-4l4.41-13.49H388l4.47,13.49ZM387,522.89l-.58-2.21c-.13-.49-.3-1.12-.49-1.9s-.33-1.33-.39-1.67c-.05.31-.16.83-.33,1.54s-.52,2.13-1.08,4.24Z"/><path class="cls-1" d="M400.75,528.38h-3.66V517.92h-3.3v-3H404v3h-3.29Z"/><path class="cls-1" d="M406.85,528.38V515h3.67v13.43Z"/><path class="cls-1" d="M427,521.65a7.17,7.17,0,0,1-1.67,5.15,7.64,7.64,0,0,1-9.79,0,8.68,8.68,0,0,1,0-10.28,7.72,7.72,0,0,1,9.81,0A7.23,7.23,0,0,1,427,521.65Zm-9.3,0c0,2.6.91,3.89,2.72,3.89a2.34,2.34,0,0,0,2.06-.94,6.83,6.83,0,0,0,0-5.92,2.3,2.3,0,0,0-2-1C418.58,517.71,417.67,519,417.67,521.65Z"/><path class="cls-1" d="M443.17,528.38h-4.8l-4.94-9.46h-.08c.12,1.49.18,2.62.18,3.41v6h-3.24V515h4.77l4.92,9.33H440c-.09-1.35-.13-2.44-.13-3.26V515h3.26Z"/><path class="cls-1" d="M464.24,521.38a6.88,6.88,0,0,1-1.87,5.18,7.15,7.15,0,0,1-5.24,1.82h-4.37V515h4.68a7.11,7.11,0,0,1,5,1.65A6.24,6.24,0,0,1,464.24,521.38Zm-3.79.13a4.27,4.27,0,0,0-.74-2.74,2.74,2.74,0,0,0-2.23-.89h-1.07v7.53h.82a3,3,0,0,0,2.44-1A4.61,4.61,0,0,0,460.45,521.51Z"/><path class="cls-1" d="M475.57,528.38h-8V515h8v2.91h-4.38V520h4.05v2.91h-4.05v2.53h4.38Z"/><path class="cls-1" d="M484.6,528.38V515h3.65v10.5h5.21v2.93Z"/><path class="cls-1" d="M509.16,521.65a7.18,7.18,0,0,1-1.68,5.15,7.62,7.62,0,0,1-9.78,0,7.18,7.18,0,0,1-1.7-5.16,7.11,7.11,0,0,1,1.69-5.12,7.7,7.7,0,0,1,9.8,0A7.23,7.23,0,0,1,509.16,521.65Zm-9.31,0c0,2.6.91,3.89,2.73,3.89a2.36,2.36,0,0,0,2.06-.94,5.15,5.15,0,0,0,.67-3,5.21,5.21,0,0,0-.68-3,2.3,2.3,0,0,0-2-1C500.77,517.71,499.85,519,499.85,521.65Z"/><path class="cls-1" d="M517.9,520.52h5.84v7.24a16.12,16.12,0,0,1-5.23.81,6.34,6.34,0,0,1-4.83-1.8,7.19,7.19,0,0,1-1.71-5.14,6.72,6.72,0,0,1,1.87-5.06,7.21,7.21,0,0,1,5.24-1.81,11.65,11.65,0,0,1,2.41.24,10,10,0,0,1,2,.6l-1.15,2.85a7.2,7.2,0,0,0-3.21-.72,3.08,3.08,0,0,0-2.48,1,5.52,5.52,0,0,0-.08,5.82,2.75,2.75,0,0,0,2.28,1,6.45,6.45,0,0,0,1.5-.16v-2.1H517.9Z"/><path class="cls-1" d="M540,521.65a7.18,7.18,0,0,1-1.68,5.15,7.62,7.62,0,0,1-9.78,0,7.18,7.18,0,0,1-1.7-5.16,7.11,7.11,0,0,1,1.69-5.12,7.7,7.7,0,0,1,9.8,0A7.23,7.23,0,0,1,540,521.65Zm-9.31,0c0,2.6.91,3.89,2.73,3.89a2.36,2.36,0,0,0,2.06-.94,5.15,5.15,0,0,0,.67-3,5.21,5.21,0,0,0-.68-3,2.3,2.3,0,0,0-2-1C531.64,517.71,530.72,519,530.72,521.65Z"/><path class="cls-1" d="M342,553.31a2.35,2.35,0,0,0-2,1.07,5.12,5.12,0,0,0-.73,2.92q0,3.88,3,3.88a6,6,0,0,0,1.74-.25,14.23,14.23,0,0,0,1.69-.6v3.07a9.32,9.32,0,0,1-3.83.75,6.06,6.06,0,0,1-4.69-1.77,7.22,7.22,0,0,1-1.63-5.1,8,8,0,0,1,.79-3.66,5.51,5.51,0,0,1,2.27-2.43,6.9,6.9,0,0,1,3.5-.85,9.71,9.71,0,0,1,4.19.94l-1.12,2.86a13.3,13.3,0,0,0-1.5-.59A5.27,5.27,0,0,0,342,553.31Z"/><path class="cls-1" d="M360.71,564H357v-5.47h-4.24V564h-3.68V550.53h3.68v5H357v-5h3.68Z"/><path class="cls-1" d="M372.8,564l-.66-2.51h-4.4l-.68,2.51h-4l4.41-13.49h4.88L376.8,564Zm-1.42-5.49-.59-2.21c-.13-.49-.3-1.12-.49-1.9s-.32-1.33-.39-1.67c-.05.31-.16.83-.32,1.54s-.53,2.13-1.09,4.24Z"/><path class="cls-1" d="M382.79,559.08V564h-3.66V550.53h4.43q5.52,0,5.52,4a4,4,0,0,1-2.3,3.61l4,5.85h-4.15l-2.87-4.88Zm0-2.73h.68q1.92,0,1.92-1.68c0-.93-.63-1.39-1.88-1.39h-.72Z"/><path class="cls-1" d="M398.8,564h-3.66V553.5h-3.3v-3h10.25v3H398.8Z"/><path class="cls-1" d="M412.93,564h-8V550.53h8v2.91h-4.38v2.12h4.05v2.91h-4.05V561h4.38Z"/><path class="cls-1" d="M427.39,556.1h5.84v7.24a16.16,16.16,0,0,1-5.23.81,6.34,6.34,0,0,1-4.83-1.8,7.19,7.19,0,0,1-1.71-5.14,6.69,6.69,0,0,1,1.87-5.06,7.21,7.21,0,0,1,5.24-1.81,11.65,11.65,0,0,1,2.41.24,10.71,10.71,0,0,1,2,.6L431.8,554a7.2,7.2,0,0,0-3.21-.72,3.07,3.07,0,0,0-2.48,1,5.52,5.52,0,0,0-.08,5.82,2.73,2.73,0,0,0,2.28,1,7.06,7.06,0,0,0,1.5-.15V558.9h-2.42Z"/><path class="cls-1" d="M440.51,559.08V564h-3.65V550.53h4.43c3.68,0,5.51,1.32,5.51,4a4,4,0,0,1-2.29,3.61l3.94,5.85h-4.14l-2.87-4.88Zm0-2.73h.69c1.28,0,1.91-.56,1.91-1.68,0-.93-.62-1.39-1.88-1.39h-.72Z"/><path class="cls-1" d="M458.85,564l-.66-2.51h-4.4l-.68,2.51h-4l4.42-13.49h4.87L462.85,564Zm-1.42-5.49-.58-2.21c-.14-.49-.3-1.12-.5-1.9S456,553,456,552.69c-.06.31-.17.83-.33,1.54s-.53,2.13-1.09,4.24Z"/><path class="cls-1" d="M475,554.8a4.46,4.46,0,0,1-1.34,3.48,5.39,5.39,0,0,1-3.79,1.23h-1V564h-3.66V550.53h4.69a5.78,5.78,0,0,1,3.85,1.11A4,4,0,0,1,475,554.8Zm-6.16,1.75h.67a1.8,1.8,0,0,0,1.3-.46,1.65,1.65,0,0,0,.49-1.27c0-.91-.51-1.36-1.52-1.36h-.94Z"/><path class="cls-1" d="M489.62,564H486v-5.47H481.7V564H478V550.53h3.67v5H486v-5h3.67Z"/><path class="cls-1" d="M493.42,564V550.53h3.67V564Z"/><path class="cls-1" d="M513.54,557.23c0,3-1,5.1-2.92,6.16l3.3,3.77h-4.55l-2.39-3h0a6.47,6.47,0,0,1-4.89-1.77,7.22,7.22,0,0,1-1.69-5.17,7.11,7.11,0,0,1,1.69-5.12,7.7,7.7,0,0,1,9.8,0A7.23,7.23,0,0,1,513.54,557.23Zm-9.3,0q0,3.9,2.73,3.9a2.34,2.34,0,0,0,2-1,6.83,6.83,0,0,0,0-5.92,2.32,2.32,0,0,0-2-1Q504.23,553.3,504.24,557.23Z"/><path class="cls-1" d="M528.36,550.53v8.09a5.41,5.41,0,0,1-1.5,4.08,6,6,0,0,1-4.34,1.45,5.94,5.94,0,0,1-4.25-1.41,5.28,5.28,0,0,1-1.49-4v-8.17h3.68v7.88a3.27,3.27,0,0,0,.53,2.07,2.32,2.32,0,0,0,3.21,0,3.4,3.4,0,0,0,.5-2.09v-7.87Z"/><path class="cls-1" d="M540.1,564h-8V550.53h8v2.91h-4.37v2.12h4v2.91h-4V561h4.37Z"/><path class="cls-1" d="M382.79,588.9a2.31,2.31,0,0,0-2,1.06,5.07,5.07,0,0,0-.73,2.92q0,3.89,3,3.88a6.05,6.05,0,0,0,1.74-.25,17,17,0,0,0,1.69-.59V599a9.55,9.55,0,0,1-3.83.74,6.12,6.12,0,0,1-4.7-1.76,7.25,7.25,0,0,1-1.63-5.1,8.06,8.06,0,0,1,.79-3.67,5.7,5.7,0,0,1,2.28-2.43,6.86,6.86,0,0,1,3.49-.85,9.55,9.55,0,0,1,4.19,1l-1.12,2.85a11.57,11.57,0,0,0-1.5-.58A5.22,5.22,0,0,0,382.79,588.9Z"/><path class="cls-1" d="M398.24,599.55l-.67-2.52h-4.39l-.69,2.52h-4l4.41-13.49h4.87l4.47,13.49Zm-1.43-5.5-.58-2.2c-.14-.49-.3-1.13-.5-1.91s-.32-1.33-.38-1.67c-.05.31-.16.83-.33,1.54s-.52,2.13-1.09,4.24Z"/><path class="cls-1" d="M408.22,594.66v4.89h-3.65V586.11H409c3.68,0,5.51,1.32,5.51,4a4,4,0,0,1-2.29,3.61l3.94,5.86H412l-2.87-4.89Zm0-2.73h.69c1.27,0,1.91-.56,1.91-1.68,0-.93-.62-1.39-1.88-1.39h-.72Z"/><path class="cls-1" d="M424.23,599.55h-3.65V589.08h-3.31v-3h10.25v3h-3.29Z"/><path class="cls-1" d="M438.36,599.55h-8V586.11h8V589H434v2.12H438v2.91H434v2.54h4.38Z"/><path class="cls-1" d="M458.88,592.54a6.9,6.9,0,0,1-1.87,5.19,7.2,7.2,0,0,1-5.24,1.82H447.4V586.11h4.68a7.08,7.08,0,0,1,5,1.66A6.2,6.2,0,0,1,458.88,592.54Zm-3.8.13a4.27,4.27,0,0,0-.73-2.74,2.75,2.75,0,0,0-2.24-.89h-1.06v7.53h.81a3,3,0,0,0,2.45-1A4.61,4.61,0,0,0,455.08,592.67Z"/><path class="cls-1" d="M470.2,599.55h-8V586.11h8V589h-4.37v2.12h4.05v2.91h-4.05v2.54h4.37Z"/><path class="cls-1" d="M486.84,586.11h4.09l-4.44,13.44h-4.3l-4.41-13.44h4.11l1.84,6.81a21.42,21.42,0,0,1,.63,3.16c0-.43.13-1,.26-1.61s.24-1.14.34-1.51Z"/><path class="cls-1" d="M493.26,599.55V586.11h3.67v13.44Z"/><path class="cls-1" d="M509.57,595.47a3.93,3.93,0,0,1-.64,2.22,4.19,4.19,0,0,1-1.84,1.5,6.82,6.82,0,0,1-2.82.54,11.19,11.19,0,0,1-2.27-.19,7.84,7.84,0,0,1-1.9-.66v-3.23a11.17,11.17,0,0,0,2.17.83,8.14,8.14,0,0,0,2.07.3,2,2,0,0,0,1.2-.28.87.87,0,0,0,.38-.72.73.73,0,0,0-.16-.48,1.64,1.64,0,0,0-.49-.42c-.22-.14-.82-.43-1.79-.87a8.37,8.37,0,0,1-2-1.15,3.63,3.63,0,0,1-1-1.29,4.29,4.29,0,0,1-.32-1.72,3.41,3.41,0,0,1,1.36-2.89,6,6,0,0,1,3.74-1,10.56,10.56,0,0,1,4.28,1l-1.12,2.81a8.07,8.07,0,0,0-3.27-.87,1.77,1.77,0,0,0-1,.25.77.77,0,0,0-.32.62.85.85,0,0,0,.41.7,15.26,15.26,0,0,0,2.23,1.14,6.1,6.1,0,0,1,2.43,1.68A3.59,3.59,0,0,1,509.57,595.47Z"/><path class="cls-1" d="M512.53,599.55V586.11h3.68v13.44Z"/><path class="cls-1" d="M526,599.55h-3.65V589.08H519v-3h10.26v3H526Z"/><path class="cls-1" d="M540.1,599.55h-8V586.11h8V589h-4.37v2.12h4v2.91h-4v2.54h4.37Z"/><path class="cls-1" d="M380.67,272.12V258.68h3.67v13.44Z"/><path class="cls-1" d="M388.14,272.12V258.68h3.65v10.51H397v2.93Z"/><path class="cls-1" d="M400,272.12V258.68h3.65v10.51h5.21v2.93Z"/><path class="cls-1" d="M423.44,258.68v8.09a5.39,5.39,0,0,1-1.5,4.08,7.19,7.19,0,0,1-8.59,0,5.32,5.32,0,0,1-1.49-4v-8.17h3.68v7.89a3.27,3.27,0,0,0,.53,2.07,2,2,0,0,0,1.59.64,1.94,1.94,0,0,0,1.62-.64,3.38,3.38,0,0,0,.5-2.09v-7.87Z"/><path class="cls-1" d="M436,268a4,4,0,0,1-.64,2.22,4.18,4.18,0,0,1-1.84,1.5,6.9,6.9,0,0,1-2.83.54,11.08,11.08,0,0,1-2.26-.19,8.3,8.3,0,0,1-1.91-.65v-3.24a10.65,10.65,0,0,0,2.18.83,8.08,8.08,0,0,0,2.07.3,2,2,0,0,0,1.19-.28.84.84,0,0,0,.38-.72.81.81,0,0,0-.15-.48,1.77,1.77,0,0,0-.49-.42c-.23-.14-.83-.43-1.8-.86a9.17,9.17,0,0,1-2-1.16,3.58,3.58,0,0,1-1-1.29,4.26,4.26,0,0,1-.32-1.72,3.45,3.45,0,0,1,1.36-2.89,6.06,6.06,0,0,1,3.74-1,10.49,10.49,0,0,1,4.29,1l-1.12,2.8a8.15,8.15,0,0,0-3.28-.87,1.73,1.73,0,0,0-1,.25.75.75,0,0,0-.33.62.91.91,0,0,0,.41.71,18.2,18.2,0,0,0,2.24,1.14,6.35,6.35,0,0,1,2.43,1.67A3.66,3.66,0,0,1,436,268Z"/><path class="cls-1" d="M444.93,272.12h-3.66V261.65H438v-3h10.25v3h-3.29Z"/><path class="cls-1" d="M454.68,267.23v4.89H451V258.68h4.43c3.67,0,5.51,1.33,5.51,4a4,4,0,0,1-2.29,3.61l3.94,5.86h-4.15l-2.86-4.89Zm0-2.73h.69c1.27,0,1.91-.56,1.91-1.68,0-.93-.62-1.39-1.88-1.39h-.72Z"/><path class="cls-1" d="M473,272.12l-.66-2.52H468l-.68,2.52h-4l4.41-13.49h4.88L477,272.12Zm-1.42-5.5-.59-2.2c-.13-.49-.3-1.13-.49-1.9s-.32-1.34-.39-1.68c-.05.32-.16.83-.32,1.55s-.53,2.13-1.09,4.23Z"/><path class="cls-1" d="M485.32,272.12h-3.65V261.65h-3.31v-3h10.25v3h-3.29Z"/><path class="cls-1" d="M491.42,272.12V258.68h3.67v13.44Z"/><path class="cls-1" d="M511.55,265.38a7.22,7.22,0,0,1-1.68,5.16,7.66,7.66,0,0,1-9.78,0,8.66,8.66,0,0,1,0-10.29,7.68,7.68,0,0,1,9.8,0A7.22,7.22,0,0,1,511.55,265.38Zm-9.31,0q0,3.9,2.73,3.9a2.37,2.37,0,0,0,2.06-.95,6.83,6.83,0,0,0,0-5.92,2.33,2.33,0,0,0-2-1C503.15,261.45,502.24,262.76,502.24,265.38Z"/><path class="cls-1" d="M527.74,272.12H523L518,262.65h-.09c.12,1.49.18,2.63.18,3.41v6.06h-3.24V258.68h4.77l4.93,9.34h.05c-.08-1.35-.13-2.44-.13-3.26v-6.08h3.26Z"/><path class="cls-1" d="M540.38,268a3.93,3.93,0,0,1-.64,2.22,4.12,4.12,0,0,1-1.84,1.5,6.82,6.82,0,0,1-2.82.54,11.19,11.19,0,0,1-2.27-.19,8.23,8.23,0,0,1-1.9-.65v-3.24a10.56,10.56,0,0,0,2.17.83,8.08,8.08,0,0,0,2.07.3,2,2,0,0,0,1.2-.28.86.86,0,0,0,.38-.72.81.81,0,0,0-.16-.48,1.64,1.64,0,0,0-.49-.42,18.26,18.26,0,0,0-1.8-.86,8.82,8.82,0,0,1-2-1.16,3.47,3.47,0,0,1-1-1.29,4.1,4.1,0,0,1-.32-1.72,3.42,3.42,0,0,1,1.36-2.89,6,6,0,0,1,3.74-1,10.45,10.45,0,0,1,4.28,1l-1.12,2.8a8.11,8.11,0,0,0-3.27-.87,1.74,1.74,0,0,0-1,.25.75.75,0,0,0-.33.62.9.9,0,0,0,.42.71,17.76,17.76,0,0,0,2.23,1.14,6.19,6.19,0,0,1,2.43,1.67A3.66,3.66,0,0,1,540.38,268Z"/><path class="cls-1" d="M333.61,297.05a2.34,2.34,0,0,0-2,1.06,5.08,5.08,0,0,0-.73,2.93c0,2.58,1,3.88,3,3.88a6.31,6.31,0,0,0,1.74-.25c.56-.17,1.13-.37,1.69-.6v3.07a9.48,9.48,0,0,1-3.83.74,6.06,6.06,0,0,1-4.69-1.76,7.25,7.25,0,0,1-1.64-5.1,8.09,8.09,0,0,1,.8-3.67,5.62,5.62,0,0,1,2.27-2.43,7,7,0,0,1,3.49-.85,9.73,9.73,0,0,1,4.2.95l-1.12,2.86a11.64,11.64,0,0,0-1.5-.59A5.27,5.27,0,0,0,333.61,297.05Z"/><path class="cls-1" d="M349.05,307.7l-.66-2.52H344l-.68,2.52h-4l4.41-13.49h4.88l4.47,13.49Zm-1.42-5.5L347,300c-.13-.49-.3-1.13-.49-1.9s-.32-1.34-.38-1.68c-.06.32-.17.83-.33,1.55s-.53,2.13-1.09,4.23Z"/><path class="cls-1" d="M359,302.81v4.89h-3.66V294.26h4.44c3.67,0,5.51,1.33,5.51,4a4,4,0,0,1-2.3,3.62l4,5.85h-4.15L360,302.81Zm0-2.73h.68q1.92,0,1.92-1.68c0-.93-.63-1.39-1.88-1.39H359Z"/><path class="cls-1" d="M375.05,307.7h-3.66V297.23h-3.3v-3h10.25v3h-3.29Z"/><path class="cls-1" d="M389.18,307.7h-8V294.26h8v2.92H384.8v2.11h4.05v2.91H384.8v2.54h4.38Z"/><path class="cls-1" d="M401.26,303.62a3.93,3.93,0,0,1-.64,2.22,4.21,4.21,0,0,1-1.84,1.51,7,7,0,0,1-2.82.53,12,12,0,0,1-2.27-.18,8.79,8.79,0,0,1-1.9-.66V303.8a10,10,0,0,0,2.17.83,8.15,8.15,0,0,0,2.08.3,2,2,0,0,0,1.19-.28.85.85,0,0,0,.38-.72.81.81,0,0,0-.15-.48,1.84,1.84,0,0,0-.5-.42,18.85,18.85,0,0,0-1.79-.86,8.7,8.7,0,0,1-2-1.16,3.47,3.47,0,0,1-1-1.29,4.26,4.26,0,0,1-.32-1.72,3.42,3.42,0,0,1,1.36-2.89,6,6,0,0,1,3.74-1,10.41,10.41,0,0,1,4.28,1l-1.12,2.8a8,8,0,0,0-3.27-.86,1.77,1.77,0,0,0-1,.24.77.77,0,0,0-.32.62.88.88,0,0,0,.41.71,16.41,16.41,0,0,0,2.23,1.14,6.19,6.19,0,0,1,2.43,1.67A3.59,3.59,0,0,1,401.26,303.62Z"/><path class="cls-1" d="M416.89,294.07l-5,13.81h-3.2l5-13.81Z"/><path class="cls-1" d="M428.66,307.7h-3.6V294.26h8v2.92h-4.39v2.56h4v2.91h-4Z"/><path class="cls-1" d="M444.44,307.7l-.66-2.52h-4.4l-.68,2.52h-4l4.42-13.49H444l4.47,13.49ZM443,302.2l-.58-2.2c-.14-.49-.3-1.13-.5-1.9s-.32-1.34-.38-1.68c-.06.32-.17.83-.33,1.55s-.53,2.13-1.09,4.23Z"/><path class="cls-1" d="M450.77,307.7V294.26h3.68V307.7Z"/><path class="cls-1" d="M461.9,302.81v4.89h-3.66V294.26h4.44c3.67,0,5.51,1.33,5.51,4a4,4,0,0,1-2.29,3.62l3.94,5.85h-4.15l-2.87-4.89Zm0-2.73h.68q1.92,0,1.92-1.68c0-.93-.63-1.39-1.88-1.39h-.72Z"/><path class="cls-1" d="M480,307.7h-8V294.26h8v2.92h-4.38v2.11h4.06v2.91h-4.06v2.54H480Z"/><path class="cls-1" d="M482.15,304.09v-2.87h5.22v2.87Z"/><path class="cls-1" d="M499.92,298.54a4.49,4.49,0,0,1-1.33,3.48,5.47,5.47,0,0,1-3.8,1.22h-1v4.46h-3.65V294.26h4.68a5.76,5.76,0,0,1,3.85,1.12A4,4,0,0,1,499.92,298.54Zm-6.16,1.74h.67a1.82,1.82,0,0,0,1.31-.46,1.64,1.64,0,0,0,.48-1.26c0-.91-.5-1.36-1.52-1.36h-.94Z"/><path class="cls-1" d="M511.25,307.7l-.67-2.52h-4.39l-.69,2.52h-4l4.41-13.49h4.88l4.47,13.49Zm-1.43-5.5-.58-2.2c-.13-.49-.3-1.13-.49-1.9s-.33-1.34-.39-1.68c-.05.32-.16.83-.33,1.55s-.52,2.13-1.08,4.23Z"/><path class="cls-1" d="M521.23,302.81v4.89h-3.65V294.26H522c3.68,0,5.52,1.33,5.52,4a4,4,0,0,1-2.3,3.62l3.94,5.85H525l-2.87-4.89Zm0-2.73h.69c1.28,0,1.91-.56,1.91-1.68,0-.93-.62-1.39-1.87-1.39h-.73Z"/><path class="cls-1" d="M537.24,307.7h-3.65V297.23h-3.3v-3h10.25v3h-3.3Z"/><path class="cls-1" d="M427.25,343.28l-2.76-9.68h-.09c.13,1.65.2,2.93.2,3.85v5.83h-3.24V329.85h4.87l2.82,9.53h.07l2.77-9.53h4.87v13.43h-3.35v-5.89c0-.31,0-.65,0-1s.05-1.29.12-2.75h-.08l-2.73,9.66Z"/><path class="cls-1" d="M448.85,343.28l-.67-2.52h-4.39l-.69,2.52h-4l4.41-13.49h4.88l4.47,13.49Zm-1.43-5.49-.58-2.21c-.13-.49-.3-1.12-.49-1.9S446,332.34,446,332c0,.31-.16.82-.33,1.54s-.52,2.13-1.08,4.24Z"/><path class="cls-1" d="M464,339.2a4,4,0,0,1-.64,2.22,4.2,4.2,0,0,1-1.84,1.51,7.07,7.07,0,0,1-2.83.53,11.94,11.94,0,0,1-2.26-.18,8.87,8.87,0,0,1-1.91-.66v-3.24a10.68,10.68,0,0,0,2.18.84,8,8,0,0,0,2.07.29,2,2,0,0,0,1.19-.28.85.85,0,0,0,.38-.72.81.81,0,0,0-.15-.48,1.77,1.77,0,0,0-.49-.42c-.23-.14-.83-.43-1.8-.86a8.93,8.93,0,0,1-2-1.16,3.58,3.58,0,0,1-1-1.29,4.24,4.24,0,0,1-.32-1.71,3.46,3.46,0,0,1,1.36-2.9,6.06,6.06,0,0,1,3.74-1,10.49,10.49,0,0,1,4.29,1l-1.12,2.8a8.11,8.11,0,0,0-3.28-.86,1.79,1.79,0,0,0-1,.24.78.78,0,0,0-.32.62.91.91,0,0,0,.41.71,15.6,15.6,0,0,0,2.24,1.14,6.35,6.35,0,0,1,2.43,1.67A3.66,3.66,0,0,1,464,339.2Z"/><path class="cls-1" d="M473,332.63a2.31,2.31,0,0,0-2,1.06,5.08,5.08,0,0,0-.73,2.93c0,2.58,1,3.88,3,3.88a6.42,6.42,0,0,0,1.74-.25c.56-.17,1.12-.37,1.69-.6v3.07a9.38,9.38,0,0,1-3.83.74,6.08,6.08,0,0,1-4.7-1.76,7.25,7.25,0,0,1-1.63-5.1,8.09,8.09,0,0,1,.79-3.67,5.7,5.7,0,0,1,2.28-2.43,7,7,0,0,1,3.49-.85,9.69,9.69,0,0,1,4.19,1l-1.12,2.86a11.64,11.64,0,0,0-1.5-.59A5.22,5.22,0,0,0,473,332.63Z"/><path class="cls-1" d="M492.81,336.54a7.2,7.2,0,0,1-1.67,5.16,7.66,7.66,0,0,1-9.78,0,8.66,8.66,0,0,1,0-10.29,7.68,7.68,0,0,1,9.8,0A7.22,7.22,0,0,1,492.81,336.54Zm-9.3,0q0,3.9,2.73,3.9a2.32,2.32,0,0,0,2.05-.95,5.12,5.12,0,0,0,.68-2.95,5.21,5.21,0,0,0-.68-3,2.35,2.35,0,0,0-2-1Q483.51,332.61,483.51,336.54Z"/><path class="cls-1" d="M502.1,343.28h-3.66V332.81h-3.3v-3h10.25v3H502.1Z"/><path class="cls-1" d="M514.16,343.28h-3.65V332.81h-3.3v-3h10.25v3h-3.3Z"/><path class="cls-1" d="M528.29,343.28h-8V329.85h8v2.91h-4.37v2.11H528v2.92h-4.05v2.53h4.37Z"/><path class="cls-1" d="M540.38,339.2a3.93,3.93,0,0,1-.64,2.22,4.14,4.14,0,0,1-1.84,1.51,7,7,0,0,1-2.82.53,12,12,0,0,1-2.27-.18,8.79,8.79,0,0,1-1.9-.66v-3.24a10.59,10.59,0,0,0,2.17.84,8,8,0,0,0,2.07.29,2,2,0,0,0,1.2-.28.85.85,0,0,0,.38-.72.81.81,0,0,0-.16-.48,1.64,1.64,0,0,0-.49-.42,18.26,18.26,0,0,0-1.8-.86,8.82,8.82,0,0,1-2-1.16,3.47,3.47,0,0,1-1-1.29,4.08,4.08,0,0,1-.32-1.71,3.43,3.43,0,0,1,1.36-2.9,6,6,0,0,1,3.74-1,10.45,10.45,0,0,1,4.28,1l-1.12,2.8a8.07,8.07,0,0,0-3.27-.86,1.75,1.75,0,0,0-1,.24.77.77,0,0,0-.33.62.9.9,0,0,0,.42.71,15.26,15.26,0,0,0,2.23,1.14,6.19,6.19,0,0,1,2.43,1.67A3.66,3.66,0,0,1,540.38,339.2Z"/><path class="cls-1" d="M1383.14,259.38h4.09l-4.44,13.44h-4.3l-4.41-13.44h4.1l1.85,6.81a21.42,21.42,0,0,1,.63,3.16c0-.43.13-1,.25-1.61s.25-1.15.35-1.51Z"/><path class="cls-1" d="M1389.56,272.82V259.38h3.67v13.44Z"/><path class="cls-1" d="M1405.87,268.74a3.87,3.87,0,0,1-.64,2.21,4.14,4.14,0,0,1-1.84,1.51,6.82,6.82,0,0,1-2.82.54,11.19,11.19,0,0,1-2.27-.19,7.84,7.84,0,0,1-1.9-.66v-3.23a11.42,11.42,0,0,0,2.17.83,8.2,8.2,0,0,0,2.07.3,2,2,0,0,0,1.2-.28.87.87,0,0,0,.38-.72.76.76,0,0,0-.15-.48,1.84,1.84,0,0,0-.5-.42,19.94,19.94,0,0,0-1.8-.87,8.48,8.48,0,0,1-2-1.15,3.63,3.63,0,0,1-1-1.29,4.29,4.29,0,0,1-.32-1.72,3.41,3.41,0,0,1,1.36-2.89,6,6,0,0,1,3.74-1,10.56,10.56,0,0,1,4.28,1l-1.12,2.81a8.07,8.07,0,0,0-3.27-.87,1.69,1.69,0,0,0-1,.25.77.77,0,0,0-.32.62.85.85,0,0,0,.41.7,15.26,15.26,0,0,0,2.23,1.14,6.1,6.1,0,0,1,2.43,1.68A3.59,3.59,0,0,1,1405.87,268.74Z"/><path class="cls-1" d="M1420.34,259.38v8.09a5.36,5.36,0,0,1-1.51,4.08,7.15,7.15,0,0,1-8.58,0,5.28,5.28,0,0,1-1.49-4v-8.17h3.67v7.89a3.18,3.18,0,0,0,.54,2.06,2,2,0,0,0,1.58.65,2,2,0,0,0,1.63-.64,3.45,3.45,0,0,0,.5-2.09v-7.87Z"/><path class="cls-1" d="M1432.08,272.82h-8V259.38h8v2.91h-4.38v2.12h4.06v2.91h-4.06v2.54h4.38Z"/><path class="cls-1" d="M1435.32,272.82V259.38H1439v10.5h5.21v2.94Z"/><path class="cls-1" d="M1456.07,268.74a4,4,0,0,1-.64,2.21,4.2,4.2,0,0,1-1.84,1.51,6.9,6.9,0,0,1-2.83.54,11.08,11.08,0,0,1-2.26-.19,7.9,7.9,0,0,1-1.91-.66v-3.23a11.26,11.26,0,0,0,2.18.83,8.08,8.08,0,0,0,2.07.3,2,2,0,0,0,1.19-.28.87.87,0,0,0,.38-.72.76.76,0,0,0-.15-.48,1.77,1.77,0,0,0-.49-.42q-.35-.21-1.8-.87a8.8,8.8,0,0,1-2-1.15,3.75,3.75,0,0,1-1-1.29,4.29,4.29,0,0,1-.32-1.72,3.44,3.44,0,0,1,1.36-2.89,6,6,0,0,1,3.74-1,10.64,10.64,0,0,1,4.29,1L1455,263a8.15,8.15,0,0,0-3.28-.87,1.71,1.71,0,0,0-1,.25.77.77,0,0,0-.32.62.88.88,0,0,0,.41.7,15.6,15.6,0,0,0,2.24,1.14,6.25,6.25,0,0,1,2.43,1.68A3.66,3.66,0,0,1,1456.07,268.74Z"/><path class="cls-1" d="M1476.31,265.81a6.94,6.94,0,0,1-1.87,5.19,7.2,7.2,0,0,1-5.24,1.82h-4.38V259.38h4.68a7,7,0,0,1,5,1.66A6.21,6.21,0,0,1,1476.31,265.81Zm-3.8.13a4.27,4.27,0,0,0-.73-2.74,2.75,2.75,0,0,0-2.24-.89h-1.06v7.53h.81a2.94,2.94,0,0,0,2.44-1A4.61,4.61,0,0,0,1472.51,265.94Z"/><path class="cls-1" d="M1487.63,272.82h-8V259.38h8v2.91h-4.38v2.12h4.06v2.91h-4.06v2.54h4.38Z"/><path class="cls-1" d="M1500.32,267.93v4.89h-3.65V259.38h4.43q5.51,0,5.51,4a4,4,0,0,1-2.29,3.61l3.94,5.86h-4.15l-2.86-4.89Zm0-2.73h.69c1.27,0,1.91-.56,1.91-1.68,0-.93-.62-1.39-1.88-1.39h-.72Z"/><path class="cls-1" d="M1518.39,272.82h-8V259.38h8v2.91H1514v2.12h4v2.91h-4v2.54h4.37Zm-6.14-14.51V258c1-1,1.55-1.66,1.81-2a8.65,8.65,0,0,0,.63-.79h4v.2c-.49.39-1.17.89-2,1.49s-1.52,1-2,1.33Z"/><path class="cls-1" d="M1530.48,268.74a3.87,3.87,0,0,1-.64,2.21,4.2,4.2,0,0,1-1.84,1.51,6.82,6.82,0,0,1-2.82.54,11.19,11.19,0,0,1-2.27-.19,7.9,7.9,0,0,1-1.91-.66v-3.23a11.51,11.51,0,0,0,2.18.83,8.08,8.08,0,0,0,2.07.3,2,2,0,0,0,1.19-.28.85.85,0,0,0,.38-.72.76.76,0,0,0-.15-.48,1.64,1.64,0,0,0-.49-.42,19.94,19.94,0,0,0-1.8-.87,8.48,8.48,0,0,1-2-1.15,3.63,3.63,0,0,1-1-1.29,4.13,4.13,0,0,1-.32-1.72,3.41,3.41,0,0,1,1.36-2.89,6,6,0,0,1,3.74-1,10.59,10.59,0,0,1,4.28,1l-1.12,2.81a8.15,8.15,0,0,0-3.28-.87,1.66,1.66,0,0,0-1,.25.75.75,0,0,0-.33.62.87.87,0,0,0,.42.7,15.26,15.26,0,0,0,2.23,1.14,6.17,6.17,0,0,1,2.43,1.68A3.66,3.66,0,0,1,1530.48,268.74Z"/><path class="cls-1" d="M1541.47,272.82h-8V259.38h8v2.91h-4.37v2.12h4.05v2.91h-4.05v2.54h4.37Z"/><path class="cls-1" d="M1553,272.82l-.66-2.52H1548l-.68,2.52h-4l4.41-13.49h4.88l4.47,13.49Zm-1.42-5.5-.59-2.2c-.13-.49-.3-1.13-.49-1.91s-.32-1.33-.39-1.67c0,.31-.16.83-.32,1.54s-.53,2.13-1.09,4.24Z"/><path class="cls-1" d="M1570.84,259.38v8.09a5.39,5.39,0,0,1-1.5,4.08,7.17,7.17,0,0,1-8.59,0,5.28,5.28,0,0,1-1.48-4v-8.17h3.67v7.89a3.18,3.18,0,0,0,.54,2.06,2.31,2.31,0,0,0,3.2,0,3.38,3.38,0,0,0,.51-2.09v-7.87Z"/><path class="cls-1" d="M1586.74,272.82h-4.23l-2.63-4.2-2.61,4.2h-4.14l4.49-6.88-4.22-6.56h4l2.44,4.15,2.35-4.15h4.18l-4.29,6.85Z"/><path class="cls-1" d="M1603.77,268.74a3.87,3.87,0,0,1-.64,2.21,4.2,4.2,0,0,1-1.84,1.51,6.82,6.82,0,0,1-2.82.54,11.19,11.19,0,0,1-2.27-.19,7.84,7.84,0,0,1-1.9-.66v-3.23a11.17,11.17,0,0,0,2.17.83,8.08,8.08,0,0,0,2.07.3,2,2,0,0,0,1.19-.28.86.86,0,0,0,.39-.72.77.77,0,0,0-.16-.48,1.64,1.64,0,0,0-.49-.42,19.94,19.94,0,0,0-1.8-.87,8.48,8.48,0,0,1-2-1.15,3.63,3.63,0,0,1-1-1.29,4.13,4.13,0,0,1-.32-1.72,3.41,3.41,0,0,1,1.36-2.89,6,6,0,0,1,3.74-1,10.59,10.59,0,0,1,4.28,1l-1.12,2.81a8.11,8.11,0,0,0-3.28-.87,1.66,1.66,0,0,0-1,.25.75.75,0,0,0-.33.62.87.87,0,0,0,.42.7,15.26,15.26,0,0,0,2.23,1.14,6.1,6.1,0,0,1,2.43,1.68A3.66,3.66,0,0,1,1603.77,268.74Z"/><path class="cls-1" d="M1619.39,266.08a7.26,7.26,0,0,1-1.67,5.16,7.67,7.67,0,0,1-9.79,0,8.66,8.66,0,0,1,0-10.29,7.7,7.7,0,0,1,9.81,0A7.25,7.25,0,0,1,1619.39,266.08Zm-9.31,0q0,3.9,2.73,3.9a2.36,2.36,0,0,0,2.06-1,5.12,5.12,0,0,0,.67-2.95,5.21,5.21,0,0,0-.68-3,2.32,2.32,0,0,0-2-1Q1610.09,262.15,1610.08,266.08Z"/><path class="cls-1" d="M1628.73,262.17a2.34,2.34,0,0,0-2,1.06,5,5,0,0,0-.73,2.92q0,3.89,3,3.88a6,6,0,0,0,1.74-.25,16.17,16.17,0,0,0,1.69-.59v3.07a9.51,9.51,0,0,1-3.83.74,6.09,6.09,0,0,1-4.69-1.76,7.25,7.25,0,0,1-1.64-5.1,8.06,8.06,0,0,1,.8-3.67,5.62,5.62,0,0,1,2.27-2.43,6.89,6.89,0,0,1,3.49-.85,9.59,9.59,0,0,1,4.2.95l-1.12,2.85a13.3,13.3,0,0,0-1.5-.59A5.59,5.59,0,0,0,1628.73,262.17Z"/><path class="cls-1" d="M1635.87,272.82V259.38h3.68v13.44Z"/><path class="cls-1" d="M1651.64,272.82l-.67-2.52h-4.39l-.68,2.52h-4l4.41-13.49h4.88l4.47,13.49Zm-1.42-5.5-.59-2.2c-.13-.49-.3-1.13-.49-1.91s-.32-1.33-.39-1.67c0,.31-.16.83-.32,1.54s-.53,2.13-1.09,4.24Z"/><path class="cls-1" d="M1669.47,259.38v8.09a5.39,5.39,0,0,1-1.5,4.08,6,6,0,0,1-4.34,1.45,5.94,5.94,0,0,1-4.25-1.41,5.28,5.28,0,0,1-1.48-4v-8.17h3.67v7.89a3.18,3.18,0,0,0,.54,2.06,1.92,1.92,0,0,0,1.58.65,2,2,0,0,0,1.62-.64,3.38,3.38,0,0,0,.51-2.09v-7.87Z"/><path class="cls-1" d="M1685.37,272.82h-4.23l-2.64-4.2-2.61,4.2h-4.13l4.49-6.88-4.22-6.56h4l2.44,4.15,2.35-4.15h4.18l-4.29,6.85Z"/><path class="cls-1" d="M1381.43,308.4l-2.76-9.68h-.09c.13,1.65.2,2.93.2,3.84v5.84h-3.24V295h4.87l2.82,9.54h.07l2.77-9.54h4.87V308.4h-3.35v-5.89c0-.31,0-.65,0-1s.05-1.29.12-2.75h-.08l-2.73,9.66Z"/><path class="cls-1" d="M1403,308.4l-.67-2.52H1398l-.69,2.52h-4l4.41-13.49h4.88L1407,308.4Zm-1.42-5.5-.59-2.2c-.13-.49-.3-1.13-.49-1.91s-.33-1.33-.39-1.67c-.05.31-.16.83-.33,1.55s-.52,2.12-1.08,4.23Z"/><path class="cls-1" d="M1422,301.66q0,4.57-2.93,6.16l3.31,3.77h-4.55l-2.39-3h0a6.45,6.45,0,0,1-4.88-1.77,7.21,7.21,0,0,1-1.7-5.17,7.12,7.12,0,0,1,1.69-5.12,7.68,7.68,0,0,1,9.8,0A7.2,7.2,0,0,1,1422,301.66Zm-9.31,0q0,3.9,2.73,3.9a2.36,2.36,0,0,0,2.06-.95,5.12,5.12,0,0,0,.67-2.95,5.21,5.21,0,0,0-.68-3,2.32,2.32,0,0,0-2-1Q1412.72,297.73,1412.71,301.66Z"/><path class="cls-1" d="M1436.83,295v8.09a5.39,5.39,0,0,1-1.5,4.08,7.17,7.17,0,0,1-8.59,0,5.28,5.28,0,0,1-1.48-4V295h3.67v7.89a3.16,3.16,0,0,0,.54,2.06,2.31,2.31,0,0,0,3.2,0,3.38,3.38,0,0,0,.51-2.09V295Z"/><path class="cls-1" d="M1448.58,308.4h-8V295h8v2.92h-4.38V300h4v2.91h-4v2.54h4.38Z"/><path class="cls-1" d="M1457.78,308.4h-3.65V297.93h-3.3v-3h10.25v3h-3.3Z"/><path class="cls-1" d="M1469.85,308.4h-3.65V297.93h-3.31v-3h10.26v3h-3.3Z"/><path class="cls-1" d="M1484,308.4h-8V295h8v2.92h-4.37V300h4.05v2.91h-4.05v2.54H1484Z"/><path class="cls-1" d="M1496.07,304.32a3.93,3.93,0,0,1-.64,2.22,4.18,4.18,0,0,1-1.84,1.5,6.82,6.82,0,0,1-2.82.54,11.19,11.19,0,0,1-2.27-.19,8.3,8.3,0,0,1-1.91-.65V304.5a10.87,10.87,0,0,0,2.18.83,8.08,8.08,0,0,0,2.07.3,2,2,0,0,0,1.19-.28.85.85,0,0,0,.38-.72.81.81,0,0,0-.15-.48,1.64,1.64,0,0,0-.49-.42,18.26,18.26,0,0,0-1.8-.86,8.82,8.82,0,0,1-2-1.16,3.63,3.63,0,0,1-1-1.29,4.13,4.13,0,0,1-.32-1.72,3.42,3.42,0,0,1,1.36-2.89,6,6,0,0,1,3.73-1,10.64,10.64,0,0,1,4.29,1l-1.12,2.81a8.15,8.15,0,0,0-3.28-.87,1.73,1.73,0,0,0-1,.25.75.75,0,0,0-.33.62.88.88,0,0,0,.41.7,15.6,15.6,0,0,0,2.24,1.14,6.17,6.17,0,0,1,2.43,1.68A3.66,3.66,0,0,1,1496.07,304.32Z"/><path class="cls-1" d="M1516.31,301.4a6.9,6.9,0,0,1-1.87,5.18,7.2,7.2,0,0,1-5.24,1.82h-4.38V295h4.69a7,7,0,0,1,5,1.66A6.18,6.18,0,0,1,1516.31,301.4Zm-3.8.12a4.22,4.22,0,0,0-.73-2.73,2.73,2.73,0,0,0-2.24-.9h-1.06v7.53h.81a3,3,0,0,0,2.45-1A4.68,4.68,0,0,0,1512.51,301.52Z"/><path class="cls-1" d="M1527.63,308.4h-8V295h8v2.92h-4.37V300h4v2.91h-4v2.54h4.37Z"/><path class="cls-1" d="M1545.51,304.32a4,4,0,0,1-.63,2.22A4.15,4.15,0,0,1,1543,308a6.82,6.82,0,0,1-2.82.54,11.08,11.08,0,0,1-2.26-.19,8.3,8.3,0,0,1-1.91-.65V304.5a10.79,10.79,0,0,0,2.17.83,8.21,8.21,0,0,0,2.08.3,2,2,0,0,0,1.19-.28.87.87,0,0,0,.38-.72.81.81,0,0,0-.15-.48,1.77,1.77,0,0,0-.49-.42c-.23-.14-.83-.43-1.8-.86a8.7,8.7,0,0,1-2-1.16,3.63,3.63,0,0,1-1-1.29,4.29,4.29,0,0,1-.32-1.72,3.45,3.45,0,0,1,1.36-2.89,6.06,6.06,0,0,1,3.74-1,10.56,10.56,0,0,1,4.28,1l-1.12,2.81a8.07,8.07,0,0,0-3.27-.87,1.77,1.77,0,0,0-1,.25.77.77,0,0,0-.32.62.88.88,0,0,0,.41.7,15,15,0,0,0,2.24,1.14,6.12,6.12,0,0,1,2.42,1.68A3.59,3.59,0,0,1,1545.51,304.32Z"/><path class="cls-1" d="M1548.48,308.4V295h3.67V308.4Z"/><path class="cls-1" d="M1561.91,308.4h-3.65V297.93H1555v-3h10.26v3h-3.3Z"/><path class="cls-1" d="M1576,308.4h-8V295h8v2.92h-4.37V300h4v2.91h-4v2.54H1576Z"/><path class="cls-1" d="M1588.13,304.32a3.93,3.93,0,0,1-.64,2.22,4.18,4.18,0,0,1-1.84,1.5,6.82,6.82,0,0,1-2.82.54,11.19,11.19,0,0,1-2.27-.19,8.23,8.23,0,0,1-1.9-.65V304.5a10.56,10.56,0,0,0,2.17.83,8.08,8.08,0,0,0,2.07.3,2,2,0,0,0,1.19-.28.86.86,0,0,0,.39-.72.81.81,0,0,0-.16-.48,1.64,1.64,0,0,0-.49-.42,18.26,18.26,0,0,0-1.8-.86,8.82,8.82,0,0,1-2-1.16,3.63,3.63,0,0,1-1-1.29,4.13,4.13,0,0,1-.32-1.72,3.42,3.42,0,0,1,1.36-2.89,6,6,0,0,1,3.74-1,10.59,10.59,0,0,1,4.28,1l-1.12,2.81a8.11,8.11,0,0,0-3.28-.87,1.73,1.73,0,0,0-1,.25.75.75,0,0,0-.33.62.87.87,0,0,0,.42.7,15.26,15.26,0,0,0,2.23,1.14,6.1,6.1,0,0,1,2.43,1.68A3.66,3.66,0,0,1,1588.13,304.32Z"/><path class="cls-1" d="M1388.42,344h-4.79l-5-9.47h-.08c.12,1.49.18,2.63.18,3.41V344h-3.24V330.54h4.77l4.93,9.34h0c-.08-1.35-.13-2.44-.13-3.26v-6.08h3.26Z"/><path class="cls-1" d="M1400.24,344h-8V330.54h8v2.92h-4.37v2.11h4.05v2.91h-4.05V341h4.37Z"/><path class="cls-1" d="M1418.09,344h-4.32l-1.29-5.86c-.06-.24-.16-.73-.29-1.46s-.23-1.33-.29-1.82c-.05.39-.13.89-.25,1.48s-.22,1.13-.32,1.63l-1.35,6h-4.32l-3.35-13.44h3.53l1.47,6.74c.33,1.49.56,2.67.68,3.56.08-.63.22-1.48.43-2.55s.4-2,.58-2.66l1.19-5.09h3.39l1.16,5.09q.29,1.22.6,2.82c.2,1.06.34,1.86.4,2.39q.12-1,.66-3.54l1.5-6.76h3.53Z"/><path class="cls-1" d="M1432.89,339.9a3.93,3.93,0,0,1-.64,2.22,4.12,4.12,0,0,1-1.84,1.5,6.82,6.82,0,0,1-2.82.54,11.19,11.19,0,0,1-2.27-.19,8.23,8.23,0,0,1-1.9-.65v-3.24a10.56,10.56,0,0,0,2.17.83,8.08,8.08,0,0,0,2.07.3,2,2,0,0,0,1.2-.28.85.85,0,0,0,.38-.72.75.75,0,0,0-.16-.48,1.64,1.64,0,0,0-.49-.42,18.26,18.26,0,0,0-1.8-.86,8.82,8.82,0,0,1-2-1.16,3.47,3.47,0,0,1-1-1.29,4.26,4.26,0,0,1-.32-1.72,3.42,3.42,0,0,1,1.36-2.89,6,6,0,0,1,3.74-1,10.41,10.41,0,0,1,4.28,1l-1.12,2.8a8.07,8.07,0,0,0-3.27-.87,1.77,1.77,0,0,0-1,.25.74.74,0,0,0-.32.62.88.88,0,0,0,.41.71,17.76,17.76,0,0,0,2.23,1.14,6.19,6.19,0,0,1,2.43,1.67A3.66,3.66,0,0,1,1432.89,339.9Z"/><path class="cls-1" d="M1435.85,344V330.54h3.66v10.51h5.21V344Z"/><path class="cls-1" d="M1455.79,344h-8V330.54h8v2.92h-4.38v2.11h4v2.91h-4V341h4.38Z"/><path class="cls-1" d="M1465,344h-3.65V333.51H1458v-3h10.25v3H1465Z"/><path class="cls-1" d="M1477.06,344h-3.65V333.51h-3.31v-3h10.26v3h-3.3Z"/><path class="cls-1" d="M1491.19,344h-8V330.54h8v2.92h-4.37v2.11h4v2.91h-4V341h4.37Z"/><path class="cls-1" d="M1498.09,339.09V344h-3.66V330.54h4.43c3.68,0,5.52,1.33,5.52,4a4,4,0,0,1-2.3,3.61l4,5.86h-4.15l-2.87-4.89Zm0-2.73h.68q1.92,0,1.92-1.68c0-.93-.63-1.39-1.88-1.39h-.72Z"/><path class="cls-1" d="M1517,339.9a3.93,3.93,0,0,1-.64,2.22,4.07,4.07,0,0,1-1.84,1.5,6.82,6.82,0,0,1-2.82.54,11.08,11.08,0,0,1-2.26-.19,8.15,8.15,0,0,1-1.91-.65v-3.24a10.79,10.79,0,0,0,2.17.83,8.21,8.21,0,0,0,2.08.3,2,2,0,0,0,1.19-.28.85.85,0,0,0,.38-.72.81.81,0,0,0-.15-.48,1.93,1.93,0,0,0-.49-.42c-.23-.14-.83-.43-1.8-.86a8.7,8.7,0,0,1-2-1.16,3.47,3.47,0,0,1-1-1.29,4.26,4.26,0,0,1-.32-1.72,3.42,3.42,0,0,1,1.36-2.89,6,6,0,0,1,3.74-1,10.41,10.41,0,0,1,4.28,1l-1.12,2.8a8.07,8.07,0,0,0-3.27-.87,1.77,1.77,0,0,0-1,.25.77.77,0,0,0-.32.62.91.91,0,0,0,.41.71,17.76,17.76,0,0,0,2.23,1.14,6.19,6.19,0,0,1,2.43,1.67A3.59,3.59,0,0,1,1517,339.9Z"/><path class="cls-1" d="M1532.61,330.35l-5,13.81h-3.2l5-13.81Z"/><path class="cls-1" d="M1540.77,330.54h4.72a8,8,0,0,1,4.09.82,2.75,2.75,0,0,1,1.34,2.53,3.24,3.24,0,0,1-.58,1.93,2.65,2.65,0,0,1-1.54,1v.09a3.14,3.14,0,0,1,1.82,1.1,3.3,3.3,0,0,1,.57,2,3.43,3.43,0,0,1-1.39,2.88A6.07,6.07,0,0,1,1546,344h-5.26Zm3.65,5.16h1.1a2,2,0,0,0,1.22-.32,1.13,1.13,0,0,0,.43-1c0-.75-.57-1.13-1.72-1.13h-1Zm0,2.65v2.83h1.29q1.71,0,1.71-1.44a1.23,1.23,0,0,0-.46-1,2.08,2.08,0,0,0-1.32-.36Z"/><path class="cls-1" d="M1562.71,344l-.67-2.52h-4.39L1557,344h-4l4.41-13.49h4.88l4.47,13.49Zm-1.43-5.5-.58-2.2c-.14-.49-.3-1.13-.49-1.9s-.33-1.34-.39-1.68c0,.32-.16.83-.33,1.55s-.52,2.13-1.08,4.23Z"/><path class="cls-1" d="M1581.92,344h-4.79l-5-9.47h-.08c.12,1.49.18,2.63.18,3.41V344H1569V330.54h4.77l4.93,9.34h0c-.08-1.35-.13-2.44-.13-3.26v-6.08h3.26Z"/><path class="cls-1" d="M1598.59,344h-4.79l-4.94-9.47h-.08c.11,1.49.17,2.63.17,3.41V344h-3.24V330.54h4.78l4.92,9.34h.06c-.09-1.35-.13-2.44-.13-3.26v-6.08h3.25Z"/><path class="cls-1" d="M1602.39,344V330.54h3.67V344Z"/><path class="cls-1" d="M1613.82,329.47c-.43-.27-1.06-.69-1.89-1.27s-1.53-1.1-2.11-1.55v-.2h4c.32.43,1,1.15,1.88,2.15l.54.6v.27Zm4.07,14.51h-8V330.54h8v2.92h-4.38v2.11h4v2.91h-4V341h4.38Z"/><path class="cls-1" d="M1624.78,339.09V344h-3.65V330.54h4.43c3.68,0,5.52,1.33,5.52,4a4,4,0,0,1-2.3,3.61l3.94,5.86h-4.14l-2.87-4.89Zm0-2.73h.69c1.28,0,1.91-.56,1.91-1.68,0-.93-.62-1.39-1.87-1.39h-.73Z"/><path class="cls-1" d="M1642.86,344h-8V330.54h8v2.92h-4.38v2.11h4v2.91h-4V341h4.38Z"/><path class="cls-1" d="M1654.94,339.9a3.93,3.93,0,0,1-.64,2.22,4.12,4.12,0,0,1-1.84,1.5,6.82,6.82,0,0,1-2.82.54,11.19,11.19,0,0,1-2.27-.19,8.23,8.23,0,0,1-1.9-.65v-3.24a10.56,10.56,0,0,0,2.17.83,8.08,8.08,0,0,0,2.07.3,2,2,0,0,0,1.2-.28.85.85,0,0,0,.38-.72.75.75,0,0,0-.16-.48,1.64,1.64,0,0,0-.49-.42,18.26,18.26,0,0,0-1.8-.86,8.82,8.82,0,0,1-2-1.16,3.47,3.47,0,0,1-1-1.29,4.26,4.26,0,0,1-.32-1.72,3.42,3.42,0,0,1,1.36-2.89,6,6,0,0,1,3.74-1,10.41,10.41,0,0,1,4.28,1l-1.12,2.8a8.07,8.07,0,0,0-3.27-.87,1.77,1.77,0,0,0-1,.25.74.74,0,0,0-.32.62.88.88,0,0,0,.41.71,17.76,17.76,0,0,0,2.23,1.14,6.19,6.19,0,0,1,2.43,1.67A3.66,3.66,0,0,1,1654.94,339.9Z"/><path class="cls-1" d="M1383.84,527.69l-.67-2.52h-4.39l-.69,2.52h-4l4.41-13.49h4.88l4.47,13.49Zm-1.43-5.5-.58-2.21c-.13-.48-.3-1.12-.49-1.9s-.33-1.33-.39-1.67c0,.31-.16.83-.33,1.54s-.52,2.13-1.08,4.24Z"/><path class="cls-1" d="M1393.77,527.69h-3.6V514.25h8v2.91h-4.39v2.57h4v2.91h-4Z"/><path class="cls-1" d="M1404.86,527.69h-3.6V514.25h8v2.91h-4.39v2.57h4.05v2.91h-4.05Z"/><path class="cls-1" d="M1412.34,527.69V514.25H1416v13.44Z"/><path class="cls-1" d="M1425.83,517a2.32,2.32,0,0,0-2,1.06,5,5,0,0,0-.73,2.92q0,3.88,3,3.88a6,6,0,0,0,1.74-.25,17,17,0,0,0,1.69-.59v3.07a9.55,9.55,0,0,1-3.83.74,6.09,6.09,0,0,1-4.7-1.77,7.26,7.26,0,0,1-1.63-5.1,8,8,0,0,1,.79-3.66,5.64,5.64,0,0,1,2.28-2.43,6.86,6.86,0,0,1,3.49-.85,9.68,9.68,0,0,1,4.19.94l-1.12,2.86a13.3,13.3,0,0,0-1.5-.59A5.22,5.22,0,0,0,1425.83,517Z"/><path class="cls-1" d="M1444.57,527.69h-3.67v-5.48h-4.25v5.48H1433V514.25h3.67v5h4.25v-5h3.67Z"/><path class="cls-1" d="M1456.4,527.69h-8V514.25h8v2.91H1452v2.12h4v2.91h-4v2.54h4.38Z"/><path class="cls-1" d="M1468.48,523.61a3.94,3.94,0,0,1-.63,2.21,4.17,4.17,0,0,1-1.85,1.51,6.82,6.82,0,0,1-2.82.54,11.08,11.08,0,0,1-2.26-.19A7.76,7.76,0,0,1,1459,527v-3.23a11.42,11.42,0,0,0,2.17.83,8.21,8.21,0,0,0,2.08.3,2,2,0,0,0,1.19-.28.87.87,0,0,0,.38-.72.76.76,0,0,0-.15-.48,1.77,1.77,0,0,0-.49-.42q-.35-.21-1.8-.87a8.37,8.37,0,0,1-2-1.15,3.63,3.63,0,0,1-1-1.29,4.29,4.29,0,0,1-.32-1.72,3.44,3.44,0,0,1,1.36-2.89,6,6,0,0,1,3.74-1,10.56,10.56,0,0,1,4.28,1l-1.12,2.81a8.07,8.07,0,0,0-3.27-.87,1.69,1.69,0,0,0-1,.25.77.77,0,0,0-.32.62.89.89,0,0,0,.41.7,15.6,15.6,0,0,0,2.24,1.14,6.12,6.12,0,0,1,2.42,1.68A3.59,3.59,0,0,1,1468.48,523.61Z"/><path class="cls-1" d="M1484.12,514.06l-5,13.81h-3.2l5-13.81Z"/><path class="cls-1" d="M1502.1,518.52a4.5,4.5,0,0,1-1.34,3.48,5.41,5.41,0,0,1-3.8,1.23h-1v4.46h-3.65V514.25H1497a5.76,5.76,0,0,1,3.85,1.11A4,4,0,0,1,1502.1,518.52Zm-6.17,1.75h.67a1.81,1.81,0,0,0,1.31-.46,1.69,1.69,0,0,0,.49-1.27c0-.9-.51-1.36-1.52-1.36h-1Z"/><path class="cls-1" d="M1513.42,527.69l-.66-2.52h-4.4l-.68,2.52h-4l4.42-13.49H1513l4.47,13.49Zm-1.42-5.5-.58-2.21c-.14-.48-.3-1.12-.5-1.9s-.32-1.33-.38-1.67c-.06.31-.17.83-.33,1.54s-.53,2.13-1.09,4.24Z"/><path class="cls-1" d="M1525.78,517a2.34,2.34,0,0,0-2,1.06A5,5,0,0,0,1523,521q0,3.88,3,3.88a6,6,0,0,0,1.74-.25,16.17,16.17,0,0,0,1.69-.59v3.07a9.48,9.48,0,0,1-3.83.74,6.06,6.06,0,0,1-4.69-1.77,7.22,7.22,0,0,1-1.64-5.1,8,8,0,0,1,.8-3.66,5.56,5.56,0,0,1,2.27-2.43,6.9,6.9,0,0,1,3.5-.85,9.71,9.71,0,0,1,4.19.94l-1.12,2.86a13.3,13.3,0,0,0-1.5-.59A5.27,5.27,0,0,0,1525.78,517Z"/><path class="cls-1" d="M1544.48,527.69h-4.13l-2.67-5.14-1.08.64v4.5h-3.68V514.25h3.68v5.84a13.08,13.08,0,0,1,1.12-1.72l2.84-4.12h4l-4.26,6Z"/><path class="cls-1" d="M1555.11,527.69l-.66-2.52h-4.4l-.68,2.52h-4l4.41-13.49h4.88l4.47,13.49Zm-1.42-5.5-.59-2.21c-.13-.48-.3-1.12-.49-1.9s-.32-1.33-.38-1.67c-.06.31-.17.83-.33,1.54s-.53,2.13-1.09,4.24Z"/><path class="cls-1" d="M1566.88,519.82h5.83v7.24a16.1,16.1,0,0,1-5.22.81,6.35,6.35,0,0,1-4.84-1.8,7.17,7.17,0,0,1-1.71-5.14,6.74,6.74,0,0,1,1.87-5.06,7.21,7.21,0,0,1,5.24-1.81,11.65,11.65,0,0,1,2.41.24,10.83,10.83,0,0,1,2,.6l-1.16,2.85a7.19,7.19,0,0,0-3.21-.71,3.07,3.07,0,0,0-2.48,1,4.46,4.46,0,0,0-.87,2.95,4.51,4.51,0,0,0,.79,2.88,2.78,2.78,0,0,0,2.28,1,7.06,7.06,0,0,0,1.5-.15v-2.11h-2.41Z"/><path class="cls-1" d="M1576.34,527.69V514.25H1580v13.44Z"/><path class="cls-1" d="M1596.69,527.69h-4.79l-4.94-9.47h-.09c.12,1.49.18,2.63.18,3.41v6.06h-3.24V514.25h4.77l4.93,9.34h0c-.08-1.36-.13-2.44-.13-3.26v-6.08h3.26Z"/><path class="cls-1" d="M1605.92,519.82h5.83v7.24a16.06,16.06,0,0,1-5.22.81,6.35,6.35,0,0,1-4.84-1.8,7.17,7.17,0,0,1-1.7-5.14,6.73,6.73,0,0,1,1.86-5.06,7.22,7.22,0,0,1,5.24-1.81,11.59,11.59,0,0,1,2.41.24,10.59,10.59,0,0,1,2,.6l-1.16,2.85a7.13,7.13,0,0,0-3.21-.71,3.07,3.07,0,0,0-2.48,1,4.46,4.46,0,0,0-.87,2.95,4.51,4.51,0,0,0,.79,2.88,2.78,2.78,0,0,0,2.28,1,6.93,6.93,0,0,0,1.5-.15v-2.11h-2.41Z"/><path class="cls-1" d="M1379.14,563.27h-3.6V549.83h8v2.92h-4.39v2.56h4v2.91h-4Z"/><path class="cls-1" d="M1386.63,563.27V549.83h3.65v10.51h5.21v2.93Z"/><path class="cls-1" d="M1403.36,554.81l2.33-5h4L1405.2,558v5.25h-3.69v-5.14l-4.45-8.3h4Z"/><path class="cls-1" d="M1420,563.27h-8V549.83h8v2.92h-4.37v2.11h4v2.91h-4v2.54H1420Z"/><path class="cls-1" d="M1426.91,558.38v4.89h-3.66V549.83h4.43c3.68,0,5.52,1.33,5.52,4a4,4,0,0,1-2.3,3.61l3.95,5.86h-4.15l-2.87-4.89Zm0-2.73h.68q1.92,0,1.92-1.68c0-.93-.63-1.39-1.88-1.39h-.72Z"/><path class="cls-1" d="M1445.79,559.19a4,4,0,0,1-.63,2.22,4.22,4.22,0,0,1-1.85,1.5,6.82,6.82,0,0,1-2.82.54,11.25,11.25,0,0,1-2.27-.19,7.84,7.84,0,0,1-1.9-.66v-3.23a10.79,10.79,0,0,0,2.17.83,8.21,8.21,0,0,0,2.08.3,2,2,0,0,0,1.19-.28.87.87,0,0,0,.38-.72.78.78,0,0,0-.15-.48,1.93,1.93,0,0,0-.49-.42q-.35-.21-1.8-.87a8.37,8.37,0,0,1-2-1.15,3.63,3.63,0,0,1-1-1.29,4.29,4.29,0,0,1-.32-1.72,3.44,3.44,0,0,1,1.36-2.89,6,6,0,0,1,3.74-1,10.56,10.56,0,0,1,4.28,1l-1.12,2.81a8.07,8.07,0,0,0-3.27-.87,1.77,1.77,0,0,0-1,.25.77.77,0,0,0-.32.62.88.88,0,0,0,.41.7,15.26,15.26,0,0,0,2.23,1.14,6.1,6.1,0,0,1,2.43,1.68A3.59,3.59,0,0,1,1445.79,559.19Z"/><path class="cls-1" d="M1461.42,549.64l-5,13.81h-3.2l5-13.81Z"/><path class="cls-1" d="M1479.41,554.1a4.47,4.47,0,0,1-1.34,3.48,5.41,5.41,0,0,1-3.8,1.23h-1v4.46h-3.65V549.83h4.68a5.76,5.76,0,0,1,3.85,1.11A4,4,0,0,1,1479.41,554.1Zm-6.17,1.75h.67a1.81,1.81,0,0,0,1.31-.46,1.67,1.67,0,0,0,.49-1.27c0-.9-.51-1.36-1.52-1.36h-1Z"/><path class="cls-1" d="M1482.43,563.27V549.83h3.66v10.51h5.21v2.93Z"/><path class="cls-1" d="M1502.63,563.27l-.66-2.52h-4.4l-.68,2.52h-4l4.42-13.49h4.87l4.47,13.49Zm-1.42-5.5-.58-2.2c-.14-.49-.3-1.13-.5-1.91s-.32-1.33-.38-1.67c-.06.31-.17.83-.33,1.55s-.53,2.12-1.09,4.23Z"/><path class="cls-1" d="M1521.62,556.53q0,4.58-2.92,6.16l3.3,3.77h-4.55l-2.39-3h0a6.45,6.45,0,0,1-4.88-1.77,8.66,8.66,0,0,1,0-10.29,7.7,7.7,0,0,1,9.81,0A7.2,7.2,0,0,1,1521.62,556.53Zm-9.31,0q0,3.9,2.73,3.9a2.35,2.35,0,0,0,2.06-.95,6.83,6.83,0,0,0,0-5.92,2.32,2.32,0,0,0-2-1Q1512.32,552.6,1512.31,556.53Z"/><path class="cls-1" d="M1536.44,549.83v8.09a5.36,5.36,0,0,1-1.51,4.08,7.15,7.15,0,0,1-8.58,0,5.28,5.28,0,0,1-1.49-4v-8.17h3.68v7.89a3.18,3.18,0,0,0,.53,2.06,2,2,0,0,0,1.58.65,2,2,0,0,0,1.63-.64,3.45,3.45,0,0,0,.5-2.09v-7.87Z"/><path class="cls-1" d="M1548.18,563.27h-8V549.83h8v2.92h-4.38v2.11h4.06v2.91h-4.06v2.54h4.38Z"/><path class="cls-1" d="M1557.39,563.27h-3.66V552.8h-3.3v-3h10.25v3h-3.29Z"/><path class="cls-1" d="M1569.46,563.27h-3.66V552.8h-3.3v-3h10.25v3h-3.29Z"/><path class="cls-1" d="M1583.59,563.27h-8V549.83h8v2.92h-4.38v2.11h4v2.91h-4v2.54h4.38Z"/><path class="cls-1" d="M1595.67,559.19a3.93,3.93,0,0,1-.64,2.22,4.19,4.19,0,0,1-1.84,1.5,6.82,6.82,0,0,1-2.82.54,11.19,11.19,0,0,1-2.27-.19,7.84,7.84,0,0,1-1.9-.66v-3.23a10.56,10.56,0,0,0,2.17.83,8.08,8.08,0,0,0,2.07.3,2,2,0,0,0,1.2-.28.87.87,0,0,0,.38-.72.73.73,0,0,0-.16-.48,1.64,1.64,0,0,0-.49-.42,19.94,19.94,0,0,0-1.8-.87,8.48,8.48,0,0,1-2-1.15,3.63,3.63,0,0,1-1-1.29,4.29,4.29,0,0,1-.32-1.72,3.41,3.41,0,0,1,1.36-2.89,6,6,0,0,1,3.74-1,10.56,10.56,0,0,1,4.28,1l-1.12,2.81a8.07,8.07,0,0,0-3.27-.87,1.77,1.77,0,0,0-1,.25.74.74,0,0,0-.32.62.85.85,0,0,0,.41.7,15.26,15.26,0,0,0,2.23,1.14,6.1,6.1,0,0,1,2.43,1.68A3.59,3.59,0,0,1,1595.67,559.19Z"/><path class="cls-1" d="M1375.54,598.85V585.41h3.65v10.51h5.21v2.93Z"/><path class="cls-1" d="M1387.44,598.85V585.41h3.67v13.44Z"/><path class="cls-1" d="M1402.5,585.41h4.09l-4.43,13.44h-4.3l-4.41-13.44h4.1l1.85,6.81a20,20,0,0,1,.62,3.16c0-.42.13-1,.26-1.6s.25-1.15.35-1.52Z"/><path class="cls-1" d="M1412.58,594v4.89h-3.65V585.41h4.43c3.68,0,5.51,1.33,5.51,4a4,4,0,0,1-2.29,3.61l3.94,5.86h-4.14l-2.87-4.89Zm0-2.73h.69c1.27,0,1.91-.56,1.91-1.68,0-.93-.62-1.39-1.88-1.39h-.72Z"/><path class="cls-1" d="M1430.65,598.85h-8V585.41h8v2.92h-4.37v2.11h4v2.91h-4v2.54h4.37Z"/><path class="cls-1" d="M1442.74,594.77a3.93,3.93,0,0,1-.64,2.22,4.12,4.12,0,0,1-1.84,1.5,6.82,6.82,0,0,1-2.82.54,11.19,11.19,0,0,1-2.27-.19,8.23,8.23,0,0,1-1.9-.65V595a10.56,10.56,0,0,0,2.17.83,8.08,8.08,0,0,0,2.07.3,2,2,0,0,0,1.2-.28.86.86,0,0,0,.37-.72.81.81,0,0,0-.15-.48,1.64,1.64,0,0,0-.49-.42,18.26,18.26,0,0,0-1.8-.86,8.82,8.82,0,0,1-2-1.16,3.55,3.55,0,0,1-1-1.29,4.13,4.13,0,0,1-.32-1.72,3.42,3.42,0,0,1,1.36-2.89,6,6,0,0,1,3.74-1,10.59,10.59,0,0,1,4.28,1l-1.12,2.81a8.11,8.11,0,0,0-3.28-.87,1.73,1.73,0,0,0-1,.25.75.75,0,0,0-.33.62.9.9,0,0,0,.42.71,16.86,16.86,0,0,0,2.23,1.13,6.2,6.2,0,0,1,2.43,1.68A3.66,3.66,0,0,1,1442.74,594.77Z"/><path class="cls-1" d="M1458.37,585.22l-5,13.81h-3.2l5-13.81Z"/><path class="cls-1" d="M1472.43,598.85l-2.77-9.68h-.08c.13,1.65.19,2.93.19,3.84v5.84h-3.23V585.41h4.86l2.82,9.54h.08l2.77-9.54h4.87v13.44h-3.36V593c0-.31,0-.65,0-1s.05-1.29.12-2.75h-.08l-2.73,9.66Z"/><path class="cls-1" d="M1494,598.85l-.67-2.52H1489l-.69,2.52h-4l4.41-13.49h4.87l4.47,13.49Zm-1.43-5.5-.58-2.2c-.14-.49-.3-1.13-.5-1.9s-.32-1.34-.38-1.68c-.06.31-.16.83-.33,1.55s-.52,2.13-1.09,4.23Z"/><path class="cls-1" d="M1505.79,591h5.84v7.24a16.16,16.16,0,0,1-5.23.81,6.35,6.35,0,0,1-4.84-1.8,7.21,7.21,0,0,1-1.7-5.14,6.7,6.7,0,0,1,1.87-5.06,7.18,7.18,0,0,1,5.23-1.81,11.59,11.59,0,0,1,2.41.24,9.87,9.87,0,0,1,2,.61l-1.16,2.84a7.27,7.27,0,0,0-3.21-.71,3.05,3.05,0,0,0-2.47,1,4.43,4.43,0,0,0-.88,3,4.56,4.56,0,0,0,.79,2.87,2.75,2.75,0,0,0,2.29,1,6.9,6.9,0,0,0,1.49-.15v-2.11h-2.41Z"/><path class="cls-1" d="M1523.56,598.85l-.67-2.52h-4.4l-.68,2.52h-4l4.42-13.49h4.87l4.47,13.49Zm-1.43-5.5-.58-2.2c-.14-.49-.3-1.13-.5-1.9s-.32-1.34-.38-1.68c-.06.31-.17.83-.33,1.55s-.53,2.13-1.09,4.23Z"/><path class="cls-1" d="M1539.53,598.85H1529v-2.24l5.85-8.27h-5.71v-2.93h10.25v2.24l-5.86,8.27h6Z"/><path class="cls-1" d="M1542.33,598.85V585.41H1546v13.44Z"/><path class="cls-1" d="M1562.68,598.85h-4.79l-4.94-9.47h-.09c.12,1.49.18,2.63.18,3.41v6.06h-3.24V585.41h4.78l4.92,9.34h0c-.08-1.35-.13-2.44-.13-3.26v-6.08h3.26Z"/><path class="cls-1" d="M1574.51,598.85h-8V585.41h8v2.92h-4.38v2.11h4v2.91h-4v2.54h4.38Z"/><path class="cls-1" d="M1586.59,594.77A4,4,0,0,1,1586,597a4.15,4.15,0,0,1-1.85,1.5,6.82,6.82,0,0,1-2.82.54,11.25,11.25,0,0,1-2.27-.19,8.23,8.23,0,0,1-1.9-.65V595a10.79,10.79,0,0,0,2.17.83,8.21,8.21,0,0,0,2.08.3,2,2,0,0,0,1.19-.28.87.87,0,0,0,.38-.72.81.81,0,0,0-.15-.48,1.93,1.93,0,0,0-.49-.42c-.23-.14-.83-.43-1.8-.86a8.7,8.7,0,0,1-2-1.16,3.55,3.55,0,0,1-1-1.29,4.29,4.29,0,0,1-.32-1.72,3.45,3.45,0,0,1,1.36-2.89,6,6,0,0,1,3.74-1,10.56,10.56,0,0,1,4.28,1l-1.12,2.81a8.07,8.07,0,0,0-3.27-.87,1.77,1.77,0,0,0-1,.25.77.77,0,0,0-.32.62.91.91,0,0,0,.41.71,16.86,16.86,0,0,0,2.23,1.13,6.2,6.2,0,0,1,2.43,1.68A3.59,3.59,0,0,1,1586.59,594.77Z"/></svg>