<svg xmlns="http://www.w3.org/2000/svg" viewBox="0 0 1920 1080"><defs><style>.cls-1{fill:none;}.cls-1,.cls-3{stroke:#0ce5d5;stroke-miterlimit:10;stroke-width:2px;}.cls-2{fill:#ff0074;}.cls-4{fill:#fc0067;}</style></defs><title>Plan de travail 1</title><g id="barre_du_bas" data-name="barre du bas"><polyline class="cls-1" points="0 812.89 355.76 812.89 1920 812.89"/></g><g id="Fusée"><path class="cls-2" d="M1717.55,813a27.94,27.94,0,0,1-4.24,14.82h37a55.34,55.34,0,0,0,27.65-7.41l12.83-7.41-12.83-7.41a55.34,55.34,0,0,0-27.65-7.41h-37A27.94,27.94,0,0,1,1717.55,813Z"/><polygon class="cls-2" points="1750.29 832 1741.22 840.46 1705.58 840.46 1713.31 832 1750.29 832"/><polygon class="cls-2" points="1750.29 793.78 1741.22 785.32 1705.58 785.32 1713.31 793.78 1750.29 793.78"/></g><g id="bulle_numéro" data-name="bulle numéro"><rect class="cls-3" x="283.77" y="780.61" width="67.64" height="67.64"/><path class="cls-4" d="M301.51,822.44v-2.92h-2.92V816.6h-2.92v-8.76h2.92v-2.92h2.92V802h8.77v2.93h2.92v2.92h2.92v8.76H313.2v2.92h-2.92v2.92Zm2.92-2.92h5.85V807.84h-2.93v-2.92h-5.84V816.6h2.92Z"/><path class="cls-4" d="M322,822.44v-2.92h5.84V807.84h-2.92v-2.92h2.92V802h5.85v17.53h5.84v2.92Z"/><rect class="cls-3" x="602.41" y="780.61" width="67.64" height="67.64"/><path class="cls-4" d="M620.15,822.44v-2.92h-2.92V816.6h-2.92v-8.76h2.92v-2.92h2.92V802h8.76v2.93h2.92v2.92h2.92v8.76h-2.92v2.92h-2.92v2.92Zm2.92-2.92h5.84V807.84H626v-2.92h-5.84V816.6h2.92Z"/><path class="cls-4" d="M637.68,822.44V816.6h2.92v-2.92h2.92v-2.92h5.84v-2.92h2.92v-2.92h-8.76v2.92h-5.84v-2.92h2.92V802h14.6v2.93h2.92v5.84H655.2v2.92h-2.92v2.92h-5.84v2.92h11.68v2.92Z"/><rect class="cls-3" x="1239.68" y="780.61" width="67.64" height="67.64"/><path class="cls-4" d="M1257.42,822.88V820h-2.92V817h-2.92v-8.76h2.92v-2.93h2.92v-2.92h8.77v2.92h2.92v2.93H1272V817h-2.92V820h-2.92v2.92Zm2.92-2.92h5.85V808.28h-2.93v-2.93h-5.84V817h2.92Z"/><path class="cls-4" d="M1286.63,822.88V817H1275V811.2h2.92v-2.92h2.92v-2.93h2.92v-2.92h8.77v11.69h2.92V817h-2.92v5.84Zm-5.84-8.76h5.84v-5.84h-2.92v2.92h-2.92Z"/><rect class="cls-3" x="1559.47" y="780.61" width="67.64" height="67.64"/><path class="cls-4" d="M1577.21,822.88V820h-2.92V817h-2.92v-8.76h2.92v-2.93h2.92v-2.92H1586v2.92h2.92v2.93h2.92V817h-2.92V820H1586v2.92Zm2.92-2.92H1586V808.28h-2.92v-2.93h-5.84V817h2.92Z"/><path class="cls-4" d="M1597.66,822.88V820h-2.93V817h5.85V820h8.76V811.2h-14.61v-8.77h17.53v2.92h-11.68v2.93h11.68v2.92h2.92V820h-2.92v2.92Z"/><rect class="cls-3" x="921.04" y="780.61" width="67.64" height="67.64"/><path class="cls-4" d="M938.78,822.88V820h-2.92V817h-2.92v-8.76h2.92v-2.93h2.92v-2.92h8.77v2.92h2.92v2.93h2.92V817h-2.92V820h-2.92v2.92Zm2.93-2.92h5.84V808.28h-2.92v-2.93h-5.85V817h2.93Z"/><path class="cls-4" d="M959.23,822.88V820h-2.92V817h5.84V820h8.77v-5.84h-8.77V811.2h2.92v-2.92H968v-2.93h-8.77v-2.92h17.53v2.92h-2.92v2.93h-2.92v2.92h2.92v2.92h2.92V820h-2.92v2.92Z"/></g><g id="titre"><path class="cls-2" d="M887.3,760.74V759h-1.78v-1.78h-1.78v-5.34h1.78v-1.77h1.78V748.3h7.11v1.78h1.78v1.77h-3.56v-1.77h-3.56v1.77H887.3v5.34h1.77V759h3.56v-1.78h3.56V759h-1.78v1.77Z"/><path class="cls-2" d="M899.74,760.74V759H898v-8.89h1.78V748.3h8.89v1.78h1.78V759h-1.78v1.77Zm1.78-1.77h5.34v-8.89h-5.34Z"/><path class="cls-2" d="M912.19,760.74V748.3h3.56v1.78h1.77v1.77h1.78v1.78h1.78V748.3h3.56v12.44h-3.56v-3.55H919.3v-1.78h-1.78v-1.78h-1.77v7.11Z"/><path class="cls-2" d="M930,760.74V759h-1.78v-1.78h-1.78v-5.34h1.78v-1.77H930V748.3h7.11v1.78h1.78v1.77H935.3v-1.77h-3.55v1.77H930v5.34h1.78V759h3.55v-1.78h3.56V759h-1.78v1.77Z"/><path class="cls-2" d="M940.64,760.74V748.3h12.45v1.78H944.2v3.55h7.11v1.78H944.2V759h8.89v1.77Z"/><path class="cls-2" d="M954.86,760.74V748.3h10.67v1.78h1.78v5.33h-1.78v1.78h-7.11v3.55Zm3.56-5.33h5.33v-5.33h-5.33Z"/><path class="cls-2" d="M974.42,760.74V750.08h-3.55V748.3h10.66v1.78H978v10.66Z"/><path class="cls-2" d="M985.09,760.74V759h3.56v-8.89h-3.56V748.3h10.67v1.78H992.2V759h3.56v1.77Z"/><path class="cls-2" d="M999.32,760.74V759h-1.78v-8.89h1.78V748.3h8.89v1.78H1010V759h-1.77v1.77Zm1.77-1.77h5.34v-8.89h-5.34Z"/><path class="cls-2" d="M1011.76,760.74V748.3h3.56v1.78h1.78v1.77h1.77v1.78h1.78V748.3h3.56v12.44h-3.56v-3.55h-1.78v-1.78h-1.77v-1.78h-1.78v7.11Z"/><path class="cls-2" d="M1202.38,760.75V748.3H1213v1.78h1.78v5.33H1213v1.78h-7.11v3.56Zm3.55-5.34h5.34v-5.33h-5.34Z"/><path class="cls-2" d="M1216.6,760.75V748.3h12.45v1.78h-8.89v3.55h7.11v1.78h-7.11V759h8.89v1.78Z"/><path class="cls-2" d="M1230.82,760.75v-8.9h1.78v-1.77h1.78V748.3h5.34v1.78h1.77v1.77h1.78v8.9h-3.55v-3.56h-5.34v3.56Zm3.56-5.34h5.34v-3.56h-1.78v-1.77h-1.78v1.77h-1.78Z"/><path class="cls-2" d="M1246.83,760.75V759h-1.78V748.3h3.56V759h5.33V748.3h3.56V759h-1.78v1.78Z"/><path class="cls-2" d="M1259.27,760.75V748.3h12.45v1.78h-8.89v3.55h7.11v1.78h-7.11v5.34Z"/><path class="cls-2" d="M1275.28,760.75V759h3.55v-8.89h-3.55V748.3h10.66v1.78h-3.55V759h3.55v1.78Z"/><path class="cls-2" d="M1287.72,760.75V748.3h3.56v1.78h1.78v1.77h1.78v1.78h1.77V748.3h3.56v12.45h-3.56v-3.56h-1.77v-1.78h-1.78v-1.78h-1.78v7.12Z"/><path class="cls-2" d="M1302,760.75v-8.9h1.78v-1.77h1.78V748.3h5.33v1.78h1.78v1.77h1.77v8.9h-3.55v-3.56h-5.33v3.56Zm3.56-5.34h5.33v-3.56h-1.78v-1.77h-1.78v1.77h-1.77Z"/><path class="cls-2" d="M1319.73,760.75V759H1318v-1.78h-1.78v-5.34H1318v-1.77h1.78V748.3h8.89v1.78h-7.11v1.77h-1.78v5.34h1.78V759h3.55v-3.56h-1.77v-1.78h5.33v7.12Z"/><path class="cls-2" d="M1330.4,760.75V748.3h12.44v1.78H1334v3.55h7.12v1.78H1334V759h8.89v1.78Z"/><path class="cls-2" d="M572.22,760.74V748.3h10.66v1.78h1.78v5.33h-3.55v1.78h1.77V759h1.78v1.77h-5.33V759h-1.78v-1.78h-1.78v3.55Zm3.55-5.33h3.56v-1.78h1.78v-3.55h-5.34Z"/><path class="cls-2" d="M586.44,760.74V748.3h12.45v1.78H590v3.55h7.11v1.78H590V759h8.89v1.77Z"/><path class="cls-2" d="M604.22,760.74V759h-1.78v-1.78h-1.78v-5.34h1.78v-1.77h1.78V748.3h7.11v1.78h1.78v1.77h-3.55v-1.77H606v1.77h-1.78v5.34H606V759h3.56v-1.78h3.55V759h-1.78v1.77Z"/><path class="cls-2" d="M614.89,760.74V748.3h3.56v5.33h5.33V748.3h3.56v12.44h-3.56v-5.33h-5.33v5.33Z"/><path class="cls-2" d="M629.11,760.74V748.3h12.45v1.78h-8.89v3.55h7.11v1.78h-7.11V759h8.89v1.77Z"/><path class="cls-2" d="M643.34,760.74V748.3H654v1.78h1.78v5.33h-3.56v1.78H654V759h1.78v1.77h-5.34V759h-1.78v-1.78H646.9v3.55Zm3.56-5.33h3.55v-1.78h1.78v-3.55H646.9Z"/><path class="cls-2" d="M661.12,760.74V759h-1.78v-1.78h-1.78v-5.34h1.78v-1.77h1.78V748.3h7.11v1.78H670v1.77h-3.56v-1.77H662.9v1.77h-1.78v5.34h1.78V759h3.55v-1.78H670V759h-1.78v1.77Z"/><path class="cls-2" d="M671.79,760.74V748.3h3.55v5.33h5.34V748.3h3.56v12.44h-3.56v-5.33h-5.34v5.33Z"/><path class="cls-2" d="M686,760.74V748.3h12.45v1.78h-8.89v3.55h7.11v1.78h-7.11V759h8.89v1.77Z"/><path class="cls-2" d="M1505.64,760.74V748.3h12.45v1.78h-8.89v3.55h7.11v1.78h-7.11v5.33Z"/><path class="cls-2" d="M1521.64,760.74V759h3.56v-8.89h-3.56V748.3h10.67v1.78h-3.56V759h3.56v1.77Z"/><path class="cls-2" d="M1534.09,760.74V748.3h3.55v1.78h1.78v1.77h1.78v1.78H1543V748.3h3.55v12.44H1543v-3.55h-1.78v-1.78h-1.78v-1.78h-1.78v7.11Z"/><path class="cls-2" d="M1548.31,760.74v-8.89h1.78v-1.77h1.78V748.3h5.33v1.78H1559v1.77h1.78v8.89h-3.56v-3.55h-5.33v3.55Zm3.56-5.33h5.33v-3.56h-1.77v-1.77h-1.78v1.77h-1.78Z"/><path class="cls-2" d="M1564.32,760.74V748.3h3.55V759H1575v1.77Z"/><path class="cls-2" d="M1578.54,760.74V759h3.56v-8.89h-3.56V748.3h10.67v1.78h-3.56V759h3.56v1.77Z"/><path class="cls-2" d="M1592.76,760.74V759H1591v-1.78h3.55V759h5.34v-3.56h-7.12v-1.78H1591v-3.55h1.77V748.3h8.9v1.78h1.77v1.77h-3.55v-1.77h-5.34v3.55h7.12v1.78h1.77V759h-1.77v1.77Z"/><path class="cls-2" d="M1605.21,760.74v-8.89H1607v-1.77h1.78V748.3h5.33v1.78h1.78v1.77h1.78v8.89h-3.56v-3.55h-5.33v3.55Zm3.56-5.33h5.33v-3.56h-1.78v-1.77h-1.77v1.77h-1.78Z"/><path class="cls-2" d="M1624.77,760.74V750.08h-3.55V748.3h10.66v1.78h-3.55v10.66Z"/><path class="cls-2" d="M1635.44,760.74V759H1639v-8.89h-3.56V748.3h10.67v1.78h-3.56V759h3.56v1.77Z"/><path class="cls-2" d="M1649.66,760.74V759h-1.77v-8.89h1.77V748.3h8.9v1.78h1.77V759h-1.77v1.77Zm1.78-1.77h5.34v-8.89h-5.34Z"/><path class="cls-2" d="M1662.11,760.74V748.3h3.56v1.78h1.77v1.77h1.78v1.78H1671V748.3h3.56v12.44H1671v-3.55h-1.78v-1.78h-1.78v-1.78h-1.77v7.11Z"/><path class="cls-2" d="M210.91,760.74V748.3h10.66v1.78h1.78v5.33h-1.78v1.78h-7.11v3.55Zm3.55-5.33h5.34v-5.33h-5.34Z"/><path class="cls-2" d="M225.13,760.74V748.3H235.8v1.78h1.78v5.33H234v1.78h1.78V759h1.78v1.77h-5.34V759h-1.78v-1.78h-1.77v3.55Zm3.56-5.33h3.55v-1.78H234v-3.55h-5.33Z"/><path class="cls-2" d="M239.35,760.74V748.3H251.8v1.78h-8.89v3.55H250v1.78h-7.11V759h8.89v1.77Z"/><path class="cls-2" d="M253.58,760.74V748.3h3.56v1.78h1.77v1.77h1.78v-1.77h1.78V748.3H266v12.44h-3.56v-7.11h-1.78v3.56h-1.78v-3.56h-1.77v7.11Z"/><path class="cls-2" d="M269.58,760.74V759h3.56v-8.89h-3.56V748.3h10.67v1.78h-3.56V759h3.56v1.77Z"/><path class="cls-2" d="M282,760.74V748.3h12.45v1.78h-8.9v3.55h7.12v1.78h-7.12V759h8.9v1.77Z"/><path class="cls-2" d="M296.25,760.74V748.3h10.67v1.78h1.78v5.33h-3.56v1.78h1.78V759h1.78v1.77h-5.33V759h-1.78v-1.78h-1.78v3.55Zm3.56-5.33h3.56v-1.78h1.77v-3.55h-5.33Z"/><path class="cls-2" d="M328.26,760.74V759h-1.78v-1.78H324.7v-5.34h1.78v-1.77h1.78V748.3h7.11v1.78h1.78v1.77h-3.56v-1.77H330v1.77h-1.78v5.34H330V759h3.55v-1.78h3.56V759h-1.78v1.77Z"/><path class="cls-2" d="M340.71,760.74V759h-1.78v-8.89h1.78V748.3h8.89v1.78h1.77V759H349.6v1.77Zm1.77-1.77h5.34v-8.89h-5.34Z"/><path class="cls-2" d="M353.15,760.74V748.3h3.56v1.78h1.78v1.77h1.77v1.78H362V748.3h3.56v12.44H362v-3.55h-1.78v-1.78h-1.77v-1.78h-1.78v7.11Z"/><path class="cls-2" d="M372.71,760.74V750.08h-3.55V748.3h10.66v1.78h-3.55v10.66Z"/><path class="cls-2" d="M381.6,760.74v-8.89h1.78v-1.77h1.78V748.3h5.33v1.78h1.78v1.77h1.78v8.89h-3.56v-3.55h-5.33v3.55Zm3.56-5.33h5.33v-3.56h-1.78v-1.77h-1.77v1.77h-1.78Z"/><path class="cls-2" d="M399.38,760.74V759H397.6v-1.78h-1.77v-5.34h1.77v-1.77h1.78V748.3h7.11v1.78h1.78v1.77h-3.55v-1.77h-3.56v1.77h-1.78v5.34h1.78V759h3.56v-1.78h3.55V759h-1.78v1.77Z"/><path class="cls-2" d="M415.39,760.74V750.08h-3.56V748.3H422.5v1.78h-3.56v10.66Z"/></g></svg>