<svg xmlns="http://www.w3.org/2000/svg" viewBox="0 0 1920 55.15"><defs><style>.cls-1{fill:none;stroke:#0ce5d5;stroke-miterlimit:10;stroke-width:2px;}.cls-2{fill:#ff0074;}</style></defs><title>Fichier 9</title><g id="Calque_2" data-name="Calque 2"><g id="barre_du_bas" data-name="barre du bas"><polyline class="cls-1" points="0 27.81 355.76 27.81 1920 27.81"/></g><g id="Fusée"><path class="cls-2" d="M1728.36,27.63a27.94,27.94,0,0,1-4.24,14.82h37A55.31,55.31,0,0,0,1788.75,35l12.84-7.41-12.84-7.41a55.31,55.31,0,0,0-27.65-7.41h-37A27.94,27.94,0,0,1,1728.36,27.63Z"/><polygon class="cls-2" points="1761.1 46.68 1752.04 55.15 1716.39 55.15 1724.12 46.68 1761.1 46.68"/><polygon class="cls-2" points="1761.1 8.46 1752.04 0 1716.39 0 1724.12 8.46 1761.1 8.46"/></g></g></svg>