<svg xmlns="http://www.w3.org/2000/svg" viewBox="0 0 1920 1080"><defs><style>.cls-1{fill:#ff0074;}</style></defs><title>Plan de travail 1</title><g id="TITRE"><path class="cls-1" d="M221.72,464.8v-2.49h5V449.87h-5v-2.49h14.92v2.49h-5v12.44h5v2.49Z"/><path class="cls-1" d="M239.13,464.8V447.38h12.44v2.49h2.49v2.49h2.49v7.46h-2.49v2.49h-2.49v2.49Zm5-2.49h5v-2.49h2.49v-7.46h-2.49v-2.49h-5Z"/><path class="cls-1" d="M259,464.8V447.38h17.42v2.49H264v5H274v2.49H264v5h12.44v2.49Z"/><path class="cls-1" d="M278.94,464.8V447.38h5v2.49h2.49v2.49h2.49v2.48h2.48v-7.46h5V464.8h-5v-5h-2.48v-2.49H286.4v-2.49h-2.49v10Z"/><path class="cls-1" d="M306.3,464.8V449.87h-5v-2.49h14.92v2.49h-5V464.8Z"/><path class="cls-1" d="M321.23,464.8v-2.49h5V449.87h-5v-2.49h14.92v2.49h-5v12.44h5v2.49Z"/><path class="cls-1" d="M346.1,464.8V449.87h-5v-2.49h14.93v2.49h-5V464.8Z"/><path class="cls-1" d="M358.54,464.8V447.38H376v2.49H363.52v5h10v2.49h-10v5H376v2.49Z"/><path class="cls-1" d="M405.81,464.8v-2.49h-2.49v-2.49h-2.48v-2.49h-2.49v-9.95h5v7.46h2.49v2.49h2.49v-2.49h2.49v-7.46h5v9.95h-2.49v2.49h-2.48v2.49H408.3v2.49Z"/><path class="cls-1" d="M420.74,464.8v-2.49h5V449.87h-5v-2.49h14.92v2.49h-5v12.44h5v2.49Z"/><path class="cls-1" d="M440.64,464.8v-2.49h-2.49v-2.49h5v2.49h7.46v-5h-9.95v-2.49h-2.49v-5h2.49v-2.49h12.44v2.49h2.49v2.49h-5v-2.49h-7.46v5h9.95v2.49h2.49v5h-2.49v2.49Z"/><path class="cls-1" d="M460.54,464.8v-2.49h-2.49V447.38h5v14.93h7.46V447.38h5v14.93H473v2.49Z"/><path class="cls-1" d="M478,464.8V447.38h17.41v2.49H482.93v5h9.95v2.49h-9.95v5h12.44v2.49Z"/><path class="cls-1" d="M500.34,464.8V447.38h5v14.93h9.95v2.49Z"/><path class="cls-1" d="M520.25,464.8V447.38h5v14.93h9.95v2.49Z"/><path class="cls-1" d="M537.66,464.8V447.38h17.42v2.49H542.64v5h10v2.49h-10v5h12.44v2.49Z"/><path class="cls-1" d="M1587.54,464.8V447.38h14.93v2.49H1605v7.46h-2.48v2.49h-10v5Zm5-7.47H1600v-7.46h-7.46Z"/><path class="cls-1" d="M1607.44,464.8V447.38h14.93v2.49h2.48v7.46h-5v2.49h2.49v2.49h2.48v2.49h-7.46v-2.49h-2.49v-2.49h-2.48v5Zm5-7.47h5v-2.49h2.49v-5h-7.46Z"/><path class="cls-1" d="M1629.83,464.8v-2.49h5V449.87h-5v-2.49h14.93v2.49h-5v12.44h5v2.49Z"/><path class="cls-1" d="M1647.25,464.8V447.38h5v2.49h2.49v2.49h2.49v2.48h2.48v-7.46h5V464.8h-5v-5h-2.48v-2.49h-2.49v-2.49h-2.49v10Z"/><path class="cls-1" d="M1674.61,464.8V449.87h-5v-2.49h14.93v2.49h-5V464.8Z"/><path class="cls-1" d="M227.27,211.84v-2.48h5V196.92h-5v-2.49h14.92v2.49h-5v12.44h5v2.48Z"/><path class="cls-1" d="M247.17,211.84V194.43h5v14.93h10v2.48Z"/><path class="cls-1" d="M267.07,211.84V194.43h5v14.93H282v2.48Z"/><path class="cls-1" d="M287,211.84v-2.48h-2.48V194.43h5v14.93h7.47V194.43h5v14.93h-2.49v2.48Z"/><path class="cls-1" d="M306.88,211.84v-2.48h-2.49v-2.49h5v2.49h7.47v-5h-9.95v-2.49h-2.49v-5h2.49v-2.49h12.44v2.49h2.48v2.49h-5v-2.49h-7.47v5h10v2.49h2.48v5h-2.48v2.48Z"/><path class="cls-1" d="M331.75,211.84V196.92h-5v-2.49H341.7v2.49h-5v14.92Z"/><path class="cls-1" d="M344.19,211.84V194.43h14.93v2.49h2.49v7.46h-5v2.49h2.49v2.49h2.49v2.48h-7.47v-2.48h-2.48v-2.49h-2.49v5Zm5-7.46h5v-2.49h2.49v-5h-7.46Z"/><path class="cls-1" d="M364.09,211.84V199.41h2.49v-2.49h2.49v-2.49h7.46v2.49H379v2.49h2.49v12.43h-5v-5h-7.46v5Zm5-7.46h7.46v-5h-2.48v-2.49h-2.49v2.49h-2.49Z"/><path class="cls-1" d="M391.46,211.84V196.92h-5v-2.49h14.93v2.49h-5v14.92Z"/><path class="cls-1" d="M406.39,211.84v-2.48h5V196.92h-5v-2.49h14.92v2.49h-5v12.44h5v2.48Z"/><path class="cls-1" d="M426.29,211.84v-2.48H423.8V196.92h2.49v-2.49h12.44v2.49h2.48v12.44h-2.48v2.48Zm2.49-2.48h7.46V196.92h-7.46Z"/><path class="cls-1" d="M443.7,211.84V194.43h5v2.49h2.49v2.49h2.48v2.48h2.49v-7.46h5v17.41h-5v-5h-2.49v-2.49h-2.48v-2.49h-2.49v10Z"/><path class="cls-1" d="M1626.79,211.84v-2.48h-2.49V194.43h5v9.95h2.48v-9.95h2.49v9.95h2.49v-9.95h5v14.93h-2.48v2.48h-2.49v-2.48h-2.49v-2.49h-2.49v2.49h-2.48v2.48Z"/><path class="cls-1" d="M1644.2,211.84V194.43h17.42v2.49h-12.44v5h10v2.49h-10v5h12.44v2.48Z"/><path class="cls-1" d="M1664.11,211.84V194.43H1679v2.49h2.49v5H1679v2.49h2.49v5H1679v2.48Zm5-10h7.46v-5h-7.46Zm0,7.47h7.46v-5h-7.46Z"/></g></svg>