<svg xmlns="http://www.w3.org/2000/svg" viewBox="0 0 173.2 173.19"><defs><style>.cls-1{fill:#2de2e6;}.cls-2{fill:#ff0074;}</style></defs><title>Fichier 2</title><g id="Calque_2" data-name="Calque 2"><g id="cadrilage"><path class="cls-1" d="M170.2,3H3.5v.5H3V169.69h.5v.5H169.7v-.5h.5V3ZM44.55,169.19H4V128.65H44.55Zm0-41.54H4V87.1H44.55Zm0-41.55H4V45.55H44.55Zm0-41.55H4V4H44.55ZM86.1,169.19H45.55V128.65H86.1Zm0-41.54H45.55V87.1H86.1Zm0-41.55H45.55V45.55H86.1Zm0-41.55H45.55V4H86.1Zm41.55,124.64H87.1V128.65h40.55Zm0-41.54H87.1V87.1h40.55Zm0-41.55H87.1V45.55h40.55Zm0-41.55H87.1V4h40.55ZM169.2,169.19H128.65V128.65H169.2Zm0-41.54H128.65V87.1H169.2Zm0-41.55H128.65V45.55H169.2Zm0-41.55H128.65V4H169.2Z"/></g><g id="cadr_epais" data-name="cadr epais"><g id="_3" data-name="3"><path class="cls-1" d="M170.2,3H3.5v.5H3V169.69h.5v.5H169.7v-.5h.5V3ZM44.55,169.19H4V128.65H44.55Zm0-41.54H4V87.1H44.55Zm0-41.55H4V45.55H44.55Zm0-41.55H4V4H44.55ZM86.1,169.19H45.55V128.65H86.1Zm0-41.54H45.55V87.1H86.1Zm0-41.55H45.55V45.55H86.1Zm0-41.55H45.55V4H86.1Zm41.55,124.64H87.1V128.65h40.55Zm0-41.54H87.1V87.1h40.55Zm0-41.55H87.1V45.55h40.55Zm0-41.55H87.1V4h40.55ZM169.2,169.19H128.65V128.65H169.2Zm0-41.54H128.65V87.1H169.2Zm0-41.55H128.65V45.55H169.2Zm0-41.55H128.65V4H169.2Z"/><path class="cls-1" d="M172.7,173.19H.5v-.5H0V.5H.5V0H173.2V172.69h-.5Zm-41-7H166.2V131.65H131.65Zm-41.55,0h34.55V131.65H90.1Zm-41.55,0H83.1V131.65H48.55ZM7,166.19H41.55V131.65H7Zm124.65-41.54H166.2V90.1H131.65Zm-41.55,0h34.55V90.1H90.1Zm-41.55,0H83.1V90.1H48.55ZM7,124.65H41.55V90.1H7ZM131.65,83.1H166.2V48.55H131.65Zm-41.55,0h34.55V48.55H90.1Zm-41.55,0H83.1V48.55H48.55ZM7,83.1H41.55V48.55H7ZM131.65,41.55H166.2V7H131.65Zm-41.55,0h34.55V7H90.1Zm-41.55,0H83.1V7H48.55ZM7,41.55H41.55V7H7Z"/></g></g><g id="Neon_pic" data-name="Neon pic"><path class="cls-2" d="M136.66,30.07H37.27a7,7,0,0,0-7,7v69.11a7,7,0,0,0,7,7H71.41v15.43H59.78l-5.48,6.06-1.39,1.54v9.19H121v-9.2l-1.39-1.53-5.49-6.06H102.53V113.18h34.13a7,7,0,0,0,7-7V37.07A7,7,0,0,0,136.66,30.07Zm-2.8,10.44V96.4H40.11V40.51Zm-36.33,88.1h0v3H76.41V113.18H97.53Zm41.14-22.43a2,2,0,0,1-2,2H37.27a2,2,0,0,1-2-2v-6.4a2.5,2.5,0,0,0,2.34,1.62h98.75a2.48,2.48,0,0,0,2.31-1.54Z"/><path class="cls-2" d="M61.15,76.36h-.31l1.67,3.57h0l.67,1.43h.07a27.21,27.21,0,0,0,21.22,14v.12h5v-.12a27,27,0,0,0,21.89-38.53,27,27,0,0,0-48.13-1.23h-.07L62.49,57h0l-1.66,3.55h.3a26.93,26.93,0,0,0,0,15.77Zm15.77-22.1a3.24,3.24,0,0,1,.17-.32q.38-.67.78-1.29l.21-.31c.21-.3.43-.6.65-.89L79,51.1c.24-.29.49-.57.74-.84a1.8,1.8,0,0,1,.19-.2c.31-.32.63-.62,1-.89l.27-.22c.25-.2.51-.39.76-.56s.21-.15.32-.21a9.23,9.23,0,0,1,.91-.52l.15-.08a8.85,8.85,0,0,1,1.07-.43.38.38,0,0,1,.1,0v8.47H76.25c0-.07.07-.15.11-.22C76.53,55,76.72,54.62,76.92,54.26Zm12.66-7.11a8.85,8.85,0,0,1,1.07.43l.14.08a9.23,9.23,0,0,1,.91.52c.11.06.21.14.32.21a7.92,7.92,0,0,1,.76.57l.27.21c.32.28.65.57,1,.89l.17.19c.26.27.51.56.75.86l.27.33c.23.3.45.6.67.92l.2.28c.27.42.53.85.79,1.3l.15.29c.2.37.39.75.58,1.15a2,2,0,0,0,.1.21H89.47V47.12Zm7.5,35.67c0,.06-.07.13-.11.2-.25.47-.53.93-.81,1.36l-.13.2c-.26.39-.53.76-.8,1.12l-.11.14a12.3,12.3,0,0,1-5.65,4.22v-8.7h8.32a2,2,0,0,0-.1.21C97.5,82,97.29,82.42,97.08,82.82ZM84.47,90.06,84.29,90a9.11,9.11,0,0,1-.86-.35c-.08,0-.17-.07-.25-.12a10.22,10.22,0,0,1-1.06-.6l-.22-.16c-.28-.19-.55-.4-.82-.62l-.29-.24c-.3-.26-.6-.54-.89-.84L79.81,87c-.31-.33-.62-.69-.91-1.06l-.25-.32c-.23-.3-.45-.61-.67-.93l-.22-.33c-.27-.42-.53-.85-.78-1.31a2.1,2.1,0,0,1-.13-.26q-.31-.59-.6-1.2l-.09-.22h8.31ZM73.66,66.26c0-.24,0-.48.06-.72,0-.53.1-1.06.17-1.58l.12-.81c.08-.5.17-1,.28-1.49l.15-.74.09-.33h9.94V76.36h-10c0-.09,0-.19-.08-.29s-.09-.46-.14-.7c-.1-.49-.19-1-.27-1.49,0-.25-.08-.5-.11-.76-.07-.52-.12-1-.17-1.56l-.06-.69c-.05-.75-.08-1.51-.08-2.28S73.61,67,73.66,66.26Zm25.75-5.67.09.33c0,.25.1.51.16.76.1.49.19,1,.27,1.48,0,.27.09.54.13.81.07.52.12,1,.17,1.58l.06.72c0,.77.08,1.54.08,2.32s0,1.52-.08,2.27c0,.23,0,.46-.06.69,0,.52-.09,1-.16,1.56,0,.25-.07.5-.11.75-.08.52-.18,1-.28,1.53-.05.22-.09.44-.14.66s-.06.21-.08.31h-10V60.59Zm-30,0c-.14.7-.26,1.41-.37,2.12l-.06.44c-.1.71-.17,1.42-.23,2.14,0,.23,0,.47,0,.7-.06.86-.1,1.73-.1,2.6s0,1.7.09,2.54c0,.23,0,.45,0,.68.06.71.13,1.4.23,2.09,0,.15,0,.29,0,.43.1.69.22,1.36.35,2H66.42a22.09,22.09,0,0,1,0-15.77h3Zm-.23,20.77h1.6c0,.12.09.22.13.33.18.46.36.92.55,1.37.07.18.16.35.24.53.17.37.34.74.52,1.1l0,.09Zm32.51,3.51a1.74,1.74,0,0,0,.1-.19c.07-.13.13-.27.19-.41.17-.34.33-.68.49-1l.21-.49c.14-.36.29-.72.42-1.09l.12-.29h1.6A21.4,21.4,0,0,1,101.66,84.87Zm5.85-8.51h-2.93a38.28,38.28,0,0,0,.79-7.77c0-1,0-2-.1-2.91a38.75,38.75,0,0,0-.73-5.09h3A22,22,0,0,1,109,68.46,21.72,21.72,0,0,1,107.51,76.36ZM104.8,55.59h-1.69c0-.12-.1-.23-.14-.35-.14-.37-.29-.73-.44-1.08l-.24-.54c-.15-.33-.3-.65-.46-1l-.25-.51-.12-.23A22,22,0,0,1,104.8,55.59ZM72.48,51.91l-.09.19c-.2.37-.39.76-.57,1.16-.08.17-.17.35-.25.53-.26.58-.51,1.18-.74,1.8H69.11A22.26,22.26,0,0,1,72.48,51.91Z"/></g></g></svg>