<svg xmlns="http://www.w3.org/2000/svg" viewBox="0 0 167.95 167.44"><defs><style>.cls-1{fill:#2de2e6;}.cls-2{fill:#12f9e3;}.cls-3{fill:#0c0c0c;}.cls-4{fill:none;stroke:#ff0074;stroke-miterlimit:10;}</style></defs><title>Fichier 13</title><g id="Calque_2" data-name="Calque 2"><g id="cadrilage"><rect class="cls-1" x="166.57" y="0.38" width="1" height="166.19"/><rect class="cls-1" x="83.47" y="0.38" width="1" height="166.19"/><rect class="cls-1" x="41.92" y="0.38" width="1" height="166.19"/><rect class="cls-1" x="0.38" y="0.38" width="1" height="166.19"/><rect class="cls-1" x="125.02" y="0.38" width="1" height="166.19"/><rect class="cls-1" x="0.88" y="82.97" width="166.2" height="1"/><rect class="cls-1" x="0.88" y="124.52" width="166.2" height="1"/><rect class="cls-1" x="0.88" y="166.07" width="166.2" height="1"/><rect class="cls-1" x="0.88" y="41.42" width="166.2" height="1"/></g><g id="neon_CADRILLAGE" data-name="neon CADRILLAGE"><rect class="cls-1" x="166.57" y="0.38" width="1" height="166.19"/><path class="cls-2" d="M168,166.94H166.2V0H168Zm-1-.75h.25V.75H167Z"/><rect class="cls-1" x="83.47" y="0.38" width="1" height="166.19"/><path class="cls-2" d="M84.85,166.94H83.1V0h1.75Zm-1-.75h.25V.75h-.25Z"/><rect class="cls-1" x="41.92" y="0.38" width="1" height="166.19"/><path class="cls-2" d="M43.3,166.94H41.55V0H43.3Zm-1-.75h.25V.75H42.3Z"/><rect class="cls-1" x="0.38" y="0.38" width="1" height="166.19"/><path class="cls-2" d="M1.75,166.94H0V0H1.75Zm-1-.75H1V.75H.75Z"/><rect class="cls-1" x="125.02" y="0.38" width="1" height="166.19"/><path class="cls-2" d="M126.4,166.94h-1.75V0h1.75Zm-1-.75h.25V.75h-.25Z"/><rect class="cls-1" x="0.88" y="82.97" width="166.2" height="1"/><path class="cls-2" d="M167.45,84.35H.5V82.6h167ZM1.25,83.6H166.7v-.25H1.25Z"/><rect class="cls-1" x="0.88" y="124.52" width="166.2" height="1"/><path class="cls-2" d="M167.45,125.9H.5v-1.75h167Zm-166.2-.75H166.7v-.25H1.25Z"/><rect class="cls-1" x="0.88" y="166.07" width="166.2" height="1"/><path class="cls-2" d="M167.45,167.44H.5v-1.75h167Zm-166.2-.75H166.7v-.25H1.25Z"/><rect class="cls-1" x="0.88" y="41.42" width="166.2" height="1"/><path class="cls-2" d="M167.45,42.8H.5V41.05h167ZM1.25,42.05H166.7V41.8H1.25Z"/></g><g id="Pictogramme"><path class="cls-3" d="M138.31,32.88V102a4.5,4.5,0,0,1-4.51,4.5H34.41A4.5,4.5,0,0,1,29.9,102V32.88a4.5,4.5,0,0,1,4.51-4.5H133.8A4.5,4.5,0,0,1,138.31,32.88Zm-5.68,61.83V33.82H34.75V94.71Z"/><polygon class="cls-3" points="115.67 138.72 52.54 138.72 52.54 132.98 84.11 132.98 115.67 132.98 115.67 138.72"/><polygon class="cls-3" points="97.17 126.92 110.19 126.92 115.67 132.98 84.11 132.98 52.54 132.98 58.02 126.92 71.05 126.92 71.05 129.95 97.17 129.95 97.17 126.92"/><path class="cls-3" d="M106.24,53.71a24.54,24.54,0,0,1,0,21.15l-.38-.19H98.52a36.47,36.47,0,0,0-.06-20.77h7.37Z"/><path class="cls-3" d="M105.83,74.67l.38.19A24.47,24.47,0,0,1,84.52,88.77c6.21-.24,11.54-5.94,14-14.1Z"/><path class="cls-3" d="M98.46,53.9a36.47,36.47,0,0,1,.06,20.77H84.11V53.9Z"/><path class="cls-3" d="M84.11,74.67H98.52c-2.46,8.16-7.79,13.86-14,14.1h-.41Z"/><path class="cls-3" d="M98.46,53.9H84.11V40C90.44,40,95.9,45.69,98.46,53.9Z"/><polygon class="cls-3" points="97.17 126.92 97.17 129.95 71.05 129.95 71.05 126.92 84.11 126.92 97.17 126.92"/><polygon class="cls-3" points="97.17 106.49 97.17 126.92 84.11 126.92 71.05 126.92 71.05 106.49 83.9 106.49 84.31 106.49 97.17 106.49"/><path class="cls-3" d="M84.11,40v-.25a24.55,24.55,0,0,1,22.13,14l-.41.19H98.46C95.9,45.69,90.44,40,84.11,40Z"/><path class="cls-3" d="M84.11,74.67V88.78H83.7c-6.22-.24-11.55-5.94-14-14.1Z"/><path class="cls-3" d="M84.11,53.9V74.67H69.69a36.47,36.47,0,0,1,.06-20.77Z"/><path class="cls-3" d="M84.11,40V53.9H69.75C72.31,45.69,77.77,40,84.11,40Z"/><path class="cls-3" d="M84.11,88.78h.41a24.52,24.52,0,1,0-.82,0Zm48.52-55V94.71H34.75V33.82Z"/><path class="cls-3" d="M61.89,53.9A24.52,24.52,0,0,1,84.11,39.76V40c-6.34,0-11.8,5.68-14.36,13.89Z"/><path class="cls-3" d="M69.69,74.67c2.46,8.16,7.79,13.86,14,14.1a24.5,24.5,0,0,1-21.79-14.1Z"/><path class="cls-3" d="M61.89,53.9h7.86a36.47,36.47,0,0,0-.06,20.77H61.91a24.5,24.5,0,0,1,0-20.77Z"/><polyline class="cls-4" points="52.54 132.98 52.54 138.72 115.67 138.72 115.67 132.98"/><polygon class="cls-4" points="115.67 132.98 110.19 126.92 97.17 126.92 84.11 126.92 71.05 126.92 58.02 126.92 52.54 132.98 84.11 132.98 115.67 132.98"/><path class="cls-4" d="M71,106.49H34.41A4.5,4.5,0,0,1,29.9,102V32.88a4.5,4.5,0,0,1,4.51-4.5H133.8a4.5,4.5,0,0,1,4.51,4.5V102a4.5,4.5,0,0,1-4.51,4.5H97.17"/><rect class="cls-4" x="34.75" y="33.82" width="97.88" height="60.9"/><path class="cls-4" d="M83.7,88.77a24.51,24.51,0,1,1,.82,0"/><path class="cls-4" d="M98.46,53.9a36.47,36.47,0,0,1,.06,20.77c-2.46,8.16-7.79,13.86-14,14.1H83.7c-6.22-.24-11.55-5.94-14-14.1a36.47,36.47,0,0,1,.06-20.77C72.31,45.69,77.77,40,84.11,40S95.9,45.69,98.46,53.9Z"/><polyline class="cls-4" points="84.11 40.01 84.11 53.9 84.11 74.67 84.11 88.78"/><polyline class="cls-4" points="61.89 53.9 69.75 53.9 84.11 53.9 98.46 53.9 105.83 53.9"/><polyline class="cls-4" points="61.89 74.67 61.91 74.67 69.69 74.67 84.11 74.67 98.52 74.67 105.83 74.67"/><polygon class="cls-4" points="71.05 126.92 71.05 129.95 97.17 129.95 97.17 126.92 97.17 106.49 84.31 106.49 83.9 106.49 71.05 106.49 71.05 126.92"/></g></g></svg>