<svg xmlns="http://www.w3.org/2000/svg" xmlns:xlink="http://www.w3.org/1999/xlink" viewBox="0 0 156.98 156.99"><defs><style>.cls-1{fill:url(#Dégradé_sans_nom_55);}.cls-2{fill:url(#Dégradé_sans_nom_55-2);}.cls-3{fill:url(#Dégradé_sans_nom_55-3);}.cls-4{fill:url(#Dégradé_sans_nom_55-4);}.cls-5{fill:url(#Dégradé_sans_nom_55-5);}.cls-6{fill:url(#Dégradé_sans_nom_55-6);}.cls-7{fill:url(#Dégradé_sans_nom_55-7);}.cls-8{fill:url(#Dégradé_sans_nom_55-8);}.cls-9{fill:url(#Dégradé_sans_nom_55-9);}.cls-10{fill:url(#Dégradé_sans_nom_55-10);}</style><linearGradient id="Dégradé_sans_nom_55" x1="78.49" y1="-5.43" x2="78.49" y2="163.95" gradientUnits="userSpaceOnUse"><stop offset="0" stop-color="#e90034"/><stop offset="1" stop-color="#af00ff"/></linearGradient><linearGradient id="Dégradé_sans_nom_55-2" x1="78.49" y1="-5.43" x2="78.49" y2="163.94" xlink:href="#Dégradé_sans_nom_55"/><linearGradient id="Dégradé_sans_nom_55-3" x1="78.49" y1="-5.44" x2="78.49" y2="163.95" xlink:href="#Dégradé_sans_nom_55"/><linearGradient id="Dégradé_sans_nom_55-4" x1="78.49" y1="-5.44" x2="78.49" y2="163.95" xlink:href="#Dégradé_sans_nom_55"/><linearGradient id="Dégradé_sans_nom_55-5" x1="78.49" y1="-5.44" x2="78.49" y2="163.95" xlink:href="#Dégradé_sans_nom_55"/><linearGradient id="Dégradé_sans_nom_55-6" x1="78.49" y1="-5.44" x2="78.49" y2="163.95" xlink:href="#Dégradé_sans_nom_55"/><linearGradient id="Dégradé_sans_nom_55-7" x1="78.49" y1="-5.44" x2="78.49" y2="163.95" xlink:href="#Dégradé_sans_nom_55"/><linearGradient id="Dégradé_sans_nom_55-8" x1="78.49" y1="-5.43" x2="78.49" y2="163.95" xlink:href="#Dégradé_sans_nom_55"/><linearGradient id="Dégradé_sans_nom_55-9" x1="78.49" y1="-5.43" x2="78.49" y2="163.95" xlink:href="#Dégradé_sans_nom_55"/><linearGradient id="Dégradé_sans_nom_55-10" x1="78.49" y1="-5.43" x2="78.49" y2="163.95" xlink:href="#Dégradé_sans_nom_55"/></defs><title>Fichier 13</title><g id="Calque_2" data-name="Calque 2"><g id="a_propos" data-name="a propos"><g id="soleil"><path class="cls-1" d="M135.1,132.86H21.88q2.13,2.22,4.43,4.26H130.68Q133,135.08,135.1,132.86Z"/><path class="cls-2" d="M156.94,81.07H0q.12,3.57.55,7.07H156.4Q156.82,84.65,156.94,81.07Z"/><path class="cls-3" d="M156.62,70.89H.36Q0,74.51,0,78.2H157Q157,74.51,156.62,70.89Z"/><path class="cls-4" d="M155.89,91.58H1.09q.54,3.23,1.33,6.34H154.56Q155.36,94.8,155.89,91.58Z"/><path class="cls-5" d="M153.45,101.85H3.53c.62,2,1.33,4,2.11,5.91h145.7C152.12,105.83,152.83,103.86,153.45,101.85Z"/><path class="cls-6" d="M154.9,60.47H2.08q-.9,3.86-1.43,7.85H156.33A75.37,75.37,0,0,0,154.9,60.47Z"/><path class="cls-7" d="M78.49,0A78.53,78.53,0,0,0,2.73,57.9H154.25A78.53,78.53,0,0,0,78.49,0Z"/><path class="cls-8" d="M143.5,122.49h-130c1.11,1.65,2.29,3.25,3.52,4.8H140C141.21,125.74,142.39,124.14,143.5,122.49Z"/><path class="cls-9" d="M149.41,112.17H7.57c.87,1.82,1.79,3.6,2.79,5.33H146.62Q148.12,114.91,149.41,112.17Z"/><path class="cls-10" d="M118.82,145.85H38.16a78.57,78.57,0,0,0,80.66,0Z"/></g></g></g></svg>