<svg xmlns="http://www.w3.org/2000/svg" viewBox="0 0 184.93 19.62"><defs><style>.cls-1{fill:#ff007a;}</style></defs><title>Fichier 14</title><g id="Calque_2" data-name="Calque 2"><g id="a_propos" data-name="a propos"><path class="cls-1" d="M5.15,0V7h6.23V0h5.16V19.62H11.38V12.14H5.15v7.48H0V0Z"/><path class="cls-1" d="M44.87,0H57.06V4.26H50v3.2h6.22V11.8H50v3.61h7v4.21H44.87Z"/><path class="cls-1" d="M85.14,0h5.15V14.44h7.07v5.18H85.14Z"/><path class="cls-1" d="M125.43,0h5.16V14.44h7.06v5.18H125.43Z"/><path class="cls-1" d="M175.12,0a9.81,9.81,0,1,1-9.79,9.84A9.84,9.84,0,0,1,175.12,0Zm0,5.13a4.68,4.68,0,1,0,4.68,4.68A4.67,4.67,0,0,0,175.12,5.13Z"/></g></g></svg>