<svg xmlns="http://www.w3.org/2000/svg" viewBox="0 0 1920 1080"><defs><style>.cls-1{fill:#ff0074;}</style></defs><title>Plan de travail 1</title><g id="texte"><path class="cls-1" d="M232.6,386.38v-3.72h-3.71V379h-3.72V367.8h3.72v-3.72h3.71v-3.71h18.58v3.71H236.32v3.72H232.6V379h3.72v3.71h7.43v-7.43H240v-3.72h11.14v14.87Z"/><path class="cls-1" d="M258.62,386.38v-26h22.29v3.71h3.72v11.15h-7.44V379h3.72v3.71h3.72v3.72H273.48v-3.72h-3.72V379h-3.71v7.43Zm7.43-11.15h7.43v-3.72h3.71v-7.43H266.05Z"/><path class="cls-1" d="M292.06,386.38V367.8h3.71v-3.72h3.72v-3.71h11.15v3.71h3.71v3.72h3.72v18.58h-7.43V379H299.49v7.43Zm7.43-11.15h11.15V367.8h-3.72v-3.72h-3.71v3.72h-3.72Z"/><path class="cls-1" d="M325.5,386.38v-26h22.3v3.71h3.71v11.15H347.8V379H332.93v7.43Zm7.43-11.15h11.15V364.08H332.93Z"/><path class="cls-1" d="M358.94,386.38v-26h7.44v11.14h11.14V360.37H385v26h-7.43V375.23H366.38v11.15Z"/><path class="cls-1" d="M396.1,386.38v-3.72h7.43V364.08H396.1v-3.71h22.3v3.71H411v18.58h7.43v3.72Z"/><path class="cls-1" d="M433.26,386.38v-3.72h-3.72V379h-3.71V367.8h3.71v-3.72h3.72v-3.71h14.86v3.71h3.72v3.72h-7.43v-3.72H437v3.72h-3.72V379H437v3.71h7.43V379h7.43v3.71h-3.72v3.72Z"/><path class="cls-1" d="M492.71,386.38v-26h18.58v3.71H515v3.72h3.71V379H515v3.71h-3.72v3.72Zm7.44-3.72h7.43V379h3.71V367.8h-3.71v-3.72h-7.43Z"/><path class="cls-1" d="M526.16,386.38v-26h26v3.71H533.59v7.43h14.86v3.72H533.59v7.43h18.58v3.72Z"/><path class="cls-1" d="M563.31,386.38v-3.72H559.6V379H567v3.71h11.15v-7.43H563.31v-3.72H559.6v-7.43h3.71v-3.71h18.58v3.71h3.72v3.72h-7.43v-3.72H567v7.43h14.86v3.72h3.72v7.43h-3.72v3.72Z"/><path class="cls-1" d="M596.76,386.38v-3.72h7.43V364.08h-7.43v-3.71h22.29v3.71h-7.43v18.58h7.43v3.72Z"/><path class="cls-1" d="M633.92,386.38v-3.72H630.2V379h-3.72V367.8h3.72v-3.72h3.72v-3.71h18.57v3.71H637.63v3.72h-3.71V379h3.71v3.71h7.43v-7.43h-3.71v-3.72h11.14v14.87Z"/><path class="cls-1" d="M659.93,386.38v-26h7.43v3.71h3.71v3.72h3.72v3.71h3.72V360.37h7.43v26h-7.43V379h-3.72v-3.72h-3.72v-3.72h-3.71v14.87Z"/><path class="cls-1" d="M693.37,386.38v-26h26v3.71H700.8v7.43h14.86v3.72H700.8v7.43h18.58v3.72Z"/><path class="cls-1" d="M726.81,386.38v-26h22.3v3.71h3.71v11.15h-7.43V379h3.72v3.71h3.71v3.72H741.67v-3.72H738V379h-3.72v7.43Zm7.43-11.15h7.43v-3.72h3.72v-7.43H734.24Z"/></g></svg>