<svg xmlns="http://www.w3.org/2000/svg" viewBox="0 0 1920 1080"><defs><style>.cls-1{fill:#8f00ff;}.cls-2{fill:#fff;}</style></defs><title>Plan de travail 1</title><g id="texte"><path class="cls-1" d="M230.78,234.55h23.31a20.33,20.33,0,0,1,.3,40.65h-9.08v14.68H230.78Zm14.53,28.1h9a7.93,7.93,0,1,0,0-15.86h-9Z"/><path class="cls-1" d="M300,234.55h14.53v55.33H300Z"/><path class="cls-1" d="M395,234.55,376.56,261l20.28,28.85h-17.7L367.7,273.65l-11.51,16.23h-17.7L358.78,261l-18.45-26.48H358l9.66,13.79,9.59-13.79Z"/><path class="cls-2" d="M445.16,234.55a27.67,27.67,0,1,1-27.59,27.74A27.73,27.73,0,0,1,445.16,234.55Zm0,14.46a13.21,13.21,0,1,0,13.21,13.2A13.17,13.17,0,0,0,445.16,249Z"/><path class="cls-2" d="M551.1,234.47l-25.75,55.41h-6.64l-25.82-55.41H507.5L522,266l14.61-31.5Z"/><path class="cls-2" d="M575.22,234.55H609.6v12H589.76v9h17.55v12.25H589.76V278H609.6v11.88H575.22Z"/><path class="cls-2" d="M669.87,289.88l-8.55-14.68h-9v14.68H637.78V234.55h23.31a20.31,20.31,0,0,1,13.8,35.26l11.73,20.07Zm-17.55-27.23h9a7.93,7.93,0,1,0,0-15.86h-9Z"/><path class="cls-2" d="M738.33,269.52v20.36H724V269.52l-20.22-35h16.75L731.1,253l10.7-18.44h16.75Z"/></g></svg>