<svg xmlns="http://www.w3.org/2000/svg" xmlns:xlink="http://www.w3.org/1999/xlink" viewBox="0 0 1920 1080"><defs><style>.cls-1{fill:none;}.cls-2{opacity:0.34;}.cls-3{clip-path:url(#clip-path);}.cls-4{fill:#431b58;}.cls-5{fill:#9855d4;}.cls-6{fill:#ff0074;}.cls-7{fill:#2c036b;}.cls-8{fill:#4a1b68;}.cls-9{fill:#383835;}.cls-10{fill:#270738;opacity:0.42;}.cls-11{fill:#4e176e;}.cls-12{fill:#683794;}.cls-13{opacity:0.33;}.cls-14{fill:#891dfc;}.cls-15{fill:#d2c0ff;}.cls-16{fill:#bd9df7;}.cls-17{fill:#3b0950;}.cls-18{fill:#3f038e;}.cls-19{fill:url(#Dégradé_sans_nom_3);}.cls-20{fill:#720449;}.cls-21{fill:#560337;}.cls-22{fill:#1e1008;}.cls-23{fill:#0a091e;}.cls-24{fill:#e8c48d;}.cls-25{fill:#734a9f;}.cls-26{fill:#ff71e1;}.cls-27{fill:#5a02b7;}.cls-28{fill:#35140e;}.cls-29{fill:#6a369b;}.cls-30{fill:#b486fc;}.cls-31{fill:#a86bfd;}.cls-32{fill:#ffcdf2;}.cls-33{fill:#1a0033;}.cls-34{fill:#3f2459;}.cls-35{fill:#030406;}.cls-36{fill:#262044;}.cls-37{fill:#542c89;}.cls-38{fill:#8d5bbd;}.cls-39{fill:#7e41c4;}.cls-40{opacity:0.38;}.cls-41{fill:#9960f4;}</style><clipPath id="clip-path"><rect class="cls-1" x="93.81" y="934.96" width="807.06" height="141.14"/></clipPath><linearGradient id="Dégradé_sans_nom_3" x1="467.94" y1="1047.38" x2="625.42" y2="1047.38" gradientTransform="translate(-32.98 -46.12)" gradientUnits="userSpaceOnUse"><stop offset="0.25" stop-color="#1a0033"/><stop offset="1" stop-color="#200144" stop-opacity="0"/></linearGradient></defs><title>Plan de travail 1</title><g id="dino_et_fond" data-name="dino et fond"><g id="ombre"><g class="cls-2"><g class="cls-3"><rect class="cls-4" x="670.65" y="936.98" width="30.47" height="220.85"/><rect class="cls-4" x="462.69" y="959.75" width="20.15" height="108.21"/><rect class="cls-5" x="468.69" y="967.89" width="3.03" height="108.21"/><path class="cls-4" d="M523.69,937a57.09,57.09,0,0,1-101.86,0Z"/><path class="cls-6" d="M545.35,1170.81a91.3,91.3,0,1,0-170.1-66.41c-18.34,47-22.23,169.35,24.74,187.69S527,1217.78,545.35,1170.81Z"/><path class="cls-7" d="M490.87,1160l69.19-24.58a25.1,25.1,0,0,0,11.34-41.11l-87.15-95.72-8.77,12.84,56.16,93.85-64.38,7,12.57,22.06Z"/><rect class="cls-8" x="267.79" y="933.74" width="30.47" height="227.22"/><path class="cls-5" d="M472,962.83a70.45,70.45,0,0,1-12-2.91,54.9,54.9,0,0,1-20.4-12.51,66.68,66.68,0,0,1-8-9.38,33.13,33.13,0,0,0,6.11,11.1,38.62,38.62,0,0,0,9.69,8.41,39.1,39.1,0,0,0,11.9,4.82A34.35,34.35,0,0,0,472,962.83Z"/><rect class="cls-9" x="457.96" y="960.6" width="32" height="20.71" rx="10.28" ry="10.28"/><path class="cls-10" d="M487.8,1087.48a78.48,78.48,0,0,0,4.13-7.72c1.27-2.61,2.42-5.28,3.51-8s2.1-5.41,3-8.17a79.66,79.66,0,0,0,2.38-8.43,78.48,78.48,0,0,0-4.13,7.72c-1.27,2.62-2.42,5.28-3.51,8s-2.1,5.41-3,8.17A78.81,78.81,0,0,0,487.8,1087.48Z"/><rect class="cls-11" x="655.84" y="936.98" width="105.21" height="175.1"/><rect class="cls-12" x="625.26" y="936.98" width="32.99" height="175.1"/><rect class="cls-5" x="274.9" y="933.74" width="4.07" height="223.31"/><polygon class="cls-13" points="625.26 1112.08 659.06 1076.1 761.04 1076.1 761.04 1112.08 625.26 1112.08"/><path class="cls-14" d="M552,977.72l12.19-14.37s38.53-7.63,38.53-21h-70.1s-4.31,19.52,3.83,35.39Z"/><path class="cls-15" d="M601,943.21H535.09c-2,0-3.6-1.3-3.6-2.89s1.62-2.89,3.6-2.89H601c2,0,3.6,1.3,3.6,2.89S603,943.21,601,943.21Z"/><path class="cls-16" d="M581.18,943.21s-1.28,6.29,5.67,13.32c0,0,15.32-2.1,15.82-13.32Z"/><rect class="cls-16" x="544.03" y="971.38" width="14.31" height="2.64" rx="1.31" ry="1.31"/><rect class="cls-16" x="549.39" y="964.63" width="14.31" height="2.64" rx="1.31" ry="1.31"/><circle class="cls-16" cx="541.14" cy="951.16" r="4.26"/><path class="cls-14" d="M484.25,998.57l-5-18.17s15.42-36.13,4.37-43.68l-39.54,57.89s13.69,14.57,31.39,16.8Z"/><path class="cls-15" d="M483.35,938.67l-37.15,54.4c-1.11,1.64-3.1,2.25-4.41,1.35s-1.48-3-.36-4.6l37.15-54.41c1.12-1.64,3.11-2.24,4.42-1.35S484.47,937,483.35,938.67Z"/><path class="cls-16" d="M472.19,955s4.48,4.61,14.2,2.83c0,0,6.91-13.84-2.08-20.58Z"/><rect class="cls-16" x="472.47" y="995.1" width="14.31" height="2.64" rx="1.31" ry="1.31" transform="translate(-613.72 830.64) rotate(-55.67)"/><rect class="cls-16" x="469.93" y="986.86" width="14.31" height="2.64" rx="1.31" ry="1.31" transform="translate(-608.03 824.95) rotate(-55.67)"/><circle class="cls-16" cx="456.18" cy="992.57" r="4.26"/><rect class="cls-17" x="531.11" y="976.69" width="21.77" height="9.71" rx="4.47" ry="4.47" transform="translate(202.46 -87.05) rotate(11.28)"/><path class="cls-18" d="M423.56,1158.41h0a74.11,74.11,0,0,1,32.4-51.79l31.39-20.88,48.32-109.67L552,977.72,522,1102.9l-31.53,40.58.8,19.32Z"/></g></g><rect class="cls-19" x="434.95" y="754.34" width="157.48" height="493.84" transform="translate(-487.57 1514.95) rotate(-90)"/></g></g><g id="perso"><g id="personnage"><rect class="cls-4" x="670.52" y="715.85" width="30.47" height="220.85"/><rect class="cls-4" x="462.57" y="805.72" width="20.15" height="108.21"/><rect class="cls-5" x="468.56" y="797.58" width="3.03" height="108.21"/><path class="cls-4" d="M523.57,936.7a57.09,57.09,0,0,0-101.86,0Z"/><path class="cls-6" d="M545.23,702.87a91.3,91.3,0,0,1-170.1,66.41c-18.34-47-22.24-169.35,24.74-187.69S526.89,655.89,545.23,702.87Z"/><path class="cls-20" d="M522.62,719.28c-4.14,18.78-19,35.73-40.88,43.63-33.12,12-69.68-1.37-81.69-29.79a66.94,66.94,0,0,1-2.52-7.25S461.86,696.05,522.62,719.28Z"/><path class="cls-21" d="M522.77,721.66c-61-28.6-125.12,6.6-125.12,6.6-1.08-4.3-2-9.09-2.81-14.2-6.3-41.07-2.41-103.83,24.7-115.37,33-14.05,87.94,53.13,100.25,87.46A69.38,69.38,0,0,1,522.77,721.66Z"/><path class="cls-22" d="M418.56,497.37l-.5.14.34-.41Z"/><polygon class="cls-22" points="421.26 531.96 425.3 541.99 424.93 542.24 424.87 542.09 420.27 529.47 421.26 531.96"/><path class="cls-22" d="M426.83,541l-1.42,1v-4.78Z"/><path class="cls-22" d="M459.31,488.08l-.18-.27v0a.41.41,0,0,0,0-.07h0a.36.36,0,0,1,0-.11c0-.1-.08-.23-.15-.39s-.22-.52-.38-.86l-.22-.42c-.07-.15-.16-.31-.25-.47s-.19-.33-.3-.5a2.26,2.26,0,0,0-.16-.26l-.56-.83c-.13-.19-.27-.39-.43-.59a18.36,18.36,0,0,0-1.72-1.95c-.12-.13-.25-.25-.39-.38a21.84,21.84,0,0,0-2.25-1.86,20.54,20.54,0,0,0-2-1.27c-.29-.16-.59-.33-.9-.48l-.07,0c-.28-.14-.58-.29-.88-.42s-.51-.23-.78-.34-.79-.32-1.2-.46l-.48-.17c-.31-.11-.64-.21-1-.3s-.63-.19-1-.27a8.08,8.08,0,0,0-.85-.2l-.07,0-.6-.13-1-.2h-.09l-.82-.13-.94-.12q-.94-.12-1.95-.18h0l-.94-.05h-.13l-.59,0a59.09,59.09,0,0,0-15.34,1.83,49.5,49.5,0,0,1,16.93-1.81c1.24.08,2.49.21,3.77.4h0l.8.13a25,25,0,0,1,8,2.7l.92.53.6.38.53.35,0,0,.77.57c.32.25.63.49.93.75l.46.39A17.46,17.46,0,0,1,459.31,488.08Z"/><polygon class="cls-14" points="415.42 570.78 425.41 560.77 458.83 564.08 466.79 572.88 415.42 570.78"/><polygon class="cls-14" points="491.29 700.89 428.14 700.07 382.35 581.67 436.55 564.08 498.72 580.38 491.29 700.89"/><polygon class="cls-23" points="425.41 575.77 420.16 571.85 425.41 566.38 458.83 567.51 460.92 570.59 458.47 576.85 425.41 575.77"/><polygon class="cls-16" points="448.08 546.44 458.81 575.77 451.97 597.38 425.41 575.77 425.41 559.92 425.41 536.44 448.08 546.44"/><path class="cls-24" d="M418.56,497.37l-.5.14.34-.41Z"/><path class="cls-24" d="M460.75,493.54c-.38-1.53-.74-3.44-1.44-5.46a10.36,10.36,0,0,1,1,2Z"/><polygon class="cls-14" points="498.47 579.98 625.83 709.62 601.92 706.36 465.49 617.22 498.47 579.98"/><path class="cls-14" d="M413.29,628.71l-26.15-47.18-.21,0-55.86,84.71A21.82,21.82,0,0,0,349.34,700l69.85-.19-.62-9.46-37.71-14.82a9.38,9.38,0,0,1-2.78-15.77Z"/><path class="cls-15" d="M404.19,625a71.43,71.43,0,0,1-1,12.05,71.24,71.24,0,0,0-24.51-46.77,6.9,6.9,0,0,1,.18-10.59l.13-.11a6.92,6.92,0,0,1,9.74,1A71,71,0,0,1,404.19,625Z"/><path class="cls-15" d="M399.85,627.27a61,61,0,0,1,3.34,9.78A60.83,60.83,0,0,0,368,608.86a5.9,5.9,0,0,1-3.49-8.35l.07-.13a5.89,5.89,0,0,1,8-2.52A60.67,60.67,0,0,1,399.85,627.27Z"/><path class="cls-15" d="M490.17,626.25a76.94,76.94,0,0,0,4.72,10.61,86.21,86.21,0,0,1,2.9-52.68c1.51-3.88-.23-8.49-3.61-9.62l-.14,0c-3-1-6.12,1.18-6.91,4.88A86.13,86.13,0,0,0,490.17,626.25Z"/><path class="cls-15" d="M492.9,626.57a80.84,80.84,0,0,0,1.29,10.7c.49-16.7,6.18-31.77,15.21-42.6a7.2,7.2,0,0,0-.63-9.43l-.1-.09c-2.23-2-5.32-1.45-6.87,1.31A74.09,74.09,0,0,0,492.9,626.57Z"/><path class="cls-15" d="M409.34,686.74s12.1,5.18,16.72,3.75,16.67-7.87,27.56-3.75,22.62,12.5,22.62,12.5l-57.05.59Z"/><path class="cls-15" d="M586.73,693.35l57-.59s-11.73-8.38-22.62-12.5-22.94,2.32-27.56,3.75C593.6,684,588.32,687.41,586.73,693.35Z"/><path class="cls-4" d="M311.85,700A32.89,32.89,0,0,0,254,700Z"/><path class="cls-25" d="M296.11,608.52H269.7c3.17-17.44,7.91-30.83,13.2-30.83S292.94,591.08,296.11,608.52Z"/><path class="cls-25" d="M299.47,668.46c-2.13,19.43-8.74,24.18-16.57,24.18s-14.44-4.75-16.57-24.18Z"/><path class="cls-6" d="M300.19,653.42a138.73,138.73,0,0,1-.72,15H266.33a141.58,141.58,0,0,1-.71-15,264,264,0,0,1,4.08-44.9h26.41A265,265,0,0,1,300.19,653.42Z"/><path class="cls-26" d="M287.82,644.68h0a2.28,2.28,0,0,1,.56-1.47,3.74,3.74,0,1,0-6.6-2.4,3.71,3.71,0,0,0,2,3.29,1.78,1.78,0,0,1,.89,1.56h0a1.79,1.79,0,0,1-.95,1.58,6.92,6.92,0,1,0,5.64-.43A2.26,2.26,0,0,1,287.82,644.68Z"/><circle class="cls-26" cx="280.06" cy="622.79" r="8.75"/><path class="cls-22" d="M425.41,537.14v4.78l1.42-1Zm-5.14-7.67,4.6,12.62.06.15.37-.25-4-10Z"/><path class="cls-27" d="M420.62,476.11l-.1,0c-32.06,7.72-20.82,26.28-20.43,26.9h0s-7.92,11.08,5.11,24.64l5.84,6.07c3,3.13,5.32,5.6,7.12,7.51.59.63,1.13,1.19,1.61,1.71,2.26,2.41,3.22,3.46,3.22,3.46l.69-.68.27-.26,1.27-1.28,1.76-1.77,1.82-1.8h0a11.43,11.43,0,0,1-3.37-3.75c-.1-.17-.19-.35-.29-.53a12.5,12.5,0,0,1-1.12-3c-.45-1.22-1-2.64-1.59-4.27-4.42-11.92-1.15-18.74-1.15-18.74l-2.71-10.83,1.6,0,20,.19,6.94.07,4.14-4.1,7.93-7.85v0C458.93,487.17,452.81,468.41,420.62,476.11ZM426.83,541l-1.42,1v-4.78Zm-5.57-9,4,10-.37.25-.06-.15-4.6-12.62Zm-3.19-34.44.33-.42.16.27Z"/><path class="cls-22" d="M418.56,497.37l-.5.14.34-.41Z"/><path class="cls-22" d="M425.12,536.35a13.1,13.1,0,0,1-1.12-3Z"/><path class="cls-28" d="M418.56,497.37l-.5.14.34-.41Z"/><rect class="cls-29" x="554.34" y="687.64" width="107.31" height="11.56"/><path class="cls-7" d="M490.75,713.7l69.18,24.58a25.09,25.09,0,0,1,11.34,41.1l-87.15,95.73-8.76-12.84,56.16-93.85-64.38-7,12.56-22.05Z"/><rect class="cls-8" x="267.67" y="712.72" width="30.47" height="227.22"/><polygon class="cls-30" points="554.34 687.64 511.83 693.42 511.83 699.2 554.34 699.2 554.34 687.64"/><path class="cls-5" d="M471.89,910.84a71.43,71.43,0,0,0-12,2.92,54.9,54.9,0,0,0-20.4,12.51,66,66,0,0,0-8,9.38,33,33,0,0,1,6.11-11.1,38.95,38.95,0,0,1,21.58-13.23A34.41,34.41,0,0,1,471.89,910.84Z"/><path class="cls-10" d="M487.68,786.2a79.47,79.47,0,0,1,4.13,7.71c1.26,2.62,2.42,5.28,3.51,8s2.1,5.41,3,8.17a80.16,80.16,0,0,1,2.38,8.42,77.44,77.44,0,0,1-4.14-7.71c-1.26-2.62-2.41-5.28-3.5-8s-2.1-5.41-3-8.17A80.16,80.16,0,0,1,487.68,786.2Z"/><rect class="cls-11" x="655.71" y="761.6" width="105.21" height="175.1"/><rect class="cls-12" x="625.14" y="761.6" width="32.99" height="175.1"/><rect class="cls-5" x="274.77" y="716.62" width="4.07" height="223.31"/><rect class="cls-5" x="675.9" y="716.62" width="4.07" height="44.98"/><path class="cls-31" d="M274.11,605a43.41,43.41,0,0,1,.65-6.25,47.8,47.8,0,0,1,1.47-6.12c.32-1,.68-2,1.07-3a26.15,26.15,0,0,1,1.41-2.86,12.52,12.52,0,0,1,1.94-2.59,5.58,5.58,0,0,1,1.33-1,2.59,2.59,0,0,1,1.58-.29,3.81,3.81,0,0,0-2.31,1.78,17.69,17.69,0,0,0-1.42,2.65,58.53,58.53,0,0,0-2.06,5.75c-.64,2-1.19,3.94-1.78,5.92S274.82,603,274.11,605Z"/><path class="cls-31" d="M269.7,671c.58,1.71,1.14,3.37,1.75,5a49.31,49.31,0,0,0,2,4.78,25.5,25.5,0,0,0,1.23,2.24,17.89,17.89,0,0,0,1.46,2.1,14.07,14.07,0,0,0,3.89,3.4,9.15,9.15,0,0,1-4.82-2.55,15.93,15.93,0,0,1-3.21-4.48,23.22,23.22,0,0,1-1.79-5.14A20.63,20.63,0,0,1,269.7,671Z"/><path class="cls-31" d="M259.89,698.21a10.32,10.32,0,0,1,1.64-3.94,14.09,14.09,0,0,1,2.91-3.16,12.45,12.45,0,0,1,3.77-2.09,9.53,9.53,0,0,1,4.26-.51c-1.2.83-2.35,1.45-3.42,2.22S267,692.2,266,693s-2,1.63-3,2.5S261,697.28,259.89,698.21Z"/><path class="cls-32" d="M282.85,626.44a5.78,5.78,0,0,1-4.52-9.37,5.78,5.78,0,1,0,5.66,9.26A6.12,6.12,0,0,1,282.85,626.44Z"/><path class="cls-32" d="M288.05,656.23a3.82,3.82,0,0,1-3.81-3.81,3.77,3.77,0,0,1,.83-2.37,3.81,3.81,0,1,0,3.73,6.11A3.67,3.67,0,0,1,288.05,656.23Z"/><path class="cls-32" d="M285.93,642A1.91,1.91,0,0,1,284,640a1.89,1.89,0,0,1,.42-1.18,1.91,1.91,0,1,0,1.86,3A1.5,1.5,0,0,1,285.93,642Z"/><polygon class="cls-13" points="625.13 761.6 658.93 797.58 760.92 797.58 760.92 761.6 625.13 761.6"/><path class="cls-14" d="M551.88,896l12.2,14.37s38.53,7.64,38.53,21h-70.1s-4.32-19.51,3.83-35.39Z"/><path class="cls-15" d="M600.85,930.47H535c-2,0-3.6,1.3-3.6,2.89s1.62,2.89,3.6,2.89h65.88c2,0,3.6-1.3,3.6-2.89S602.83,930.47,600.85,930.47Z"/><path class="cls-16" d="M581.06,930.47s-1.28-6.3,5.67-13.32c0,0,15.32,2.1,15.82,13.32Z"/><rect class="cls-16" x="543.9" y="899.66" width="14.31" height="2.64" rx="1.31" ry="1.31"/><rect class="cls-16" x="549.27" y="906.41" width="14.31" height="2.64" rx="1.31" ry="1.31"/><circle class="cls-16" cx="541.01" cy="922.52" r="4.26"/><path class="cls-14" d="M484.12,875.11l-5,18.17s15.43,36.13,4.37,43.68L444,879.06s13.68-14.56,31.39-16.79Z"/><path class="cls-15" d="M483.23,935,446.08,880.6c-1.12-1.63-3.1-2.24-4.42-1.34s-1.47,3-.35,4.6l37.15,54.41c1.12,1.63,3.1,2.24,4.42,1.34S484.35,936.65,483.23,935Z"/><path class="cls-16" d="M472.07,918.66s4.48-4.6,14.2-2.82c0,0,6.91,13.83-2.08,20.57Z"/><rect class="cls-16" x="472.35" y="875.94" width="14.31" height="2.64" rx="1.31" ry="1.31" transform="translate(933.6 -13.42) rotate(55.67)"/><rect class="cls-16" x="469.8" y="884.18" width="14.31" height="2.64" rx="1.31" ry="1.31" transform="translate(939.29 -7.72) rotate(55.67)"/><circle class="cls-16" cx="456.06" cy="881.11" r="4.26"/><path class="cls-33" d="M479.66,700.05a.81.81,0,0,1-.81-.79C478,659.7,451.5,598.32,451.23,597.7a.81.81,0,1,1,1.48-.64c.27.61,26.94,62.29,27.75,102.16a.81.81,0,0,1-.79.83Z"/><circle class="cls-33" cx="462.32" cy="607.25" r="2.24"/><circle class="cls-33" cx="472.32" cy="638.49" r="2.24"/><circle class="cls-33" cx="479.66" cy="666.22" r="2.24"/><path class="cls-18" d="M423.44,715.27h0a74.11,74.11,0,0,0,32.4,51.79l31.39,20.87L535.54,897.6,551.88,896l-30-125.17-31.54-40.59.81-19.31Z"/><rect class="cls-29" x="225.42" y="699.24" width="535.5" height="16.51"/><rect class="cls-34" x="225.42" y="700.89" width="130.42" height="14.86"/><rect class="cls-35" x="225.42" y="697.62" width="535.5" height="8.25"/><polygon class="cls-31" points="425.41 561.89 429.83 553.83 454.92 565.14 441.65 545.69 427.7 544.4 425.41 547.49 425.41 561.89"/><path class="cls-15" d="M470.08,564.75a20.59,20.59,0,0,1-8.06,1.63c-.38,0-.76,0-1.14,0a16.16,16.16,0,0,1-2.07-.22,20.64,20.64,0,0,1-7.66-2.82c-.5-.31-1-.64-1.48-1l-23.9-17.7-.25-.7-.11-.3-.48-1.37-.06-.15L421.26,532l4,10,.11-.07v-4.79c-.09-.24-.19-.5-.29-.78a13.1,13.1,0,0,1-1.12-3c-.46-1.22-1-2.64-1.59-4.28-4.42-11.91-1.15-18.73-1.15-18.73l-2.71-10.82h1.6l20,.2,6.93.06,4.14-4.1,7.94-7.85.18.27c.7,2,1.06,3.93,1.44,5.46l1.29,9.81.61,4.68Z"/><path class="cls-6" d="M454,524.36a2.32,2.32,0,0,1-1.63-.24,13.52,13.52,0,0,1-3.43,9,13.16,13.16,0,0,1-2.36,2,15.67,15.67,0,0,1-1.86,1.08l-.25.12a7.3,7.3,0,0,1-2.65.65,8.14,8.14,0,0,1-3.74-.77c-6.41-2.87-11.24-12.75-11.24-12.75a23.41,23.41,0,0,1,3-2.07,20.89,20.89,0,0,1,3.48-1.63c.61-.21,1.2-.39,1.79-.55l.3-.07.11,0c.66-.16,1.29-.27,1.93-.36h0a20.61,20.61,0,0,1,3.37-.18,24.34,24.34,0,0,1,11.39,3.21,1.73,1.73,0,0,0,1.2.23h0Z"/><path class="cls-6" d="M472,524a15.34,15.34,0,0,1-1.24,3.32,7.35,7.35,0,0,1-.87,1.34,5.25,5.25,0,0,1-1.11,1.1c-.2.15-.4.27-.6.4a4.6,4.6,0,0,1-.94.37,5.06,5.06,0,0,1-1.44.2,10.11,10.11,0,0,1-5-1.23,10.86,10.86,0,0,1-2-1.39,15.61,15.61,0,0,1-3.6-4.74,2.12,2.12,0,0,1-1.16,1H454l-.58-2.37a1.29,1.29,0,0,0,.88-.77,17.1,17.1,0,0,1,1.81-3.07,19.3,19.3,0,0,1,2.59-3,16.34,16.34,0,0,1,1.61-1.34,12.2,12.2,0,0,1,1.46-1c.31-.17.62-.34.94-.5s.53-.24.8-.35h0a11.64,11.64,0,0,1,1.51-.51,1.55,1.55,0,0,1,.23-.06,10.61,10.61,0,0,1,1.51-.29,15.54,15.54,0,0,1,6.17.44A44.58,44.58,0,0,1,472,524Z"/><polygon class="cls-6" points="427.89 524.81 419.06 531.68 421.62 531.96 430.75 529.2 427.89 524.81"/><path class="cls-36" d="M454.92,523.07a17.66,17.66,0,0,1,1.52,1.35c.25.24.49.48.72.74a4,4,0,0,1,.66.91c.1.16.35.48.54.73l.61.81c.39.55.8,1.11,1.15,1.7A19.31,19.31,0,0,1,462,533a12.77,12.77,0,0,1,.8,4.18l-.12-.4a1,1,0,0,1,.12.31.86.86,0,0,1,0,.15.83.83,0,0,1,0,.23,1.27,1.27,0,0,1-.07.32,3,3,0,0,1-.2.47,5.9,5.9,0,0,1-.48.74,11.53,11.53,0,0,1-1.07,1.22l.11-.16a2.06,2.06,0,0,1-1.19,1,2.33,2.33,0,0,1-1.38,0L458,541a2.46,2.46,0,0,0-.46-.08,1.12,1.12,0,0,0-.41,0c-.11,0-.23.1-.25.09l-.3.21a3.56,3.56,0,0,1-.68-.17,1.48,1.48,0,0,1-.62-.39.67.67,0,0,1-.12-.73,1.47,1.47,0,0,1,.38-.53,1.49,1.49,0,0,0-.2.58.41.41,0,0,0,.19.42,1.94,1.94,0,0,0,1.06.17l-.3.21a1.1,1.1,0,0,1,.58-.57,2.11,2.11,0,0,1,.67-.16,3.19,3.19,0,0,1,.62,0l.55.07a1.43,1.43,0,0,0,.77-.12.8.8,0,0,0,.42-.42v0l.11-.14c.3-.4.61-.79.86-1.18a5.76,5.76,0,0,0,.32-.58,1.86,1.86,0,0,0,.09-.24v0a.18.18,0,0,0,0,.06s0,0,.09.21l-.13-.39a13.19,13.19,0,0,0-.76-3.69A27.92,27.92,0,0,0,458.9,530c-.31-.58-.61-1.16-.94-1.74l-.5-.87a9.25,9.25,0,0,1-.5-1,4.19,4.19,0,0,0-.4-.79c-.16-.28-.34-.56-.53-.84Z"/><path class="cls-37" d="M463.25,509.25c-2.49,1-5.36,2-7.8,4.49l-1-3a31.5,31.5,0,0,1,8.23-5.62Z"/><path class="cls-37" d="M445.55,511.36s-.61-1.07-4.41-1.45l-1.49,2.52v-2.62a13.32,13.32,0,0,0-10.52,4v3.84s5.79-6.95,17-3.28Z"/><path class="cls-36" d="M451.78,549a6.17,6.17,0,0,1,2.64-2.86,3.9,3.9,0,0,1,2.21-.47,6.19,6.19,0,0,1,.62.13l.58.24a3.68,3.68,0,0,0,.56.22.47.47,0,0,0,.21,0,2,2,0,0,0,.44-.37,5,5,0,0,1,.83-.72,2.09,2.09,0,0,1,1.38-.36,2.91,2.91,0,0,1,.63.15,4.28,4.28,0,0,1,.43.19l.82.39a16,16,0,0,1,1.64.94,13.11,13.11,0,0,1-1.88,0l-.94-.08-.46,0c-.09,0-.2,0-.26,0-.24.06-.34.22-.76.76a3.52,3.52,0,0,1-.92.85,2.39,2.39,0,0,1-1.56.22,4.5,4.5,0,0,1-1.12-.45l-.25-.13c-.09,0-.19,0-.28-.09a3,3,0,0,0-1.34.05A15.28,15.28,0,0,0,451.78,549Z"/><path class="cls-36" d="M454.92,551.26a19,19,0,0,0,4.37-.44,9.53,9.53,0,0,0,1.87-.71c.66-.28,1.28-.71,2.09-1.11a4.27,4.27,0,0,1-1.12,2.36,4.66,4.66,0,0,1-2.34,1.41,5,5,0,0,1-2.7,0A4.23,4.23,0,0,1,454.92,551.26Z"/><path class="cls-15" d="M427.3,546.53l-.3.69a3.82,3.82,0,0,1-.35.88c-.62,1.17-2.19,2.83-5.65.72-4.9-3-4.85-4.48-6.35-6.09a12.15,12.15,0,0,1-2.36-6.36c-.12-3.08,1.76-5.78,9.22-4.29l1,2.49,4,10,.11.3,2.38-1.12Z"/><path class="cls-36" d="M423.87,544.85a7,7,0,0,1-2.58-1.49,3.06,3.06,0,0,1-.88-1.35c-.13-.55-.17-1-.29-1.44a7.19,7.19,0,0,0-1-2.53,5.44,5.44,0,0,0-2.14-1.78,4.07,4.07,0,0,1,2.63,1.39,6.16,6.16,0,0,1,1.31,2.75c.1.47.16,1,.24,1.42a2.7,2.7,0,0,0,.6,1.11A14,14,0,0,0,423.87,544.85Z"/><path class="cls-36" d="M420.42,540.56a3.46,3.46,0,0,1-2.15.2,3,3,0,0,1-1-.45,1.15,1.15,0,0,1-.55-1,1.81,1.81,0,0,0,.85.45c.29.08.59.16.91.22A10.37,10.37,0,0,1,420.42,540.56Z"/><polygon class="cls-30" points="745.58 539.27 749.5 539.27 746.04 534.85 585.08 534.85 573.79 642.31 577.24 646.73 577.71 642.31 727.55 642.6 745.58 539.27"/><polygon class="cls-38" points="588.54 539.27 577.24 646.73 731 647.01 749.5 539.27 588.54 539.27"/><path class="cls-30" d="M666.47,605.84v93.53H661.3V612.89h-3.77a3.53,3.53,0,0,1,0-7Z"/><path class="cls-39" d="M684,699.37H664.54V605.84H679a2.18,2.18,0,0,1,1.76,1,4.3,4.3,0,0,1,.74,2.5l9.76,78.57C691.76,694,688.37,699.37,684,699.37Z"/></g><g id="cheveux"><g class="cls-40"><path class="cls-41" d="M448.92,487.81a25.62,25.62,0,0,0-5.1-8.21,33,33,0,0,0-6.19-5.25h0a.18.18,0,0,0-.07-.05c1.24.08,2.49.21,3.77.4h0l.1.09a24.58,24.58,0,0,1,3.59,3.83A18.78,18.78,0,0,1,448.92,487.81Z"/><path class="cls-41" d="M448,491.45a23.33,23.33,0,0,0-5.82-2.7,34.93,34.93,0,0,0-6.23-1.42,45,45,0,0,0-12.74.2,67.72,67.72,0,0,0-12.43,3c-2,.74-4,1.53-6,2.31s-3.91,1.79-5.89,2.64c1.87-1,3.79-2,5.68-3.09,2-.88,3.95-1.75,5.95-2.58,1-.36,2.05-.71,3.08-1.05a27.8,27.8,0,0,1,3.11-.93l3.16-.78c1.06-.23,2.14-.36,3.21-.55a43.58,43.58,0,0,1,13,0A26.94,26.94,0,0,1,448,491.45Z"/><path class="cls-41" d="M446.73,487.77a25.6,25.6,0,0,0-8-5.44,33.49,33.49,0,0,0-9.21-2.52l-2.39-.29-2.41-.08-1.2-.06-1.22.06c-.8,0-1.61.06-2.42.07-1.62.13-3.24.32-4.88.46s-3.24.5-4.9.68c1.54-.6,3.12-1.12,4.71-1.65,1.62-.37,3.25-.77,4.9-1,.83-.1,1.66-.2,2.5-.27l1.26-.13h1.26l2.53,0,2.53.25a27.63,27.63,0,0,1,9.64,3.12A18.73,18.73,0,0,1,446.73,487.77Z"/><path class="cls-41" d="M447.7,491.59a29.1,29.1,0,0,0-10-5.28,38.54,38.54,0,0,0-11-1.65h-2.81l-2.8.26-1.41.11-1.39.24c-.93.16-1.87.31-2.8.45s-1.85.43-2.78.62l-2.79.64c-1.83.54-3.66,1.08-5.54,1.55,1.71-.88,3.47-1.68,5.23-2.49,1.83-.63,3.65-1.31,5.52-1.84l2.85-.66,1.43-.31,1.46-.19,2.91-.33,3,0a32.34,32.34,0,0,1,11.54,2.19A22.25,22.25,0,0,1,447.7,491.59Z"/><path class="cls-41" d="M419.3,502.47l-2.19.41a22.13,22.13,0,0,0-2.66.58c-.89.23-1.78.44-2.67.64l-5.27,1.59c-1.73.62-3.47,1.25-5.25,1.8,1.59-.95,3.24-1.83,4.88-2.71s3.42-1.5,5.17-2.17a58.16,58.16,0,0,1,7.51-2Z"/><path class="cls-41" d="M420.3,506.47c-2.18.42-4.33,1-6.49,1.54-1.75.55-3.49,1.15-5.24,1.74s-3.42,1.38-5.16,2c1.64-.85,3.31-1.65,5-2.48s3.46-1.38,5.2-2a65.85,65.85,0,0,1,6.48-1.74h0Z"/><path class="cls-41" d="M420.94,511.17c-.09.28-.19.63-.29,1-2.3.42-4.57,1-6.84,1.61-1.75.55-3.49,1.14-5.24,1.74s-3.42,1.37-5.16,2c1.64-.85,3.31-1.65,5-2.48s3.46-1.37,5.2-2A61.63,61.63,0,0,1,420.94,511.17Z"/><path class="cls-41" d="M420.14,518.65c-.67.13-1.32.3-2,.47-.89.23-1.77.44-2.67.65l-5.27,1.59c-1.73.62-3.46,1.24-5.25,1.79,1.59-.95,3.24-1.82,4.89-2.7s3.41-1.51,5.16-2.17,3.37-1.08,5.09-1.51C420.09,517.35,420.1,518,420.14,518.65Z"/><path class="cls-41" d="M437.78,493.54a56.32,56.32,0,0,0-8.29-.31c-1.37.06-2.74.13-4.1.29-.68.09-1.36.13-2,.22l-2,.33c-.68.09-1.34.25-2,.37s-1.34.27-2,.45l-2,.47c-.65.2-1.31.4-2,.58-1.34.35-2.62.85-3.95,1.26s-2.6,1-3.95,1.41a42.25,42.25,0,0,1,3.55-2.3,35.46,35.46,0,0,1,3.83-1.84A37.25,37.25,0,0,1,421,492.1a36.29,36.29,0,0,1,8.52-.42A25.07,25.07,0,0,1,437.78,493.54Z"/><path class="cls-41" d="M450.57,490.47a25.59,25.59,0,0,0,.28-9.66,27.33,27.33,0,0,0-.62-3c0-.1,0-.19-.07-.29l.92.53.6.38.53.35a1.54,1.54,0,0,1,0,.3q.11.78.15,1.56A18.76,18.76,0,0,1,450.57,490.47Z"/></g></g></g></svg>