<svg xmlns="http://www.w3.org/2000/svg" xmlns:xlink="http://www.w3.org/1999/xlink" viewBox="0 0 535.5 605.82"><defs><style>.cls-1{fill:url(#Dégradé_sans_nom_2);}.cls-2{fill:#431b58;}.cls-3{fill:#9855d4;}.cls-4{fill:#ff0074;}.cls-5{fill:#720449;}.cls-6{fill:#560337;}.cls-7{fill:#1e1008;}.cls-8{fill:#8857ff;}.cls-9{fill:#891dfc;}.cls-10{fill:#0a091e;}.cls-11{fill:#bd9df7;}.cls-12{fill:#e8c48d;}.cls-13{fill:#d2c0ff;}.cls-14{fill:#734a9f;}.cls-15{fill:#ff71e1;}.cls-16{fill:#5a02b7;}.cls-17{fill:#35140e;}.cls-18{fill:#6a369b;}.cls-19{fill:#2c036b;}.cls-20{fill:#4a1b68;}.cls-21{fill:#b486fc;}.cls-22{fill:#270738;opacity:0.42;}.cls-23{fill:#4e176e;}.cls-24{fill:#683794;}.cls-25{fill:#a86bfd;}.cls-26{fill:#ffcdf2;}.cls-27{opacity:0.33;}.cls-28{fill:#6833a0;}.cls-29{fill:#3f038e;}.cls-30{fill:#3f2459;}.cls-31{fill:#030406;}.cls-32{fill:#262044;}.cls-33{fill:#542c89;}.cls-34{fill:#8d5bbd;}.cls-35{fill:#7e41c4;}</style><linearGradient id="Dégradé_sans_nom_2" x1="242.52" y1="573.2" x2="400" y2="573.2" gradientTransform="translate(-32.98 -46.12)" gradientUnits="userSpaceOnUse"><stop offset="0.25" stop-color="#1a0033"/><stop offset="1" stop-color="#200144" stop-opacity="0"/></linearGradient></defs><title>Fichier 1</title><g id="Calque_2" data-name="Calque 2"><g id="perso"><rect class="cls-1" x="209.53" y="280.16" width="157.48" height="493.84" transform="translate(-238.81 815.36) rotate(-90)"/><g id="personnage"><rect class="cls-2" x="445.1" y="241.68" width="30.47" height="220.85"/><rect class="cls-2" x="237.14" y="331.55" width="20.15" height="108.21"/><rect class="cls-3" x="243.14" y="323.41" width="3.03" height="108.21"/><path class="cls-2" d="M298.15,462.53a57.08,57.08,0,0,0-101.86,0Z"/><path class="cls-4" d="M319.81,228.69A91.31,91.31,0,0,1,149.7,295.1c-18.33-47-22.23-169.35,24.74-187.69S301.47,181.72,319.81,228.69Z"/><path class="cls-5" d="M297.2,245.1c-4.14,18.79-19,35.73-40.89,43.63-33.11,12-69.68-1.36-81.68-29.78a67.64,67.64,0,0,1-2.53-7.25S236.44,221.87,297.2,245.1Z"/><path class="cls-6" d="M297.35,247.49c-61.06-28.6-125.12,6.59-125.12,6.59-1.08-4.3-2-9.08-2.81-14.19-6.3-41.08-2.42-103.83,24.7-115.37,33-14,87.94,53.12,100.25,87.45A69.54,69.54,0,0,1,297.35,247.49Z"/><path class="cls-7" d="M193.14,23.19l-.5.15.34-.41Z"/><polygon class="cls-7" points="195.84 57.78 199.88 67.82 199.5 68.07 199.44 67.92 194.85 55.3 195.84 57.78"/><path class="cls-7" d="M201.41,66.79l-1.42,1V63Z"/><path class="cls-7" d="M233.88,13.91a2.61,2.61,0,0,0-.17-.28,0,0,0,0,0,0,0c-.19-.62-6.31-19.39-38.51-11.68A49,49,0,0,1,216.71.65a26.44,26.44,0,0,1,4.4,1.11,24.49,24.49,0,0,1,4.55,2.12l.59.38.57.38.77.56c.31.25.63.49.93.75l.46.4A17.29,17.29,0,0,1,233.88,13.91Z"/><polygon class="cls-8" points="190 96.6 199.99 86.6 233.4 89.9 241.37 98.7 190 96.6"/><polygon class="cls-9" points="265.87 226.72 202.72 225.89 156.93 107.5 211.13 89.9 273.3 106.2 265.87 226.72"/><polygon class="cls-10" points="199.99 101.6 194.73 97.67 199.99 92.21 233.4 93.34 235.49 96.42 233.04 102.67 199.99 101.6"/><polygon class="cls-11" points="222.66 72.26 233.38 101.6 226.55 123.2 199.99 101.6 199.99 85.75 199.99 62.26 222.66 72.26"/><path class="cls-12" d="M193.14,23.19l-.5.15.34-.41Z"/><path class="cls-12" d="M235.33,19.37c-.39-1.54-.74-3.44-1.45-5.46a10.57,10.57,0,0,1,1,2Z"/><polyline class="cls-9" points="273.04 105.81 400.4 235.45 376.5 232.18 240.06 143.04"/><path class="cls-9" d="M187.87,154.54l-26.16-47.19-.2,0L105.65,192a21.81,21.81,0,0,0,18.27,33.82l69.85-.19-.62-9.46-37.71-14.82a9.38,9.38,0,0,1-2.78-15.76Z"/><path class="cls-13" d="M178.76,150.86a71.43,71.43,0,0,1-1,12,71.28,71.28,0,0,0-24.51-46.77,6.9,6.9,0,0,1,.18-10.6l.13-.1a6.9,6.9,0,0,1,9.74,1A71,71,0,0,1,178.76,150.86Z"/><path class="cls-13" d="M174.43,153.1a60.94,60.94,0,0,1,3.34,9.77,60.9,60.9,0,0,0-35.22-28.19,5.89,5.89,0,0,1-3.49-8.35l.06-.13a5.91,5.91,0,0,1,8-2.52A60.62,60.62,0,0,1,174.43,153.1Z"/><path class="cls-13" d="M264.75,152.07a78.82,78.82,0,0,0,4.71,10.62A86.21,86.21,0,0,1,272.37,110c1.51-3.89-.23-8.5-3.62-9.62l-.13,0c-3-1-6.12,1.19-6.91,4.89A86.1,86.1,0,0,0,264.75,152.07Z"/><path class="cls-13" d="M267.48,152.4a78.86,78.86,0,0,0,1.29,10.69c.48-16.69,6.18-31.77,15.21-42.6a7.19,7.19,0,0,0-.63-9.42l-.1-.09c-2.23-2-5.32-1.45-6.87,1.31A73.89,73.89,0,0,0,267.48,152.4Z"/><path class="cls-13" d="M183.91,212.56s12.11,5.18,16.73,3.75,16.67-7.87,27.56-3.75,22.62,12.5,22.62,12.5l-57,.59Z"/><path class="cls-13" d="M361.31,219.17l57.05-.58s-11.74-8.39-22.62-12.51-22.94,2.33-27.56,3.76C368.18,209.84,362.89,213.24,361.31,219.17Z"/><path class="cls-2" d="M86.42,225.84a32.89,32.89,0,0,0-57.88,0Z"/><path class="cls-14" d="M70.69,134.34H44.28c3.17-17.43,7.9-30.83,13.2-30.83S67.51,116.91,70.69,134.34Z"/><path class="cls-14" d="M74.05,194.29c-2.13,19.43-8.75,24.18-16.57,24.18S43,213.72,40.91,194.29Z"/><path class="cls-4" d="M74.77,179.24a138.79,138.79,0,0,1-.72,15H40.91a141.39,141.39,0,0,1-.72-15,264.19,264.19,0,0,1,4.09-44.9H70.69A266.24,266.24,0,0,1,74.77,179.24Z"/><path class="cls-15" d="M62.4,170.51h0A2.32,2.32,0,0,1,63,169a3.61,3.61,0,0,0,.87-2.23,3.74,3.74,0,1,0-5.48,3.13,1.75,1.75,0,0,1,.89,1.55h0a1.8,1.8,0,0,1-.95,1.58,6.93,6.93,0,1,0,5.64-.42A2.27,2.27,0,0,1,62.4,170.51Z"/><circle class="cls-15" cx="54.63" cy="148.62" r="8.75"/><path class="cls-7" d="M200,63v4.79l1.42-1Zm-5.14-7.66,4.59,12.62.06.15.38-.25-4-10Z"/><path class="cls-16" d="M195.19,1.94l-.09,0C163,9.67,174.28,28.24,174.66,28.85h0s-7.91,11.08,5.12,24.64l5.83,6.08c3,3.13,5.33,5.6,7.12,7.5l1.62,1.71c2.25,2.41,3.22,3.47,3.22,3.47l.68-.69.28-.26L199.81,70l1.76-1.76,1.81-1.8s0,0,0,0A11.43,11.43,0,0,1,200,62.71c-.1-.17-.19-.35-.3-.53a13,13,0,0,1-1.11-3c-.46-1.22-1-2.64-1.59-4.27-4.43-11.91-1.15-18.73-1.15-18.73l-2.71-10.83,1.6,0,20,.19,6.94.07,4.14-4.1,7.93-7.86v0C233.51,13,227.39-5.77,195.19,1.94Zm6.22,64.85-1.42,1V63Zm-5.57-9,4,10-.38.25-.06-.15L194.85,55.3Zm-3.2-34.44.34-.41.16.26Z"/><path class="cls-7" d="M193.14,23.19l-.5.15.34-.41Z"/><path class="cls-7" d="M199.7,62.17a12.77,12.77,0,0,1-1.13-3C199,60.33,199.39,61.33,199.7,62.17Z"/><path class="cls-17" d="M193.14,23.19l-.5.15.34-.41Z"/><rect class="cls-18" x="328.91" y="213.46" width="107.31" height="11.56"/><path class="cls-19" d="M265.32,239.52l69.19,24.59a25.09,25.09,0,0,1,11.34,41.1L258.7,400.93l-8.77-12.83,56.17-93.86-64.38-7,12.56-22.06Z"/><rect class="cls-20" x="42.25" y="238.54" width="30.47" height="227.22"/><polygon class="cls-21" points="328.91 213.47 286.4 219.24 286.4 225.02 328.91 225.02 328.91 213.47"/><path class="cls-3" d="M246.47,436.67a70.58,70.58,0,0,0-12,2.92,54.56,54.56,0,0,0-20.39,12.5,67.31,67.31,0,0,0-8,9.38,33.49,33.49,0,0,1,6.11-11.1,39,39,0,0,1,21.59-13.22A34.2,34.2,0,0,1,246.47,436.67Z"/><path class="cls-22" d="M262.25,312a79.63,79.63,0,0,1,4.13,7.72c1.27,2.62,2.42,5.28,3.51,8s2.11,5.4,3,8.17a76.58,76.58,0,0,1,2.39,8.42,76.5,76.5,0,0,1-4.14-7.72c-1.26-2.61-2.42-5.28-3.5-8s-2.11-5.4-3-8.17A78.85,78.85,0,0,1,262.25,312Z"/><rect class="cls-23" x="430.29" y="287.42" width="105.21" height="175.1"/><rect class="cls-24" x="399.71" y="287.42" width="32.99" height="175.1"/><rect class="cls-3" x="49.35" y="242.45" width="4.07" height="223.31"/><rect class="cls-3" x="450.48" y="242.45" width="4.07" height="44.98"/><path class="cls-25" d="M48.69,130.83a42.32,42.32,0,0,1,.65-6.25,48.58,48.58,0,0,1,1.46-6.12c.33-1,.68-2,1.08-3a26.29,26.29,0,0,1,1.41-2.87A11.85,11.85,0,0,1,55.23,110a5.54,5.54,0,0,1,1.33-1,2.59,2.59,0,0,1,1.58-.29,3.77,3.77,0,0,0-2.31,1.78,15.55,15.55,0,0,0-1.42,2.64c-.79,1.87-1.46,3.8-2.07,5.76s-1.18,3.94-1.78,5.92S49.4,128.85,48.69,130.83Z"/><path class="cls-25" d="M44.28,196.79c.58,1.71,1.14,3.38,1.74,5a48.33,48.33,0,0,0,2,4.78,20.36,20.36,0,0,0,1.23,2.25,19,19,0,0,0,1.45,2.09,14,14,0,0,0,3.89,3.4,9.11,9.11,0,0,1-4.81-2.54,15.87,15.87,0,0,1-3.21-4.48,23.4,23.4,0,0,1-1.79-5.14A20.33,20.33,0,0,1,44.28,196.79Z"/><path class="cls-25" d="M34.46,224a10.34,10.34,0,0,1,1.65-3.94A13.81,13.81,0,0,1,39,216.94a12.25,12.25,0,0,1,3.77-2.1,9.49,9.49,0,0,1,4.26-.51c-1.21.84-2.36,1.45-3.42,2.22s-2.11,1.48-3.1,2.28-2,1.63-3,2.5S35.57,223.1,34.46,224Z"/><path class="cls-26" d="M57.43,152.26a5.76,5.76,0,0,1-4.52-9.36,5.78,5.78,0,1,0,5.65,9.25A5.93,5.93,0,0,1,57.43,152.26Z"/><path class="cls-26" d="M62.63,182.06a3.81,3.81,0,0,1-3-6.19A3.81,3.81,0,1,0,63.38,182,3.67,3.67,0,0,1,62.63,182.06Z"/><path class="cls-26" d="M60.51,167.78a1.92,1.92,0,0,1-1.5-3.1,1.91,1.91,0,1,0,1.87,3.06A2.33,2.33,0,0,1,60.51,167.78Z"/><polygon class="cls-27" points="399.71 287.43 433.51 323.4 535.5 323.4 535.5 287.43 399.71 287.43"/><path class="cls-9" d="M326.46,421.78l12.19,14.37s38.54,7.63,38.54,21h-70.1s-4.32-19.51,3.82-35.39Z"/><path class="cls-13" d="M375.43,456.29H309.55c-2,0-3.61,1.3-3.61,2.89s1.62,2.89,3.61,2.89h65.88c2,0,3.6-1.3,3.6-2.89S377.41,456.29,375.43,456.29Z"/><path class="cls-11" d="M355.63,456.29S354.35,450,361.31,443c0,0,15.32,2.1,15.82,13.32Z"/><rect class="cls-11" x="318.48" y="425.49" width="14.31" height="2.64" rx="1.31" ry="1.31"/><rect class="cls-11" x="323.84" y="432.24" width="14.31" height="2.64" rx="1.31" ry="1.31"/><circle class="cls-11" cx="315.59" cy="448.34" r="4.26"/><path class="cls-9" d="M258.7,400.93l-5,18.18s15.43,36.12,4.37,43.67l-39.53-57.89s13.68-14.57,31.38-16.79Z"/><path class="cls-13" d="M257.81,460.83l-37.15-54.4c-1.12-1.64-3.11-2.24-4.42-1.35s-1.47,3-.35,4.61L253,464.09c1.12,1.64,3.11,2.25,4.42,1.35S258.93,462.47,257.81,460.83Z"/><path class="cls-11" d="M246.65,444.49s4.48-4.61,14.2-2.83c0,0,6.9,13.84-2.08,20.58Z"/><rect class="cls-11" x="246.93" y="401.77" width="14.31" height="2.64" rx="1.31" ry="1.31" transform="translate(443.69 -34.04) rotate(55.67)"/><rect class="cls-11" x="244.38" y="410" width="14.31" height="2.64" rx="1.31" ry="1.31" transform="translate(449.39 -28.35) rotate(55.67)"/><circle class="cls-11" cx="230.63" cy="406.94" r="4.26"/><path class="cls-28" d="M254.23,225.87a.79.79,0,0,1-.8-.79c-.82-39.55-27.36-100.94-27.63-101.55a.81.81,0,1,1,1.49-.65c.27.62,26.93,62.3,27.75,102.17a.8.8,0,0,1-.79.82Z"/><circle class="cls-28" cx="236.89" cy="133.07" r="2.24"/><circle class="cls-28" cx="246.9" cy="164.31" r="2.24"/><circle class="cls-28" cx="254.23" cy="192.04" r="2.24"/><path class="cls-29" d="M198,241.09h0a74.12,74.12,0,0,0,32.41,51.79l31.38,20.88,48.32,109.67,16.34-1.65-30-125.18L264.92,256l.81-19.31Z"/><rect class="cls-18" y="225.06" width="535.5" height="16.51"/><rect class="cls-30" y="226.72" width="130.42" height="14.86"/><rect class="cls-31" y="223.45" width="535.5" height="8.25"/><polygon class="cls-25" points="199.99 87.72 204.41 79.66 229.5 90.96 216.23 71.51 202.28 70.23 199.99 73.31 199.99 87.72"/><path class="cls-13" d="M244.66,90.58a20.85,20.85,0,0,1-8.07,1.63c-.38,0-.75,0-1.13,0-.69,0-1.38-.11-2.08-.22a20.84,20.84,0,0,1-7.65-2.82c-.5-.31-1-.65-1.48-1l-23.91-17.7-.24-.69-.11-.31-.49-1.36-.05-.16-3.61-10.12,4,10,.12-.08V63c-.09-.24-.19-.5-.29-.79a12.77,12.77,0,0,1-1.13-3c-.45-1.22-1-2.63-1.58-4.27-4.42-11.92-1.16-18.74-1.16-18.74l-2.7-10.82,1.6,0,20,.19,6.93.07,4.14-4.1,7.94-7.86a2.61,2.61,0,0,1,.17.28c.71,2,1.06,3.92,1.45,5.46l1.29,9.8.61,4.68Z"/><path class="cls-4" d="M228.56,50.19a2.4,2.4,0,0,1-1.62-.24,13.5,13.5,0,0,1-3.44,9,12.5,12.5,0,0,1-2.36,2A15.49,15.49,0,0,1,219.29,62l-.25.13a7.49,7.49,0,0,1-2.66.64,7.87,7.87,0,0,1-3.73-.77c-6.41-2.87-11.24-12.75-11.24-12.75a22,22,0,0,1,3-2.06,19.78,19.78,0,0,1,3.48-1.63c.61-.21,1.2-.4,1.79-.55l.3-.08.11,0a16.74,16.74,0,0,1,1.93-.36h0a20.53,20.53,0,0,1,3.37-.19,24.28,24.28,0,0,1,11.39,3.22,1.73,1.73,0,0,0,1.2.22h0Z"/><path class="cls-4" d="M246.6,49.86a16.31,16.31,0,0,1-1.24,3.32,8.34,8.34,0,0,1-.87,1.34,5.3,5.3,0,0,1-1.12,1.1,5.46,5.46,0,0,1-.59.39,4.84,4.84,0,0,1-.94.37,5.11,5.11,0,0,1-1.44.2,10.26,10.26,0,0,1-5-1.22,11.28,11.28,0,0,1-2-1.39,16,16,0,0,1-3.61-4.75,2.08,2.08,0,0,1-1.15,1h-.07L228,47.81a1.29,1.29,0,0,0,.88-.76A17.35,17.35,0,0,1,230.68,44a20.27,20.27,0,0,1,2.59-3,16.57,16.57,0,0,1,1.61-1.34,14.11,14.11,0,0,1,1.46-.95c.3-.17.62-.34.94-.5l.79-.34h0a14.29,14.29,0,0,1,1.52-.52,1.55,1.55,0,0,1,.23-.06,10.34,10.34,0,0,1,1.51-.29,15.32,15.32,0,0,1,6.16.45A44.39,44.39,0,0,1,246.6,49.86Z"/><polygon class="cls-4" points="202.47 50.63 193.63 57.5 196.2 57.78 205.33 55.03 202.47 50.63"/><path class="cls-32" d="M229.5,48.89c.52.43,1,.88,1.52,1.35l.72.74a4,4,0,0,1,.65.92l.55.72.61.81c.39.56.8,1.11,1.15,1.7a19.27,19.27,0,0,1,1.83,3.73,12.83,12.83,0,0,1,.81,4.18l-.13-.39a.73.73,0,0,1,.12.3.5.5,0,0,1,0,.16.85.85,0,0,1,0,.23,2.06,2.06,0,0,1-.28.79,7.08,7.08,0,0,1-.47.73,11.65,11.65,0,0,1-1.07,1.23l.11-.17a2.08,2.08,0,0,1-1.19,1,2.41,2.41,0,0,1-1.38,0l-.52-.15a2.66,2.66,0,0,0-.46-.09,1.83,1.83,0,0,0-.41,0c-.11,0-.24.11-.25.1l-.31.2a3.2,3.2,0,0,1-.68-.16,1.58,1.58,0,0,1-.61-.4.67.67,0,0,1-.13-.72,1.75,1.75,0,0,1,.38-.53,1.6,1.6,0,0,0-.19.57.43.43,0,0,0,.18.43,2,2,0,0,0,1.07.17l-.31.2a1.09,1.09,0,0,1,.59-.56,1.64,1.64,0,0,1,.66-.16,3.29,3.29,0,0,1,.63,0l.55.07a1.53,1.53,0,0,0,.77-.11,1.05,1.05,0,0,0,.27-.2.65.65,0,0,0,.15-.22v0l.11-.15c.3-.39.6-.78.86-1.18a4.75,4.75,0,0,0,.32-.57,1.17,1.17,0,0,0,.08-.25.13.13,0,0,0,0,0v.1a.84.84,0,0,0,.09.21l-.12-.4a13.7,13.7,0,0,0-.76-3.69,29.28,29.28,0,0,0-1.55-3.56c-.31-.58-.62-1.17-.94-1.74l-.5-.88a8.21,8.21,0,0,1-.5-1,4.24,4.24,0,0,0-.4-.8c-.17-.28-.35-.56-.53-.84Z"/><path class="cls-33" d="M237.83,35.08c-2.5,1-5.37,2-7.8,4.49l-1-3a31.19,31.19,0,0,1,8.23-5.63Z"/><path class="cls-33" d="M220.13,37.18s-.61-1.07-4.42-1.45l-1.48,2.53V35.64a13.33,13.33,0,0,0-10.52,4V43.5s5.79-6.94,17-3.28Z"/><path class="cls-32" d="M226.36,74.83A6.15,6.15,0,0,1,229,72a3.86,3.86,0,0,1,2.22-.47c.2,0,.41.07.61.12l.58.24a3.36,3.36,0,0,0,.57.23.62.62,0,0,0,.21,0,1.75,1.75,0,0,0,.44-.36,4.84,4.84,0,0,1,.82-.72,2.17,2.17,0,0,1,2-.21l.42.18.83.39a14.46,14.46,0,0,1,1.64,1,14.76,14.76,0,0,1-1.88,0l-.94-.07-.46,0a1,1,0,0,0-.26,0c-.24.07-.34.22-.77.77a3.28,3.28,0,0,1-.91.84,2.41,2.41,0,0,1-1.56.23,4.56,4.56,0,0,1-1.12-.46l-.26-.13c-.09,0-.18,0-.27-.09a3,3,0,0,0-1.34.05A15.35,15.35,0,0,0,226.36,74.83Z"/><path class="cls-32" d="M229.5,77.09a19,19,0,0,0,4.37-.45,9.1,9.1,0,0,0,1.87-.7c.66-.29,1.28-.71,2.09-1.11a4.3,4.3,0,0,1-1.12,2.36,4.65,4.65,0,0,1-2.34,1.4,5,5,0,0,1-2.71,0A4.17,4.17,0,0,1,229.5,77.09Z"/><path class="cls-13" d="M201.88,72.35l-.3.7a4.75,4.75,0,0,1-.35.88c-.63,1.16-2.2,2.83-5.65.72-4.9-3-4.85-4.49-6.36-6.1a12.33,12.33,0,0,1-2.36-6.36c-.11-3.08,1.76-5.78,9.22-4.28l1,2.49,4,10,.12.29,2.38-1.11Z"/><path class="cls-32" d="M198.44,70.68a7.21,7.21,0,0,1-2.57-1.5,3.16,3.16,0,0,1-.89-1.35c-.12-.54-.17-1-.29-1.43a7.05,7.05,0,0,0-1-2.54,5.28,5.28,0,0,0-2.14-1.77,4.13,4.13,0,0,1,2.64,1.38,6.08,6.08,0,0,1,1.3,2.75c.11.48.17,1,.25,1.43a2.73,2.73,0,0,0,.6,1.1A14,14,0,0,0,198.44,70.68Z"/><path class="cls-32" d="M195,66.38a3.36,3.36,0,0,1-2.14.2,2.62,2.62,0,0,1-1-.45,1.15,1.15,0,0,1-.56-1,1.88,1.88,0,0,0,.85.44c.3.08.6.16.92.23A9.37,9.37,0,0,1,195,66.38Z"/><polygon class="cls-21" points="520.15 65.09 524.07 65.09 520.62 60.68 359.66 60.68 348.37 168.13 351.82 172.55 352.29 168.13 502.13 168.42 520.15 65.09"/><polygon class="cls-34" points="363.11 65.09 351.82 172.55 505.58 172.84 524.07 65.09 363.11 65.09"/><path class="cls-21" d="M441,131.66V225.2h-5.17V138.72h-3.76a3.53,3.53,0,0,1,0-7.06Z"/><path class="cls-35" d="M458.6,225.2H439.11V131.66H453.6a2.19,2.19,0,0,1,1.77,1,4.27,4.27,0,0,1,.74,2.49l9.75,78.57C466.34,219.87,463,225.2,458.6,225.2Z"/></g></g></g></svg>