<?xml version="1.0" encoding="utf-8"?>
<!-- Generator: Adobe Illustrator 25.3.0, SVG Export Plug-In . SVG Version: 6.00 Build 0)  -->
<svg version="1.1" id="Calque_1" xmlns="http://www.w3.org/2000/svg" xmlns:xlink="http://www.w3.org/1999/xlink" x="0px" y="0px"
	 viewBox="0 0 320 201.6" style="enable-background:new 0 0 320 201.6;" xml:space="preserve">
<style type="text/css">
	.st0{fill:#431B58;}
	.st1{fill:#9855D4;}
	.st2{fill:#FF0074;}
	.st3{fill:#720449;}
	.st4{fill:#560337;}
	.st5{fill:none;}
	.st6{fill:#1E1008;}
	.st7{fill:#891DFC;}
	.st8{fill:#0A091E;}
	.st9{fill:#BD9DF7;}
	.st10{fill:#E8C48D;}
	.st11{fill:none;stroke:#EF4223;stroke-miterlimit:10;}
	.st12{fill:#D2C0FF;}
	.st13{fill:#734A9F;}
	.st14{fill:#FF71E1;}
	.st15{fill:#5A02B7;}
	.st16{fill:#35140E;}
	.st17{fill:#6A369B;}
	.st18{fill:#2C036B;}
	.st19{fill:#4A1B68;}
	.st20{fill:#B486FC;}
	.st21{opacity:0.42;fill:#270738;}
	.st22{fill:#4E176E;}
	.st23{fill:#683794;}
	.st24{fill:#A86BFD;}
	.st25{fill:#FFCDF2;}
	.st26{opacity:0.33;}
	.st27{fill:#3F038E;}
	.st28{fill:#3F2459;}
	.st29{fill:#030406;}
	.st30{fill:#262044;}
	.st31{fill:#542C89;}
	.st32{fill:#8D5BBD;}
	.st33{fill:#7E41C4;}
</style>
<g id="personnage">
	<rect x="237.9" y="105.2" class="st0" width="13.3" height="96.2"/>
	<rect x="147.4" y="144.4" class="st0" width="8.8" height="47.1"/>
	<rect x="150" y="140.9" class="st1" width="1.3" height="47.1"/>
	<path class="st0" d="M173.9,201.5c-4-8.1-12.4-13.6-22.2-13.6c-9.8,0-18.2,5.6-22.2,13.6H173.9z"/>
	<path class="st2" d="M183.4,99.6c8,20.5-2.1,43.5-22.6,51.5s-43.5-2.1-51.5-22.6S99.6,54.7,120,46.8S175.4,79.1,183.4,99.6z"/>
	<path class="st3" d="M173.5,106.7c-1.8,8.2-8.3,15.6-17.8,19c-14.4,5.2-30.4-0.6-35.6-13c-0.4-0.9-0.8-2-1.1-3.2
		C119,109.6,147,96.6,173.5,106.7z"/>
	<path class="st4" d="M173.6,107.8c-26.6-12.5-54.5,2.9-54.5,2.9c-0.5-1.9-0.9-4-1.2-6.2c-2.7-17.9-1.1-45.2,10.8-50.3
		c14.4-6.1,38.3,23.1,43.7,38.1C174.1,97.4,174.5,102.7,173.6,107.8z"/>
	<g>
		<path class="st5" d="M139.3,1.4"/>
	</g>
	<path class="st6" d="M128.2,10.1l-0.2,0.1l0.1-0.2C128.1,10,128.2,10,128.2,10.1z"/>
	<polygon class="st6" points="129.4,25.1 131.1,29.5 131,29.6 130.9,29.6 128.9,24.1 	"/>
	<path class="st6" d="M131.8,29.1l-0.6,0.4v-2.1C131.8,29.1,131.8,29.1,131.8,29.1z"/>
	<path class="st6" d="M145.9,6c0,0,0-0.1-0.1-0.1c0,0,0,0,0,0c-0.1-0.3-2.7-8.4-16.8-5.1c2.7-0.8,5.9-1.1,9.4-0.6
		c0.7,0.1,1.3,0.3,1.9,0.5c0.7,0.3,1.4,0.6,2,0.9c0.1,0.1,0.2,0.1,0.3,0.2c0.1,0.1,0.2,0.1,0.2,0.2c0.1,0.1,0.2,0.2,0.3,0.2
		c0.1,0.1,0.3,0.2,0.4,0.3c0.1,0.1,0.1,0.1,0.2,0.2C145,3.8,145.6,4.9,145.9,6z"/>
	<polygon class="st7" points="126.8,42 131.2,37.7 145.7,39.1 149.2,43 	"/>
	<polygon class="st7" points="159.9,98.7 132.4,98.4 112.4,46.8 136,39.1 163.1,46.2 	"/>
	<polygon class="st8" points="131.2,44.2 128.9,42.5 131.2,40.1 145.7,40.6 146.6,42 145.6,44.7 	"/>
	<polygon class="st9" points="141,31.4 145.7,44.2 142.7,53.6 131.2,44.2 131.2,37.3 131.2,27.1 	"/>
	<path class="st10" d="M128.2,10.1l-0.2,0.1l0.1-0.2C128.1,10,128.2,10,128.2,10.1z"/>
	<path class="st10" d="M146.6,8.4c-0.2-0.7-0.3-1.5-0.6-2.4c0.2,0.3,0.3,0.5,0.4,0.9L146.6,8.4z"/>
	<path class="st11" d="M129.9,24.4"/>
	<polyline class="st7" points="163,46.1 218.5,102.5 208.1,101.1 148.6,62.3 	"/>
	<path class="st7" d="M125.9,67.3l-11.4-20.6l-0.1,0L90.1,83.6c-4.2,6.3,0.4,14.8,8,14.7l30.4-0.1l-0.3-4.1l-16.4-6.5
		c-2.8-1.1-3.5-4.8-1.2-6.9L125.9,67.3z"/>
	<path class="st12" d="M121.9,65.7c0,1.8-0.2,3.5-0.4,5.2c-0.8-8.1-4.8-15.3-10.7-20.4c-1.4-1.2-1.4-3.4,0.1-4.6c0,0,0,0,0.1,0
		c1.3-1,3.2-0.8,4.2,0.5C119.4,51.7,121.9,58.4,121.9,65.7z"/>
	<path class="st12" d="M120,66.7c0.6,1.4,1.1,2.8,1.5,4.3c-3.4-6.1-9-10.3-15.3-12.3c-1.5-0.5-2.3-2.2-1.5-3.6c0,0,0,0,0-0.1
		c0.7-1.3,2.2-1.8,3.5-1.1C113.3,56.5,117.5,60.9,120,66.7z"/>
	<path class="st12" d="M159.4,66.2c0.6,1.6,1.3,3.2,2.1,4.6c-2-7.8-1.5-16,1.3-22.9c0.7-1.7-0.1-3.7-1.6-4.2c0,0,0,0-0.1,0
		c-1.3-0.4-2.7,0.5-3,2.1C156.6,52.4,157,59.5,159.4,66.2z"/>
	<path class="st12" d="M160.6,66.4c0.1,1.6,0.3,3.1,0.6,4.7c0.2-7.3,2.7-13.8,6.6-18.6c1-1.1,0.8-3.1-0.3-4.1c0,0,0,0,0,0
		c-1-0.9-2.3-0.6-3,0.6C161.7,53.8,160.2,59.8,160.6,66.4z"/>
	<path class="st12" d="M124.2,92.6c0,0,5.3,2.3,7.3,1.6s7.3-3.4,12-1.6c4.7,1.8,9.9,5.4,9.9,5.4l-24.9,0.3L124.2,92.6z"/>
	<path class="st12" d="M201.4,95.4l24.9-0.3c0,0-5.1-3.7-9.9-5.4s-10,1-12,1.6C204.4,91.4,202.1,92.9,201.4,95.4z"/>
	<path class="st10" d="M130.5,94.2"/>
	<path class="st0" d="M81.7,98.3c-2.4-4.5-7.2-7.5-12.6-7.5c-5.4,0-10.2,3-12.6,7.5H81.7z"/>
	<path class="st13" d="M74.8,58.5H63.3c1.4-7.6,3.4-13.4,5.8-13.4C71.4,45.1,73.5,50.9,74.8,58.5z"/>
	<path class="st13" d="M76.3,84.6c-0.9,8.5-3.8,10.5-7.2,10.5c-3.4,0-6.3-2.1-7.2-10.5H76.3z"/>
	<path class="st2" d="M76.6,78c0,2.5-0.1,4.7-0.3,6.6H61.9c-0.2-1.9-0.3-4-0.3-6.6c0-6.2,0.7-13.5,1.8-19.6h11.5
		C75.9,64.6,76.6,71.8,76.6,78z"/>
	<path class="st14" d="M71.2,74.2L71.2,74.2c0-0.2,0.1-0.5,0.2-0.6c0.2-0.3,0.4-0.6,0.4-1c0-0.9-0.7-1.7-1.6-1.7
		c-0.9,0-1.7,0.7-1.7,1.6c0,0.6,0.4,1.2,0.9,1.4c0.2,0.1,0.4,0.4,0.4,0.7l0,0c0,0.3-0.2,0.6-0.4,0.7c-1,0.5-1.7,1.6-1.6,2.9
		c0.1,1.5,1.4,2.7,2.9,2.8c1.7,0.1,3.2-1.3,3.2-3c0-1.3-0.8-2.4-2-2.8C71.5,75,71.2,74.7,71.2,74.2z"/>
	<circle class="st14" cx="67.8" cy="64.7" r="3.8"/>
	<path class="st6" d="M131.2,27.4v2.1l0.6-0.4C131.8,29.1,131.8,29.1,131.2,27.4z M128.9,24.1l2,5.5l0,0.1l0.2-0.1l-1.8-4.4
		L128.9,24.1z"/>
	<path class="st15" d="M129.1,0.8C129.1,0.8,129.1,0.8,129.1,0.8c-14,3.4-9.1,11.5-8.9,11.7c0,0,0,0,0,0s-3.4,4.8,2.2,10.7
		c0.9,1,1.8,1.9,2.5,2.6c1.3,1.4,2.3,2.4,3.1,3.3c0.3,0.3,0.5,0.5,0.7,0.7c1,1,1.4,1.5,1.4,1.5l0.3-0.3l0.1-0.1l0.6-0.6l0.8-0.8
		l0.8-0.8c0,0,0,0,0,0c-0.1,0-0.9-0.6-1.5-1.6c0-0.1-0.1-0.2-0.1-0.2c-0.2-0.4-0.4-0.8-0.5-1.3c-0.2-0.5-0.4-1.1-0.7-1.9
		c-1.9-5.2-0.5-8.2-0.5-8.2l-1.2-4.7l0.7,0l8.7,0.1l3,0l1.8-1.8l3.5-3.4c0,0,0,0,0,0C145.8,5.6,143.1-2.5,129.1,0.8z M131.8,29.1
		l-0.6,0.4v-2.1C131.8,29.1,131.8,29.1,131.8,29.1z M129.4,25.1l1.8,4.4l-0.2,0.1l0-0.1l-2-5.5L129.4,25.1z M128,10.1l0.1-0.2
		c0,0,0,0.1,0.1,0.1L128,10.1z"/>
	<path class="st6" d="M128.2,10.1l-0.2,0.1l0.1-0.2C128.1,10,128.2,10,128.2,10.1z"/>
	<path class="st6" d="M131,27c-0.2-0.4-0.4-0.8-0.5-1.3C130.7,26.2,130.9,26.7,131,27z"/>
	<path class="st16" d="M128.2,10.1l-0.2,0.1l0.1-0.2C128.1,10,128.2,10,128.2,10.1z"/>
	<rect x="187.3" y="93" class="st17" width="46.7" height="5"/>
	<path class="st18" d="M159.6,104.3l30.1,10.7c7.8,2.3,10.4,12,4.9,17.9l-38,41.7l-3.8-5.6l24.5-40.9l-28-3l5.5-9.6L159.6,104.3z"/>
	<rect x="62.4" y="103.9" class="st19" width="13.3" height="99"/>
	<polygon class="st20" points="187.3,93 168.8,95.5 168.8,98 187.3,98 	"/>
	<path class="st1" d="M151.4,190.2c-1.8,0.3-3.6,0.7-5.2,1.3c-1.7,0.6-3.3,1.3-4.7,2.2c-1.5,0.9-2.9,2-4.1,3.2
		c-1.3,1.2-2.4,2.6-3.5,4.1c0.5-1.8,1.5-3.4,2.7-4.8c1.2-1.4,2.6-2.7,4.2-3.7c1.6-1,3.4-1.7,5.2-2.1
		C147.7,190,149.6,189.9,151.4,190.2z"/>
	<path class="st21" d="M158.3,135.9c0.7,1.1,1.3,2.2,1.8,3.4c0.6,1.1,1.1,2.3,1.5,3.5c0.5,1.2,0.9,2.4,1.3,3.6
		c0.4,1.2,0.8,2.4,1,3.7c-0.7-1.1-1.3-2.2-1.8-3.4c-0.6-1.1-1.1-2.3-1.5-3.5c-0.5-1.2-0.9-2.4-1.3-3.6
		C158.9,138.4,158.6,137.1,158.3,135.9z"/>
	<rect x="231.5" y="125.2" class="st22" width="45.8" height="76.3"/>
	<rect x="218.2" y="125.2" class="st23" width="14.4" height="76.3"/>
	<rect x="65.5" y="105.6" class="st1" width="1.8" height="97.3"/>
	<rect x="240.3" y="105.6" class="st1" width="1.8" height="19.6"/>
	<path class="st24" d="M65.3,57c0-0.9,0.1-1.8,0.3-2.7c0.2-0.9,0.4-1.8,0.6-2.7c0.1-0.4,0.3-0.9,0.5-1.3c0.2-0.4,0.4-0.8,0.6-1.2
		c0.2-0.4,0.5-0.8,0.8-1.1c0.2-0.2,0.4-0.3,0.6-0.4c0.2-0.1,0.5-0.2,0.7-0.1c-0.5,0.1-0.8,0.4-1,0.8c-0.2,0.4-0.4,0.8-0.6,1.2
		c-0.3,0.8-0.6,1.7-0.9,2.5c-0.3,0.8-0.5,1.7-0.8,2.6C65.8,55.2,65.6,56.1,65.3,57z"/>
	<path class="st24" d="M63.3,85.7c0.3,0.7,0.5,1.5,0.8,2.2c0.3,0.7,0.5,1.4,0.9,2.1c0.2,0.3,0.3,0.7,0.5,1c0.2,0.3,0.4,0.6,0.6,0.9
		c0.5,0.6,1,1.1,1.7,1.5c-0.8-0.1-1.5-0.5-2.1-1.1c-0.6-0.6-1-1.2-1.4-2c-0.3-0.7-0.6-1.5-0.8-2.2C63.4,87.3,63.3,86.5,63.3,85.7z"
		/>
	<path class="st24" d="M59.1,97.6c0.1-0.6,0.4-1.2,0.7-1.7c0.3-0.5,0.8-1,1.3-1.4c0.5-0.4,1-0.7,1.6-0.9c0.6-0.2,1.2-0.3,1.9-0.2
		c-0.5,0.4-1,0.6-1.5,1c-0.5,0.3-0.9,0.6-1.4,1c-0.4,0.3-0.9,0.7-1.3,1.1C60,96.8,59.5,97.2,59.1,97.6z"/>
	<path class="st25" d="M69.1,66.3c-1.4,0-2.5-1.1-2.5-2.5c0-0.6,0.2-1.1,0.5-1.6c-1.2,0.2-2,1.2-2,2.5c0,1.4,1.1,2.5,2.5,2.5
		c0.8,0,1.5-0.4,2-1C69.4,66.3,69.2,66.3,69.1,66.3z"/>
	<path class="st25" d="M71.3,79.3c-0.9,0-1.7-0.7-1.7-1.7c0-0.4,0.1-0.7,0.4-1c-0.8,0.2-1.3,0.8-1.3,1.6c0,0.9,0.7,1.7,1.7,1.7
		c0.5,0,1-0.2,1.3-0.6C71.5,79.3,71.4,79.3,71.3,79.3z"/>
	<path class="st25" d="M70.4,73.1c-0.5,0-0.8-0.4-0.8-0.8c0-0.2,0.1-0.4,0.2-0.5c-0.4,0.1-0.7,0.4-0.7,0.8c0,0.5,0.4,0.8,0.8,0.8
		c0.3,0,0.5-0.1,0.6-0.3C70.5,73,70.5,73.1,70.4,73.1z"/>
	<polygon class="st26" points="218.2,125.2 232.9,140.9 277.3,140.9 277.3,125.2 	"/>
	<g>
		<path class="st7" d="M186.3,183.7l5.3,6.3c0,0,16.8,3.3,16.8,9.2h-30.5c0,0-1.9-8.5,1.7-15.4H186.3z"/>
		<path class="st12" d="M207.6,198.7h-28.7c-0.9,0-1.6,0.6-1.6,1.3s0.7,1.3,1.6,1.3h28.7c0.9,0,1.6-0.6,1.6-1.3
			C209.2,199.3,208.5,198.7,207.6,198.7z"/>
		<path class="st9" d="M199,198.7c0,0-0.6-2.7,2.5-5.8c0,0,6.7,0.9,6.9,5.8H199z"/>
		<path class="st9" d="M183.4,186.5h5.1c0.3,0,0.6-0.3,0.6-0.6l0,0c0-0.3-0.3-0.6-0.6-0.6h-5.1c-0.3,0-0.6,0.3-0.6,0.6l0,0
			C182.8,186.2,183,186.5,183.4,186.5z"/>
		<path class="st9" d="M185.7,189.4h5.1c0.3,0,0.6-0.3,0.6-0.6l0,0c0-0.3-0.3-0.6-0.6-0.6h-5.1c-0.3,0-0.6,0.3-0.6,0.6l0,0
			C185.1,189.2,185.4,189.4,185.7,189.4z"/>
		<circle class="st9" cx="181.5" cy="195.3" r="1.9"/>
	</g>
	<g>
		<path class="st7" d="M156.7,174.6l-2.2,7.9c0,0,6.7,15.7,1.9,19l-17.2-25.2c0,0,6-6.3,13.7-7.3L156.7,174.6z"/>
		<path class="st12" d="M156.4,200.7L140.2,177c-0.5-0.7-1.4-1-1.9-0.6c-0.6,0.4-0.6,1.3-0.2,2l16.2,23.7c0.5,0.7,1.4,1,1.9,0.6
			C156.8,202.3,156.8,201.4,156.4,200.7z"/>
		<path class="st9" d="M151.5,193.6c0,0,2-2,6.2-1.2c0,0,3,6-0.9,9L151.5,193.6z"/>
		<path class="st9" d="M152.8,173.8l2.9,4.2c0.2,0.3,0.5,0.3,0.8,0.2l0,0c0.3-0.2,0.3-0.5,0.2-0.8l-2.9-4.2
			c-0.2-0.3-0.5-0.3-0.8-0.2l0,0C152.7,173.2,152.6,173.5,152.8,173.8z"/>
		<path class="st9" d="M151.7,177.4l2.9,4.2c0.2,0.3,0.5,0.3,0.8,0.2l0,0c0.3-0.2,0.3-0.5,0.2-0.8l-2.9-4.2
			c-0.2-0.3-0.5-0.3-0.8-0.2l0,0C151.6,176.8,151.5,177.1,151.7,177.4z"/>
		<circle class="st9" cx="144.5" cy="177.2" r="1.9"/>
	</g>
	<g>
		<path class="st27" d="M154.8,98.4c-0.2,0-0.3-0.2-0.4-0.3c-0.4-17.2-11.9-44-12-44.2c-0.1-0.2,0-0.4,0.2-0.5
			c0.2-0.1,0.4,0,0.5,0.2c0.1,0.3,11.7,27.1,12.1,44.5C155.2,98.2,155,98.4,154.8,98.4C154.8,98.4,154.8,98.4,154.8,98.4z"/>
		<circle class="st27" cx="147.2" cy="57.9" r="1"/>
		<circle class="st27" cx="151.6" cy="71.5" r="1"/>
		<circle class="st27" cx="154.8" cy="83.6" r="1"/>
	</g>
	<path class="st27" d="M130.3,105L130.3,105c1.2,9.2,6.4,17.4,14.1,22.6l13.7,9.1l21,47.8l7.1-0.7l-13.1-54.5l-13.7-17.7l0.4-8.4
		L130.3,105z"/>
	<rect x="44" y="98" class="st17" width="233.3" height="7.2"/>
	<rect x="44" y="98.7" class="st28" width="56.8" height="6.5"/>
	<rect x="44" y="97.3" class="st29" width="233.3" height="3.6"/>
	<polygon class="st24" points="131.2,38.2 133.1,34.7 144,39.6 138.2,31.1 132.2,30.6 131.2,31.9 	"/>
	<path class="st12" d="M150.6,39.4c-1.1,0.5-2.3,0.7-3.5,0.7c-0.2,0-0.3,0-0.5,0c-0.3,0-0.6,0-0.9-0.1c-1.2-0.2-2.3-0.6-3.3-1.2
		c-0.2-0.1-0.4-0.3-0.6-0.4l-10.4-7.7l-0.1-0.3l0-0.1l-0.2-0.6l0-0.1l-1.6-4.4l1.8,4.4l0,0v-2.1c0-0.1-0.1-0.2-0.1-0.3
		c-0.2-0.4-0.4-0.8-0.5-1.3c-0.2-0.5-0.4-1.1-0.7-1.9c-1.9-5.2-0.5-8.2-0.5-8.2l-1.2-4.7l0.7,0l8.7,0.1l3,0l1.8-1.8l3.5-3.4
		c0,0,0.1,0.1,0.1,0.1c0.3,0.9,0.5,1.7,0.6,2.4l0.6,4.3l0.3,2L150.6,39.4z"/>
	<g>
		<path class="st2" d="M143.6,21.8c-0.2,0-0.4,0-0.7-0.1c0,1-0.3,2.6-1.5,3.9c-0.3,0.3-0.6,0.6-1,0.9c-0.2,0.2-0.5,0.3-0.8,0.5
			c0,0-0.1,0-0.1,0.1c-0.4,0.2-0.8,0.3-1.2,0.3c-0.6,0-1.1-0.1-1.6-0.3c-2.8-1.2-4.9-5.6-4.9-5.6c0.4-0.3,0.9-0.6,1.3-0.9
			c0.5-0.3,1-0.5,1.5-0.7c0.3-0.1,0.5-0.2,0.8-0.2c0,0,0.1,0,0.1,0c0,0,0,0,0,0c0.3-0.1,0.6-0.1,0.8-0.2h0c0.5-0.1,1-0.1,1.5-0.1
			c2.9,0.1,5,1.4,5,1.4s0.2,0.2,0.5,0.1v0L143.6,21.8z"/>
		<path class="st2" d="M151.5,21.7c-0.1,0.5-0.3,1-0.5,1.4c-0.1,0.2-0.2,0.4-0.4,0.6c-0.1,0.2-0.3,0.3-0.5,0.5
			c-0.1,0.1-0.2,0.1-0.3,0.2c-0.1,0.1-0.3,0.1-0.4,0.2c-0.2,0.1-0.4,0.1-0.6,0.1c-0.8,0-1.6-0.2-2.2-0.5c-0.3-0.2-0.6-0.4-0.9-0.6
			c-0.8-0.6-1.3-1.5-1.6-2.1c0,0-0.2,0.3-0.5,0.4c0,0,0,0,0,0v0l-0.3-1c0.1,0,0.3-0.1,0.4-0.3c0,0,0.3-0.6,0.8-1.3
			c0.3-0.4,0.7-0.9,1.1-1.3c0.2-0.2,0.4-0.4,0.7-0.6c0.2-0.1,0.4-0.3,0.6-0.4c0.1-0.1,0.3-0.1,0.4-0.2c0.1-0.1,0.2-0.1,0.3-0.1h0
			c0.2-0.1,0.4-0.2,0.7-0.2c0,0,0.1,0,0.1,0c0.2-0.1,0.4-0.1,0.7-0.1c0.8-0.1,1.7-0.1,2.7,0.2C151.9,16.3,152.1,19.3,151.5,21.7z"/>
	</g>
	<g>
		<polygon class="st2" points="132.2,22 128.4,25 129.5,25.1 133.5,23.9 		"/>
	</g>
	<path class="st30" d="M144,21.3c0.2,0.2,0.5,0.4,0.7,0.6c0.1,0.1,0.2,0.2,0.3,0.3c0.1,0.1,0.2,0.2,0.3,0.4c0,0.1,0.2,0.2,0.2,0.3
		l0.3,0.4c0.2,0.2,0.3,0.5,0.5,0.7c0.3,0.5,0.6,1,0.8,1.6c0.2,0.6,0.3,1.2,0.3,1.8l-0.1-0.2c0.1,0.1,0,0.1,0.1,0.1c0,0,0,0,0,0.1
		c0,0,0,0.1,0,0.1c0,0.1,0,0.1,0,0.1c0,0.1-0.1,0.1-0.1,0.2c-0.1,0.1-0.1,0.2-0.2,0.3c-0.1,0.2-0.3,0.4-0.5,0.5l0-0.1
		c-0.1,0.2-0.3,0.4-0.5,0.4c-0.2,0.1-0.4,0.1-0.6,0l-0.2-0.1c-0.1,0-0.1,0-0.2,0c-0.1,0-0.1,0-0.2,0c0,0-0.1,0-0.1,0l-0.1,0.1
		c-0.1,0-0.2,0-0.3-0.1c-0.1,0-0.2-0.1-0.3-0.2c-0.1-0.1-0.1-0.2-0.1-0.3c0-0.1,0.1-0.2,0.2-0.2c0,0.1-0.1,0.2-0.1,0.3
		c0,0.1,0,0.1,0.1,0.2c0.1,0.1,0.3,0.1,0.5,0.1l-0.1,0.1c0.1-0.1,0.2-0.2,0.3-0.2c0.1,0,0.2-0.1,0.3-0.1c0.1,0,0.2,0,0.3,0l0.2,0
		c0.1,0,0.2,0,0.3,0c0,0,0.1,0,0.1-0.1c0,0,0.1-0.1,0.1-0.1l0,0l0-0.1c0.1-0.2,0.3-0.3,0.4-0.5c0.1-0.1,0.1-0.2,0.1-0.3
		c0,0,0-0.1,0-0.1c0,0,0,0,0,0c0,0,0,0,0,0c0,0,0,0,0,0c0,0,0,0,0,0.1l-0.1-0.2c0-0.5-0.2-1.1-0.3-1.6c-0.2-0.5-0.4-1-0.7-1.6
		c-0.1-0.3-0.3-0.5-0.4-0.8l-0.2-0.4c-0.1-0.1-0.1-0.2-0.2-0.4c0-0.1-0.1-0.2-0.2-0.3c-0.1-0.1-0.2-0.2-0.2-0.4L144,21.3z"/>
	<path class="st31" d="M147.7,15.2c-1.1,0.4-2.3,0.8-3.4,2l-0.4-1.3c0,0,1.5-1.5,3.6-2.4L147.7,15.2z"/>
	<path class="st31" d="M139.9,16.2c0,0-0.3-0.5-1.9-0.6l-0.6,1.1v-1.1c-1.5,0-3.3,0.3-4.6,1.8v1.7c0,0,2.5-3,7.4-1.4L139.9,16.2z"/>
	<path class="st30" d="M142.7,32.6c0.2-0.5,0.6-0.9,1.1-1.2c0.3-0.1,0.6-0.2,1-0.2c0.1,0,0.2,0,0.3,0.1l0.3,0.1
		c0.1,0,0.2,0.1,0.2,0.1c0.1,0,0.1,0,0.1,0c0,0,0.1-0.1,0.2-0.2c0.1-0.1,0.2-0.2,0.4-0.3c0.2-0.1,0.4-0.2,0.6-0.2
		c0.1,0,0.2,0,0.3,0.1c0.1,0,0.1,0.1,0.2,0.1l0.4,0.2c0.2,0.1,0.5,0.2,0.7,0.4c-0.3,0-0.5,0-0.8,0l-0.4,0l-0.2,0c0,0-0.1,0-0.1,0
		c-0.1,0-0.1,0.1-0.3,0.3c-0.1,0.1-0.2,0.2-0.4,0.4c-0.2,0.1-0.5,0.1-0.7,0.1c-0.2,0-0.4-0.1-0.5-0.2c0,0-0.1,0-0.1-0.1
		c0,0-0.1,0-0.1,0c-0.2,0-0.4,0-0.6,0C143.6,32.1,143.1,32.3,142.7,32.6z"/>
	<path class="st30" d="M144,33.5c0.8,0,1.4,0,1.9-0.2c0.3-0.1,0.5-0.2,0.8-0.3c0.3-0.1,0.6-0.3,0.9-0.5c-0.1,0.4-0.2,0.7-0.5,1
		c-0.3,0.3-0.6,0.5-1,0.6c-0.4,0.1-0.8,0.1-1.2,0C144.6,34.1,144.3,33.9,144,33.5z"/>
	<path class="st12" d="M132,31.5l-0.1,0.3c0,0,0,0.2-0.2,0.4c-0.3,0.5-1,1.2-2.5,0.3c-2.1-1.3-2.1-2-2.8-2.7c-0.3-0.3-1-1.6-1-2.8
		c0-1.3,0.8-2.5,4-1.9l0.4,1.1l1.8,4.4l0,0.1l1-0.5L132,31.5z"/>
	<g>
		<g>
			<path class="st30" d="M130.5,30.8c-0.4-0.1-0.8-0.3-1.1-0.7c-0.2-0.2-0.3-0.3-0.4-0.6c-0.1-0.2-0.1-0.4-0.1-0.6
				c-0.1-0.4-0.2-0.8-0.4-1.1c-0.2-0.3-0.5-0.6-0.9-0.8c0.4,0,0.9,0.3,1.1,0.6c0.3,0.3,0.5,0.8,0.6,1.2c0,0.2,0.1,0.4,0.1,0.6
				c0,0.2,0.1,0.3,0.3,0.5C129.8,30.2,130.2,30.5,130.5,30.8z"/>
			<path class="st30" d="M129,28.9c-0.3,0.1-0.6,0.1-0.9,0.1c-0.2,0-0.3-0.1-0.5-0.2c-0.1-0.1-0.3-0.3-0.2-0.4
				c0.1,0.1,0.2,0.2,0.4,0.2c0.1,0,0.3,0.1,0.4,0.1C128.4,28.7,128.7,28.7,129,28.9z"/>
		</g>
	</g>
	<polygon class="st20" points="270.6,28.3 272.3,28.3 270.8,26.4 200.7,26.4 195.8,73.2 197.3,75.1 197.5,73.2 262.8,73.3 	"/>
	<polygon class="st32" points="202.2,28.3 197.3,75.1 264.3,75.3 272.3,28.3 	"/>
	<path class="st20" d="M236.2,57.3v40.7h-2.3V60.4h-1.6c-0.4,0-0.8-0.2-1.1-0.4c-0.3-0.3-0.4-0.7-0.4-1.1c0-0.9,0.7-1.5,1.5-1.5
		H236.2z"/>
	<path class="st33" d="M243.8,98.1h-8.5V57.3h6.3c0.3,0,0.6,0.2,0.8,0.4c0.2,0.3,0.3,0.7,0.3,1.1l4.3,34.2
		C247.2,95.7,245.7,98.1,243.8,98.1z"/>
</g>
</svg>
