<svg xmlns="http://www.w3.org/2000/svg" viewBox="0 0 237.09 206.25"><defs><style>.cls-1{fill:#431b58;}.cls-2{fill:#9855d4;}.cls-3{fill:#ff0074;}.cls-4{fill:#720449;}.cls-5{fill:#560337;}.cls-6{fill:#1e1008;}.cls-7{fill:#891dfc;}.cls-8{fill:#0a091e;}.cls-9{fill:#bd9df7;}.cls-10{fill:#e8c48d;}.cls-11{fill:#d2c0ff;}.cls-12{fill:#734a9f;}.cls-13{fill:#ff71e1;}.cls-14{fill:#5a02b7;}.cls-15{fill:#35140e;}.cls-16{fill:#6a369b;}.cls-17{fill:#2c036b;}.cls-18{fill:#4a1b68;}.cls-19{fill:#b486fc;}.cls-20{fill:#270738;opacity:0.42;}.cls-21{fill:#4e176e;}.cls-22{fill:#683794;}.cls-23{fill:#a86bfd;}.cls-24{fill:#ffcdf2;}.cls-25{opacity:0.33;}.cls-26{fill:#3f038e;}.cls-27{fill:#3f2459;}.cls-28{fill:#030406;}.cls-29{fill:#262044;}.cls-30{fill:#542c89;}.cls-31{fill:#8d5bbd;}.cls-32{fill:#7e41c4;}</style></defs><title>Fichier 1</title><g id="Calque_2" data-name="Calque 2"><g id="Accueuil"><g id="personnage"><rect class="cls-1" x="197.06" y="107" width="13.49" height="97.78"/><rect class="cls-1" x="104.99" y="146.79" width="8.92" height="47.91"/><rect class="cls-2" x="107.65" y="143.18" width="1.34" height="47.91"/><path class="cls-1" d="M132,204.78a25.27,25.27,0,0,0-45.1,0Z"/><path class="cls-3" d="M141.59,101.25a40.42,40.42,0,1,1-75.31,29.4c-8.12-20.79-9.84-75,11-83.09S133.47,80.45,141.59,101.25Z"/><path class="cls-4" d="M131.58,108.52c-1.83,8.31-8.42,15.82-18.1,19.31-14.66,5.3-30.85-.6-36.16-13.18a28.46,28.46,0,0,1-1.12-3.21S104.68,98.23,131.58,108.52Z"/><path class="cls-5" d="M131.65,109.57c-27-12.66-55.4,2.92-55.4,2.92-.48-1.9-.89-4-1.24-6.28-2.79-18.19-1.07-46,10.93-51.08,14.62-6.22,38.94,23.52,44.39,38.72A30.8,30.8,0,0,1,131.65,109.57Z"/><path class="cls-6" d="M85.51,10.27l-.22.06.15-.18Z"/><polygon class="cls-6" points="86.7 25.58 88.49 30.02 88.33 30.14 88.3 30.07 86.27 24.48 86.7 25.58"/><path class="cls-6" d="M89.17,29.57l-.63.42V27.88Z"/><path class="cls-6" d="M103.55,6.16a.62.62,0,0,0-.08-.12h0c-.08-.27-2.8-8.58-17-5.17A21.61,21.61,0,0,1,96,.29a11.26,11.26,0,0,1,4,1.43l.26.17.25.16.34.25c.14.11.28.22.41.34l.21.17A7.69,7.69,0,0,1,103.55,6.16Z"/><polygon class="cls-7" points="84.12 42.77 88.54 38.34 103.34 39.8 106.86 43.7 84.12 42.77"/><polygon class="cls-7" points="117.71 100.38 89.75 100.01 69.48 47.59 93.48 39.8 121 47.02 117.71 100.38"/><polygon class="cls-8" points="88.54 44.98 86.22 43.24 88.54 40.82 103.34 41.33 104.26 42.69 103.18 45.46 88.54 44.98"/><polygon class="cls-9" points="98.58 31.99 103.33 44.98 100.3 54.55 88.54 44.98 88.54 37.96 88.54 27.57 98.58 31.99"/><path class="cls-10" d="M85.51,10.27l-.22.06.15-.18Z"/><path class="cls-10" d="M104.19,8.58c-.17-.68-.33-1.53-.64-2.42A4.82,4.82,0,0,1,104,7Z"/><polyline class="cls-7" points="120.89 46.84 177.28 104.24 166.69 102.8 106.28 63.33"/><path class="cls-7" d="M83.18,68.42,71.6,47.53l-.09,0L46.78,85a9.66,9.66,0,0,0,8.09,15l30.92-.08-.27-4.19-16.7-6.56a4.15,4.15,0,0,1-1.23-7Z"/><path class="cls-11" d="M79.15,66.79a32.21,32.21,0,0,1-.45,5.33,31.56,31.56,0,0,0-10.86-20.7,3.06,3.06,0,0,1,.08-4.69l.06,0a3.06,3.06,0,0,1,4.31.47A31.44,31.44,0,0,1,79.15,66.79Z"/><path class="cls-11" d="M77.23,67.78a27.29,27.29,0,0,1,1.47,4.33A26.9,26.9,0,0,0,63.11,59.63a2.61,2.61,0,0,1-1.54-3.7l0-.06a2.61,2.61,0,0,1,3.53-1.11A26.87,26.87,0,0,1,77.23,67.78Z"/><path class="cls-11" d="M117.21,67.33A35.2,35.2,0,0,0,119.3,72a38.15,38.15,0,0,1,1.29-23.33c.67-1.71-.1-3.76-1.6-4.26h-.06c-1.33-.45-2.71.52-3.06,2.16A38.18,38.18,0,0,0,117.21,67.33Z"/><path class="cls-11" d="M118.42,67.47a34.88,34.88,0,0,0,.58,4.74,30.86,30.86,0,0,1,6.73-18.86,3.2,3.2,0,0,0-.28-4.18l0,0a1.91,1.91,0,0,0-3,.58A32.85,32.85,0,0,0,118.42,67.47Z"/><path class="cls-11" d="M81.43,94.11s5.36,2.29,7.4,1.66,7.38-3.48,12.2-1.66a52.68,52.68,0,0,1,10,5.54l-25.26.26Z"/><path class="cls-11" d="M160,97l25.25-.26a52.43,52.43,0,0,0-10-5.54c-4.82-1.82-10.16,1-12.2,1.66A7.89,7.89,0,0,0,160,97Z"/><path class="cls-1" d="M38.26,100a14.57,14.57,0,0,0-25.63,0Z"/><path class="cls-12" d="M31.3,59.48H19.6c1.41-7.72,3.5-13.65,5.85-13.65S29.89,51.76,31.3,59.48Z"/><path class="cls-12" d="M32.79,86c-.95,8.6-3.88,10.7-7.34,10.7s-6.4-2.1-7.34-10.7Z"/><path class="cls-3" d="M33.1,79.36A63.85,63.85,0,0,1,32.79,86H18.11a63.85,63.85,0,0,1-.31-6.66,117.86,117.86,0,0,1,1.8-19.88H31.3A117.86,117.86,0,0,1,33.1,79.36Z"/><path class="cls-13" d="M27.63,75.49h0a1,1,0,0,1,.24-.65A1.65,1.65,0,1,0,25,73.77a1.64,1.64,0,0,0,.88,1.46.78.78,0,0,1,.39.69h0a.8.8,0,0,1-.42.7,3.05,3.05,0,0,0-1.6,2.93,3.07,3.07,0,1,0,4.1-3.12A1,1,0,0,1,27.63,75.49Z"/><circle class="cls-13" cx="24.19" cy="65.8" r="3.87"/><path class="cls-6" d="M88.54,27.88V30l.63-.42Zm-2.27-3.4,2,5.59,0,.07.16-.12L86.7,25.58Z"/><path class="cls-14" d="M86.42.86h0c-14.2,3.41-9.22,11.63-9,11.9h0s-3.5,4.9,2.27,10.91l2.58,2.69,3.16,3.32.71.76L87.48,32l.3-.3.12-.12.56-.56.78-.78.81-.8h0a5,5,0,0,1-1.5-1.66l-.13-.23a5.76,5.76,0,0,1-.49-1.35c-.2-.53-.44-1.16-.71-1.89C85.26,19,86.7,16,86.7,16l-1.19-4.8h.7l8.84.09,3.08,0L100,9.51,103.47,6h0C103.38,5.75,100.67-2.55,86.42.86Zm2.75,28.71-.63.42V27.88Zm-2.47-4L88.49,30l-.16.12,0-.07-2-5.59ZM85.29,10.33l.15-.18.07.12Z"/><path class="cls-6" d="M85.51,10.27l-.22.06.15-.18Z"/><path class="cls-6" d="M88.41,27.53a5.84,5.84,0,0,1-.49-1.34C88.11,26.71,88.28,27.15,88.41,27.53Z"/><path class="cls-15" d="M85.51,10.27l-.22.06.15-.18Z"/><rect class="cls-16" x="145.62" y="94.51" width="47.51" height="5.12"/><path class="cls-17" d="M117.47,106.05l30.63,10.88a11.11,11.11,0,0,1,5,18.2l-38.58,42.38-3.88-5.68,24.86-41.56L107,127.19l5.56-9.77Z"/><rect class="cls-18" x="18.7" y="105.61" width="13.49" height="100.6"/><polygon class="cls-19" points="145.62 94.51 126.8 97.07 126.8 99.63 145.62 99.63 145.62 94.51"/><path class="cls-2" d="M109.12,193.33a31.32,31.32,0,0,0-5.3,1.29,24.25,24.25,0,0,0-9,5.54,29.67,29.67,0,0,0-3.54,4.15A14.72,14.72,0,0,1,94,199.4a17,17,0,0,1,4.29-3.73,17.48,17.48,0,0,1,5.27-2.13A15.32,15.32,0,0,1,109.12,193.33Z"/><path class="cls-20" d="M116.11,138.14a36.31,36.31,0,0,1,1.83,3.42c.56,1.16,1.07,2.34,1.55,3.53s.93,2.39,1.34,3.62a35.42,35.42,0,0,1,1,3.73,34.14,34.14,0,0,1-1.83-3.42c-.56-1.16-1.07-2.34-1.55-3.53s-.93-2.39-1.33-3.62A33.21,33.21,0,0,1,116.11,138.14Z"/><rect class="cls-21" x="190.51" y="127.25" width="46.58" height="77.52"/><rect class="cls-22" x="176.97" y="127.25" width="14.61" height="77.52"/><rect class="cls-2" x="21.85" y="107.34" width="1.8" height="98.87"/><rect class="cls-2" x="199.44" y="107.34" width="1.8" height="19.91"/><path class="cls-23" d="M21.56,57.92a18.18,18.18,0,0,1,.28-2.76,22.74,22.74,0,0,1,.65-2.71c.15-.44.3-.89.48-1.32a12.41,12.41,0,0,1,.62-1.27,6,6,0,0,1,.86-1.15,2.79,2.79,0,0,1,.59-.43,1.15,1.15,0,0,1,.7-.12,1.67,1.67,0,0,0-1,.78,7.42,7.42,0,0,0-.63,1.18,24.72,24.72,0,0,0-.91,2.54c-.29.87-.53,1.75-.79,2.62S21.87,57.05,21.56,57.92Z"/><path class="cls-23" d="M19.6,87.13c.26.75.51,1.49.78,2.22a19.82,19.82,0,0,0,.9,2.12,9.49,9.49,0,0,0,.54,1,7.39,7.39,0,0,0,.65.93,6.09,6.09,0,0,0,1.72,1.5,4,4,0,0,1-2.13-1.12,6.78,6.78,0,0,1-1.42-2,10.39,10.39,0,0,1-.8-2.27A9.53,9.53,0,0,1,19.6,87.13Z"/><path class="cls-23" d="M15.26,99.19A4.44,4.44,0,0,1,16,97.44a6.49,6.49,0,0,1,1.28-1.39,5.49,5.49,0,0,1,1.67-.93,4.34,4.34,0,0,1,1.89-.23c-.53.37-1,.65-1.51,1s-.94.65-1.38,1-.88.72-1.32,1.1S15.75,98.78,15.26,99.19Z"/><path class="cls-24" d="M25.43,67.41a2.55,2.55,0,0,1-2.56-2.55,2.52,2.52,0,0,1,.56-1.59,2.55,2.55,0,1,0,2.5,4.09A2.07,2.07,0,0,1,25.43,67.41Z"/><path class="cls-24" d="M27.73,80.6A1.69,1.69,0,0,1,26,78.92a1.66,1.66,0,0,1,.37-1,1.68,1.68,0,0,0-1.36,1.65,1.69,1.69,0,0,0,1.69,1.69,1.67,1.67,0,0,0,1.32-.64A1.84,1.84,0,0,1,27.73,80.6Z"/><path class="cls-24" d="M26.79,74.28a.85.85,0,0,1-.85-.84.84.84,0,0,1,.19-.53.85.85,0,0,0-.68.83.84.84,0,0,0,.84.84.82.82,0,0,0,.66-.32A.44.44,0,0,1,26.79,74.28Z"/><polygon class="cls-25" points="176.97 127.25 191.93 143.18 237.09 143.18 237.09 127.25 176.97 127.25"/><path class="cls-7" d="M144.54,186.74l5.4,6.36S167,196.48,167,202.41H136s-1.91-8.64,1.69-15.67Z"/><path class="cls-11" d="M166.22,202H137.05a1.31,1.31,0,1,0,0,2.56h29.17a1.31,1.31,0,1,0,0-2.56Z"/><path class="cls-9" d="M157.45,202s-.56-2.79,2.52-5.9c0,0,6.78.93,7,5.9Z"/><rect class="cls-9" x="141" y="188.38" width="6.33" height="1.17" rx="0.58" ry="0.58"/><rect class="cls-9" x="143.38" y="191.37" width="6.33" height="1.17" rx="0.58" ry="0.58"/><circle class="cls-9" cx="139.72" cy="198.5" r="1.89"/><path class="cls-7" d="M114.54,177.51l-2.21,8s6.83,16,1.93,19.34l-17.5-25.63s6.06-6.45,13.9-7.43Z"/><path class="cls-11" d="M114.14,204,97.69,179.94a1.31,1.31,0,1,0-2.11,1.44L112,205.47a1.31,1.31,0,1,0,2.11-1.44Z"/><path class="cls-9" d="M109.2,196.79s2-2,6.29-1.25c0,0,3.06,6.13-.92,9.11Z"/><rect class="cls-9" x="109.32" y="177.88" width="6.33" height="1.17" rx="0.58" ry="0.58" transform="translate(196.44 -15.07) rotate(55.67)"/><rect class="cls-9" x="108.2" y="181.52" width="6.33" height="1.17" rx="0.58" ry="0.58" transform="translate(198.96 -12.55) rotate(55.67)"/><circle class="cls-9" cx="102.11" cy="180.17" r="1.89"/><path class="cls-17" d="M112.56,100a.36.36,0,0,1-.36-.35c-.36-17.51-12.11-44.69-12.23-45a.36.36,0,0,1,.19-.47.36.36,0,0,1,.47.18c.12.28,11.92,27.59,12.29,45.24a.36.36,0,0,1-.35.36Z"/><circle class="cls-17" cx="104.88" cy="58.92" r="0.99"/><circle class="cls-17" cx="109.31" cy="72.75" r="0.99"/><circle class="cls-17" cx="112.56" cy="85.03" r="0.99"/><path class="cls-26" d="M87.67,106.74h0A32.79,32.79,0,0,0,102,129.67l13.89,9.24,21.39,48.56,7.24-.73-13.29-55.42-14-18,.36-8.55Z"/><rect class="cls-16" y="99.65" width="237.09" height="7.31"/><rect class="cls-27" y="100.38" width="57.74" height="6.58"/><rect class="cls-28" y="98.93" width="237.09" height="3.65"/><polygon class="cls-23" points="88.54 38.84 90.5 35.27 101.61 40.27 95.73 31.66 89.56 31.09 88.54 32.46 88.54 38.84"/><path class="cls-11" d="M108.32,40.1a9.07,9.07,0,0,1-3.57.72h-.5a7.19,7.19,0,0,1-.92-.1,9,9,0,0,1-3.39-1.25c-.22-.13-.44-.28-.66-.44L88.7,31.18l-.11-.3,0-.14-.21-.6,0-.07-1.59-4.49L88.49,30l.05,0V27.87c0-.1-.08-.22-.13-.34a5.84,5.84,0,0,1-.49-1.34c-.2-.55-.44-1.17-.71-1.9C85.26,19,86.7,16,86.7,16l-1.2-4.79h.71l8.84.09,3.08,0L100,9.51,103.47,6a.62.62,0,0,1,.08.12c.31.89.47,1.74.64,2.42l.57,4.34L105,15Z"/><path class="cls-3" d="M101.19,22.22a1,1,0,0,1-.71-.11,6,6,0,0,1-1.53,4,5.81,5.81,0,0,1-1,.9,8.88,8.88,0,0,1-.82.47l-.11.06a3.44,3.44,0,0,1-1.18.28,3.52,3.52,0,0,1-1.65-.34c-2.84-1.27-5-5.65-5-5.65a11.66,11.66,0,0,1,1.33-.91A8.88,8.88,0,0,1,92,20.17c.27-.09.53-.18.79-.24l.13,0H93c.29-.07.58-.12.86-.16h0a9.68,9.68,0,0,1,1.5-.08,10.84,10.84,0,0,1,5,1.42.71.71,0,0,0,.53.1h0Z"/><path class="cls-3" d="M109.18,22.07a6.9,6.9,0,0,1-.55,1.47,3.6,3.6,0,0,1-.38.6,2.51,2.51,0,0,1-.5.48,2.4,2.4,0,0,1-.26.18,2.61,2.61,0,0,1-.42.16,2.13,2.13,0,0,1-.63.09,4.46,4.46,0,0,1-2.21-.54,5.31,5.31,0,0,1-.9-.62,7,7,0,0,1-1.6-2.1.9.9,0,0,1-.51.43h0l-.25-1a.61.61,0,0,0,.39-.34,7.53,7.53,0,0,1,.8-1.36,8.33,8.33,0,0,1,1.15-1.32,5.85,5.85,0,0,1,.71-.59,4.82,4.82,0,0,1,.65-.42l.41-.23.35-.15h0a6.59,6.59,0,0,1,.67-.23l.1,0a3.78,3.78,0,0,1,.67-.13,6.88,6.88,0,0,1,2.73.19A19.58,19.58,0,0,1,109.18,22.07Z"/><polygon class="cls-3" points="89.64 22.42 85.73 25.46 86.86 25.58 90.91 24.36 89.64 22.42"/><path class="cls-29" d="M101.61,21.65a7.44,7.44,0,0,1,.67.59l.32.33a2,2,0,0,1,.29.41l.24.32.27.36q.27.36.51.75a9,9,0,0,1,.81,1.65,5.74,5.74,0,0,1,.36,1.85l-.06-.17a.29.29,0,0,1,.06.13v.07a.33.33,0,0,1,0,.1c0,.06,0,.1,0,.14a2.2,2.2,0,0,1-.09.21q-.1.18-.21.33a6.17,6.17,0,0,1-.48.54l0-.07a.9.9,0,0,1-.52.43,1,1,0,0,1-.61,0l-.24-.06a.65.65,0,0,0-.2,0,.54.54,0,0,0-.18,0l-.11,0-.14.09a1,1,0,0,1-.3-.07.87.87,0,0,1-.27-.17.32.32,0,0,1-.06-.32.86.86,0,0,1,.17-.24.61.61,0,0,0-.08.26.17.17,0,0,0,.08.18.81.81,0,0,0,.47.08l-.14.09a.51.51,0,0,1,.26-.25.82.82,0,0,1,.3-.07,1.31,1.31,0,0,1,.28,0l.24,0a.72.72,0,0,0,.34-.05.38.38,0,0,0,.12-.09.37.37,0,0,0,.07-.1h0l0-.06a5.82,5.82,0,0,0,.38-.53,1.65,1.65,0,0,0,.15-.25.61.61,0,0,0,0-.11v0h0v0a.24.24,0,0,0,0,.1l-.06-.18a5.9,5.9,0,0,0-.33-1.64,13.6,13.6,0,0,0-.69-1.57c-.14-.26-.27-.52-.42-.77l-.22-.39a4.48,4.48,0,0,1-.22-.44,2,2,0,0,0-.18-.35c-.07-.13-.15-.25-.23-.38Z"/><path class="cls-30" d="M105.3,15.53a8.75,8.75,0,0,0-3.46,2l-.43-1.33a13.91,13.91,0,0,1,3.65-2.49Z"/><path class="cls-30" d="M97.46,16.46s-.27-.47-2-.64l-.65,1.12V15.78a5.89,5.89,0,0,0-4.66,1.78v1.7s2.56-3.07,7.51-1.45Z"/><path class="cls-29" d="M100.22,33.13a2.78,2.78,0,0,1,1.16-1.27,1.78,1.78,0,0,1,1-.2l.27.05.25.11a1.11,1.11,0,0,0,.25.09.16.16,0,0,0,.1,0,.84.84,0,0,0,.19-.16,2.66,2.66,0,0,1,.37-.32.94.94,0,0,1,.61-.16,1.91,1.91,0,0,1,.28.07l.19.08.36.18A5.88,5.88,0,0,1,106,32a5.77,5.77,0,0,1-.83,0l-.42,0-.2,0s-.09,0-.12,0-.15.09-.34.34a1.46,1.46,0,0,1-.4.37,1.06,1.06,0,0,1-.69.1,2.16,2.16,0,0,1-.5-.2l-.11-.06-.12,0a1.37,1.37,0,0,0-.6,0A6.82,6.82,0,0,0,100.22,33.13Z"/><path class="cls-29" d="M101.61,34.13a8.29,8.29,0,0,0,1.93-.2,3.5,3.5,0,0,0,.83-.31c.29-.13.57-.31.93-.49a1.88,1.88,0,0,1-.5,1,2.08,2.08,0,0,1-1,.63,2.22,2.22,0,0,1-1.2,0A1.82,1.82,0,0,1,101.61,34.13Z"/><path class="cls-11" d="M89.38,32l-.13.31a2.22,2.22,0,0,1-.16.39c-.28.52-1,1.25-2.5.32a7.78,7.78,0,0,1-2.81-2.7,5.43,5.43,0,0,1-1-2.81c0-1.37.78-2.56,4.08-1.9l.44,1.1L89,31.18l0,.13,1-.49Z"/><path class="cls-29" d="M87.86,31.29a3.12,3.12,0,0,1-1.14-.66,1.26,1.26,0,0,1-.39-.6c-.06-.24-.08-.43-.13-.63a3.19,3.19,0,0,0-.45-1.13,2.3,2.3,0,0,0-1-.78A1.82,1.82,0,0,1,86,28.1a2.76,2.76,0,0,1,.58,1.22c0,.21.07.45.11.63a1.23,1.23,0,0,0,.26.49A6.44,6.44,0,0,0,87.86,31.29Z"/><path class="cls-29" d="M86.33,29.39a1.55,1.55,0,0,1-1,.09,1.38,1.38,0,0,1-.45-.2.53.53,0,0,1-.25-.45.83.83,0,0,0,.38.2l.4.1A4.49,4.49,0,0,1,86.33,29.39Z"/><polygon class="cls-19" points="230.29 28.82 232.03 28.82 230.5 26.86 159.24 26.86 154.24 74.44 155.76 76.39 155.97 74.44 222.31 74.57 230.29 28.82"/><polygon class="cls-31" points="160.76 28.82 155.76 76.39 223.84 76.52 232.03 28.82 160.76 28.82"/><path class="cls-19" d="M195.27,58.29V99.7H193V61.42h-1.67a1.56,1.56,0,0,1-1.1-.46,1.56,1.56,0,0,1,1.1-2.67Z"/><path class="cls-32" d="M203,99.7h-8.63V58.29h6.42a1,1,0,0,1,.78.46,1.92,1.92,0,0,1,.33,1.11l4.32,34.78C206.47,97.34,205,99.7,203,99.7Z"/></g></g></g></svg>