<svg xmlns="http://www.w3.org/2000/svg" viewBox="0 0 184.93 35.86"><defs><style>.cls-1{fill:#ff0074;}.cls-2{fill:#ff007a;}</style></defs><title>Fichier 3</title><g id="Calque_2" data-name="Calque 2"><g id="a_propos" data-name="a propos"><g id="jap"><path class="cls-1" d="M8.25,34.9a22.54,22.54,0,0,1-3.58.27A12.76,12.76,0,0,1,2.36,35a2.27,2.27,0,0,1-2-2.25,3.78,3.78,0,0,1,1.21-2.52l.68.36a3.2,3.2,0,0,0-1,2.09c0,.69.46,1.31,1.48,1.53a9.19,9.19,0,0,0,1.92.15,19.89,19.89,0,0,0,3.62-.32ZM3,29a14.4,14.4,0,0,1,2.09-1.37h0c-.9.1-2.95.15-4.25.14,0-.22,0-.61,0-.83a37.66,37.66,0,0,0,6.72-.37l.09.87a9.71,9.71,0,0,0-4,2Z"/><path class="cls-1" d="M43.94,35.28c.87-2.49,2.32-6.66,2.78-7.91.22-.64.53-1.53.61-1.83l1.27.33c-.06.17-.22.23-.46.23-.64,1.61-1.65,4.37-2.08,5.54h0a3.82,3.82,0,0,1,2.58-1.45c1,0,1.52.7,1.48,1.8l0,1.4c0,.88.46,1.36,1.22,1.36,1.07,0,2-1.21,2.58-3.24a5.43,5.43,0,0,0,.77.44c-.65,2.25-1.81,3.66-3.38,3.66a1.87,1.87,0,0,1-2.06-2c0-.23,0-1.31,0-1.56,0-.74-.3-1.13-.82-1.13-1.36,0-2.72,2-3,2.74-.16.41-.42,1.16-.65,1.85Z"/><path class="cls-1" d="M89.46,26c0,.13-.15.2-.39.18a28.5,28.5,0,0,0-.62,5.31,12.78,12.78,0,0,0,.15,2.33c.22-.58.73-1.82.9-2.23l.49.52c-.48,1.19-.84,1.86-1,2.39a2,2,0,0,0-.1.56,1.43,1.43,0,0,0,.06.36l-.83.15a12.81,12.81,0,0,1-.52-4.05,35.25,35.25,0,0,1,.62-5.74ZM97,34.65c-.42,0-.86,0-1.29,0a15,15,0,0,1-2.19-.13c-1.45-.21-2.12-1-2.12-1.95a3.61,3.61,0,0,1,1.1-2.28l.77.33a2.8,2.8,0,0,0-1,1.85c0,1.37,2,1.37,3.23,1.37.49,0,1,0,1.52-.06Zm-5.45-7.2A39.52,39.52,0,0,0,96.65,27l.07.83a45,45,0,0,1-5.19.43Z"/><path class="cls-1" d="M138.52,27.54a27.48,27.48,0,0,1-5.07.69,14.51,14.51,0,0,1-.55,3.12,6,6,0,0,1,3.34-1.25c1.76,0,2.83.94,2.83,2.53,0,2.35-2.37,3.14-6.2,3.23a3.5,3.5,0,0,0-.23-.78c3.38-.07,5.57-.64,5.57-2.42,0-1.06-.71-1.79-2.07-1.79a4.89,4.89,0,0,0-3.63,1.8l-.83-.39a10,10,0,0,0,.95-4h-2.76v-.83c.49,0,1.94,0,2.83,0,0-.68.07-1.43.07-2.14l1.25.12c0,.2-.17.24-.38.26,0,.59-.06,1.19-.11,1.74a22.57,22.57,0,0,0,4.83-.71Z"/><path class="cls-1" d="M173.13,35.45a12.79,12.79,0,0,1-.51-4.15,30,30,0,0,1,.64-5.5l1.14.22c0,.12-.14.2-.3.22a22.27,22.27,0,0,0-.69,5.07,13.27,13.27,0,0,0,.11,2.23c.26-.71.73-1.84,1-2.39l.53.49a14,14,0,0,0-1.22,3.15,1.76,1.76,0,0,0,.12.57Zm3-6.94c1,0,2,0,3-.05-.05-1-.08-1.88-.11-2.75l1.19,0c0,.12-.11.21-.3.25,0,.75,0,1.52.06,2.41a9.86,9.86,0,0,0,2.31-.47l.1.83a11.63,11.63,0,0,1-2.38.42c0,1.31.11,2.69.14,3.44a8.73,8.73,0,0,1,2.41,1.5l-.46.75a7.23,7.23,0,0,0-1.91-1.34c0,1-.2,2.12-2,2.12-1.38,0-2.3-.66-2.3-1.7,0-1.2,1.22-1.73,2.3-1.73a4.26,4.26,0,0,1,1.12.15c0-.74-.11-2-.16-3.13-.37,0-.86,0-1.21,0h-1.79Zm3.23,4.63a4,4,0,0,0-1.17-.21c-.72,0-1.58.26-1.58,1s.71,1,1.57,1,1.19-.43,1.19-1.37Z"/></g><path class="cls-2" d="M5.15,0V7h6.23V0h5.16V19.62H11.38V12.14H5.15v7.48H0V0Z"/><path class="cls-2" d="M44.87,0H57.06V4.26H50v3.2h6.22V11.8H50v3.61h7v4.21H44.87Z"/><path class="cls-2" d="M85.14,0h5.15V14.44h7.07v5.18H85.14Z"/><path class="cls-2" d="M125.43,0h5.16V14.44h7.06v5.18H125.43Z"/><path class="cls-2" d="M175.12,0a9.81,9.81,0,1,1-9.79,9.84A9.84,9.84,0,0,1,175.12,0Zm0,5.13a4.68,4.68,0,1,0,4.68,4.68A4.67,4.67,0,0,0,175.12,5.13Z"/></g></g></svg>