<svg xmlns="http://www.w3.org/2000/svg" viewBox="0 0 226.39 70.78"><defs><style>.cls-1{fill:#2de2e6;}.cls-2{fill:#0c0c0c;}.cls-3,.cls-4,.cls-5{fill:none;stroke-miterlimit:10;}.cls-3,.cls-4{stroke:#ff0074;}.cls-3{stroke-dasharray:5;}.cls-5{stroke:#fc0681;}</style></defs><title>Fichier 8</title><g id="Calque_2" data-name="Calque 2"><g id="Services"><g id="cadre_3" data-name="cadre 3"><rect class="cls-1" x="155.6" y="0.21" width="0.42" height="70.36"/><rect class="cls-1" x="190.78" y="0.21" width="0.42" height="70.36"/><rect class="cls-1" x="208.37" y="0.21" width="0.42" height="70.36"/><rect class="cls-1" x="225.96" y="0.21" width="0.42" height="70.36"/><rect class="cls-1" x="173.19" y="0.21" width="0.42" height="70.36"/><rect class="cls-1" width="226.17" height="0.42"/><rect class="cls-1" x="155.81" y="35.18" width="70.36" height="0.42"/><rect class="cls-1" x="155.81" y="52.77" width="70.36" height="0.42"/><rect class="cls-1" x="155.81" y="70.36" width="70.36" height="0.42"/><rect class="cls-1" x="155.81" y="17.59" width="70.36" height="0.42"/></g><path class="cls-2" d="M219.63,18.47V54.54H162.15V18.47Zm-10,29.86V22.61h-36V48.33Zm-38.88,0V20.42H165V48.33Z"/><rect class="cls-2" x="162.15" y="16.3" width="57.48" height="2.17"/><path class="cls-2" d="M209.58,22.61V48.33h-36V22.61Zm-8,22.22V25.58H182.35V44.83Z"/><path class="cls-2" d="M201.61,25.58V44.83H182.35V25.58Zm-1.48,9.63a11.15,11.15,0,0,0-.79-.89,10.38,10.38,0,0,0-7.17-3.05H192a10.33,10.33,0,0,0-7.36,3.05,9.48,9.48,0,0,0-.79.89,9.48,9.48,0,0,0,.79.89,10.37,10.37,0,0,0,7.36,3h.18a10.37,10.37,0,0,0,7.17-3A11.15,11.15,0,0,0,200.13,35.21Z"/><path class="cls-2" d="M199.34,34.32a11.15,11.15,0,0,1,.79.89,11.15,11.15,0,0,1-.79.89,10.37,10.37,0,0,1-7.17,3v-.55a3.39,3.39,0,0,0,0-6.76v-.56A10.38,10.38,0,0,1,199.34,34.32Z"/><path class="cls-2" d="M192.16,31.83a3.39,3.39,0,0,1,0,6.76H192a3.38,3.38,0,1,1,0-6.76Z"/><path class="cls-2" d="M192.17,31.27v.56H192a3.38,3.38,0,1,0,0,6.76h.18v.55H192a10.37,10.37,0,0,1-7.36-3,9.48,9.48,0,0,1-.79-.89,9.48,9.48,0,0,1,.79-.89A10.33,10.33,0,0,1,192,31.27Z"/><path class="cls-2" d="M170.7,20.42V48.33H165V20.42Zm-1.41,22.24V39.77h-2.88v2.89Zm0-4.3V35.47h-2.88v2.89Zm0-4.3V31.18h-2.88v2.88Zm0-4.29V26.88h-2.88v2.89Zm0-3.75V23.14h-2.88V26Z"/><rect class="cls-2" x="166.41" y="39.77" width="2.89" height="2.89"/><rect class="cls-2" x="166.41" y="35.47" width="2.89" height="2.89"/><rect class="cls-2" x="166.41" y="31.18" width="2.89" height="2.89"/><rect class="cls-2" x="166.41" y="26.88" width="2.89" height="2.89"/><rect class="cls-2" x="166.41" y="23.14" width="2.89" height="2.89"/><rect class="cls-3" x="182.35" y="25.58" width="19.26" height="19.25"/><path class="cls-4" d="M192.17,31.27a10.38,10.38,0,0,1,7.17,3.05,11.15,11.15,0,0,1,.79.89,11.15,11.15,0,0,1-.79.89,10.37,10.37,0,0,1-7.17,3H192a10.37,10.37,0,0,1-7.36-3,9.48,9.48,0,0,1-.79-.89,9.48,9.48,0,0,1,.79-.89A10.33,10.33,0,0,1,192,31.27Z"/><path class="cls-4" d="M192.16,31.83a3.39,3.39,0,0,1,0,6.76H192a3.38,3.38,0,1,1,0-6.76Z"/><polygon class="cls-5" points="219.63 18.47 219.63 54.54 162.15 54.54 162.15 18.47 162.15 16.3 219.63 16.3 219.63 18.47"/><rect class="cls-5" x="165.01" y="20.42" width="5.69" height="27.91"/><rect class="cls-5" x="166.41" y="39.77" width="2.89" height="2.89"/><rect class="cls-5" x="173.56" y="22.61" width="36.02" height="25.72"/><rect class="cls-5" x="166.41" y="35.47" width="2.89" height="2.89"/><rect class="cls-5" x="166.41" y="31.18" width="2.89" height="2.89"/><rect class="cls-5" x="166.41" y="26.88" width="2.89" height="2.89"/><rect class="cls-5" x="166.41" y="23.14" width="2.89" height="2.89"/><line class="cls-4" x1="162.15" y1="18.47" x2="219.63" y2="18.47"/></g></g></svg>