<svg xmlns="http://www.w3.org/2000/svg" viewBox="0 0 226.39 70.78"><defs><style>.cls-1{fill:#2de2e6;}.cls-2{fill:#0c0c0c;}.cls-3{fill:none;stroke:#ff0074;stroke-miterlimit:10;}.cls-4{fill:#ff0074;}</style></defs><title>Fichier 10</title><g id="Calque_2" data-name="Calque 2"><g id="Services"><g id="cadre_4" data-name="cadre 4"><rect class="cls-1" x="155.6" y="0.21" width="0.42" height="70.36"/><rect class="cls-1" x="190.78" y="0.21" width="0.42" height="70.36"/><rect class="cls-1" x="208.37" y="0.21" width="0.42" height="70.36"/><rect class="cls-1" x="225.96" y="0.21" width="0.42" height="70.36"/><rect class="cls-1" x="173.19" y="0.21" width="0.42" height="70.36"/><rect class="cls-1" width="226.17" height="0.42"/><rect class="cls-1" x="155.81" y="35.18" width="70.36" height="0.42"/><rect class="cls-1" x="155.81" y="52.77" width="70.36" height="0.42"/><rect class="cls-1" x="155.81" y="70.36" width="70.36" height="0.42"/><rect class="cls-1" x="155.81" y="17.59" width="70.36" height="0.42"/></g><path class="cls-2" d="M182.78,46.28a24,24,0,0,0,1.75,3.52v9H169.66a2.41,2.41,0,0,1-2.4-2.4V12.8a2.4,2.4,0,0,1,2.4-2.4H212.4a2.39,2.39,0,0,1,2.4,2.4V56.39a2.4,2.4,0,0,1-2.4,2.4H198.64V48.67a21.64,21.64,0,0,0,1.12-2.4c.83,0,3.05-.43,4-3.73,4.09-2.83,5.76-10.8,5.76-10.8a15.74,15.74,0,0,0-5-1.37,11.63,11.63,0,0,0-1.3-.06H203c-.23,0-.46,0-.68,0v-.18c.14-.81,1.78-11-1.55-14.08s-9.81-3.46-9.81-3.46-6.35.29-9.82,3.46c-3.29,3-1.21,13.21-1,14.24a2.64,2.64,0,0,1,.6.05,9.54,9.54,0,0,0-1.08-.05h-.22a11.42,11.42,0,0,0-1.3.06,15.6,15.6,0,0,0-5,1.37s1.62,7.76,5.59,10.69C179.6,46,182.07,46.28,182.78,46.28Z"/><path class="cls-2" d="M202.28,30.15v.18h0l-.43,0v0c-.47-3.49-1.82-10.49-5-8.67-4.32,2.43-5.5,2-5.5,2s-1.18.46-5.5-2c-3.24-1.82-4.58,5.21-5.05,8.69h-.06a2.64,2.64,0,0,0-.6-.05c-.17-1-2.25-11.22,1-14.24,3.47-3.17,9.82-3.46,9.82-3.46s6.35.29,9.81,3.46S202.42,29.34,202.28,30.15Z"/><path class="cls-2" d="M201.82,30.35v0a16.69,16.69,0,0,0-9.73,4.6,1.13,1.13,0,0,1-1.65,0,16.64,16.64,0,0,0-9.72-4.6c.47-3.48,1.81-10.51,5.05-8.69,4.32,2.43,5.5,2,5.5,2s1.18.46,5.5-2C200,19.86,201.35,26.86,201.82,30.35Z"/><path class="cls-2" d="M200.68,43.52a4.93,4.93,0,0,0,1-.1,5.49,5.49,0,0,0,2-.88c-.91,3.3-3.13,3.7-4,3.73A24,24,0,0,0,200.68,43.52Z"/><path class="cls-2" d="M201.82,30.37s0,0,0,0l.43,0h0c.22,0,.45,0,.68,0h.21a11.63,11.63,0,0,1,1.3.06,15.74,15.74,0,0,1,5,1.37s-1.67,8-5.76,10.8a5.49,5.49,0,0,1-2,.88,5,5,0,0,1-2.09,0,9.13,9.13,0,0,1-5.23-3,9.86,9.86,0,0,1-1.93-3.61l-.06-.21a1.89,1.89,0,0,1-1.16.45,1.61,1.61,0,0,1-1.1-.45,9.18,9.18,0,0,1-7.22,6.81,5,5,0,0,1-1.06.12,4.93,4.93,0,0,1-1-.1,5.67,5.67,0,0,1-2.18-1c-4-2.93-5.59-10.69-5.59-10.69a15.6,15.6,0,0,1,5-1.37,11.42,11.42,0,0,1,1.3-.06h.22a9.54,9.54,0,0,1,1.08.05h.06a16.64,16.64,0,0,1,9.72,4.6,1.13,1.13,0,0,0,1.65,0A16.69,16.69,0,0,1,201.82,30.37Zm.23,5.59a3.9,3.9,0,0,0-.33-.38,4.36,4.36,0,0,0-6.15,0c-.12.12-.23.25-.34.38.11.13.22.25.34.37a4.36,4.36,0,0,0,6.15,0A3.8,3.8,0,0,0,202.05,36ZM187,36c-.11-.13-.21-.26-.33-.38a4.37,4.37,0,0,0-6.16,0c-.11.12-.23.25-.33.38.1.13.22.25.33.37a4.37,4.37,0,0,0,6.16,0C186.78,36.21,186.88,36.09,187,36Z"/><path class="cls-2" d="M201,36a1.06,1.06,0,1,1-1.06-1.06A1.05,1.05,0,0,1,201,36Z"/><path class="cls-2" d="M199.91,37a1.06,1.06,0,1,0-1.06-1A1.05,1.05,0,0,0,199.91,37Zm-1.27-2.7a4.38,4.38,0,0,1,3.08,1.27,3.9,3.9,0,0,1,.33.38,3.8,3.8,0,0,1-.33.37,4.36,4.36,0,0,1-6.15,0c-.12-.12-.23-.24-.34-.37.11-.13.22-.26.34-.38A4.36,4.36,0,0,1,198.64,34.31Z"/><path class="cls-2" d="M190.14,46.58v-10a1.61,1.61,0,0,0,1.1.45,1.89,1.89,0,0,0,1.16-.45l.06.21v9.78Z"/><path class="cls-2" d="M184.53,49.8a24.52,24.52,0,0,1-2.67-6.28,5,5,0,0,0,1.06-.12,9.18,9.18,0,0,0,7.22-6.81v10h2.32V36.8a9.86,9.86,0,0,0,1.93,3.61,9.13,9.13,0,0,0,5.23,3,4.92,4.92,0,0,0,1.06.12,24,24,0,0,1-.92,2.75,21.64,21.64,0,0,1-1.12,2.4,33.25,33.25,0,0,1-4.92,6.77,3.22,3.22,0,0,1-4.9,0A35.11,35.11,0,0,1,184.53,49.8Z"/><path class="cls-2" d="M198.64,48.67V58.79H184.53v-9a35.11,35.11,0,0,0,4.29,5.64,3.22,3.22,0,0,0,4.9,0A33.25,33.25,0,0,0,198.64,48.67Z"/><path class="cls-2" d="M185.91,36a1.06,1.06,0,1,1-1.06-1.06A1.06,1.06,0,0,1,185.91,36Z"/><path class="cls-2" d="M186.66,36.33a4.37,4.37,0,0,1-6.16,0c-.11-.12-.23-.24-.33-.37.1-.13.22-.26.33-.38a4.37,4.37,0,0,1,6.16,0c.12.12.22.25.33.38C186.88,36.09,186.78,36.21,186.66,36.33Zm-1.81-1.43A1.06,1.06,0,1,0,185.91,36,1.05,1.05,0,0,0,184.85,34.9Z"/><path class="cls-2" d="M181.86,43.52a24.14,24.14,0,0,0,.92,2.76c-.71,0-3.18-.26-4.13-3.85a5.67,5.67,0,0,0,2.18,1A4.93,4.93,0,0,0,181.86,43.52Z"/><path class="cls-3" d="M184.53,58.79H169.66a2.41,2.41,0,0,1-2.4-2.4V12.8a2.4,2.4,0,0,1,2.4-2.4H212.4a2.39,2.39,0,0,1,2.4,2.4V56.39a2.4,2.4,0,0,1-2.4,2.4H184.53Z"/><path class="cls-3" d="M180.66,30.36a2.64,2.64,0,0,0-.6-.05c-.17-1-2.25-11.22,1-14.24,3.47-3.17,9.82-3.46,9.82-3.46s6.35.29,9.81,3.46,1.69,13.27,1.55,14.08"/><path class="cls-3" d="M201.82,30.35v0s0,0,0,0"/><path class="cls-3" d="M201.82,30.37v0c-.47-3.49-1.82-10.49-5-8.67-4.32,2.43-5.5,2-5.5,2s-1.18.46-5.5-2c-3.24-1.82-4.58,5.21-5.05,8.69"/><path class="cls-3" d="M203.72,42.54c-.91,3.3-3.13,3.7-4,3.73"/><path class="cls-3" d="M182.78,46.28c-.71,0-3.18-.26-4.13-3.85"/><path class="cls-3" d="M200.68,43.52a24,24,0,0,1-.92,2.75,21.64,21.64,0,0,1-1.12,2.4,33.25,33.25,0,0,1-4.92,6.77,3.22,3.22,0,0,1-4.9,0,35.11,35.11,0,0,1-4.29-5.64,24.52,24.52,0,0,1-2.67-6.28"/><path class="cls-3" d="M203.72,42.54c4.09-2.83,5.76-10.8,5.76-10.8a15.74,15.74,0,0,0-5-1.37,11.63,11.63,0,0,0-1.3-.06H203c-.23,0-.46,0-.68,0h0l-.43,0h0a16.69,16.69,0,0,0-9.73,4.6,1.13,1.13,0,0,1-1.65,0,16.64,16.64,0,0,0-9.72-4.6h-.06a9.54,9.54,0,0,0-1.08-.05h-.22a11.42,11.42,0,0,0-1.3.06,15.6,15.6,0,0,0-5,1.37s1.62,7.76,5.59,10.69a5.67,5.67,0,0,0,2.18,1,4.93,4.93,0,0,0,1,.1,5,5,0,0,0,1.06-.12,9.18,9.18,0,0,0,7.22-6.81,1.61,1.61,0,0,0,1.1.45,1.89,1.89,0,0,0,1.16-.45l.06.21a9.86,9.86,0,0,0,1.93,3.61,9.13,9.13,0,0,0,5.23,3,5,5,0,0,0,2.09,0A5.49,5.49,0,0,0,203.72,42.54Z"/><line class="cls-3" x1="184.53" y1="49.8" x2="184.53" y2="58.79"/><polyline class="cls-3" points="198.64 58.79 198.64 48.67 198.64 48.54"/><path class="cls-3" d="M187,36c-.11.13-.21.25-.33.37a4.37,4.37,0,0,1-6.16,0c-.11-.12-.23-.24-.33-.37.1-.13.22-.26.33-.38a4.37,4.37,0,0,1,6.16,0C186.78,35.7,186.88,35.83,187,36Z"/><path class="cls-3" d="M185.91,36a1.06,1.06,0,1,1-1.06-1.06A1.06,1.06,0,0,1,185.91,36Z"/><path class="cls-3" d="M202.05,36a3.8,3.8,0,0,1-.33.37,4.36,4.36,0,0,1-6.15,0c-.12-.12-.23-.24-.34-.37.11-.13.22-.26.34-.38a4.36,4.36,0,0,1,6.15,0A3.9,3.9,0,0,1,202.05,36Z"/><path class="cls-3" d="M201,36a1.06,1.06,0,1,1-1.06-1.06A1.05,1.05,0,0,1,201,36Z"/><polyline class="cls-3" points="190.14 36.59 190.14 46.58 192.46 46.58 192.46 36.8 192.46 36.59"/><path class="cls-4" d="M212.4,59h-14V48.61l0,0a24.69,24.69,0,0,0,1.11-2.37l.05-.13h.13c.85,0,2.9-.45,3.77-3.58l0-.07.06,0c3.65-2.52,5.37-9.34,5.63-10.5a15.4,15.4,0,0,0-4.77-1.28c-.41,0-.83-.06-1.28-.06H203l-.66,0-.22,0,0-.42v0c.67-4,1.11-11.5-1.49-13.89-3.36-3.08-9.61-3.41-9.68-3.41s-6.3.33-9.66,3.41c-1.95,1.79-2.31,6.68-1,13.78v.09l.26,0,.19,0-.05.42a10.32,10.32,0,0,0-1.06-.05h-.22a12.44,12.44,0,0,0-1.27.06,15.44,15.44,0,0,0-4.79,1.28c.27,1.14,1.94,7.79,5.48,10.4l.06,0,0,.07c.91,3.45,3.22,3.68,3.92,3.7h.14l.05.13a24.21,24.21,0,0,0,1.75,3.49l0,.05V59H169.66a2.61,2.61,0,0,1-2.61-2.62V12.8a2.61,2.61,0,0,1,2.61-2.62H212.4A2.62,2.62,0,0,1,215,12.8V56.38A2.62,2.62,0,0,1,212.4,59Zm-13.54-.43H212.4a2.19,2.19,0,0,0,2.19-2.19V12.8a2.19,2.19,0,0,0-2.19-2.19H169.66a2.19,2.19,0,0,0-2.19,2.19V56.38a2.19,2.19,0,0,0,2.19,2.19h14.66V49.86a24.68,24.68,0,0,1-1.69-3.37c-.9,0-3.22-.47-4.16-3.94-3.95-3-5.55-10.45-5.62-10.77l0-.16.15-.07a15.94,15.94,0,0,1,5.08-1.39,13,13,0,0,1,1.31-.07h.45c-1.32-7.25-.91-12.28,1.15-14.17,3.48-3.19,9.69-3.51,9.95-3.52s6.49.33,10,3.52c3.29,3,1.87,12.72,1.63,14.19l.45,0h.22c.47,0,.9,0,1.32.07a16,16,0,0,1,5.07,1.39l.15.07,0,.16c-.07.33-1.72,8-5.78,10.89-.91,3.17-3,3.73-4,3.81a23.12,23.12,0,0,1-1,2.24Z"/><path class="cls-4" d="M212.4,59.21h-14a.22.22,0,0,1-.21-.21V48.61a.19.19,0,0,1,0-.1l0,0a23.08,23.08,0,0,0,1.1-2.35l0-.13a.2.2,0,0,1,.19-.13h.14c.79,0,2.74-.43,3.57-3.43l0-.07a.2.2,0,0,1,.08-.12l.06,0c3.43-2.37,5.12-8.58,5.51-10.2a15.05,15.05,0,0,0-4.55-1.2,12.53,12.53,0,0,0-1.26-.06H203l-.64,0-.22,0a.19.19,0,0,1-.16-.05.21.21,0,0,1-.07-.15l0-.42v0c.67-4,1.12-11.4-1.41-13.72-3.31-3-9.48-3.35-9.55-3.36-.23,0-6.28.39-9.51,3.36-1.88,1.73-2.23,6.52-1,13.51l.12,0,.17,0a.22.22,0,0,1,.19.24l-.05.42a.22.22,0,0,1-.24.18,9.7,9.7,0,0,0-1-.05h-.22a12.18,12.18,0,0,0-1.25.06,15,15,0,0,0-4.56,1.2c.39,1.59,2,7.65,5.36,10.1l.06,0a.2.2,0,0,1,.08.12l0,.07c.79,3,2.66,3.51,3.71,3.54h.14a.22.22,0,0,1,.2.13l0,.13a23.28,23.28,0,0,0,1.73,3.46l0,.05a.2.2,0,0,1,0,.11V59a.22.22,0,0,1-.21.21H169.66a2.83,2.83,0,0,1-2.82-2.83V12.8A2.83,2.83,0,0,1,169.66,10H212.4a2.83,2.83,0,0,1,2.83,2.83V56.38A2.83,2.83,0,0,1,212.4,59.21Zm-13.76-.42H212.4a2.4,2.4,0,0,0,2.4-2.41v0a2.4,2.4,0,0,1-2.4,2.41H198.86a.22.22,0,0,1-.22-.22Zm-31.38-2.41a2.41,2.41,0,0,0,2.4,2.41h14.87v-9l0,0a.2.2,0,0,1,0,.11v8.71a.21.21,0,0,1-.21.22H169.66A2.41,2.41,0,0,1,167.26,56.38Zm31.81,2H212.4a2,2,0,0,0,2-2V12.8a2,2,0,0,0-2-2H169.66a2,2,0,0,0-2,2V56.38a2,2,0,0,0,2,2h14.45V49.91a23.66,23.66,0,0,1-1.62-3.22c-1.05-.07-3.26-.65-4.2-4-4-3-5.58-10.53-5.64-10.85l0-.17a.2.2,0,0,1,.12-.23l.16-.07A15.74,15.74,0,0,1,178,30a11,11,0,0,1,1.33-.07h.2c-1.28-7.19-.83-12.2,1.26-14.12,3.54-3.24,9.82-3.56,10.08-3.57s6.56.31,10.12,3.57c3.21,3,2.1,11.78,1.74,14.13h.42a11.31,11.31,0,0,1,1.34.07,15.82,15.82,0,0,1,5.13,1.41l.16.07a.2.2,0,0,1,.12.23l0,.17c-.07.32-1.71,8-5.8,11-.93,3.15-3,3.76-4,3.88-.31.73-.64,1.43-1,2.09Zm-14.72-8.87Zm0,0h0Zm-5.59-6.69c.94,3,3,3.45,3.88,3.49a.21.21,0,0,1,.19.13,23,23,0,0,0,1.52,3.07,23.12,23.12,0,0,1-1.57-3.2h0C181.87,46.26,179.72,45.87,178.76,42.79Zm19.88,5.88v0a.19.19,0,0,1,0-.1l0-.06Zm.9-1.86h0Zm.22-.53h0c-.07.18-.14.36-.22.53.06-.13.12-.27.17-.41a.23.23,0,0,1,.18-.13Zm4-3.74c-.84,3-2.76,3.62-3.75,3.72,1.07-.11,2.89-.74,3.72-3.65a.23.23,0,0,1,.08-.11l-.05,0Zm-25.13-.15a.14.14,0,0,1,.07.1v-.06Zm30.73-10.72a.21.21,0,0,1,.11.24c-.3,1.3-1.95,7.79-5.48,10.46,3.87-2.93,5.45-10.31,5.52-10.63Zm-36.27.07c.07.31,1.61,7.53,5.38,10.52-3.43-2.73-5.05-9.08-5.34-10.35a.21.21,0,0,1,.11-.24Zm30.12-1.43c.46,0,.89,0,1.3.06a14.93,14.93,0,0,1,3.8.88,14.93,14.93,0,0,0-3.8-.88c-.41,0-.84-.06-1.3-.06h0Zm-26.06.18a15.16,15.16,0,0,0-2.72.71A14.94,14.94,0,0,1,177.12,30.49Zm2.45-.18h-.21c-.36,0-.69,0-1,0,.31,0,.64,0,1,0Zm.24,0,.64,0h0l-.22,0a.21.21,0,0,1-.2-.17v-.09a.23.23,0,0,1-.05.18A.21.21,0,0,1,179.81,30.31Zm22.49-.23v.25h.22a.24.24,0,0,1-.16-.07A.22.22,0,0,1,202.3,30.08ZM190.9,12.61c.09,0,6.41.33,9.84,3.47,1.58,1.45,2.07,4.72,2.06,8,0-3.07-.39-6.45-2.06-8-3.45-3.16-9.58-3.46-9.84-3.47s-6.37.33-9.8,3.47a4.39,4.39,0,0,0-.92,1.28,4.39,4.39,0,0,1,.92-1.28C184.45,13,190.63,12.62,190.9,12.61Z"/><path class="cls-4" d="M180.9,30.62l-.27-.05-.19,0a2.58,2.58,0,0,0-.38,0h-.18l-.07-.43c-1.32-7.25-.91-12.28,1.15-14.17,3.48-3.19,9.69-3.51,9.95-3.52s6.49.33,10,3.52,1.82,13,1.62,14.25l0,.37h-.23l-.44,0-.24,0v-.25c-.38-2.79-1.3-7.66-3.19-8.6a1.56,1.56,0,0,0-1.55.12c-3.85,2.16-5.26,2.08-5.6,2-.34.08-1.75.16-5.6-2a1.56,1.56,0,0,0-1.55-.12c-1.89.94-2.81,5.82-3.19,8.64Zm16.89-9.45a1.87,1.87,0,0,1,.82.2c1.93,1,2.91,5.26,3.39,8.77h.08c.67-4,1.11-11.5-1.49-13.89-3.36-3.08-9.61-3.41-9.68-3.41s-6.3.33-9.66,3.41c-1.95,1.79-2.31,6.68-1,13.78v.09l.26,0h0c.49-3.51,1.47-7.8,3.39-8.76a2,2,0,0,1,1.94.13c4.11,2.3,5.32,1.95,5.33,1.95l.07,0,.08,0s1.21.35,5.32-1.95A2.22,2.22,0,0,1,197.79,21.17Z"/><path class="cls-4" d="M180.9,30.83h0l-.27,0-.2,0a2,2,0,0,0-.34,0h-.18a.2.2,0,0,1-.2-.18l-.08-.42c-1.33-7.33-.9-12.43,1.22-14.37,3.54-3.24,9.82-3.56,10.08-3.57s6.56.31,10.12,3.57,1.9,13.17,1.69,14.42l0,.35a.23.23,0,0,1-.06.16.22.22,0,0,1-.15.06h-.23l-.42,0-.23,0a.22.22,0,0,1-.17,0,.21.21,0,0,1-.07-.15v-.26c-.64-4.68-1.76-7.76-3.08-8.41a1.34,1.34,0,0,0-1.34.11c-3.69,2.07-5.2,2.13-5.71,2-.51.09-2,0-5.71-2a1.34,1.34,0,0,0-1.34-.11c-1.32.66-2.44,3.75-3.08,8.48l0,.22a.19.19,0,0,1-.08.15A.28.28,0,0,1,180.9,30.83Zm-.43-.5.19,0h.06a35.07,35.07,0,0,1,.9-4.61,34.74,34.74,0,0,0-.87,4.41.22.22,0,0,1-.08.14.24.24,0,0,1-.16,0Zm21.33-.14,0,.13v.05h0l.19,0A.22.22,0,0,1,201.8,30.19Zm.49-.05h0a.23.23,0,0,1-.19.19h.19v-.19Zm-22.23.17h.17a.22.22,0,0,1-.2-.17v-.09ZM190.9,13c-.23,0-6.28.39-9.51,3.36-1.87,1.71-2.22,6.44-1,13.32.71-4.87,1.87-7.74,3.45-8.53a2.2,2.2,0,0,1,2.14.13c3.93,2.21,5.15,1.94,5.16,1.94l.07,0a.15.15,0,0,1,.13,0l.07,0h0s1.23.26,5.15-1.94a2.22,2.22,0,0,1,2.14-.13c1.5.75,2.62,3.35,3.34,7.76.55-4.13.72-10.43-1.59-12.55C197.14,13.36,191,13,190.9,13Zm0-.42c.09,0,6.41.33,9.84,3.47,1.82,1.67,2.19,5.74,2,9.45.16-3.38-.08-7.66-2-9.45-3.45-3.16-9.58-3.46-9.84-3.47s-6.37.33-9.8,3.47a4.1,4.1,0,0,0-.92,1.29,4.1,4.1,0,0,1,.92-1.29C184.45,13,190.63,12.62,190.9,12.61ZM186.32,22c3.46,1.87,4.69,1.73,4.9,1.68h.1c.22.05,1.48.19,5.05-1.75-3.7,2-4.94,1.78-5.07,1.75h0C191.13,23.69,189.94,23.93,186.32,22Zm12.12-.45.07,0,.14.08-.14-.08Zm-13.69-.14a1.51,1.51,0,0,0-.66.14,1.69,1.69,0,0,1,1.29,0A1.74,1.74,0,0,0,184.75,21.39Z"/><path class="cls-4" d="M191.27,35.55h-.05a1.47,1.47,0,0,1-.94-.43,16.53,16.53,0,0,0-9.58-4.53l-.22,0,0-.22c.48-3.55,1.46-8,3.42-9a2,2,0,0,1,1.94.13c4.11,2.3,5.32,1.95,5.33,1.95l.07,0,.08,0s1.21.35,5.32-1.95a2,2,0,0,1,1.94-.13c2,1,2.94,5.41,3.42,9v.24l-.19,0a16.55,16.55,0,0,0-9.59,4.53A1.46,1.46,0,0,1,191.27,35.55ZM181,30.18a17.06,17.06,0,0,1,9.63,4.64.91.91,0,0,0,1.36,0,17.08,17.08,0,0,1,9.63-4.63c-.39-2.85-1.31-7.51-3.16-8.43a1.56,1.56,0,0,0-1.55.12c-3.85,2.16-5.26,2.08-5.6,2-.34.08-1.75.16-5.6-2a1.56,1.56,0,0,0-1.55-.12C182.28,22.67,181.36,27.33,181,30.18Z"/><path class="cls-4" d="M191.27,35.76h-.06a1.62,1.62,0,0,1-1.08-.51,16.54,16.54,0,0,0-9.45-4.46l-.22,0a.25.25,0,0,1-.14-.08.25.25,0,0,1,0-.16l0-.22c.49-3.6,1.49-8.11,3.54-9.13a2.2,2.2,0,0,1,2.14.13c3.93,2.21,5.15,1.94,5.16,1.94l.07,0a.15.15,0,0,1,.13,0l.07,0h0s1.23.26,5.15-1.94a2.2,2.2,0,0,1,2.14-.13c2.05,1,3.05,5.52,3.54,9.11v.27a.21.21,0,0,1-.19.21l-.19,0a16.42,16.42,0,0,0-9.46,4.47A1.67,1.67,0,0,1,191.27,35.76Zm-.22-.45.18,0h0a1.24,1.24,0,0,0,.84-.37h0A1.2,1.2,0,0,1,191.05,35.31ZM181.2,30a17.35,17.35,0,0,1,9.55,4.69.69.69,0,0,0,1.06,0A17.24,17.24,0,0,1,201.34,30c-.39-2.73-1.29-7.19-3-8a1.34,1.34,0,0,0-1.34.11c-3.69,2.07-5.2,2.13-5.71,2-.51.09-2,0-5.71-2a1.34,1.34,0,0,0-1.34-.11C182.49,22.8,181.6,27.26,181.2,30Zm-.48.38h0a16.85,16.85,0,0,1,9.4,4.29,16.84,16.84,0,0,0-9.18-4.27.22.22,0,0,1-.14-.08.25.25,0,0,1-.05-.16c.37-2.61,1-5.71,2.12-7.44-.93,1.44-1.66,4-2.15,7.66Zm14.17,2.41h0Zm4.81-10c1.09,1.74,1.73,4.82,2.09,7.41a.24.24,0,0,1,0,.16.29.29,0,0,1-.14.08,16,16,0,0,0-6.72,2.39,16,16,0,0,1,6.93-2.41v0C201.34,26.76,200.61,24.19,199.7,22.74ZM186.25,22c3.51,1.9,4.75,1.76,5,1.71h.1c.22.05,1.47.19,5-1.75-3.69,2-4.93,1.78-5.06,1.75h0C191.13,23.69,189.93,23.93,186.25,22Zm12.19-.42.07,0,.2.11-.2-.11Zm-13.69-.14a1.51,1.51,0,0,0-.63.13,1.62,1.62,0,0,1,1.17-.05A1.68,1.68,0,0,0,184.75,21.39Z"/><path class="cls-4" d="M198.86,59H184.32V49.86a24.68,24.68,0,0,1-1.69-3.37c-.9,0-3.22-.47-4.16-3.94-3.95-3-5.55-10.45-5.62-10.77l0-.16.15-.07a15.94,15.94,0,0,1,5.08-1.39,13,13,0,0,1,1.31-.07h.21c.46,0,.8,0,1.11.06h.08a17,17,0,0,1,9.83,4.66.91.91,0,0,0,1.36,0,17.1,17.1,0,0,1,9.85-4.66h0l.45,0h0c.21,0,.44,0,.67,0h.22c.47,0,.9,0,1.32.07a16,16,0,0,1,5.07,1.39l.15.07,0,.16c-.07.33-1.72,8-5.78,10.89-.91,3.17-3,3.73-4,3.81a23.12,23.12,0,0,1-1,2.24Zm-14.11-.43h13.68v-10l0,0a24.69,24.69,0,0,0,1.11-2.37l.05-.13h.13c.85,0,2.9-.45,3.77-3.58l0-.07.06,0c3.66-2.52,5.37-9.34,5.63-10.5a15.4,15.4,0,0,0-4.77-1.28c-.41,0-.83-.06-1.28-.06H203l-.66,0h-.05a2.83,2.83,0,0,0-.41,0l-.24,0h0a16.64,16.64,0,0,0-9.36,4.51,1.38,1.38,0,0,1-1,.43,1.47,1.47,0,0,1-.94-.43,16.53,16.53,0,0,0-9.58-4.53h-.06a10.32,10.32,0,0,0-1.06-.05h-.22a12.44,12.44,0,0,0-1.27.06,15.44,15.44,0,0,0-4.79,1.28c.27,1.14,1.94,7.79,5.48,10.4l.06,0,0,.07c.91,3.45,3.22,3.68,3.92,3.7h.14l.05.13a24.21,24.21,0,0,0,1.75,3.49l0,.05Zm17.07-28.22h0l0-.15Z"/><path class="cls-4" d="M198.86,59.21H184.32a.22.22,0,0,1-.21-.21V49.91a23.66,23.66,0,0,1-1.62-3.22c-1.05-.07-3.26-.65-4.2-4-4-3-5.58-10.53-5.64-10.85l0-.17a.2.2,0,0,1,.12-.23l.16-.07A15.74,15.74,0,0,1,178,30a11,11,0,0,1,1.33-.07h.21c.47,0,.82,0,1.14.06h.1a17.16,17.16,0,0,1,9.94,4.73.69.69,0,0,0,1.06,0,17.1,17.1,0,0,1,10-4.72l.46,0h0c.22,0,.45,0,.69,0h.22a11.31,11.31,0,0,1,1.34.07,15.82,15.82,0,0,1,5.13,1.41l.16.07a.2.2,0,0,1,.12.23l0,.17c-.07.32-1.71,8-5.8,11-.93,3.15-3,3.76-4,3.88-.31.73-.64,1.43-1,2.09V59A.22.22,0,0,1,198.86,59.21Zm-14.33-.42h14.11V48.72a.19.19,0,0,1,0-.1l0,0-.06.1v9.9a.21.21,0,0,1-.21.22H184.75a.22.22,0,0,1-.22-.22Zm.43-.43h13.26V48.61a.19.19,0,0,1,0-.1l0,0a23.08,23.08,0,0,0,1.1-2.35l0-.13a.2.2,0,0,1,.19-.13h.14c.79,0,2.74-.43,3.57-3.43l0-.07a.2.2,0,0,1,.08-.12l.06,0c3.43-2.37,5.12-8.58,5.51-10.2a15.05,15.05,0,0,0-4.55-1.2,12.53,12.53,0,0,0-1.26-.06H203l-.64,0h-.06l-.4,0-.23,0a0,0,0,0,1,0,0,16.52,16.52,0,0,0-9.19,4.45,1.64,1.64,0,0,1-1.19.5,1.62,1.62,0,0,1-1.08-.51,16.54,16.54,0,0,0-9.45-4.46h-.06a10,10,0,0,0-1-.05h-.22a12.18,12.18,0,0,0-1.25.06,15,15,0,0,0-4.56,1.2c.39,1.59,2,7.65,5.36,10.1l.06,0a.2.2,0,0,1,.08.12l0,.07c.79,3,2.66,3.51,3.71,3.54h.14a.22.22,0,0,1,.2.13l0,.13a23.28,23.28,0,0,0,1.73,3.46l0,.05a.2.2,0,0,1,0,.11Zm-.46-8.61a.2.2,0,0,1,0,.11V49.8Zm-.15-.26Zm-5.59-6.7c1,3,3,3.45,3.88,3.49a.21.21,0,0,1,.19.13,23.79,23.79,0,0,0,1.52,3.08,23.23,23.23,0,0,1-1.57-3.21h0C181.87,46.26,179.72,45.87,178.76,42.79Zm21,3.49h0l-.21.52.16-.4a.23.23,0,0,1,.18-.13Zm4-3.74c-.84,3-2.77,3.62-3.75,3.72,1.07-.11,2.89-.74,3.72-3.65a.23.23,0,0,1,.08-.11l-.05,0Zm-25.13-.15a.14.14,0,0,1,.07.1v-.06Zm30.73-10.72a.21.21,0,0,1,.11.24c-.3,1.3-1.95,7.79-5.48,10.46,3.87-2.93,5.45-10.31,5.52-10.63Zm-36.27.07c.07.31,1.61,7.53,5.39,10.52-3.44-2.73-5.06-9.08-5.35-10.35a.21.21,0,0,1,.11-.24Zm18,3.57.18,0a1.2,1.2,0,0,0,.88-.37h0A1.2,1.2,0,0,1,191.05,35.31Zm9.19-4.71a17,17,0,0,0-8.11,4.33A17.2,17.2,0,0,1,200.24,30.6Zm-19.07-.19a17,17,0,0,1,9.13,4.42A16.92,16.92,0,0,0,181.17,30.41Zm22-.1c.46,0,.89,0,1.3.06a15.3,15.3,0,0,1,3.78.87,15.19,15.19,0,0,0-3.78-.87C204.07,30.33,203.64,30.31,203.18,30.31Zm-26.09.19a15,15,0,0,0-2.71.7A15,15,0,0,1,177.09,30.5Zm24.52-.11h0Zm-21.43-.07.48,0h0Zm21.85,0Zm-22.67,0c-.36,0-.68,0-1,0Q178.84,30.31,179.36,30.31Zm23.6,0h0Zm-23.6,0h0Z"/><path class="cls-4" d="M201.86,30.6l-.25-.19.07,0h-.07l.21,0,0-.18,0,.18.21,0-.21,0,.21,0-.11,0,.11,0Zm0-.24Z"/><path class="cls-4" d="M201.86,30.81a.21.21,0,0,1-.13,0l-.25-.18a.25.25,0,0,1-.08-.21.22.22,0,0,1,.18-.18.22.22,0,0,1,.18-.22.2.2,0,0,1,.23.14.22.22,0,0,1,.24.15.21.21,0,0,1,0,.2l-.18.26a.19.19,0,0,1-.14.09Z"/><path class="cls-4" d="M182.58,46.36c-.35-.9-.66-1.84-.93-2.78l.41-.12c.26.94.57,1.86.91,2.74Z"/><path class="cls-4" d="M182.58,46.57l-.08,0a.18.18,0,0,1-.12-.12,27.83,27.83,0,0,1-.93-2.8.23.23,0,0,1,0-.16.22.22,0,0,1,.13-.1l.41-.11a.21.21,0,0,1,.26.15,26.07,26.07,0,0,0,.9,2.71.25.25,0,0,1,0,.17.22.22,0,0,1-.12.11l-.39.15Zm-.18-1.3.3.81h0Z"/><path class="cls-4" d="M191.27,56.78a3.52,3.52,0,0,1-2.61-1.2,36.06,36.06,0,0,1-4.31-5.67l.37-.22A35.1,35.1,0,0,0,189,55.3a3,3,0,0,0,4.58,0,33.59,33.59,0,0,0,4.9-6.73l.37.2a33.65,33.65,0,0,1-5,6.81A3.52,3.52,0,0,1,191.27,56.78Z"/><path class="cls-4" d="M191.27,57a3.76,3.76,0,0,1-2.77-1.26A36.93,36.93,0,0,1,184.17,50a.22.22,0,0,1,.07-.3l.37-.21a.21.21,0,0,1,.29.07,35.25,35.25,0,0,0,4.23,5.58,2.83,2.83,0,0,0,4.28,0,33.78,33.78,0,0,0,4.86-6.69.22.22,0,0,1,.29-.09l.37.2a.19.19,0,0,1,.1.12.25.25,0,0,1,0,.17,34.34,34.34,0,0,1-5,6.86A3.72,3.72,0,0,1,191.27,57Zm-5.33-5.06a41.79,41.79,0,0,0,2.88,3.51,3.29,3.29,0,0,0,2.45,1.13,3.29,3.29,0,0,1-2.45-1.13A41.79,41.79,0,0,1,185.94,51.93Zm7.86,3.42-.08.09a3.29,3.29,0,0,1-2.45,1.13,3.29,3.29,0,0,0,2.45-1.13Zm4.74-6.5a28,28,0,0,1-1.95,3.08,28,28,0,0,0,1.95-3.08Z"/><path class="cls-4" d="M200,46.35l-.39-.15a25.86,25.86,0,0,0,.91-2.74l.41.11A25.9,25.9,0,0,1,200,46.35Z"/><path class="cls-4" d="M200,46.57l-.08,0-.39-.16a.21.21,0,0,1-.12-.27,25.3,25.3,0,0,0,.9-2.71.22.22,0,0,1,.26-.15l.41.11a.21.21,0,0,1,.13.1.23.23,0,0,1,0,.16,27,27,0,0,1-.93,2.8.28.28,0,0,1-.12.12Zm-.12-.49h0c.3-.77.56-1.56.79-2.36h0A24.14,24.14,0,0,1,199.84,46.08Z"/><path class="cls-4" d="M181.81,43.73a4.49,4.49,0,0,1-1-.11,5.65,5.65,0,0,1-2.26-1c-4-2.94-5.61-10.5-5.68-10.82l0-.16.15-.07a15.94,15.94,0,0,1,5.08-1.39,13,13,0,0,1,1.31-.07h.21c.46,0,.8,0,1.11.06h.08a17,17,0,0,1,9.83,4.66.91.91,0,0,0,1.36,0,17.1,17.1,0,0,1,9.85-4.66l.45,0h0c.21,0,.44,0,.67,0h.22c.47,0,.9,0,1.32.07a16,16,0,0,1,5.07,1.39l.15.07,0,.16c-.07.33-1.73,8.09-5.84,10.93a5.74,5.74,0,0,1-2.1.92,5.61,5.61,0,0,1-1.07.1,6,6,0,0,1-1.1-.12,9.38,9.38,0,0,1-5.35-3.06,10.2,10.2,0,0,1-1.95-3.61,2,2,0,0,1-1,.31,1.79,1.79,0,0,1-1-.3A9.33,9.33,0,0,1,183,43.61a6,6,0,0,1-1.1.12ZM173.3,31.86c.27,1.14,1.94,7.79,5.48,10.4a5.36,5.36,0,0,0,2.09,1,4.82,4.82,0,0,0,1,.1,5.91,5.91,0,0,0,1-.12,9,9,0,0,0,7.06-6.65l.09-.33.25.22a1.43,1.43,0,0,0,1,.4,1.74,1.74,0,0,0,1-.39l.24-.23.16.53a9.83,9.83,0,0,0,1.89,3.53,8.9,8.9,0,0,0,5.12,2.92,5.91,5.91,0,0,0,1,.12,4.75,4.75,0,0,0,1-.1,5,5,0,0,0,1.93-.85c3.66-2.52,5.37-9.34,5.63-10.5a15.4,15.4,0,0,0-4.77-1.28c-.41,0-.83-.06-1.28-.06H203l-.66,0h-.05a2.83,2.83,0,0,0-.41,0,16.56,16.56,0,0,0-9.6,4.53,1.38,1.38,0,0,1-1,.43,1.47,1.47,0,0,1-.94-.43,16.53,16.53,0,0,0-9.58-4.53h-.06a10.32,10.32,0,0,0-1.06-.05h-.22a12.44,12.44,0,0,0-1.27.06A15.44,15.44,0,0,0,173.3,31.86Z"/><path class="cls-4" d="M181.81,43.94a4.83,4.83,0,0,1-1.06-.11,5.85,5.85,0,0,1-2.34-1.06c-4.07-3-5.7-10.62-5.76-10.94l0-.17a.2.2,0,0,1,.12-.23l.16-.07A15.74,15.74,0,0,1,178,30a11,11,0,0,1,1.33-.07h.21c.47,0,.82,0,1.14.06h.1a17.16,17.16,0,0,1,9.94,4.73.69.69,0,0,0,1.06,0,17.1,17.1,0,0,1,10-4.72l.46,0h0c.22,0,.45,0,.69,0h.22a11.31,11.31,0,0,1,1.34.07,15.82,15.82,0,0,1,5.13,1.41l.16.07a.2.2,0,0,1,.12.23l0,.17c-.07.33-1.74,8.16-5.92,11.05a5.76,5.76,0,0,1-2.18.95,4.6,4.6,0,0,1-1.11.11,5.54,5.54,0,0,1-1.14-.13,9.49,9.49,0,0,1-5.47-3.12,10.22,10.22,0,0,1-1.91-3.44,2.27,2.27,0,0,1-.92.22,1.92,1.92,0,0,1-.87-.21A9.52,9.52,0,0,1,183,43.81a5.54,5.54,0,0,1-1.14.13Zm.2-.43h0Zm18.59,0h0Zm-21-.54a5,5,0,0,0,1.27.44l.23,0-.23,0A5.47,5.47,0,0,1,179.56,43Zm23.59-.09a5,5,0,0,1-1.44.53l-.09,0,.09,0A5,5,0,0,0,203.15,42.89ZM192.5,36h.06a.2.2,0,0,1,.14.14l.16.52a9.46,9.46,0,0,0,1.85,3.47,8.77,8.77,0,0,0,5,2.85,6.68,6.68,0,0,0,1,.11,4.4,4.4,0,0,0,.93-.1,4.79,4.79,0,0,0,1.86-.81c3.43-2.37,5.12-8.58,5.51-10.2a15.05,15.05,0,0,0-4.55-1.2,12.53,12.53,0,0,0-1.26-.06H203l-.64,0h-.06l-.4,0a16.47,16.47,0,0,0-9.47,4.47,1.64,1.64,0,0,1-1.19.5,1.62,1.62,0,0,1-1.08-.51,16.54,16.54,0,0,0-9.45-4.46h-.06a10,10,0,0,0-1-.05h-.22a12.18,12.18,0,0,0-1.25.06,15,15,0,0,0-4.56,1.2c.39,1.59,2,7.65,5.36,10.1a5.05,5.05,0,0,0,2,.91,4.49,4.49,0,0,0,.94.1,6.68,6.68,0,0,0,1-.11,8.79,8.79,0,0,0,6.9-6.51l.09-.33A.2.2,0,0,1,190,36a.2.2,0,0,1,.2,0l.25.22a1.25,1.25,0,0,0,.83.35,1.54,1.54,0,0,0,.88-.34l.24-.22A.2.2,0,0,1,192.5,36ZM194,39.85a5.68,5.68,0,0,0,.44.56A8.48,8.48,0,0,0,197,42.49a8.48,8.48,0,0,1-2.63-2.08A5.68,5.68,0,0,1,194,39.85Zm15.38-8.18a.21.21,0,0,1,.11.24c-.3,1.3-1.94,7.75-5.45,10.44,3.85-2.94,5.42-10.29,5.49-10.61Zm-36.27.07c.07.32,1.62,7.61,5.45,10.58-3.48-2.7-5.12-9.13-5.41-10.41a.21.21,0,0,1,.11-.24Zm19.22,5h.08a.21.21,0,0,1,.12.14c.06.19.13.4.22.62a7.33,7.33,0,0,1-.24-.7l-.06-.21a1.7,1.7,0,0,1-.22.17A.17.17,0,0,1,192.28,36.73Zm-1,.31Zm0,0Zm0,0Zm0,0h0Zm0,0h0Zm0,0Zm0,0Zm0,0Zm0,0Zm0,0Zm0,0h0Zm0,0Zm0,0Zm0,0Zm0,0Zm0,0Zm0,0Zm0,0Zm-.14,0Zm0,0Zm-.82-.29a.27.27,0,0,1,.12,0,1.53,1.53,0,0,0,.7.26,1.7,1.7,0,0,1-.94-.44c0,.1,0,.19-.08.29a.21.21,0,0,1,.13-.13Zm.8-1.43.18,0a1.2,1.2,0,0,0,.88-.37h0A1.2,1.2,0,0,1,191.05,35.31Zm11-5h-.21a16.82,16.82,0,0,0-9.69,4.57,16.92,16.92,0,0,1,9.7-4.57Zm-20.85.07a17,17,0,0,1,9.12,4.41A16.83,16.83,0,0,0,181.18,30.42Zm22-.11c.46,0,.89,0,1.3.06a15.22,15.22,0,0,1,3.77.87,15.22,15.22,0,0,0-3.77-.87C204.07,30.33,203.64,30.31,203.18,30.31Zm-26.09.19a14.61,14.61,0,0,0-2.69.7A14.61,14.61,0,0,1,177.09,30.5Zm2.91-.18a6.32,6.32,0,0,1,.66,0h0C180.47,30.34,180.25,30.32,180,30.32Zm22.25,0h0Zm-22.89,0c-.36,0-.68,0-1,0Q178.84,30.31,179.36,30.31Zm23.6,0h0Zm-23.6,0h0Z"/><rect class="cls-4" x="198.43" y="48.54" width="0.42" height="0.12"/><rect class="cls-4" x="198.22" y="48.33" width="0.85" height="0.55" rx="0.21" ry="0.21"/><path class="cls-4" d="M183.58,37.81a4.51,4.51,0,0,1-3.22-1.33,3.82,3.82,0,0,1-.35-.39L179.9,36l.11-.13a3.23,3.23,0,0,1,.35-.4,4.58,4.58,0,0,1,6.45,0l.35.39.1.14-.1.13a4.92,4.92,0,0,1-.35.39A4.54,4.54,0,0,1,183.58,37.81ZM180.45,36l.21.22a4.14,4.14,0,0,0,5.85,0l.21-.22-.21-.23a4.14,4.14,0,0,0-5.85,0A2.19,2.19,0,0,0,180.45,36Z"/><path class="cls-4" d="M183.58,38a4.74,4.74,0,0,1-3.37-1.4,3.34,3.34,0,0,1-.37-.41l-.1-.13a.21.21,0,0,1,0-.26l.1-.13a4.64,4.64,0,0,1,.37-.42,4.79,4.79,0,0,1,6.75,0c.12.12.23.26.36.41l.11.13a.23.23,0,0,1,0,.27l-.11.13a3.09,3.09,0,0,1-.37.41A4.71,4.71,0,0,1,183.58,38Zm0-.43h0Zm2.85-1.06a4.29,4.29,0,0,1-2.84,1.06A4.29,4.29,0,0,0,186.43,36.54Zm-5.7-.58.08.07a3.92,3.92,0,0,0,5.55,0l.07-.07-.07-.08a3.92,3.92,0,0,0-5.55,0Zm6,.31,0,0Zm.16-.45a.23.23,0,0,1,0,.27L187,36h0Zm-6.71.14.11.13a.22.22,0,0,1,0-.27Zm6.56-.3.07.07Z"/><path class="cls-4" d="M184.85,37.23A1.27,1.27,0,1,1,186.12,36,1.27,1.27,0,0,1,184.85,37.23Zm0-2.12a.85.85,0,1,0,.85.85A.85.85,0,0,0,184.85,35.11Z"/><path class="cls-4" d="M184.85,37.44A1.48,1.48,0,1,1,186.33,36,1.48,1.48,0,0,1,184.85,37.44ZM183.79,36a1.06,1.06,0,0,0,2.12,0,1.06,1.06,0,0,1-2.12,0Zm1.06-.64a.64.64,0,0,0-.64.64.64.64,0,0,0,1.28,0A.64.64,0,0,0,184.85,35.32Z"/><path class="cls-4" d="M198.64,37.81a4.53,4.53,0,0,1-3.22-1.33c-.14-.14-.25-.27-.35-.39L195,36l.1-.13a3.23,3.23,0,0,1,.35-.4,4.58,4.58,0,0,1,6.45,0l.35.39.11.14-.11.13a4.92,4.92,0,0,1-.35.39A4.54,4.54,0,0,1,198.64,37.81ZM195.51,36l.21.22a4.14,4.14,0,0,0,5.85,0l.21-.22-.21-.23a4.14,4.14,0,0,0-5.85,0Z"/><path class="cls-4" d="M198.64,38a4.74,4.74,0,0,1-3.37-1.4l-.37-.41-.1-.13a.21.21,0,0,1,0-.26l.1-.13c.11-.14.24-.28.37-.42a4.79,4.79,0,0,1,6.75,0,5,5,0,0,1,.36.41l.11.13a.23.23,0,0,1,0,.27l-.11.13a3.08,3.08,0,0,1-.36.41A4.75,4.75,0,0,1,198.64,38Zm0-.43h0Zm2.86-1.06a4.35,4.35,0,0,1-2.85,1.06A4.3,4.3,0,0,0,201.5,36.54ZM195.8,36l.07.07a3.92,3.92,0,0,0,5.55,0l.07-.07-.07-.08a3.92,3.92,0,0,0-5.55,0Zm6.14-.14a.21.21,0,0,1,0,.28l-.21.22a2.91,2.91,0,0,0,.32-.36h0A1.34,1.34,0,0,0,201.94,35.82Zm-6.7.14.11.13a.2.2,0,0,1,0-.27A1.34,1.34,0,0,0,195.24,36Z"/><path class="cls-4" d="M199.91,37.23A1.27,1.27,0,1,1,201.18,36,1.27,1.27,0,0,1,199.91,37.23Zm0-2.12a.85.85,0,1,0,0,1.69.85.85,0,1,0,0-1.69Z"/><path class="cls-4" d="M199.91,37.44A1.48,1.48,0,1,1,201.4,36,1.48,1.48,0,0,1,199.91,37.44ZM198.85,36A1.06,1.06,0,0,0,201,36a1.06,1.06,0,0,1-2.12,0Zm1.06-.64a.64.64,0,0,0-.63.64.63.63,0,0,0,.63.63.64.64,0,0,0,.64-.63A.64.64,0,0,0,199.91,35.32Z"/><polygon class="cls-4" points="192.67 46.79 189.93 46.79 189.93 36.59 190.35 36.59 190.35 46.37 192.25 46.37 192.25 36.59 192.67 36.59 192.67 46.79"/><path class="cls-4" d="M192.67,47h-2.74a.21.21,0,0,1-.22-.21V36.59a.21.21,0,0,1,.22-.21h.42a.21.21,0,0,1,.21.21v9.57H192V36.59a.21.21,0,0,1,.22-.21h.42a.21.21,0,0,1,.21.21v10.2A.21.21,0,0,1,192.67,47Zm-2.53-.42h2.32v-.21a.21.21,0,0,1-.21.21h-1.9a.21.21,0,0,1-.21-.21Z"/></g></g></svg>