<svg xmlns="http://www.w3.org/2000/svg" viewBox="0 0 226.39 70.78"><defs><style>.cls-1{fill:#2de2e6;}.cls-2{fill:#0c0c0c;}.cls-3{fill:none;stroke:#ff0074;stroke-miterlimit:10;}.cls-4{fill:#050505;}</style></defs><title>Fichier 11</title><g id="Calque_2" data-name="Calque 2"><g id="Services"><g id="cadre_1" data-name="cadre 1"><rect class="cls-1" x="70.36" y="0.21" width="0.42" height="70.36"/><rect class="cls-1" x="35.18" y="0.21" width="0.42" height="70.36"/><rect class="cls-1" x="17.59" y="0.21" width="0.42" height="70.36"/><rect class="cls-1" y="0.21" width="0.42" height="70.36"/><rect class="cls-1" x="52.77" y="0.21" width="0.42" height="70.36"/><rect class="cls-1" x="0.21" width="226.17" height="0.42"/><rect class="cls-1" x="0.21" y="35.18" width="70.36" height="0.42"/><rect class="cls-1" x="0.21" y="52.77" width="70.36" height="0.42"/><rect class="cls-1" x="0.21" y="70.36" width="70.36" height="0.42"/><rect class="cls-1" x="0.21" y="17.59" width="70.36" height="0.42"/></g><rect x="42.45" y="30.03" width="13.56" height="8.76"/><polygon points="44.6 16.75 47.21 15.48 48.52 13.57 45.33 11.17 39.97 16.3 44.6 16.75"/><rect class="cls-2" x="20.06" y="21.65" width="9.26" height="9.84"/><line class="cls-3" x1="12.84" y1="47.93" x2="23.03" y2="47.93"/><polyline class="cls-3" points="20.06 26.57 20.06 21.76 23.31 21.76"/><path class="cls-2" d="M59.83,28.51V52a2.2,2.2,0,0,1-2.2,2.2H48.8V43.28H22.49V54.17H14.22A2.19,2.19,0,0,1,12,52V28.51a2.19,2.19,0,0,1,2.2-2.2H57.63A2.2,2.2,0,0,1,59.83,28.51Zm-5.23,4.8A1.74,1.74,0,1,0,52.87,35,1.73,1.73,0,0,0,54.6,33.31Zm-5.8,0A1.74,1.74,0,1,0,47.07,35,1.73,1.73,0,0,0,48.8,33.31Z"/><rect x="49.08" y="21.5" width="3.25" height="4.81"/><polygon class="cls-2" points="49.08 21.5 49.08 26.31 22.77 26.31 22.77 11.17 45.33 11.17 45.33 14 49.08 14 49.08 21.5"/><polygon points="48.8 54.04 48.8 54.17 47.54 54.17 46.25 45.83 35.64 45.83 25.03 45.83 23.75 54.17 22.49 54.17 22.49 54.04 22.49 43.28 48.8 43.28 48.8 54.04"/><polygon points="47.54 54.17 48.52 60.54 35.64 60.54 22.77 60.54 23.75 54.17 47.54 54.17"/><path class="cls-4" d="M47.07,31.58a1.73,1.73,0,1,1-1.74,1.73A1.73,1.73,0,0,1,47.07,31.58Z"/><polygon points="47.54 54.17 23.75 54.17 25.03 45.83 35.64 45.83 46.25 45.83 47.54 54.17"/><path class="cls-3" d="M23.75,54.17H14.22A2.19,2.19,0,0,1,12,52V28.51a2.19,2.19,0,0,1,2.2-2.2H57.63a2.2,2.2,0,0,1,2.2,2.2V52a2.2,2.2,0,0,1-2.2,2.2H47.54"/><polyline class="cls-3" points="22.49 54.04 22.49 43.28 48.8 43.28 48.8 54.04"/><polyline class="cls-3" points="49.08 14 49.08 21.5 49.08 26.31"/><polyline class="cls-3" points="22.77 26.31 22.77 11.17 45.33 11.17"/><polygon class="cls-3" points="47.54 54.17 46.25 45.83 35.64 45.83 25.03 45.83 23.75 54.17 22.77 60.54 35.64 60.54 48.52 60.54 47.54 54.17"/><circle class="cls-3" cx="52.87" cy="33.31" r="1.73"/><path class="cls-3" d="M48.8,33.31a1.74,1.74,0,1,1-1.73-1.73A1.73,1.73,0,0,1,48.8,33.31Z"/><polyline class="cls-3" points="52.34 26.31 52.34 21.5 49.08 21.5"/><line class="cls-3" x1="25.6" y1="57.01" x2="45.33" y2="57.01"/><line class="cls-3" x1="27.22" y1="53.19" x2="43.58" y2="53.19"/><line class="cls-3" x1="28.06" y1="49.37" x2="42.87" y2="49.37"/><polygon class="cls-3" points="49.08 14 45.33 14 45.33 11.17 49.08 14"/><line class="cls-3" x1="12.02" y1="47.93" x2="22.49" y2="47.93"/><line class="cls-3" x1="48.8" y1="47.93" x2="59.83" y2="47.93"/></g></g></svg>