<svg xmlns="http://www.w3.org/2000/svg" viewBox="0 0 226.39 70.78"><defs><style>.cls-1{fill:#2de2e6;}.cls-2{fill:#0c0c0c;}.cls-3{fill:none;stroke:#ff0074;stroke-miterlimit:10;}</style></defs><title>Fichier 9</title><g id="Calque_2" data-name="Calque 2"><g id="Services"><g id="cadre_2" data-name="cadre 2"><rect class="cls-1" x="70.36" y="0.21" width="0.42" height="70.36"/><rect class="cls-1" x="35.18" y="0.21" width="0.42" height="70.36"/><rect class="cls-1" x="17.59" y="0.21" width="0.42" height="70.36"/><rect class="cls-1" y="0.21" width="0.42" height="70.36"/><rect class="cls-1" x="52.77" y="0.21" width="0.42" height="70.36"/><rect class="cls-1" x="0.21" width="226.17" height="0.42"/><rect class="cls-1" x="0.21" y="35.18" width="70.36" height="0.42"/><rect class="cls-1" x="0.21" y="52.77" width="70.36" height="0.42"/><rect class="cls-1" x="0.21" y="70.36" width="70.36" height="0.42"/><rect class="cls-1" x="0.21" y="17.59" width="70.36" height="0.42"/></g><path class="cls-2" d="M58.39,14V43.23a1.9,1.9,0,0,1-1.9,1.91H14.41a1.9,1.9,0,0,1-1.91-1.91V14a1.9,1.9,0,0,1,1.91-1.9H56.49A1.9,1.9,0,0,1,58.39,14ZM56,40.15V14.37H14.55V40.15Z"/><polygon class="cls-2" points="48.81 58.78 22.09 58.78 22.09 56.35 35.45 56.35 48.81 56.35 48.81 58.78"/><polygon class="cls-2" points="40.98 53.79 46.49 53.79 48.81 56.35 35.45 56.35 22.09 56.35 24.41 53.79 29.92 53.79 29.92 55.07 40.98 55.07 40.98 53.79"/><path class="cls-2" d="M44.82,22.79a10.46,10.46,0,0,1,1,4.47,10.34,10.34,0,0,1-1,4.48l-.16-.07h-3.1a15.33,15.33,0,0,0,0-8.8h3.13Z"/><path class="cls-2" d="M44.65,31.67l.16.07a10.39,10.39,0,0,1-9.19,5.9c2.63-.11,4.89-2.52,5.93-6Z"/><path class="cls-2" d="M41.52,22.87a15.33,15.33,0,0,1,0,8.8h-6.1v-8.8Z"/><path class="cls-2" d="M35.45,31.67h6.1c-1,3.45-3.3,5.86-5.93,6h-.17Z"/><path class="cls-2" d="M41.52,22.87H35.45V17C38.13,17,40.44,19.4,41.52,22.87Z"/><polygon class="cls-2" points="40.98 53.79 40.98 55.07 29.92 55.07 29.92 53.79 35.45 53.79 40.98 53.79"/><polygon class="cls-2" points="40.98 45.14 40.98 53.79 35.45 53.79 29.92 53.79 29.92 45.14 35.36 45.14 35.54 45.14 40.98 45.14"/><path class="cls-2" d="M35.45,17v-.1a10.38,10.38,0,0,1,9.37,5.9l-.17.08H41.52C40.44,19.4,38.13,17,35.45,17Z"/><path class="cls-2" d="M35.45,31.67v6h-.17c-2.64-.11-4.89-2.52-5.94-6Z"/><path class="cls-2" d="M35.45,22.87v8.8H29.34a15.56,15.56,0,0,1,0-8.8Z"/><path class="cls-2" d="M35.45,17v5.88H29.37C30.45,19.4,32.77,17,35.45,17Z"/><path class="cls-2" d="M35.45,37.64h.17a10.38,10.38,0,1,0-.34,0ZM56,14.37V40.15H14.55V14.37Z"/><path class="cls-2" d="M26,22.87a10.39,10.39,0,0,1,9.41-6V17c-2.68,0-5,2.41-6.08,5.88Z"/><path class="cls-2" d="M29.34,31.67c1.05,3.45,3.3,5.86,5.94,6a10.4,10.4,0,0,1-9.23-6Z"/><path class="cls-2" d="M26,22.87h3.33a15.56,15.56,0,0,0,0,8.8H26.05a10.42,10.42,0,0,1,0-8.8Z"/><polyline class="cls-3" points="22.09 56.35 22.09 58.78 48.81 58.78 48.81 56.35"/><polygon class="cls-3" points="48.81 56.35 46.49 53.79 40.98 53.79 35.45 53.79 29.92 53.79 24.41 53.79 22.09 56.35 35.45 56.35 48.81 56.35"/><path class="cls-3" d="M29.92,45.14H14.41a1.9,1.9,0,0,1-1.91-1.91V14a1.9,1.9,0,0,1,1.91-1.9H56.49a1.9,1.9,0,0,1,1.9,1.9V43.23a1.9,1.9,0,0,1-1.9,1.91H41"/><rect class="cls-3" x="14.55" y="14.37" width="41.44" height="25.78"/><path class="cls-3" d="M35.28,37.64a10.37,10.37,0,1,1,.34,0"/><path class="cls-3" d="M41.52,22.87a15.33,15.33,0,0,1,0,8.8c-1,3.45-3.3,5.86-5.93,6h-.34c-2.64-.11-4.89-2.52-5.94-6a15.56,15.56,0,0,1,0-8.8C30.45,19.4,32.77,17,35.45,17S40.44,19.4,41.52,22.87Z"/><polyline class="cls-3" points="35.45 16.99 35.45 22.87 35.45 31.67 35.45 37.64"/><polyline class="cls-3" points="26.04 22.87 29.37 22.87 35.45 22.87 41.52 22.87 44.65 22.87"/><polyline class="cls-3" points="26.04 31.67 26.05 31.67 29.34 31.67 35.45 31.67 41.55 31.67 44.65 31.67"/><polygon class="cls-3" points="29.92 53.79 29.92 55.07 40.98 55.07 40.98 53.79 40.98 45.14 35.54 45.14 35.36 45.14 29.92 45.14 29.92 53.79"/></g></g></svg>